<?xml version="1.0" encoding="utf-8" ?>
<svg xmlns="http://www.w3.org/2000/svg" xmlns:xlink="http://www.w3.org/1999/xlink" width="1024" height="1024">
	<path fill="#B8F1FF" transform="scale(1.6 1.6)" d="M355.932 129.273C353.355 126.521 335.855 115.124 352.726 111.623C361.153 112.842 368.981 120.65 368.635 129.397C368.115 142.496 359.209 147.073 350.791 154.966L350.499 155.244C345.066 182.383 335.628 172.524 320.962 182.69L320.607 182.941C319.262 190.973 319.704 199.583 319.705 207.718L381.507 207.708C393.189 207.715 405.335 208.396 416.966 207.28C411.734 192.198 414.686 190.397 421.009 175.537C403.393 166.444 399.705 143.772 417.075 133.467C440.677 119.465 472.123 155.998 434.608 177.185C432.573 183.248 429.135 188.641 427.341 194.829C440.553 227.192 408.889 221.048 387.382 221.045C364.897 221.043 342.251 220.465 319.786 221.206C319.623 226.635 319.713 232.09 319.699 237.523C339.852 237.757 360.029 237.558 380.184 237.553L396.809 237.553C400.661 237.558 404.674 237.404 408.494 237.944C418.521 239.36 417.597 254.182 427.045 255.26C441.851 256.951 452.035 239.707 460.338 241.07C463.701 241.622 466.514 245.409 465.729 248.796C464.666 253.38 458.126 256.757 454.381 259.061C432.53 272.505 419.399 274.711 405.234 251.091C380.068 248.424 345.892 250.862 319.795 250.467C319.449 268.315 319.558 286.287 319.787 304.137C328.861 303.597 338.073 303.89 347.165 303.89L395.021 303.904C403.972 303.909 412.993 304.14 421.937 303.801C443.45 302.984 437.344 303.131 449.195 290.487C460.141 278.81 475.226 278.652 489.979 278.107C494.344 271.928 499.386 267.202 507.483 266.912C537.211 265.846 532.177 305.071 505.55 303.554C496.195 303.022 493.755 298.06 488.289 292L488.062 291.752C465.186 289.92 465.298 294.53 452.74 307.211C440.449 319.623 409.202 317.119 392.155 317.117L319.718 317.183L319.73 329.661C326.895 329.285 334.107 329.451 341.28 329.448L412.332 329.448C446.065 329.451 449.266 326.853 476.43 347.535C483.622 343.944 490.615 342.465 498.508 344.926C529.556 354.608 515.619 400.819 484.242 390.176C473.717 385.568 464.018 372.058 469.76 360.498C449.266 343.09 450.56 342.234 420.505 342.22L348.648 342.221C339.003 342.221 329.333 342.08 319.694 342.394C319.692 352.121 319.635 361.853 319.803 371.579C341.547 371.307 363.32 371.541 385.067 371.541L406.249 371.515C427.252 371.328 425.101 370.218 429.147 389.987C431.473 401.352 441.921 402.794 450.087 408.253C470.425 421.849 455.543 452.298 445.388 443.918C436.476 436.564 447.883 432.392 447.13 425.514C445.773 413.122 419.52 419.975 414.973 384.896C411.733 384.486 408.187 384.781 404.91 384.795L320.071 384.809C319.981 387.171 319.997 389.501 320.08 391.863C364.481 404.329 344.774 472.826 324.297 499.563C305.161 524.548 275.393 538.839 248.003 552.678C225.651 563.97 190.227 584.261 169.421 558.658C160.871 548.137 161.448 534.45 162.823 521.735C154.333 509.224 156.914 501.151 152.473 489.19C138.776 482.208 132.939 473.655 134.044 457.35C135.467 436.346 130.621 441.116 114.868 428.544C74.7636 396.537 151.663 354.986 149.517 324.016C149.202 319.463 147.779 315.037 147.299 310.497C144.55 284.539 176.493 221.754 193.341 201.191C217.433 171.787 258.114 154.24 293.963 144.773C299.158 143.401 305.562 140.538 310.803 140.134C323.687 139.142 318.924 160.186 319.223 167.63C338.379 164.658 333.308 160.578 339.39 148.214C343.465 139.93 353.695 138.439 355.932 129.273ZM426.748 143.811C414.041 147.47 417.838 165.076 430.231 163.108C442.096 159.226 439.989 143.051 426.748 143.811ZM303.725 157.592C267.724 164.663 220.009 187.605 199.666 217.783C186.274 237.649 167.882 274.001 163.259 297.283C158.253 322.494 174.034 325.781 154.991 352.937C146.267 365.379 116.917 395.907 119.236 408.477C121.967 423.276 151.24 427.773 150.834 447.951C150.671 456.083 144.969 466.068 154.085 471.832C159.025 474.955 164.762 474.593 168.852 479.352C168.851 482.788 168.901 486.185 169.133 489.615C173.767 489.824 179.992 489.441 183.386 493.166C190.54 501.019 180.074 506.525 171.408 505.89L175.215 513.067C179.842 522.637 179.082 523.473 177.491 533.435C176.004 542.743 179.199 551.375 188.619 554.701C200.756 558.986 212.96 552.735 223.726 547.656L239.498 540.135C265.213 527.592 295.429 513.141 313.044 489.802C326.57 471.882 339.506 437.099 329.11 415.994C322.978 403.544 309.039 406.437 306.096 397.831C304.573 393.376 305.376 342.235 305.376 334.062L305.372 169.055C305.372 167.03 305.95 158.514 304.706 157.49L303.725 157.592ZM507.715 279.79C503.547 280.469 502.628 281.711 501.718 285.624C502.96 290.038 504.685 290.295 508.971 290.361C515.9 288.331 515.955 279.959 507.715 279.79ZM490.939 357.308C476.228 359.24 478.814 377.831 492.418 378.703C506.558 376.942 505.568 358.185 490.939 357.308Z"/>
	<path fill="#B8F1FF" transform="scale(1.6 1.6)" d="M481.953 237.15C450.639 240.241 444.977 194.934 476.818 191.05C507.816 189.056 513.502 232.19 481.953 237.15ZM477.408 204.113C463.608 208.293 467.289 226.291 481.171 224.019C493.415 219.925 491.291 203.189 477.408 204.113Z"/>
	<path fill="#B8F1FF" transform="scale(1.6 1.6)" d="M397.18 467.544C366.873 469.778 361.108 425.077 393.3 421.682C421.047 418.316 428.832 463.307 397.18 467.544ZM392.724 434.771C380.091 437.573 382.428 456.504 397.183 454.899C409.061 450.111 406.561 434.156 392.724 434.771Z"/>
</svg>
