<?xml version="1.0" encoding="utf-8" ?>
<svg xmlns="http://www.w3.org/2000/svg" xmlns:xlink="http://www.w3.org/1999/xlink" width="1024" height="1024">
	<path fill="hsl(192, 100%, 86%)" transform="matrix(1.6 0 0 1.6 -0.000488281 0)" d="M314.045 307.664C304.714 298.825 294.62 290.976 282.292 286.804C270.798 282.915 268.951 283.335 258.1 287.699C250.76 290.651 231.329 300.015 224.128 293.039C216.316 285.473 230.301 266.804 227.719 257.995C226.52 253.906 220.861 248.234 218.289 244.531C189.923 203.689 192.904 150.66 227.318 114.064C250.542 89.3654 284.982 77.4243 318.304 76.3921C372.421 74.6354 427.453 108.157 439.149 163.309C451.744 222.7 412.811 268.434 357.87 284.923C350.905 287.013 343.811 288.396 336.704 289.898C336.089 298.689 336.167 314.49 326.202 317.367C321.204 315.667 317.686 311.302 314.045 307.664ZM317.58 89.5148C287.825 90.481 257.262 101.025 236.56 123.147C206.812 154.937 203.997 200.695 228.571 236.26C246.059 261.57 242.592 250.191 236.285 281.559C245.465 279.209 259.357 271.462 266.966 270.989C282.971 269.994 303.267 280.872 314.855 290.718C317.785 293.115 320.774 295.49 323.349 298.276C325.251 278.807 323.103 278.838 341.4 275.45C371.469 269.881 400.415 254.189 416.578 227.535C434.985 197.18 431.337 157.604 409.486 129.877C388.308 103.006 351.661 87.8151 317.58 89.5148Z"/>
	<path fill="hsl(192, 100%, 86%)" transform="matrix(1.6 0 0 1.6 -0.000488281 0)" d="M325.377 181.207C288.849 186.152 272.182 110.899 316.371 104.791C368.24 100.639 355.05 174.341 325.377 181.207ZM319.941 117.637C290.897 119.587 304.265 169.485 322.475 167.488C338.842 162.489 349.915 117.699 319.941 117.637Z"/>
	<path fill="hsl(192, 100%, 86%)" transform="matrix(1.6 0 0 1.6 -0.000488281 0)" d="M360.374 186.586C370.607 193 380.721 203.181 382.575 215.555C385.158 232.803 352.871 237.643 340.798 239.26C326.24 241.21 259.841 240.24 257.56 219.115C255.583 200.806 284.906 178.34 300.714 176.995C306.633 177.258 305.293 184.389 304.999 188.672C291.503 193.725 274.785 201.284 270.94 216.673C290.652 231.157 350.709 228.853 369.677 217.394C361.237 192.734 336.512 194.034 334.309 186.3C329.192 168.329 355.845 183.926 360.374 186.586Z"/>
	<path fill="hsl(192, 100%, 86%)" transform="matrix(1.6 0 0 1.6 -0.000488281 0)" d="M477.525 431.29L477.142 431.327C437.386 434.906 415.539 338.653 473.024 334.821C481.374 334.259 490.427 336.631 497.351 341.36C525.501 360.588 507.821 425.822 477.525 431.29ZM472.449 348.237C432.874 353.656 455.375 423.423 477.481 417.644C499.294 407.757 513.755 343.852 472.449 348.237Z"/>
	<path fill="hsl(192, 100%, 86%)" transform="matrix(1.6 0 0 1.6 -0.000488281 0)" d="M168.727 431.799C143.621 435.655 130.966 399.416 129.306 379.996C127.23 355.723 138.687 336.993 163.929 335.128C221.091 331.777 208.022 422.921 168.727 431.799ZM162.421 348.223C125.244 354.053 146.674 426.289 169.854 417.333C192.985 404.953 202.532 343.824 162.421 348.223Z"/>
	<path fill="hsl(192, 100%, 86%)" transform="matrix(1.6 0 0 1.6 -0.000488281 0)" d="M324.694 432.764L324.284 432.828C287.482 438.217 273.688 372.208 291.373 348.832C297.687 340.487 306.762 336.859 316.849 335.424C325.07 334.629 333.256 336.227 340.436 340.376C372.355 358.823 354.228 425.28 324.694 432.764ZM317.977 348.553C278.948 352.793 299.863 426.163 323.698 419.178C344.664 409.393 359.765 345.395 317.977 348.553Z"/>
	<path fill="hsl(192, 100%, 86%)" transform="matrix(1.6 0 0 1.6 -0.000488281 0)" d="M241.681 509.857C237.109 511.16 232.733 513.393 228.263 515.046C193.975 527.727 141.098 527.694 107.365 517.039C87.7203 510.835 76.1234 502.074 90.2566 482.504C99.8717 469.19 121.718 451.9 138.85 449.136C143.551 449.62 146.78 454.229 145.002 458.875C143.529 462.722 133.394 464.768 129.585 466.525C122.881 469.618 93.0077 490.869 98.1723 498.996C102.435 505.703 141.694 510.467 148.977 510.929C170.491 512.297 213.589 510 232.498 499.249C231.087 485.966 214.309 472.876 203.234 467.406C199.799 465.709 177.799 459.153 189.812 450.844C194.143 447.849 201.227 451.864 205.269 453.725C220.859 460.904 233.696 472.202 243.054 486.555C251.185 475.372 281.641 448.56 295.14 451.388C298.911 452.177 301.01 456.695 299.96 460.247C298.095 466.557 260.152 471.146 252.466 500.781C260.649 508.83 293.803 513.139 305.438 513.751C327.344 514.904 369.93 512.685 388.828 500.836C384.152 485.896 367.815 473.579 354.12 467.327C350.301 465.583 334.559 461.683 343.851 453.275C354.856 443.317 388.227 475.212 397.254 485.63C405.156 473.535 434.759 446.315 449.621 449.652C453.321 450.482 454.577 454.823 453.51 458.144C451.932 463.053 441.182 465.093 436.437 467.574C426.683 472.089 411.985 483.405 408.719 494.007C406.342 501.723 419.396 503.036 424.32 504.274C454.817 511.942 515.128 515.52 543.956 498.299C533.447 469.935 500.233 464.582 497.144 459.875C495.059 456.699 496.315 451.689 499.527 449.738C508.394 444.348 563.174 479.648 556.404 501.033C552.965 511.898 538.052 515.399 528.422 517.954C481.346 530.445 443.572 524.116 399.286 509.608C356.439 534.574 283.936 532.983 241.681 509.857Z"/>
</svg>
