<?xml version="1.0" encoding="utf-8" ?>
<svg xmlns="http://www.w3.org/2000/svg" xmlns:xlink="http://www.w3.org/1999/xlink" width="1024" height="1024">
	<path fill="hsl(192, 100%, 86%)" transform="scale(1.6 1.6)" d="M167.476 203.702C162.285 131.964 186.091 87.974 261.606 86.0865L264.339 86.1025C290.606 86.3336 323.085 92.6773 342.034 112.148C366.114 136.891 362.709 171.937 362.163 203.484C382.396 205.668 379.871 228.052 374.888 242.466C369.293 258.651 363.392 266.408 348.64 273.562C345.642 278.244 343.276 283.327 340.244 288.02C326.965 308.576 325.725 300.584 324.358 326.674C332.434 332.184 352.787 343.051 361.674 345.456C364.853 346.316 383.506 349.016 385.81 348.742C403.231 346.669 403.054 337.067 410.712 327.503C421.333 314.238 444.248 315.273 453.907 329.152C468.942 350.755 467.762 348.091 493.826 345.369C509.545 343.727 524.255 358.436 521.633 374.21C519.272 388.419 517.755 400.145 532.85 409.061C535.895 410.859 539.242 412.142 541.996 414.405C554.617 424.776 551.575 448.256 538.4 456.753C514.294 472.3 521.021 470.957 523.315 497.506C524.736 513.956 508.766 526.632 492.832 522.567C488.084 521.356 483.884 519.406 478.852 519.821C460.258 521.355 461.286 533.139 453.324 542.511C442.766 554.939 419.781 554.352 411.156 539.95C408.541 535.584 406.894 531.105 402.904 527.723C388.697 515.68 382.587 523.52 369.696 524.559C352.299 525.962 339.085 509.948 342.546 493.059C347.795 467.446 343.003 471.134 325.22 455.874C312.882 444.92 312.821 422.447 327.875 413.671C338.631 407.401 349.207 399.694 345.012 384.385C341.465 371.44 339.081 367.791 349.162 355.622L318.158 338.621C312.881 354.07 284.936 383.948 270.905 387.877C252.725 381.415 233.09 356.032 221.253 339.935C202.263 349.74 188.579 358.417 166.925 364.722C133.479 374.46 115.647 384.985 106.134 422.703C104.993 427.226 105.02 438.704 100.704 441.35C97.6552 443.22 93.068 442.65 91.3361 439.301C88.544 433.901 93.5942 418.03 95.6106 412.078C113.065 360.562 137.917 362.758 177.949 347.033C191.16 341.844 203.13 334.156 215.825 327.917C212.036 306.075 212.655 312.454 200.265 296.575C195.01 289.84 191.423 282.364 186.54 275.5C156.519 269.446 136.422 206.663 167.476 203.702ZM259.873 99.2003C238.543 100.221 215.743 103.272 200.548 119.986C180.757 141.755 173.613 185.614 184.364 213.715C185.869 217.651 188.537 221.901 189.16 226.07C190.131 232.576 182.611 236.124 178.262 231.45C174.614 227.529 173.191 218.198 168.792 215.8C160.049 215.775 168.028 255.536 187.353 262.352C203.824 268.161 196.081 267.35 206.385 282.391C220.278 302.669 242.303 319.193 267.78 318.812C297.526 317.992 320.489 298.167 333.658 272.798C335.221 269.786 336.27 265.88 338.336 263.237C342.024 258.519 347.899 264.095 355.759 251.87C358.886 247.007 373.709 212.951 359.8 217.271C355.036 218.751 355.196 237.996 345.478 232.792C336.921 228.209 346.447 212.455 347.786 205.962C353.839 176.6 350.372 130.444 322.801 113.532C306.604 103.596 278.911 98.2487 259.873 99.2003ZM310.877 318.43C288.598 336.477 252.033 335.981 228.252 320.527C230.906 331.019 236.758 339.314 243.442 347.609C251.712 357.057 260.652 365.66 270.956 372.878C285.674 362.951 310.784 338.427 311.108 318.71L310.877 318.43ZM429.309 331.644C420.339 333.468 419.658 338.659 415.17 345.225C393.845 376.417 368.679 348.676 356.877 367.149C353.36 372.654 357.519 378.387 358.634 383.925C360.84 394.888 354.134 412.796 344.665 419.653C338.679 423.989 330.408 424.722 329.827 433.704C328.688 451.321 350.288 450.021 356.557 471.027C361.107 486.274 351.504 498.066 357.354 505.694C368.937 520.797 390.875 493.788 415.681 521.743C423.431 530.476 422.199 538.745 436.466 537.816C444.126 535.887 445.212 529.795 448.83 523.889C466.703 494.716 495.111 514.576 504.612 508.819C514.687 502.715 507.492 490.132 507.247 481.046C506.425 450.57 533.971 451.332 536.323 436.611C538.287 424.317 531.009 423.729 522.426 418.41C511.725 411.779 505.82 395.932 506.722 383.604C507.395 374.418 512.078 365.696 501.705 359.909C492.148 354.576 469.894 371.295 450.566 348.303C443.072 339.39 443.198 330.601 429.309 331.644Z"/>
	<path fill="hsl(192, 100%, 86%)" transform="scale(1.6 1.6)" d="M222.894 185.374C217.787 186.374 200.572 199.045 199.486 187.26C198.363 175.081 218.955 171.911 227.427 171.38C234.15 171.107 260.767 175.7 252.365 186.397C248.42 191.419 233.69 183.889 222.894 185.374Z"/>
	<path fill="hsl(192, 100%, 86%)" transform="scale(1.6 1.6)" d="M315.046 185.786C302.928 182.042 290.286 191.118 285.436 187.314C272.879 177.465 297.013 171.866 303.989 171.377C313.305 171.179 328.801 173.296 333.613 182.486C335.174 185.467 334.654 189.525 331.263 190.902C325.72 193.152 320.006 187.755 315.046 185.786Z"/>
	<path fill="hsl(192, 100%, 86%)" transform="scale(1.6 1.6)" d="M220.952 218.579C206.495 214.323 217.574 201.565 230.431 199.786C248.494 198.497 258.5 213.212 243.635 217.395C240.341 216.265 237.571 214.205 234.123 213.413C228.774 213.304 226.917 217.345 220.952 218.579Z"/>
	<path fill="hsl(192, 100%, 86%)" transform="scale(1.6 1.6)" d="M302.721 212.754C299.443 213.848 296.546 216.165 293.138 216.865C281.129 219.331 280.856 202.28 297.153 199.786C328.38 196.735 324.602 227.086 306.762 214.745C305.422 213.911 304.194 213.32 302.721 212.754Z"/>
	<path fill="hsl(192, 100%, 86%)" transform="scale(1.6 1.6)" d="M270.713 254.242C260.134 256.137 255.521 244.03 266.069 240.34C276.805 239.503 280.862 250.044 270.713 254.242Z"/>
	<path fill="hsl(192, 100%, 86%)" transform="scale(1.6 1.6)" d="M286.193 285.801C276.558 289.779 245.609 291.073 242.542 279.072C241.411 274.648 244.173 272.19 248.297 271.342C257.568 271.169 262.322 276.711 276.874 274.332C282.152 273.469 295.542 268.946 292.021 280.314C291.18 283.032 288.545 284.543 286.193 285.801Z"/>
	<path fill="hsl(192, 100%, 86%)" transform="scale(1.6 1.6)" d="M433.859 496.739C400.429 498.621 373.581 470.707 370.667 438.56C367.431 402.864 396.585 374.583 431.296 371.691C446.453 370.155 462.923 377.471 474.027 387.466C516.167 425.397 492.116 494.067 433.859 496.739ZM431.143 384.82C365.888 389.09 369.792 486.026 435.996 483.763C502.645 476.815 492.114 381.764 431.143 384.82Z"/>
</svg>
