<?xml version="1.0" encoding="utf-8" ?>
<svg xmlns="http://www.w3.org/2000/svg" xmlns:xlink="http://www.w3.org/1999/xlink" width="1024" height="1024">
	<path fill="#20154c" transform="scale(1.6 1.6)" d="M324.735 553.419C306.351 555.907 290.925 540.684 289.081 522.89C288.022 512.676 289.531 499.44 279.832 492.709C273.357 488.215 260.895 488.142 252.518 484.736C244.665 481.545 236.441 474.31 230.181 472.43C214.39 467.687 202.191 489.625 184.735 492.749C168.956 495.574 153.984 487.425 148.461 472.277C138.517 445.001 169.65 433.734 165.808 412.969C164.035 403.384 151.348 391.982 147.905 374.836C142.983 350.316 141.036 354.494 117.463 348.897C96.9746 344.032 79.7529 323.844 90.86 303.107C103.045 280.357 131.089 289.686 141.539 278.154C148.256 270.742 148.044 259.489 151.508 250.446C154.195 243.43 158.166 237.847 162.478 231.812C175.494 213.593 149.663 199.839 146.628 180.882C143.898 163.828 156.399 147.495 173.335 144.944C200.177 140.901 209.355 170.561 228.115 167.39C236.56 165.962 247.134 153.936 264.061 150.658C280.647 147.445 286.294 146.323 287.452 126.734C288.59 107.488 295.426 86.8427 317.082 83.5267C337.981 81.174 349.741 98.3571 351.903 117.304C352.469 122.271 352.545 127.352 353.61 132.247C358.83 156.236 381.747 146.147 399.645 159.388C419.625 174.169 421.635 167.64 439.04 154.252C459.755 138.318 488.526 142.574 493.865 168.993C497.574 187.345 488.639 193.958 479.591 207.785C468.008 225.486 481.078 232.204 488.034 246.831C491.518 254.156 492.509 261.372 494.221 269.164C498.683 289.462 523.215 281.265 539.371 291.843C553.234 300.92 558.023 318.514 548.621 332.668C539.82 345.918 523.214 349.025 508.706 352C491.573 355.513 494.704 373.366 489.88 386.28C486.993 394.006 482.109 399.718 477.707 406.473C466.873 423.1 490.464 438.899 493.78 455.472C497.221 472.671 486.386 489.345 469.061 492.685C449.48 496.461 442.515 485.332 428.239 475.73C415.953 467.467 410.31 472.566 399.656 479.462C389.969 485.731 379.728 487.511 368.58 489.739C339.645 495.52 366.668 545.521 324.735 553.419ZM318.958 95.3905C291.468 100.221 307.243 135.151 290.455 152.558C280.394 162.99 267.214 160.182 255.246 165.747C249.892 168.237 245.511 172.125 240.476 175.106C209.347 193.54 196.641 152.736 174.705 156.544C163.905 158.419 156.61 169.028 158.73 179.751C161.37 193.099 176.236 201.284 177.792 219.459C179.106 234.813 166.435 243.523 161.637 256.947C159.748 262.231 159.303 267.8 157.915 273.199C149.694 305.184 114.101 289.896 102.418 307.074C96.4656 315.826 100.578 327.348 108.941 332.876C124.48 343.149 151.394 333.213 158.092 364.599C162.538 385.432 162.304 382.411 172.851 399.357C191.702 429.646 154.886 444.751 158.866 465.455C161.076 476.947 171.895 483.456 183.08 480.941C200.035 477.127 214.433 448.202 239.443 463.645C258.008 475.109 255.343 472.823 275.203 477.504C316.521 487.243 286.432 542.948 322.338 541.942C352.698 536.173 327.198 485.959 366.25 477.928C388.009 473.453 383.258 475.385 401.855 463.814C429.774 446.443 444.145 485.399 466.432 480.999C476.87 478.939 484.529 468.826 482.256 458.197C478.532 440.785 451.75 425.662 467.768 400.127C480.541 379.765 477.257 384.557 483.21 362.081C491.579 330.481 525.765 346.243 538.84 325.703C544.425 316.93 540.218 306.215 531.682 301.255C518.41 293.542 503.574 300.42 489.887 285.533C479.952 274.728 483.095 263.907 477.495 251.764C475.066 246.496 471.102 242.213 467.889 237.445C449.45 210.085 487.578 191.4 482.278 171.269C479.443 160.499 468.724 154.074 458.064 157.363C441.487 162.476 438.004 178.497 417.226 179.231C401.656 179.781 398.071 170.105 385.471 165.175C379.304 162.762 373.016 162.387 366.617 161.081C329.299 153.461 349.895 109.228 328.896 97.5002C326.016 95.8921 322.261 95.0512 318.958 95.3905Z"/>
	<path fill="#20154c" transform="scale(1.6 1.6)" d="M246.253 250.526C249.861 247.536 262.036 234.93 265.747 245.482C267.85 251.464 259.283 255.455 255.629 258.45C196.004 307.322 229.222 400.45 303.632 411.852C318.676 414.157 341.799 413.173 356.103 408.122C399.912 392.656 427.344 340.549 411.379 296.108C398.761 260.985 364.219 239.744 327.706 237.951C324.429 237.791 317.681 238.557 314.981 237.178C307.699 233.457 311.545 227.023 317.678 225.389C346.22 223.191 384.41 238.307 403.492 259.72C440.326 301.054 433.275 364.592 392.359 400.518C349.542 438.114 276.036 432.307 238.428 389.23C202.973 348.621 205.045 286.401 246.253 250.526Z"/>
	<path fill="#20154c" transform="scale(1.6 1.6)" d="M323.802 375.039C295.8 377.407 275.93 351.793 281.886 324.674C284.481 312.859 289.628 301.383 293.492 289.923C298.018 276.5 302.629 244.403 318.591 242.604C336.585 241.514 341.108 268.945 345.775 282.331C349.962 294.34 358.838 316.434 360.21 328.517C362.881 352.053 347.39 372.429 323.802 375.039ZM318.2 255.331C313.626 262.063 308.632 282.112 305.649 290.87C298.67 311.363 281.607 342.63 305.434 358.792C310.935 362.523 316.621 363.875 323.201 363.356C340.685 360.199 351.236 344.562 347.877 327.206C345.517 315.015 339.217 299.759 335.029 287.841C332.418 280.406 327.171 254.385 318.2 255.331Z"/>
</svg>
