<?xml version="1.0" encoding="utf-8" ?>
<svg xmlns="http://www.w3.org/2000/svg" xmlns:xlink="http://www.w3.org/1999/xlink" width="396" height="396">
	<path fill="hsl(192, 100%, 86%)" transform="scale(0.61875 0.61875)" d="M368.718 414.046C387.809 413.462 384.436 426.622 372.531 425.862L372.721 425.379C375.778 424.917 382.818 422.411 381.198 418.039C379.664 413.898 371.977 416.067 368.718 414.046Z"/>
	<path fill="hsl(192, 100%, 86%)" transform="scale(0.61875 0.61875)" d="M496.546 192.819C496.007 185.939 492.897 180.271 485.835 178.064C476.608 175.181 422.695 183.781 435.554 168.038C438.319 164.653 480.307 164.711 486.384 166.061C497.076 168.437 506.423 178.783 507.578 189.605C505.951 196.247 509.59 207.511 502.863 211.914C493.185 218.247 497.955 195.327 496.546 192.819Z"/>
	<path fill="hsl(192, 100%, 86%)" transform="scale(0.61875 0.61875)" d="M507.578 189.605C507.999 192.506 507.719 195.636 507.676 198.564L507.555 259.521C507.555 268.818 507.14 278.341 507.865 287.604C512.286 281.432 519.1 270.363 525.512 266.754C528.825 267.78 530.636 269.467 532.797 272.066C529.618 280.167 523.138 287.102 518.162 294.189C513.657 300.605 505.245 318.611 496.011 307.621C494.241 305.515 471.932 274.159 471.371 272.602C470.38 269.852 474.748 266.221 477.033 265.865C481.447 265.175 492.333 283.306 496.06 287.486C496.587 278.607 496.344 269.638 496.345 260.743L496.342 217.965C496.336 209.941 495.695 200.673 496.546 192.819C497.955 195.327 493.185 218.247 502.863 211.914C509.59 207.511 505.951 196.247 507.578 189.605Z"/>
	<path fill="hsl(192, 100%, 86%)" transform="scale(0.61875 0.61875)" d="M158.68 165.792L159.015 165.772C167.733 165.293 176.688 165.756 185.428 165.764C191.381 165.77 207.352 162.662 207.305 172.25C207.271 179.047 196.414 177.365 192.132 177.344L172.347 177.319C137.258 177.263 137.567 182.94 137.56 218.059L137.572 264.679L137.558 286.032C137.557 289.648 137.858 293.5 137.437 297.084C136.904 301.623 131.117 304.456 127.498 301.183C124.429 298.408 126.172 282.855 126.175 278.694L126.169 208.256C126.153 184.059 130.517 166.971 158.68 165.792Z"/>
	<path fill="hsl(192, 100%, 86%)" transform="scale(0.61875 0.61875)" d="M319.879 304.97C323.855 306.686 326.687 309.836 329.642 312.897L341.369 325.273C344.228 328.256 354.933 336.488 349.456 341.064C340.878 348.23 329.831 330.288 325.438 324.771C326.288 354.193 324.492 385.033 326.155 414.05C339.503 414.769 355.391 414.676 368.718 414.046C371.977 416.067 379.664 413.898 381.198 418.039C382.818 422.411 375.778 424.917 372.721 425.379L372.531 425.862C364.529 426.148 356.473 425.955 348.463 425.952L278.309 425.965C273.752 425.998 258.57 428.333 257.943 421.273C257.097 411.741 272.901 414.298 278.268 414.366C289.655 414.512 302.104 414.942 313.439 414.336C314.179 385.168 314.474 355.849 313.45 326.688C309.125 331.409 299.739 344.431 292.008 342.454C277.593 338.767 316.467 306.422 319.879 304.97Z"/>
	<path fill="hsl(192, 100%, 86%)" transform="scale(0.61875 0.61875)" d="M153.589 412.687L153.272 412.24C150.358 408.153 146.782 404.6 143.881 400.496C103.836 343.872 170.309 296.018 200.728 339.157C216.12 360.986 205.139 393.301 186.649 410.081C204.022 435.215 251.097 434.593 258.194 464.997C260.797 476.148 259.539 510.262 259.288 523.331L258.985 523.314C257.676 522.218 259.322 496.601 258.905 492.487C258.323 496.722 256.523 521.241 254.61 521.933C250.889 523.279 254.717 526.678 247.043 525.733C247.051 523.316 246.985 520.73 246.521 518.355C244.93 503.482 249.952 484.082 246.742 468.883C242.392 448.286 206.173 440.962 190.626 430.902C188.951 438.967 180.896 446.431 176.64 453.488C176.798 461.396 178.244 490.213 175.881 495.332C173.745 497.019 171.849 497.787 169.234 498.47L166.49 497.064C163.531 492.875 164.351 487.242 164.38 482.414L164.472 464.726C164.53 449.182 159.015 444.522 148.625 432.172C140.052 435.531 131.514 440.554 123.381 444.853C112.252 450.736 99.5305 454.607 95.9161 468.077C93.6078 476.679 94.8695 495.335 94.6881 505.161L94.2421 507.147C93.3927 501.817 93.1807 510.325 92.4679 511.364C90.045 514.899 85.6762 517.526 82.9665 521.031C82.9786 515.922 82.8502 511.004 82.2437 505.921L82.2769 486.066C82.2731 471.482 82.4893 460.766 93.5495 449.781C109.926 433.517 141.202 428.357 153.589 412.687ZM169.329 334.806C129.23 339.373 141.064 402.017 170.839 401.542C203.961 398.187 204.393 331.303 169.329 334.806ZM162.717 414.356C162.035 418.058 161.09 421.611 162.038 425.359C167.259 425.144 172.614 425.168 177.807 424.608C181.555 422.215 178.813 418.221 177.221 415.109C172.665 414.128 167.389 414.443 162.717 414.356ZM168.679 434.7C163.232 436.603 170.648 442.432 171.322 442.048C174.869 436.702 175.548 434.574 168.679 434.7Z"/>
	<path fill="hsl(192, 100%, 86%)" transform="scale(0.61875 0.61875)" d="M217.832 525.307C217.426 516.82 216.518 497.068 217.509 488.75C218.047 484.238 223.3 480.205 227.283 483.96C231.334 487.777 229.755 518.007 230.19 524.64C235.567 525.011 240.991 525.367 246.35 525.933C246.369 523.438 246.232 520.831 246.521 518.355C246.985 520.73 247.051 523.316 247.043 525.733C254.717 526.678 250.889 523.279 254.61 521.933C256.523 521.241 258.323 496.722 258.905 492.487C259.322 496.601 257.676 522.218 258.985 523.314L259.288 523.331C259.548 533.479 259.686 537.351 248.519 537.525C215.357 538.043 182.106 537.533 148.935 537.532L109.338 537.54C75.9133 537.582 82.4809 541.164 82.2437 505.921C82.8502 511.004 82.9786 515.922 82.9665 521.031C85.6762 517.526 90.045 514.899 92.4679 511.364C93.1807 510.325 93.3927 501.817 94.2421 507.147L94.6881 505.161C94.7352 512.022 94.3032 519.109 95.0427 525.925C100.036 526.089 105.087 526.344 110.078 526.014C109.762 518.835 109.953 511.622 109.96 504.437C109.966 498.1 107.874 487.737 113.754 483.477C118.757 483.298 120.96 484.157 121.626 489.366C122.905 499.364 122.04 514.568 122.579 525.434C130.628 525.681 138.548 525.485 146.59 525.462L176.843 525.472C190.491 525.413 204.194 525.786 217.832 525.307Z"/>
	<path fill="hsl(192, 100%, 86%)" transform="scale(0.61875 0.61875)" d="M406.586 422.121C405.902 410.888 405.776 394.944 408.014 384.153C413.328 358.535 437.235 333.594 465.28 339.664C498.1 346.767 511.913 390.644 505.212 420.69C510.556 425.742 516.984 429.338 522.064 434.758C535.639 449.242 535.258 472.161 534.713 490.987C534.994 498.032 536.017 534.171 532.858 537.716C531.464 539.28 528.381 539.011 526.437 539.004L393.978 538.912C389.141 538.918 383.744 539.497 378.995 538.603C372.558 533.871 375.015 509.343 375.02 500.493C374.962 469.41 371.161 435.01 406.586 422.121ZM479.54 432.261C468.66 453.788 445.134 452.165 431.614 433.338C399.124 433.96 387.49 439.003 387.449 473.491L387.421 489.485C387.506 501.823 387.043 514.272 387.506 526.593C392.548 526.685 397.57 527.178 402.607 527.395L402.504 494.271C402.504 488.383 400.473 475.999 405.155 471.396C409.576 467.049 414.029 471.488 414.625 476.215C416.429 490.515 414.102 511.14 415.086 526.867C440.723 525.63 469.436 526.318 495.208 526.632C495.415 514.159 495.15 501.682 495.402 489.21C495.562 481.316 493 472.846 501.583 470.215C505.492 471.425 507.261 472.711 507.526 476.866C508.55 492.864 507.133 510.185 507.82 526.601C512.481 526.721 517.336 527.175 521.964 526.587C522.664 515.889 522.181 505.285 522.545 494.597C522.033 476.917 525.936 457.494 513.751 442.819C503.763 430.79 493.678 433.658 479.932 432.303L479.54 432.261ZM455.803 350.761C426.969 352.989 419.919 380.134 418.423 404.217C418.1 409.42 417.188 414.839 418.228 420.012C421.819 421.779 425.529 421.746 429.42 421.272C430.009 418.823 430.498 416.282 431.325 413.903C424.743 407.599 424.121 396.242 423.984 387.643C423.752 373.085 440.521 375.208 449.545 369.091C454.861 365.488 455.106 358.836 461.52 355.387C469.935 354.037 468.668 362.074 471.96 367.164C473.682 369.828 476.166 372.003 478.368 374.262C509.052 405.738 454.333 420.71 492.676 421.577L493.928 406.411C495.364 389.254 492.256 377.843 480.757 364.045C473.973 355.905 466.818 350.051 455.803 350.761ZM464.155 376.227C452.842 383.184 446.067 383.379 434.697 388.025C435.199 394.015 436.155 400.124 440.795 404.406C443.499 405.09 446.218 405.52 448.985 405.86C461.964 406.751 472.25 410.678 476.335 393.886C475.067 388.919 469.198 378.066 464.155 376.227ZM441.296 416.054C441.188 421.51 440.795 427.126 444.84 431.447C450.18 437.151 458.584 437.18 464.373 432.32C467.907 427.848 467.776 424.487 467.452 419.07C453.713 419.658 452.594 417.714 441.296 416.054Z"/>
	<path fill="hsl(192, 100%, 86%)" transform="scale(0.61875 0.61875)" d="M300.579 67.2992C307.784 66.687 315.422 67.1805 322.678 67.1884C352.922 67.221 349.258 68.2699 352.547 97.1413C358.341 99.9143 363.847 102.794 369.308 106.18C378.744 101.646 394.345 91.25 403.309 101.705C408.774 108.078 421.185 131.095 424.995 139.229C430.53 151.045 416.587 158.997 407.288 162.904C408.694 168.808 409.196 175.496 407.379 181.364C419.301 190.498 431.766 195.05 424.138 211.558C421.559 217.139 418.375 222.476 415.539 227.932C403.732 250.639 400.898 255.81 374.232 243.122C367.273 248.419 360.546 252.644 352.432 256.001C352.207 266.034 352.979 284.26 340.647 287.487C332.408 288.538 305.56 289.253 299.354 287.834C285.972 284.775 287.266 268.243 287.189 257.513C281.605 253.457 271.817 248.531 265.083 244.135C232.225 256.066 235.12 249.843 221.245 221.936C208.878 197.063 207.952 199.423 232.564 181.923C231.74 175.424 231.559 169.037 232.73 162.566C210.884 148.145 210.494 148.512 222.079 127.349C236.059 101.811 240.08 87.0109 269.383 106.011C275.47 102.973 281.603 99.3612 287.465 95.8959C288.156 84.7056 286.074 69.8576 300.579 67.2992ZM308.677 79.2043C294.241 80.0652 300.776 89.4325 297.149 103.803C293.298 107.485 274.708 116.754 269.348 117.934C261.896 115.931 255.221 111.381 247.942 108.689C240.641 116.714 231.519 133.604 225.837 143.533C230.615 147.57 241.207 153.314 244.063 157.953C242.953 168.797 243.101 177.153 244.12 188.012C237.927 193.397 230.183 197.196 223.632 202.269C230.906 213.907 236.337 229.369 243.776 239.822C250.888 236.777 261.309 229.293 268.758 232.499C272.527 234.12 276.142 238.043 279.821 240.236C285.039 243.347 294.733 245.155 296.941 251.551C298.624 256.424 297.336 273.328 301.121 275.7C303.755 277.351 327.264 276.544 331.328 276.394C333.762 276.269 336.205 276.184 338.621 275.852C341.945 267.182 340.07 258.039 342.689 249.548C343.978 248.323 371.779 231.232 373.163 231.276C378.426 231.443 394.283 240.989 396.912 238.406C398.425 236.919 414.489 205.765 416.241 202.088C411.068 198.007 399.548 191.676 396.624 188.127C396.358 184.184 395.614 158.336 397.429 156.183C401.294 151.597 409.629 148.092 414.712 144.366C408.571 132.802 401.208 119.964 394.596 108.495C386.105 111.39 376.716 117.037 368.744 118.883C364.204 117.36 344.088 106.189 342.082 102.415C340.926 100.239 340.304 84.2413 339.501 79.9021C331.351 78.496 317.249 78.835 308.677 79.2043Z"/>
	<path fill="hsl(192, 100%, 86%)" transform="scale(0.61875 0.61875)" d="M317.916 125.451C345.215 125.367 370.808 146.284 371.559 174.485C372.338 203.727 351.333 228.479 321.398 229.168C308.435 229 295.637 225.895 285.558 217.254C249.91 186.692 267.99 128.761 317.916 125.451ZM315.067 137.303C279.111 141.24 265.71 187.04 293.414 208.842C302.016 215.612 313.801 218.596 324.613 217.25C380.042 206.991 365.504 132.861 315.067 137.303Z"/>
</svg>
