<?xml version="1.0" encoding="utf-8" ?>
<svg xmlns="http://www.w3.org/2000/svg" xmlns:xlink="http://www.w3.org/1999/xlink" width="1024" height="1024">
	<path fill="#20154c" transform="scale(1.6 1.6)" d="M213.324 102.938C216.399 102.621 219.428 102.718 222.505 102.938C223.378 106.217 225.597 113.735 220.864 114.624C217.16 114.611 213.468 113.899 209.819 113.316C209.909 109.214 207.929 103.446 213.324 102.938Z"/>
	<path fill="#20154c" transform="scale(1.6 1.6)" d="M264.022 138.743C265.991 138.668 267.98 138.732 269.952 138.743C271.131 142.502 270.498 145.967 269.952 149.752C267.851 150.973 266.389 151.115 264.022 151.182C261.801 150.931 259.714 151.026 257.489 151.182C257.326 147.409 257.205 143.417 258.692 139.877C260.474 139.369 262.185 138.992 264.022 138.743Z"/>
	<path fill="#20154c" transform="scale(1.6 1.6)" d="M264.022 118.476C273.389 117.959 276.358 129.477 267.857 132.684C264.709 132.203 262.41 131.32 260.103 129.08L259.696 127.715C258.383 123.148 259.168 119.763 264.022 118.476Z"/>
	<path fill="#20154c" transform="scale(1.6 1.6)" d="M264.022 158.857C276.116 158.026 274.487 169.95 267.857 172.487C264.993 172.364 262.743 171.768 260.103 170.694C258.437 165.431 257.263 159.736 264.022 158.857Z"/>
	<path fill="#20154c" transform="scale(1.6 1.6)" d="M163.496 156.183C166.367 155.946 168.357 156.851 170.993 157.846C171.281 159.175 171.687 160.406 172.161 161.68C171.635 166.166 169.699 170.28 164.176 167.731C162.349 167.165 152.91 167.223 154.307 163.64C155.589 160.351 160.468 157.628 163.496 156.183Z"/>
	<path fill="#20154c" transform="scale(1.6 1.6)" d="M167.097 172.487C170.366 172.217 171.866 173.227 174.66 174.789C177.543 179.19 178.333 184.354 172.161 185.28C162.69 185.758 161.238 185.808 161.163 177.924C162.84 174.997 164.04 173.793 167.097 172.487Z"/>
	<path fill="#20154c" transform="scale(1.6 1.6)" d="M257.489 183.597C265.229 182.067 278.675 191.152 271.305 196.419C262.567 196.978 248.728 188.325 257.489 183.597Z"/>
	<path fill="#20154c" transform="scale(1.6 1.6)" d="M204.015 262.3C205.577 262.17 207.161 262.264 208.727 262.3C209.908 265.428 212.367 287.978 207.709 289.281C205.681 289.421 203.066 289.91 201.373 288.557C200.183 284.819 197.607 263.949 204.015 262.3Z"/>
	<path fill="#20154c" transform="scale(1.6 1.6)" d="M227.492 261.287C235.138 260.939 232.234 282.807 232.217 288.793C230.658 289.123 229.079 289.182 227.492 289.281C226.328 289.678 224.05 290.375 223.583 288.823C222.956 286.74 222.518 269.03 222.613 266.405C222.735 263.028 224.373 262.232 227.492 261.287Z"/>
	<path fill="#20154c" transform="scale(1.6 1.6)" d="M478.728 180.551C486.109 176.88 509.839 178.744 519.68 178.745C517.15 180.563 513.603 178.234 511.371 179.582L512.035 179.383L511.351 179.535C518.294 180.702 514.216 186.084 512.771 186.516C509.362 187.535 500.118 187.557 498.511 188.247C501.585 188.865 509.42 187.246 511.49 188.535C499.295 189.348 488.005 190.055 478.728 180.551Z"/>
	<path fill="#20154c" transform="scale(1.6 1.6)" d="M358.296 119.699C360.318 119.617 362.523 120.179 363.915 121.735C367.935 126.232 356.536 132.103 353.9 134.327C349.674 137.894 345.8 142.012 341.361 145.304C321.335 141.95 353.701 121.834 358.296 119.699Z"/>
	<path fill="#20154c" transform="scale(1.6 1.6)" d="M275.742 398.775C297.6 398.775 319.51 398.424 341.361 398.775C345.365 400.583 355.912 397.498 359.162 400.693C358.526 402.728 357.331 404.471 356.281 406.309C347.552 410.092 332.796 407.258 323.064 408.501C318.215 409.033 312.38 408.526 307.448 408.523L273.962 408.501L273.695 408.308C272.979 408.264 272.344 408.207 271.643 408.038C275.023 405.17 313.623 412.892 324.159 403.12C329.936 397.762 311.87 399.434 310.453 399.441C303.442 399.474 281.929 400.567 275.742 398.775Z"/>
	<path fill="#20154c" transform="scale(1.6 1.6)" d="M469.519 123.19C473.038 123.461 490.298 136.944 493.042 139.877C490.42 146.481 482.358 151.43 477.3 156.183C468.908 162.564 466.503 154.411 468.893 149.483C472.024 148.109 474.142 144.217 476.739 141.904C474.699 140.709 469.662 137.932 468.828 135.76L469.654 134.656C468.232 132.504 462.322 130.933 469.519 123.19Z"/>
	<path fill="#20154c" transform="scale(1.6 1.6)" d="M272.469 322.523C273.758 322.572 275.044 322.628 276.332 322.708C278.866 332.188 294.142 332.036 298.749 342.016C295.418 345.915 281.049 353.391 275.742 356.668C271.331 357.95 265.954 354.04 268.077 349.202C269.879 345.097 279.686 343.908 283.655 342.23L284.152 342.016C277.767 338.825 270.115 335.754 267.857 328.329C271.939 318.189 270.813 325.228 273.658 323.332L272.469 322.523Z"/>
	<path fill="#20154c" transform="scale(1.6 1.6)" d="M362.293 272.688L344.543 272.705C340.191 272.704 328.83 274.35 328.452 267.825C327.975 259.579 342.495 263.253 347.155 263.297L384.868 263.314C388.222 264.248 397.604 262.642 393.124 267.663C385.81 275.862 365.724 270.814 362.293 272.688Z"/>
	<path fill="#20154c" transform="scale(1.6 1.6)" d="M396.983 122.351C418.815 122.135 440.449 122.26 462.249 123.19C462.584 126.068 462.698 128.705 462.249 131.578L458.526 131.578C448.853 131.714 400.565 133.057 394.215 129.858C391.338 126.365 392.827 123.165 396.983 122.351Z"/>
	<path fill="#20154c" transform="scale(1.6 1.6)" d="M539.636 187.196C539.803 179.744 531.801 172.945 524.941 171.834C519.29 170.918 498.032 175.003 495.907 170.441C490.161 158.1 522.054 162.376 527.01 163.106C538.058 164.735 545.419 173.864 548.727 184.071C547.145 187.969 548.655 192.636 547.643 196.699C546.853 199.874 544.104 202.346 542.901 205.409L540.153 205.409C540.195 199.735 540.982 192.696 539.636 187.196Z"/>
	<path fill="#20154c" transform="scale(1.6 1.6)" d="M332.716 232.53C341.358 232.144 350.185 232.514 358.85 232.518L419.363 232.53C419.086 235.777 419.1 238.892 419.363 242.142C417.712 242.453 416.035 242.582 414.365 242.747C406.328 242.892 333.512 243.501 330.312 242.355C325.014 240.459 328.891 233.725 332.716 232.53Z"/>
	<path fill="#20154c" transform="scale(1.6 1.6)" d="M154.855 321.364C159.126 321.035 163.607 321.343 167.904 321.347L229.341 321.379C232.551 321.374 251.417 319.893 252.367 323.206C253.763 328.077 252.442 330.317 247.82 330.808C241.598 330.354 235.046 330.796 228.788 330.801L180.694 330.821C175.833 330.822 155.418 332.226 152.084 329.727C148.846 327.302 151.273 321.935 154.855 321.364Z"/>
	<path fill="#20154c" transform="scale(1.6 1.6)" d="M153.125 345.121C158.644 344.926 164.21 345.102 169.734 345.113L199.502 345.119C206.897 345.119 247.263 344.478 250.509 345.521C254.148 346.69 253.621 353.381 250.045 354.747L165.754 354.772C161.645 354.812 148.135 356.693 150.023 348.898C150.474 347.033 151.579 346.131 153.125 345.121Z"/>
	<path fill="#20154c" transform="scale(1.6 1.6)" d="M154.855 369.761C165.461 369.262 176.329 369.749 186.956 369.752L252.195 369.761L253.67 373.063C253.403 377.954 252.718 378.897 247.82 379.405C222.796 379.409 197.749 379.647 172.728 379.347C168.236 379.294 151.533 382.001 149.814 376.08C148.903 372.937 152.31 370.539 154.855 369.761Z"/>
	<path fill="#20154c" transform="scale(1.6 1.6)" d="M364.001 146.337L428.155 146.325C438.015 146.32 448.006 145.977 457.848 146.341C468.834 146.747 465.101 154.997 460.191 156.183L373.133 156.197C368.754 156.242 359.675 157.893 358.722 151.468C358.273 148.439 361.418 146.697 364.001 146.337Z"/>
	<path fill="#20154c" transform="scale(1.6 1.6)" d="M364.001 98.7573C371.154 98.3956 378.516 98.7447 385.687 98.7491L428.717 98.7699C434.944 98.7714 469.543 98.0553 473.066 99.1246C477.514 100.475 475.755 106.282 472.406 107.822C466.957 108.793 457.605 107.809 451.563 107.81L392.127 107.829C386.712 107.84 366.65 109.833 363.238 108.028C359.902 106.264 360.068 99.8573 364.001 98.7573Z"/>
	<path fill="#20154c" transform="scale(1.6 1.6)" d="M330.419 174.789C333.723 174.602 337.122 174.775 340.436 174.776L428.937 174.784C439.996 174.787 451.212 175.228 462.249 174.789L465.003 177.924C463.66 180.279 462.535 182.113 460.191 183.597C455.767 184.863 443.079 184.075 437.85 184.072L350.185 184.085C345.385 184.113 329.812 186.822 327.573 181.002C326.635 178.564 327.944 175.625 330.419 174.789Z"/>
	<path fill="#20154c" transform="scale(1.6 1.6)" d="M328.782 375.249C328.777 352.284 328.536 329.422 329.304 306.473C329.458 301.849 328.52 296.704 329.565 292.187C330.677 287.377 382.234 288.728 388.404 290.189C389.436 290.938 390.314 291.841 391.224 292.729L391.224 296.828C388.503 299.441 385.56 298.524 382.143 298.859L338.414 298.859C338.394 306.321 337.978 313.926 338.414 321.364C335.231 324.771 340.256 373.909 336.265 374.849C332.55 375.723 331.651 378.365 328.582 379.775C322.837 382.415 305.289 384.972 298.986 384.718C296.875 384.633 295.828 382.935 294.082 382.761C287.201 370.711 322.615 375.78 328.151 375.307L328.782 375.249Z"/>
	<path fill="#20154c" transform="scale(1.6 1.6)" d="M332.716 205.961C334.173 205.813 335.94 206.105 337.452 206.084L460.352 205.952C473.591 205.949 486.993 205.464 500.179 206.782C500.381 209.342 500.257 211.905 500.179 214.468C498.111 214.82 496.075 215.104 493.985 215.278L349.157 216.003C344.088 216.013 338.882 216.254 333.825 215.967C325.069 215.47 324.705 206.716 332.716 205.961Z"/>
	<path fill="#20154c" transform="scale(1.6 1.6)" d="M218.097 118.476C226.909 117.701 223.756 127.532 223.73 135.35C227.338 135.706 239.049 133.965 240.629 137.482C242.307 138.256 244.47 135.094 246.9 136.908C248.605 141.609 247.885 177.158 247.82 184.071C244.2 184.83 241.96 184.929 238.313 184.071C238.804 171.224 238.316 158.173 238.313 145.304L197.082 145.304L197.082 187.196L211.329 187.196C216.658 187.196 227.523 184.389 228.463 192.031C229.541 200.793 210.861 226.498 208.793 212.359C207.644 204.506 216.36 201.919 216.243 197.722C213.159 194.428 193.229 198.447 187.305 194.28C186.433 189.447 187.648 139.14 188.761 135.35C197.395 133.981 206.43 136.702 215.087 134.772L215.376 134.074C214.269 132.818 212.949 132.611 211.329 132.684C206.644 123.702 206.003 118.736 218.097 118.476Z"/>
	<path fill="#20154c" transform="scale(1.6 1.6)" d="M519.68 178.745C525.868 178.854 527.606 182.434 527.403 188.19C526.725 207.441 527.159 226.828 527.163 246.093L527.072 367.59C526.989 375.861 529.127 400.55 526.054 407.298C518.527 410.562 396.691 408.499 380.076 408.497L340.213 408.519C335.688 408.525 327.121 409.049 323.064 408.501C332.796 407.258 347.552 410.092 356.281 406.309C357.331 404.471 358.526 402.728 359.162 400.693C355.912 397.498 345.365 400.583 341.361 398.775L500.188 398.778C505.894 398.783 511.817 399.248 517.487 398.775C517.961 353.743 517.49 308.654 517.489 263.616C517.488 238.632 516.625 213.441 518.684 188.535C516.279 188.604 513.895 188.607 511.49 188.535C509.42 187.246 501.585 188.865 498.511 188.247C500.118 187.557 509.362 187.535 512.771 186.516C514.216 186.084 518.294 180.702 511.351 179.535L512.035 179.383L511.371 179.582C513.603 178.234 517.15 180.563 519.68 178.745Z"/>
	<path fill="#20154c" transform="scale(1.6 1.6)" d="M194.631 84.2863C200.932 83.6456 238.935 83.6412 241.301 85.1592C244.932 91.0657 237.11 106.977 247.991 106.306C257.907 105.694 258.681 94.4278 267.857 93.4197C274.707 93.8353 275.898 99.1343 280.208 103.502C284.582 107.933 298.609 117.284 298.701 123.013C298.822 130.61 281.525 135.465 281.592 148.939C288.827 150.287 304.139 147.088 308.597 153.134C309.596 161.401 308.171 172.169 307.379 180.551C299.121 181.081 289.724 181.652 281.592 180.989C284.362 192.51 297.254 193.959 294.515 202.268C293.244 206.126 273.475 224.861 269.952 226.508C263.593 224.405 260.884 219.641 256.077 215.588L255.706 215.278C251.232 216.503 246.808 217.258 242.218 217.841C246.048 246.167 244.275 240.412 218.601 240.358C208.352 240.337 197.998 240.715 187.767 240.354C187.48 232.844 188.152 225.384 187.767 217.841C182.204 217.819 178.386 216.895 174.02 216.753C169.896 216.619 167.073 231.764 158.011 224.751C155.252 222.616 141.499 209.386 140.065 206.887C136.671 200.972 147.849 193.468 151.988 191.511C156.895 189.192 158.361 189.82 163.197 189.326L163.51 189.633C162.822 192.035 165.477 191.936 167.097 193.527C163.265 199.988 157.394 201.421 151.498 205.409C155.642 208.252 159.232 211.767 163.496 214.468C167.802 207.255 167.549 203.059 177.953 202.08C182.984 201.606 181.091 208.137 183.473 209.108C194.988 213.804 198.638 199.59 198.408 231.017C210.027 230.707 221.668 231.341 233.285 231.017C233.275 225.16 232.794 218.752 233.906 213.008C235.764 210.352 237.75 209.657 240.994 209.724C255.429 209.275 246.475 203.701 254.959 203.822C263.308 203.94 264.43 210.247 269.345 215.278C274.95 209.614 277.637 205.712 284.152 200.23C276.996 194.747 267.924 178.334 277.518 171.291C284.569 171.047 291.692 171.272 298.749 171.291L298.749 160.006C292.609 160.039 283.106 160.977 277.518 158.857C275.053 152.953 275.26 146.186 275.742 139.877C274.586 139.643 273.555 139.195 272.469 138.743C272.544 137.628 272.474 136.47 272.469 135.35C276.268 131.142 282.349 129.544 287.36 124.404C281.228 117.338 275.02 110.384 269.345 102.938C263.792 111.76 257.634 115.383 246.893 115.072C231.4 114.623 232.339 106.361 233.285 93.4197C224.967 92.3013 209.359 93.4262 200.202 93.4197C200.221 98.2315 201.537 112.751 197.797 116.056C188.858 123.952 175.762 108.177 176.256 123.19L176.317 123.217C174.23 127.001 171.347 129.023 167.097 130.044C164.308 129.217 162.57 128.467 161.163 125.683C162.035 119.452 168.188 116.786 173.478 114.624C170.924 111.613 168.082 108.66 166.127 105.22C158.302 109.506 152.738 117.188 145.156 121.936C151.683 126.653 158.44 131.066 165.268 135.333C169.43 137.934 177.384 140.155 173.613 146.66C171.976 149.484 170.053 150.328 167.097 151.182C161.07 148.1 158.097 142.89 151.498 139.877C153.453 146.53 154.392 151.24 151.498 157.846C145.43 160.032 136.861 157.339 139.21 149.752L143.702 147.427C142.579 140.995 146.691 146.115 146.62 141.512C147.265 140.614 148.451 140.286 149.446 139.877C143.69 134.189 135.915 129.712 132.731 121.936C136.199 116.02 158.438 94.9686 166.127 93.4197C171.217 94.8802 175.066 101.344 178.558 105.22C182.468 105.527 186.337 106.274 190.269 106.576C190.304 99.8756 187.327 86.6695 194.631 84.2863Z"/>
	<path fill="#20154c" transform="scale(1.6 1.6)" d="M435.829 263.314C435.645 258.327 435.304 236.752 437.297 233.391L437.731 233.512L437.846 233.159C442.49 232.141 447.33 232.483 452.058 232.499L468.201 232.528C476.712 232.526 487.274 231.927 495.578 232.74C502.527 233.421 501.008 242.056 500.975 246.847L500.935 321.364C498.189 321.289 494.363 321.603 491.933 320.276C490.016 317.125 491.23 296.423 491.23 291.668L491.242 242.142L445.051 242.142L445.051 375.249L462.249 375.249C462.049 370.492 462.225 365.754 462.243 360.997L462.249 256.991C475.607 255.279 472.406 260.66 472.411 272.486L472.406 375.249L493.042 375.249C492.198 378.308 491.533 381.173 491.242 384.337C483.415 384.035 475.685 384.947 467.881 384.997L311.688 384.984C307.529 384.974 296.389 387.051 294.082 382.761C295.828 382.935 296.875 384.633 298.986 384.718C305.289 384.972 322.837 382.415 328.582 379.775C331.651 378.365 332.55 375.723 336.265 374.849C340.256 373.909 335.231 324.771 338.414 321.364C337.978 313.926 338.394 306.321 338.414 298.859L382.143 298.859C385.56 298.524 388.503 299.441 391.224 296.828C390.939 302.541 391.206 308.399 391.208 314.129L391.225 355.011C391.23 361.732 391.531 368.542 391.224 375.249L407.621 375.249L407.636 291.876C407.673 287.216 406.589 280.058 410.137 276.34C410.341 276.127 416.026 275.55 416.466 275.848C418.932 280.139 417.852 299.868 417.852 305.137L417.857 363.287C417.872 367.273 418.174 371.271 417.851 375.249L435.094 375.249C434.571 371.408 435.03 367.132 435.069 363.242L435.094 272.688C429.398 272.619 423.724 273.094 418.032 273.09L362.293 272.688C365.724 270.814 385.81 275.862 393.124 267.663C397.604 262.642 388.222 264.248 384.868 263.314C401.835 263.022 418.856 263.316 435.829 263.314ZM338.414 298.859C338.394 306.321 337.978 313.926 338.414 321.364C338.092 327.272 338.402 333.375 338.403 339.302L338.414 375.249L354.108 375.249C354.81 368.458 354.128 361.205 354.114 354.359L354.108 308.649L364.001 308.649L364.001 375.249L381.337 375.249L381.323 326.606C381.323 319.973 380.514 304.639 382.143 298.859L338.414 298.859Z"/>
	<path fill="#20154c" transform="scale(1.6 1.6)" d="M548.727 184.071C549.023 189.902 548.733 195.868 548.731 201.716L548.74 442.543C548.749 479.229 538.896 482.914 504.432 482.847L381.337 482.841L381.337 508.766C404.285 507.154 423.737 516.928 428.971 540.37C440.598 539.325 442.259 549.571 433.293 550.324C429.853 550.613 426.227 550.375 422.768 550.375L334.956 550.377C331.166 548.612 316.471 550.005 311.241 549.587C321.968 544.94 315.986 542.662 308.869 541.623C311.247 541.491 320.032 542.309 321.428 541.382L321.021 541.026C291.115 540.683 257.253 539.754 227.492 541.026C224.095 540.798 220.561 541 217.15 541.026C218.294 517.504 239.103 518.443 255.749 518.437L281.592 518.448L304.384 518.448L304.813 518.087C304.204 517.374 302.804 518.32 302.098 517.657C304.389 516.95 310.515 513.743 307.776 510.572C305.196 507.586 296.734 509.35 293.007 508.766L370.954 508.766C370.941 500.143 371.255 491.453 370.954 482.841C363.289 482.629 355.969 483.689 348.245 482.841C349.272 482.568 350.302 482.67 351.353 482.709C348.227 482.681 341.909 482.217 339.086 483.003L338.637 483.131L338.603 482.676L338.59 482.73C344.003 478.468 350.126 475.314 340.393 474.216C342.557 474.169 344.884 474.223 346.936 473.485C401.318 472.523 456.061 474.123 510.563 473.47C543.412 473.077 540.173 455.442 539.636 429.18C539.132 429.783 538.988 431.234 538.812 432.034C529.162 434.102 513.58 433.016 503.542 432.97L456.415 432.972C452.693 433.298 448.661 432.999 444.908 432.991L350.482 432.972C351.774 432.699 353.114 432.556 354.422 432.363C344.193 432.446 333.764 432.193 323.566 433.189L323.506 433.032C330.455 430.04 329.566 425.512 323.064 423.539C331.967 424.306 337.214 423.501 345.602 423.526C348.343 423.534 351.572 424.29 354.211 423.928C343.903 422.662 333.369 424.342 323.064 423.539L470.725 423.539C493.674 423.213 516.683 423.54 539.636 423.539C539.383 420.824 539.587 417.993 539.602 415.264L539.636 187.196C540.982 192.696 540.195 199.735 540.153 205.409L542.901 205.409C544.104 202.346 546.853 199.874 547.643 196.699C548.655 192.636 547.145 187.969 548.727 184.071ZM304.384 518.448L281.592 518.448L255.749 518.437C239.103 518.443 218.294 517.504 217.15 541.026C220.561 541 224.095 540.798 227.492 541.026C257.253 539.754 291.115 540.683 321.021 541.026C324.979 540.598 329.449 541.007 333.471 541.014L359.939 541.034C379.148 541.034 398.871 540.18 417.851 540.37C414.9 512.759 381.927 518.441 361.574 518.437L304.384 518.448Z"/>
	<path fill="#20154c" transform="scale(1.6 1.6)" d="M323.064 423.539L470.725 423.539C475.226 425.422 481.024 425.017 485.777 424.481L485.669 424.438C493.377 423.924 518.709 423.129 525.872 424.416L526.387 424.503C526.489 424.521 526.592 424.543 526.694 424.563L524.961 424.384C537.809 427.551 538.137 417.422 537.916 431.927C523.518 432.287 459.692 431.35 456.415 432.972C452.693 433.298 448.661 432.999 444.908 432.991L350.482 432.972C351.774 432.699 353.114 432.556 354.422 432.363C344.193 432.446 333.764 432.193 323.566 433.189L323.506 433.032C330.455 430.04 329.566 425.512 323.064 423.539C331.967 424.306 337.214 423.501 345.602 423.526C348.343 423.534 351.572 424.29 354.211 423.928C343.903 422.662 333.369 424.342 323.064 423.539Z"/>
	<path fill="#20154c" transform="scale(1.6 1.6)" d="M128.999 146.337C131.861 146.081 132.393 146.575 134.024 148.939C134.926 152.617 134.025 172.82 134.024 177.924C140.024 177.439 151.171 171.376 152.547 177.171C153.038 179.242 152.951 185.618 151.797 187.351C149.109 188.844 124.239 188.589 116.965 189.18C117.347 206.524 116.316 225.817 116.314 243.51L116.317 398.775C121.837 399.216 127.729 398.797 133.28 398.785L275.742 398.775C281.929 400.567 303.442 399.474 310.453 399.441C311.87 399.434 329.936 397.762 324.159 403.12C313.623 412.892 275.023 405.17 271.643 408.038C272.344 408.207 272.979 408.264 273.695 408.308L273.962 408.501L123.6 408.509C118.332 408.516 112.697 409.068 107.484 408.501C106.05 398.264 106.88 387.508 106.879 377.167L107.156 231.011C107.191 215.651 106.967 200.233 107.543 184.884C108.055 171.27 131.939 187.362 124.741 172.487C89.5517 170.382 96.4938 187.869 96.4967 214.891L96.4985 423.539L281.592 423.539C295.41 423.393 309.245 423.491 323.064 423.539C333.369 424.342 343.903 422.662 354.211 423.928C351.572 424.29 348.343 423.534 345.602 423.526C337.214 423.501 331.967 424.306 323.064 423.539C329.566 425.512 330.455 430.04 323.506 433.032L323.566 433.189C333.764 432.193 344.193 432.446 354.422 432.363C353.114 432.556 351.774 432.699 350.482 432.972L444.908 432.991C448.661 432.999 452.693 433.298 456.415 432.972L503.542 432.97C513.58 433.016 529.162 434.102 538.812 432.034C538.988 431.234 539.132 429.783 539.636 429.18C540.173 455.442 543.412 473.077 510.563 473.47C456.061 474.123 401.318 472.523 346.936 473.485C344.884 474.223 342.557 474.169 340.393 474.216C350.126 475.314 344.003 478.468 338.59 482.73L338.603 482.676L338.637 483.131L339.086 483.003C341.909 482.217 348.227 482.681 351.353 482.709C350.302 482.67 349.272 482.568 348.245 482.841C355.969 483.689 363.289 482.629 370.954 482.841C371.255 491.453 370.941 500.143 370.954 508.766L293.007 508.766C296.734 509.35 305.196 507.586 307.776 510.572C310.515 513.743 304.389 516.95 302.098 517.657C302.804 518.32 304.204 517.374 304.813 518.087L304.384 518.448L281.592 518.448L255.749 518.437C239.103 518.443 218.294 517.504 217.15 541.026C220.561 541 224.095 540.798 227.492 541.026C257.253 539.754 291.115 540.683 321.021 541.026L321.428 541.382C320.032 542.309 311.247 541.491 308.869 541.623C315.986 542.662 321.968 544.94 311.241 549.587C316.471 550.005 331.166 548.612 334.956 550.377L269.345 550.377C265.07 550.317 260.798 550.576 256.523 550.548L213.192 550.377C207.773 550.375 188.722 552.934 189.557 546.439C189.868 544.021 190.459 543.19 192.344 541.716C196.2 542.141 203.923 542.187 207.709 541.716C209.367 513.611 229.834 507.876 254.648 508.766L254.648 482.841L128.765 482.854C110.608 482.857 89.8033 482.046 87.3505 457.521C85.6029 440.046 86.5671 419.048 86.5645 401.4L86.5572 226.653C86.5583 215.719 86.4461 204.798 86.9014 193.871C88.0509 166.288 98.1992 159.901 124.741 163.901C124.816 157.42 123.283 150.919 128.999 146.337ZM538.812 432.034C529.162 434.102 513.58 433.016 503.542 432.97L456.415 432.972C452.693 433.298 448.661 432.999 444.908 432.991L350.482 432.972C344.676 432.881 338.902 433.233 333.106 433.22L264.983 433.028C262.712 433.043 259.689 433.433 257.489 432.972C253.772 433.238 249.947 433.021 246.22 432.991L117.511 432.968C110.868 432.978 103.696 433.726 97.1316 432.972C97.243 460.791 92.0626 472.198 125.138 473.315C138.567 473.768 152.054 473.488 165.492 473.488L282.28 473.485C303.78 473.142 325.437 473.19 346.936 473.485C401.318 472.523 456.061 474.123 510.563 473.47C543.412 473.077 540.173 455.442 539.636 429.18C539.132 429.783 538.988 431.234 538.812 432.034ZM348.245 482.841C345.383 483.122 342.362 482.873 339.482 482.852L281.755 482.848C279.155 482.85 271.228 483.37 269.345 482.841L264.022 483.673C264.135 492.033 264.038 500.404 264.022 508.766C267.32 508.764 270.669 508.64 273.962 508.766L293.007 508.766L370.954 508.766C370.941 500.143 371.255 491.453 370.954 482.841C363.289 482.629 355.969 483.689 348.245 482.841Z"/>
	<path fill="#20154c" transform="scale(1.6 1.6)" d="M273.962 508.766L293.007 508.766C296.734 509.35 305.196 507.586 307.776 510.572C310.515 513.743 304.389 516.95 302.098 517.657C302.804 518.32 304.204 517.374 304.813 518.087L304.384 518.448L281.592 518.448C277.344 517.031 291.884 518.639 294.379 516.667C296.44 515.038 295.772 512.824 296.526 510.681L296.246 510.282C293.109 508.809 278.716 509.316 273.962 508.766Z"/>
	<path fill="#20154c" transform="scale(1.6 1.6)" d="M281.592 423.539C295.41 423.393 309.245 423.491 323.064 423.539C333.369 424.342 343.903 422.662 354.211 423.928C351.572 424.29 348.343 423.534 345.602 423.526C337.214 423.501 331.967 424.306 323.064 423.539C329.566 425.512 330.455 430.04 323.506 433.032L323.566 433.189C333.764 432.193 344.193 432.446 354.422 432.363C353.114 432.556 351.774 432.699 350.482 432.972C344.676 432.881 338.902 433.233 333.106 433.22L264.983 433.028C262.712 433.043 259.689 433.433 257.489 432.972C269.091 431.334 290.924 432.964 303.542 432.965C308.007 432.965 325.371 434.556 321.904 425.567C314.913 420.097 289.991 426.553 279.847 423.93L281.592 423.539Z"/>
	<path fill="#20154c" transform="scale(1.6 1.6)" d="M282.28 473.485C303.78 473.142 325.437 473.19 346.936 473.485C344.884 474.223 342.557 474.169 340.393 474.216C350.126 475.314 344.003 478.468 338.59 482.73L338.603 482.676L338.637 483.131L339.086 483.003C341.909 482.217 348.227 482.681 351.353 482.709C350.302 482.67 349.272 482.568 348.245 482.841C345.383 483.122 342.362 482.873 339.482 482.852L281.755 482.848C279.155 482.85 271.228 483.37 269.345 482.841C269.966 482.576 281.481 483.009 283.287 482.954C291.617 482.699 325.875 485.126 329.673 475.409C326.064 471.516 286.722 476.459 282.28 473.485Z"/>
	<path fill="#20154c" transform="scale(1.6 1.6)" d="M227.492 541.026C257.253 539.754 291.115 540.683 321.021 541.026L321.428 541.382C320.032 542.309 311.247 541.491 308.869 541.623C315.986 542.662 321.968 544.94 311.241 549.587C316.471 550.005 331.166 548.612 334.956 550.377L269.345 550.377C269.174 550.245 269.077 550.037 268.953 549.86C270.679 549.273 298.159 552.011 295.442 542.748C289.466 539.052 236.238 543.42 227.492 541.026Z"/>
	<path fill="#20154c" transform="scale(1.6 1.6)" d="M449.873 448.867C455.682 449.042 461.392 449.266 467.174 449.901C468.736 452.624 470.492 455.639 467.174 457.488C458.908 458.518 446.063 461.942 449.873 448.867Z"/>
	<path fill="#20154c" transform="scale(1.6 1.6)" d="M497.694 448.867C505.446 448.174 511.696 446.822 507.064 457.488C501.926 458.332 491.714 457.495 486.016 457.488C469.972 457.336 476.526 455.798 476.739 448.867L497.694 448.867Z"/>
	<path fill="#20154c" transform="scale(1.6 1.6)" d="M300.126 447.338C305.499 447.342 324.681 446.539 328.322 447.828C334.393 453.435 326.933 456.623 321.021 456.617C312.107 456.638 284.759 461.613 293.007 447.338C295.379 447.373 297.754 447.344 300.126 447.338Z"/>
</svg>
