<?xml version="1.0" encoding="utf-8" ?>
<svg xmlns="http://www.w3.org/2000/svg" xmlns:xlink="http://www.w3.org/1999/xlink" width="1024" height="1024">
	<path fill="hsl(192, 100%, 86%)" transform="scale(1.6 1.6)" d="M137.206 391.311C104.139 372.469 86.4294 358.197 113.886 322.157L124.177 308.538C135.195 293.658 130.702 295.568 125.013 280.776C120.197 268.257 124.093 253.68 127.402 241.296C152.42 147.686 222.942 77.7573 322.827 72.3218C379.459 68.4538 435.937 95.2189 472.142 138.308C512.582 186.438 539.427 266.722 514.458 327.963C509.457 340.231 502.795 351.622 496.704 363.348C483.234 389.28 458.431 443.439 474.334 472.358C477.503 478.121 483.296 484.816 482.506 491.832C481.118 504.148 442.322 526.715 432.56 532.859C400.551 553.008 342.704 587.009 304.139 583.179C280.36 581.348 268.391 570.442 257.64 550.033C250.063 535.651 237.389 503.518 221.68 498.254C205.04 492.677 180.801 508.465 161.066 483.205C150.57 469.771 154.315 458.439 156.163 443.117C148.121 429.943 142.482 432.918 144.034 412.9C138.983 403.611 137.07 403.614 137.206 391.311ZM327.394 86.3954C233.468 88.5589 161.674 157.909 140.564 247.392C138.982 254.097 137.093 261.603 137.218 268.504C137.433 280.396 147.55 284.751 144.586 299.874C140.324 321.621 99.9663 344.559 121.489 364.93C129.598 372.606 145.909 376.255 150.125 386.158C151.975 390.504 151.154 394.825 152.457 398.509C156.561 410.107 161.484 405.877 158.014 421.09C160.835 428.236 168.44 432.442 170.241 440.096C172.937 451.558 162.314 460.536 171.694 473.662C185.898 493.541 214.2 475.966 233.632 488.333C265.447 508.581 263.543 562.486 299.814 568.353C308.208 569.578 316.903 569.311 325.22 567.656C363.595 560.019 436.994 517.626 467.959 490.353C464.352 483.556 460.197 477.254 457.687 469.909C447.191 439.204 467.014 390.056 481.422 362.124C492.009 341.598 503.905 322.357 508.038 299.225C514.977 260.39 502.512 216.48 484.419 182.236C453.42 123.561 394.383 84.2478 327.394 86.3954Z"/>
	<path fill="hsl(192, 100%, 86%)" transform="scale(1.6 1.6)" d="M330.526 429C253.34 429.296 189.148 370.69 184.213 293.157C179.633 221.209 228.251 151.226 300.044 136.976C308.382 135.321 316.78 134.711 325.249 134.198C362.337 133.032 399.968 149.154 426.334 174.893C519.215 265.565 459.66 427.915 330.526 429ZM320.009 148.881C255.897 152.396 205.025 206.749 198.799 269.365C190.948 348.336 255.933 420.752 335.701 414.588C372.166 411.405 402.966 397.211 427.056 368.521C474.039 312.568 464.811 225.454 409.141 178.83C385.181 158.763 351.572 145.733 320.009 148.881Z"/>
	<path fill="hsl(192, 100%, 86%)" transform="scale(1.6 1.6)" d="M294.73 338.404L294.406 338.748L294.73 338.404L295.062 338.708C294.275 341.624 275.64 345.553 272.313 346.979C262.379 351.235 264.118 359.83 258.645 363.051C248.826 368.83 239.043 347.484 267.119 333.383C275.463 329.192 282.34 329.074 291.169 331.981C292.035 325.132 293.771 318.633 296.236 312.198C284.259 298.867 286.562 293.023 280.224 281.774C278.805 279.257 276.036 277.732 274.431 275.314C268.501 266.383 264.297 248.306 275.164 241.177C268.332 208.337 280.414 188.153 314.32 186.616C315.16 185.441 315.152 184.284 316.515 183.42C327.332 176.56 354.382 182.579 361.047 193.188L362.93 196.799C381.138 201.476 378.958 228.107 376.091 242.182C386.544 249.315 382.797 266.464 376.917 274.103C375.111 276.448 371.993 277.865 370.731 280.605C369.011 284.341 368.416 288.713 366.893 292.581C364.072 299.746 359.888 306.461 356.098 313.145C358.951 316.574 360.358 320.913 362.675 324.692C375.953 332.624 399.937 330.615 407.171 352.881C408.604 357.293 406.519 361.967 401.915 363.318C396.23 364.985 394.094 358.222 391.653 354.468C385.167 344.49 376.601 345.691 366.548 342.321C363.066 341.153 359.802 338.899 356.544 337.197C336.958 356.218 323.464 356.745 303.213 340.683C301.137 339.036 296.829 334.409 294.73 338.404ZM328.919 194.828C331.969 214.41 309.414 191.327 294.336 206.907C276.58 225.254 302.349 251.269 282.747 253.548C283.185 258.337 283.557 264.213 287.363 267.636C298.344 277.513 294.563 300.989 319.346 310.386C337.862 315.707 350.289 298.278 355.61 282.747C356.867 279.081 357.718 274.966 359.468 271.531C363.912 262.809 366.083 268.354 367.957 254.413C353.104 249.227 369.733 228.854 361.056 212.253C352.121 213.431 351.366 207.834 348.495 200.881C342.771 197.278 335.603 195.46 328.919 194.828ZM344.299 321.256C328.487 327.467 326.606 327.871 310.58 321.649L309.975 324.902C310.949 327.258 311.872 329.013 313.695 330.858C324.964 340.822 338.078 338.64 346.419 326.215C345.942 324.662 345.57 322.811 344.721 321.426L344.299 321.256Z"/>
	<path fill="hsl(192, 100%, 86%)" transform="scale(1.6 1.6)" d="M323.536 535.535C320.184 536.039 317.345 535.461 315.497 532.289C309.686 522.314 331.201 516.773 336.627 513.879C348.307 507.649 359.763 499.374 368.953 489.81C372.942 485.66 379.139 476.771 383.436 474.305L383.795 474.103C385.571 473.901 387.311 473.951 388.936 474.789C398.139 479.539 388.752 489.337 384.727 494.011C371.126 509.806 344.367 529.63 323.536 535.535Z"/>
</svg>
