<?xml version="1.0" encoding="utf-8" ?>
<svg xmlns="http://www.w3.org/2000/svg" xmlns:xlink="http://www.w3.org/1999/xlink" width="1024" height="1024">
	<path fill="#20154c" transform="scale(1.6 1.6)" d="M209.691 322.217C219.241 321.838 219.586 331.955 213.038 334.064C205.083 333.944 202.578 325.78 209.691 322.217Z"/>
	<path fill="#20154c" transform="scale(1.6 1.6)" d="M210.547 300.461C218.516 299.86 222.242 309.047 216.553 314.694C208.361 318.206 206.429 305.019 210.547 300.461Z"/>
	<path fill="#20154c" transform="scale(1.6 1.6)" d="M118.136 204.996C124.455 204.446 125.977 211.434 123.884 213.937C122.223 215.922 111.684 214.921 109.28 214.918L87.8584 214.891C83.9465 214.783 81.2829 214.218 81.2703 209.621C81.253 203.314 94.8749 204.945 98.6305 204.973L118.136 204.996Z"/>
	<path fill="#20154c" transform="scale(1.6 1.6)" d="M288.14 201.041C299.156 200.38 310.567 201.046 321.634 201.041C324.043 202.548 324.896 203.793 325.679 206.516C324.982 209.188 324.416 210.446 321.634 211.48C314.059 211.455 284.964 214.363 283.464 206.839C282.669 202.854 284.502 201.409 288.14 201.041Z"/>
	<defs>
		<linearGradient id="gradient_0" gradientUnits="userSpaceOnUse" x1="391.13629" y1="348.6163" x2="416.37738" y2="280.47458">
			<stop offset="0" stop-color="#7F00FF"/>
			<stop offset="1" stop-color="#D901FE"/>
		</linearGradient>
	</defs>
	<path fill="#20154c" transform="scale(1.6 1.6)" d="M416.222 295.584C410.803 295.817 393.584 296.345 390.216 293.137C378.566 282.04 425.977 285.158 428.76 285.306C433.611 285.563 436.978 286.982 436.726 292.316C436.489 297.316 430.074 319.022 427.763 323.849L427.604 324.19C421.307 324.069 418.127 323.716 418.454 316.682C418.708 311.223 419.63 305.556 421.637 300.461C416.667 308.801 407.644 314.233 400.152 320.061L338.15 368.917C334.836 371.484 331.642 374.358 328.209 376.748C328.023 376.376 328.095 376.613 328.149 376.006C339.357 365.562 357.111 353.169 369.839 342.825C372.387 340.754 375.141 331.25 372.092 329.772C367.84 331.051 351.983 345.473 347.375 349.196L326.185 365.979C323.194 368.353 320.235 371.236 316.943 373.134L316.374 372.983C326.266 364.563 336.86 356.919 346.903 348.666C367.251 331.946 393.767 308.873 416.222 295.584Z"/>
	<defs>
		<linearGradient id="gradient_1" gradientUnits="userSpaceOnUse" x1="147.81097" y1="291.65521" x2="241.37207" y2="224.53558">
			<stop offset="0" stop-color="#1802FF"/>
			<stop offset="1" stop-color="#9400FE"/>
		</linearGradient>
	</defs>
	<path fill="#20154c" transform="scale(1.6 1.6)" d="M152.494 248.717C152.502 243.058 151.557 225.456 152.577 221.343C154.472 219.227 158.469 218.748 160.562 220.832C163.411 223.668 162.457 229.37 162.453 232.96L162.445 250.163C169.42 250.603 176.752 250.297 183.749 250.165C188.201 250.082 195.208 248.071 195.672 254.578C196.187 261.808 194.994 274.299 195.001 282.354C202.926 282.743 211.107 282.332 219.009 281.622C219.715 272.671 219.076 263.816 219.772 255.374C220.494 246.598 243.617 251.014 251.491 250.163L251.96 250.207C255.358 250.504 258.276 248.625 261.027 251.222C261.188 253.108 261.118 254.936 261.027 256.823C260.971 256.914 260.915 257.007 260.857 257.098L260.563 257.551C259.851 258.667 259.216 259.382 258.164 260.198C248.612 260.636 238.84 260.212 229.264 260.198C229.993 269.948 228.913 279.794 229.264 289.574C224.382 289.945 220.7 290.274 216.553 293.146C213.381 292.972 207.511 290.712 205.453 291.224C203.446 295.361 208.062 329.056 196.136 319.401C192 316.052 194.823 300.997 194.074 295.584C191.582 295.502 189.112 295.517 186.619 295.584C184.15 284.329 185.151 271.722 185.169 260.198C177.897 260.394 126.697 259.792 123.039 257.679C120.444 256.181 120.803 251.795 122.392 249.723C124.472 247.012 147.386 249.267 152.494 248.717Z"/>
	<path fill="#20154c" transform="scale(1.6 1.6)" d="M405.813 420.276L405.824 369.693C405.823 361.784 405.167 351.037 406.01 343.514C406.825 336.246 419.451 338.29 424.383 338.295C432.2 338.304 440.023 338.39 447.84 338.302C448.027 345.264 447.848 352.246 447.842 359.211L447.851 435.863C447.861 442.624 448.043 449.435 447.84 456.191C445.423 465.879 449.137 482.299 446.729 494.197C446.498 491.945 446.861 488.803 446.082 486.764L445.673 486.474C445.264 486.704 445.174 486.729 444.705 486.753L444.905 486.18L444.241 484.929C442.411 484.533 440.353 485.49 439.016 486.718C436.6 485.289 437.501 461.659 437.85 458.782L437.625 458.619L437.618 459.194C437.593 460.679 437.54 462.162 437.175 463.607L437.175 348.434L416.222 348.434L416.222 440.224C415.37 439.222 415.803 435.203 415.819 433.808L415.987 433.75L415.521 433.986C414.555 443.672 417.578 453.711 415.57 463.282C415.269 460.462 414.855 452.847 411.838 452.096C411.75 452.669 411.742 453.446 411.03 453.423L410.514 453.411C408.367 453.345 407.281 453.718 406.803 455.933C406.424 444.041 407.374 432.11 405.813 420.276Z"/>
	<path fill="#20154c" transform="scale(1.6 1.6)" d="M316.374 372.983L316.943 373.134C320.235 371.236 323.194 368.353 326.185 365.979L347.375 349.196C351.983 345.473 367.84 331.051 372.092 329.772C375.141 331.25 372.387 340.754 369.839 342.825C357.111 353.169 339.357 365.562 328.149 376.006C328.095 376.613 328.023 376.376 328.209 376.748C325.972 380.012 293.3 405.344 286.225 408.747C277.448 406.059 269.924 397.415 262.972 391.776L246.662 378.624C242.462 375.234 237.496 371.691 234.119 367.466C218.826 377.959 202.823 387.789 187.076 397.574L127.361 434.665C118.746 440.013 102.978 455.888 97.4015 442.14C100.671 437.155 106.577 435.042 111.508 432.077L135.86 417.296C151.114 408 166.057 398.162 181.229 388.74C198.259 378.164 216.829 368.617 231.421 354.719C225.641 356.954 212.565 362.418 210.547 353.31C211.303 349.708 212.21 348.486 216.086 347.834C231.212 345.289 238.37 344.849 241.08 361.523C244.756 365.203 249.698 367.838 253.811 371.063C264.647 379.562 275.295 388.292 286.225 396.674C292.644 390.54 309.054 377.888 316.374 372.983Z"/>
	<defs>
		<linearGradient id="gradient_2" gradientUnits="userSpaceOnUse" x1="158.02783" y1="224.02196" x2="268.57663" y2="139.08214">
			<stop offset="0" stop-color="#9B00FB"/>
			<stop offset="1" stop-color="#EC00FF"/>
		</linearGradient>
	</defs>
	<path fill="#20154c" transform="scale(1.6 1.6)" d="M198.439 118.897C200.306 107.973 199.485 97.0141 199.771 85.9919C199.971 78.2602 198.485 68.5983 209.691 71.7608C214.157 78.0496 210.66 108.547 210.547 117.569C226.56 117.316 227.591 116.626 227.483 130.799L227.435 144.681C235.453 144.682 249.557 143.591 256.83 144.291C264.674 145.046 261.203 161.237 262.177 168.737C268.201 168.739 274.23 168.785 280.253 168.695C285.542 168.616 294.936 166.141 294.472 174.497C294.083 181.491 267.072 179.399 262.177 178.712C262.428 194.501 260.803 214.838 262.177 229.997L279.492 229.967C283.044 229.957 287.167 229.549 290.647 230.29C293.974 230.999 296.727 235.578 293.762 238.209C289.605 241.898 266.281 240.96 259.917 240.932C260.072 244.403 260.6 247.783 261.027 251.222C258.276 248.625 255.358 250.504 251.96 250.207L251.491 250.163L251.495 185.809C251.497 175.617 252.008 164.458 251.491 154.425C249.232 154.393 246.909 154.251 244.658 154.425L244.68 184.862C244.681 192.023 245.175 199.464 243.843 206.516C228.233 206.608 211.565 207.117 195.88 207.544C190.944 207.679 186.139 208.541 181.179 208.398C173.229 204.36 178.9 191.612 179.524 183.745C180.341 173.445 181.198 162.859 181.179 152.524L162.445 152.524C162.231 156.995 162.422 161.464 162.44 165.937L162.431 187.265C162.446 190.984 164.08 200.78 161.102 203.637C159.378 205.29 155.27 203.299 154.097 201.816C150.915 197.792 152.548 184.217 152.494 178.712C148.287 178.723 124.183 179.591 121.738 177.491C119.918 175.929 119.423 171.473 121.303 169.737C123.242 167.946 147.271 168.733 151.388 168.737C151.38 150.3 145.956 142.464 165.501 142.49L182.495 142.507C182.491 127.987 177.92 115.441 198.439 118.897ZM192.868 127.816C195.231 151.457 188.715 175.069 189.985 197.018C204.633 197.319 219.52 195.608 234.119 196.562L234.747 196.284C235.517 192.289 234.114 160.623 234.119 154.425C208.659 165.78 218.661 142.13 216.553 127.816L192.868 127.816Z"/>
	<path fill="#20154c" transform="scale(1.6 1.6)" d="M456.339 68.4232C507.848 63.3579 547.824 109.668 517.816 158.057C502.075 183.44 491.511 180.88 493.119 213.448C499.332 213.355 506.456 212.341 511.005 217.563C517.418 224.925 515.107 236.456 508.04 242.467C500.892 248.547 491.285 247.93 482.494 247.177C481.797 262.215 474.092 276.375 457.568 276.55C440.91 276.164 433.172 261.87 432.42 246.481C423.873 246.507 414.547 247.46 408.304 240.34C394.213 224.271 407.662 211.451 427.604 213.448C425.909 189.825 414.236 181.955 401.645 164.803C386.217 143.786 381.64 109.904 401.021 89.7196C415.408 74.7355 436.167 68.7693 456.339 68.4232ZM449.864 79.6402C398.057 85.7979 384.023 128.435 418.315 167.184C431.849 182.476 437.976 191.5 438.799 213.448L454.679 213.448L454.679 142.507C436.967 154.336 418.818 140.586 423.235 119.672C424.569 113.357 431.258 111.441 433.723 115.943C436.629 121.247 430.718 132.499 438.97 135.075C445.078 136.982 452.973 132.09 454.481 125.986C455.351 122.466 454.626 118.885 456.339 115.516C459.346 114.839 465.584 113.051 466.287 117.569C466.521 123.072 466.257 128.384 470.659 132.479C474.371 135.933 480.112 136.561 483.701 132.572C488.09 127.694 485.852 119.656 484.846 113.879C488.187 113.917 490.867 113.764 493.826 115.516C505.764 132.731 483.396 160.326 465.615 140.775C464.035 161.749 465.424 191.9 465.615 213.448C471.026 212.848 476.018 212.603 481.429 213.448C481.171 176.341 488.555 182.5 506.76 155.673C519.284 137.218 520.927 110.972 504.195 94.4987C489.571 80.1011 469.734 79.3827 450.487 79.6316L449.864 79.6402ZM418.954 224.651C414.359 225.552 412.402 232.25 416.719 234.765C420.973 237.243 487.517 235.912 498.22 236.117C502.518 233.67 507.501 225.036 497.263 224.697C475.218 223.967 453.162 225.037 431.117 224.563C427.093 224.476 422.952 224.126 418.954 224.651ZM447.84 247.177C446.954 247.198 445.705 247.075 444.921 247.521C441.647 256.461 454.127 272.742 464.812 263.639C468.567 259.004 469.704 252.95 470.399 247.177C463.156 246.873 455.041 246.542 447.84 247.177Z"/>
	<path fill="#20154c" transform="scale(1.6 1.6)" d="M468.432 303.653C474.171 300.817 507.822 298.582 509.951 304.367C512.503 311.305 511.102 336.745 511.101 344.854L511.112 438.198C511.118 443.518 511.584 449.315 511.094 454.594L511.094 504.39C514.703 504.511 539.209 502.861 531.343 513.033C527.936 517.439 498.822 515.533 492.586 515.529L106.676 515.548C99.7822 515.563 92.6077 515.971 85.7481 515.432C81.1848 515.074 76.4878 510.109 80.6416 505.95C83.8066 502.781 119.118 504.484 125.606 504.39C125.798 497.057 125.728 489.627 125.553 482.295C125.207 467.77 122.88 468.048 139.428 468.298C145.115 468.384 150.811 468.325 156.499 468.319C158.038 460.629 157.664 436.227 157.198 427.281C165.274 426.137 173.582 426.562 181.72 426.497C186.97 426.455 197.574 423.977 198.324 431.43C199.043 438.578 198.43 447.927 198.427 455.357L198.439 504.39C205.427 504.367 212.811 505.045 219.733 504.39C218.995 485.179 219.744 465.842 219.734 446.616L219.716 425.693C219.704 405.813 217.56 406.201 239.119 406.227C245.466 406.234 251.819 406.056 258.164 406.24C259.204 406.993 260.103 407.862 261.027 408.747C264.056 417.381 261.883 490.952 262.177 504.39C266.142 504.904 279.004 504.749 282.895 504.39C284.121 498.726 283.599 492.011 283.594 486.211L283.576 447.397C283.575 443.318 282.205 426.202 285.256 423.709C287.502 421.875 313.781 422.537 318.546 422.633C328.744 422.84 325.562 432.814 325.611 441.951L325.687 490.86C325.697 495.366 325.918 499.888 325.679 504.39C332 504.451 338.35 504.812 344.663 504.39L344.663 392.102C350.102 385.666 383.056 387.821 385.743 389.122C388.904 396.11 387.184 424.787 387.185 433.599L387.177 504.39C393.385 504.144 399.613 504.699 405.813 504.39L405.813 420.276C407.374 432.11 406.424 444.041 406.803 455.933C407.281 453.718 408.367 453.345 410.514 453.411L411.03 453.423C411.742 453.446 411.75 452.669 411.838 452.096C414.855 452.847 415.269 460.462 415.57 463.282C417.578 453.711 414.555 443.672 415.521 433.986L415.987 433.75L415.819 433.808C415.803 435.203 415.37 439.222 416.222 440.224L416.222 504.39C423.199 504.192 430.209 504.675 437.175 504.39L437.175 463.607C437.54 462.162 437.593 460.679 437.618 459.194L437.625 458.619L437.85 458.782C437.501 461.659 436.6 485.289 439.016 486.718C440.353 485.49 442.411 484.533 444.241 484.929L444.905 486.18L444.705 486.753C445.174 486.729 445.264 486.704 445.673 486.474L446.082 486.764C446.861 488.803 446.498 491.945 446.729 494.197C449.137 482.299 445.423 465.879 447.84 456.191C448.347 470.499 446.189 491.285 447.84 504.39C454.685 504.463 461.605 503.927 468.432 504.39L468.432 449.224L468.449 318.463C468.458 313.605 468.868 308.477 468.432 303.653ZM468.432 303.653C468.868 308.477 468.458 313.605 468.449 318.463L468.432 449.224C468.686 447.976 468.823 446.767 468.908 445.497L469.148 445.55C469.744 455.411 468.59 465.457 469.298 475.302C469.769 474.673 470.658 471.501 472.001 469.419C477.737 466.92 478.258 468.26 478.915 472.349C479.336 467.659 479.818 445.219 479.254 441.53C479.901 454.087 478.06 472.551 479.567 483.813C479.242 490.712 479.538 497.497 479.567 504.39C486.135 503.802 493.504 504.322 500.16 504.39L500.16 444.179C501.146 446.442 500.702 494.315 501.154 503.301L501.604 502.957C503.072 503.124 509.393 504.414 510.354 502.019C511.055 500.276 510.471 455.61 510.801 446.674C510.774 448.464 510.209 453.195 511.094 454.594C511.584 449.315 511.118 443.518 511.112 438.198L511.101 344.854C511.102 336.745 512.503 311.305 509.951 304.367C507.822 298.582 474.171 300.817 468.432 303.653ZM355.326 398.757C355.106 410.678 355.327 422.632 355.33 434.557L355.326 504.39C362.297 503.835 369.299 505.02 376.274 504.39L376.274 398.757L355.326 398.757ZM229.958 416.712L229.958 504.39C236.903 504.379 244.675 505.331 251.491 504.39C251.776 497.201 251.475 489.942 251.474 482.744L251.48 438.635C251.475 431.442 250.969 423.868 251.491 416.712C244.319 416.716 237.127 416.834 229.958 416.712ZM293.91 433.413L293.91 504.39C299.389 504.772 309.953 505.096 315.073 504.39C315.613 481.256 313.691 456.059 315.073 433.413C308.042 433.392 300.93 433.129 293.91 433.413ZM182.495 436.966C177.494 436.938 172.415 437.23 167.43 436.966L167.43 504.39C169.556 504.381 171.704 504.311 173.828 504.39C178.48 504.658 183.135 504.543 187.79 504.39C187.615 489.128 187.804 473.847 187.796 458.583L187.749 444.256C187.736 441.893 187.516 439.305 187.79 436.966C186.028 436.938 184.254 436.86 182.495 436.966ZM136.18 477.89C136.165 486.719 136.043 495.563 136.18 504.39C142.941 504.408 149.743 504.576 156.499 504.39C156.35 495.559 156.526 486.722 156.499 477.89C149.65 478.703 143.028 477.698 136.18 477.89Z"/>
	<path fill="#20154c" transform="scale(1.6 1.6)" d="M468.432 303.653C474.171 300.817 507.822 298.582 509.951 304.367C512.503 311.305 511.102 336.745 511.101 344.854L511.112 438.198C511.118 443.518 511.584 449.315 511.094 454.594C510.209 453.195 510.774 448.464 510.801 446.674C510.471 455.61 511.055 500.276 510.354 502.019C509.393 504.414 503.072 503.124 501.604 502.957L501.154 503.301C500.702 494.315 501.146 446.442 500.16 444.179L500.16 504.39C493.504 504.322 486.135 503.802 479.567 504.39C479.538 497.497 479.242 490.712 479.567 483.813C478.06 472.551 479.901 454.087 479.254 441.53C479.818 445.219 479.336 467.659 478.915 472.349C478.258 468.26 477.737 466.92 472.001 469.419C470.658 471.501 469.769 474.673 469.298 475.302C468.59 465.457 469.744 455.411 469.148 445.55L468.908 445.497C468.823 446.767 468.686 447.976 468.432 449.224L468.449 318.463C468.458 313.605 468.868 308.477 468.432 303.653ZM479.567 311.48C479.861 315.104 479.651 318.805 479.606 322.442L479.596 474.126C479.604 477.305 479.814 480.649 479.567 483.813C479.242 490.712 479.538 497.497 479.567 504.39C486.135 503.802 493.504 504.322 500.16 504.39L500.16 444.179C500.02 438.923 500.245 433.664 500.163 428.407L499.666 323.071C499.644 319.315 499.061 315.165 499.69 311.48L479.567 311.48Z"/>
</svg>
