<?xml version="1.0" encoding="utf-8" ?>
<svg xmlns="http://www.w3.org/2000/svg" xmlns:xlink="http://www.w3.org/1999/xlink" width="396" height="396">
	<path fill="hsl(192, 100%, 86%)" transform="scale(0.61875 0.61875)" d="M125.284 139.523C141.005 139.165 141.648 151.011 121.484 150.921C115.26 151.178 106.083 147.654 111.839 141.627C114.494 138.848 121.687 139.575 125.284 139.523Z"/>
	<path fill="hsl(192, 100%, 86%)" transform="scale(0.61875 0.61875)" d="M157.652 140.408C162.152 140.021 173.706 139.255 177.451 141.556C181.472 144.027 180.521 150.294 174.276 151.176C169.191 151.027 153.89 153.598 151.769 146.927C150.226 142.075 153.456 141.075 157.652 140.408Z"/>
	<path fill="hsl(192, 100%, 86%)" transform="scale(0.61875 0.61875)" d="M351.374 465.014C363.771 464.399 376.291 464.932 388.709 464.689L390.476 465.148C387.239 466.095 378.277 463.573 376.467 467.259C371.302 477.773 404.782 473.463 406.914 474.559C406.258 474.719 405.61 474.871 404.946 474.992C389.688 475.435 371.957 475.779 356.781 474.815C353.911 473.467 350.442 474.089 347.345 473.867C347.422 466.554 345.321 467.78 351.108 465.138L351.374 465.014Z"/>
	<path fill="hsl(192, 100%, 86%)" transform="scale(0.61875 0.61875)" d="M438.314 188.039C417.237 187.737 396.031 187.581 374.949 187.844C370.847 187.896 365.738 181.791 369.671 178.571C373.224 175.661 411.081 176.78 417.896 177.167L419.004 177.603C411.491 179.905 392.682 172.423 402.882 184.049C409.048 191.077 429.567 185.255 438.314 188.039Z"/>
	<path fill="hsl(192, 100%, 86%)" transform="scale(0.61875 0.61875)" d="M311.818 436.394C318.126 436.328 335.932 435.385 340.903 437.681C344.147 444.331 343.791 447.593 336.136 447.682C330.829 447.69 310.741 448.667 307.183 446.269C302.558 443.151 305.033 436.81 311.818 436.394Z"/>
	<path fill="hsl(192, 100%, 86%)" transform="scale(0.61875 0.61875)" d="M359.726 329.222L361.046 329.872C358.697 333.992 361.39 336.668 363.249 339.014C361.664 338.981 359.989 338.674 358.691 339.734C352.575 341.369 352.332 349.762 357.837 352.584C362.585 355.017 389.623 353.77 396.997 353.967C393.773 354.109 383.275 353.248 380.999 354.217C377.992 355.497 377.181 362.203 380.224 364.106L380.286 364.327L378.805 364.509L379.357 364.906C371.604 365.126 355.874 365.842 349.706 360.986C339.416 352.883 342.121 331.195 359.726 329.222Z"/>
	<path fill="hsl(192, 100%, 86%)" transform="scale(0.61875 0.61875)" d="M278.03 410.314L330.795 410.346C341.272 410.345 351.799 410.124 362.266 410.606L362.365 411.047C359.084 412.174 347.87 409.14 352.774 417.095C357.013 423.971 366.165 419.017 372.231 421.277C368.966 421.583 365.491 421.34 362.207 421.332L343.599 421.312C324.35 421.315 305.083 421.505 285.837 421.225C289.589 420.305 293.437 420.838 297.269 420.867L293.363 420.509C291.075 420.28 287.412 420.162 285.894 418.309C285.152 413.083 280.711 412.456 288.007 410.938C286.067 410.925 278.956 411.527 277.723 410.728L278.03 410.314Z"/>
	<path fill="hsl(192, 100%, 86%)" transform="scale(0.61875 0.61875)" d="M473.834 156.293C468.771 156.958 463.055 156.484 457.922 156.482L375.304 156.474C369.855 156.479 357.844 157.229 353.112 156.111C351.696 154.624 351.639 149.473 353.061 148.093C355.823 145.413 362.457 146.595 365.923 146.546L420.886 145.821C429.829 145.708 438.844 145.37 447.782 145.654L449.689 145.947L449.648 146.189L449.167 146.274L449.106 145.914L448.294 145.752L448.397 146.308C442.617 146.288 435.436 145.628 429.871 146.715C425.801 147.51 420.112 146.303 425.605 152.312C432.959 160.357 461.935 154.59 473.834 156.293Z"/>
	<path fill="hsl(192, 100%, 86%)" transform="scale(0.61875 0.61875)" d="M324.507 536.293L374.84 536.254C383.736 536.257 392.902 535.803 401.764 536.35C414.428 550.944 384.836 547.445 378.303 547.446L338.589 547.454C337.586 547.339 336.699 547.328 335.87 546.688L336.698 546.876C334.762 545.603 320.631 539.582 324.235 536.798C322.936 536.878 321.664 536.913 320.364 536.873C320.788 536.492 323.749 536.409 324.507 536.293Z"/>
	<path fill="hsl(192, 100%, 86%)" transform="scale(0.61875 0.61875)" d="M300.579 142.657C310.275 142.483 321.005 139.217 315.655 153.511C301.832 155.345 265.077 154.235 251.172 153.379C247.53 153.38 239.49 154.255 236.815 151.638C224.787 139.868 256.044 142.72 259.815 142.727L300.579 142.657Z"/>
	<path fill="hsl(192, 100%, 86%)" transform="scale(0.61875 0.61875)" d="M389.637 296.096C397.321 295.951 452.681 295.356 455.312 296.462C457.34 297.314 457.993 299.546 458.702 301.433C456.294 308.701 448.076 306.768 441.87 306.751C427.875 307.604 392.954 308.58 378.942 306.695C374.808 306.14 371.633 301.343 375.294 297.959C378.364 295.121 385.74 296.074 389.637 296.096Z"/>
	<path fill="hsl(192, 100%, 86%)" transform="scale(0.61875 0.61875)" d="M242.342 545.446C233.53 532.193 269.233 536.25 275.009 536.249L324.507 536.293C323.749 536.409 320.788 536.492 320.364 536.873C321.664 536.913 322.936 536.878 324.235 536.798C320.631 539.582 334.762 545.603 336.698 546.876L335.87 546.688C336.699 547.328 337.586 547.339 338.589 547.454L258.039 547.456C252.557 547.46 247.258 548.285 242.342 545.446Z"/>
	<path fill="hsl(192, 100%, 86%)" transform="scale(0.61875 0.61875)" d="M380.826 265.171C386.385 264.896 392.004 265.043 397.57 265.04L447.519 265.032C453.796 265.034 461.614 264.054 467.546 266.476C468.576 267.508 469.237 268.63 469.961 269.877C468.83 274.762 467.711 275.869 462.539 276.018L408.857 276.004C400.048 276.005 390.455 276.667 381.74 275.852C372.382 274.976 371.724 265.708 380.826 265.171Z"/>
	<path fill="hsl(192, 100%, 86%)" transform="scale(0.61875 0.61875)" d="M354.554 230.253C359.293 230.505 360.321 233.847 360.379 237.807C360.585 251.818 360.656 267.676 360.248 281.61C360.119 286.011 358.6 287.148 354.418 288.576C350.273 286.478 347.387 282.705 344.283 279.35C337.4 271.97 323.992 265.492 331.814 254.1C335.368 248.923 349.784 233.333 354.554 230.253ZM349.186 251.211C345.67 253.575 342.748 256.343 340.533 259.98C342.249 261.985 344.03 263.893 345.881 265.774L350.106 270.231C350.113 267.563 350.703 252.098 349.186 251.211Z"/>
	<path fill="hsl(192, 100%, 86%)" transform="scale(0.61875 0.61875)" d="M485.126 234.525C493.2 234.335 498.849 240.173 493.663 244.319C490.823 246.589 474.618 245.353 470.793 245.355L405.757 245.348C398.769 245.345 391.751 245.491 384.772 245.088C381.229 245.009 370.037 242.748 374.852 237.462C378.458 233.504 387.275 234.636 392.033 234.649L410.851 234.679C435.574 234.683 460.419 235.171 485.126 234.525Z"/>
	<path fill="hsl(192, 100%, 86%)" transform="scale(0.61875 0.61875)" d="M359.726 329.222C371.217 328.442 410.374 327.579 420.807 329.625C438.711 333.137 440.864 364.854 411.846 365.047C401.038 365.12 390.159 365.147 379.357 364.906L378.805 364.509L380.286 364.327L380.224 364.106C377.181 362.203 377.992 355.497 380.999 354.217C383.275 353.248 393.773 354.109 396.997 353.967C389.623 353.77 362.585 355.017 357.837 352.584C352.332 349.762 352.575 341.369 358.691 339.734C359.989 338.674 361.664 338.981 363.249 339.014C361.39 336.668 358.697 333.992 361.046 329.872L359.726 329.222ZM358.691 339.734C352.575 341.369 352.332 349.762 357.837 352.584C362.585 355.017 389.623 353.77 396.997 353.967C402.312 353.814 417.047 355.484 420.799 352.158C424.818 348.595 423.539 340.906 417.936 340.026C411.874 339.074 403.888 339.65 397.687 339.647L358.691 339.734Z"/>
	<path fill="hsl(192, 100%, 86%)" transform="scale(0.61875 0.61875)" d="M417.896 177.167L516.89 176.522C535.98 176.323 532.379 175.352 532.442 195.232L532.465 401.142C532.478 407.371 533.134 414.288 532.164 420.421C525.49 422.683 500.665 421.312 492.555 421.312L390.05 421.32C384.308 421.321 377.869 421.829 372.231 421.277C366.165 419.017 357.013 423.971 352.774 417.095C347.87 409.14 359.084 412.174 362.365 411.047L362.266 410.606C375.923 409.746 389.901 410.347 403.599 410.348L479.514 410.352C493.463 410.353 507.539 410.747 521.47 410.184C521.802 396.336 521.482 382.401 521.482 368.542L521.479 224.948C521.478 212.622 521.783 200.218 521.171 187.907C516.696 187.755 512.235 187.961 507.76 187.935L479.984 187.813C466.126 187.815 452.153 187.437 438.314 188.039C429.567 185.255 409.048 191.077 402.882 184.049C392.682 172.423 411.491 179.905 419.004 177.603L417.896 177.167Z"/>
	<path fill="hsl(192, 100%, 86%)" transform="scale(0.61875 0.61875)" d="M221.48 227.929C276.522 221.852 288.276 310.323 229.45 315.571C172.228 322.748 160.946 236.033 221.48 227.929ZM221.779 239.183C177.71 244.463 184.483 308.864 228.494 304.651C274.952 296.653 260.303 232.964 221.779 239.183Z"/>
	<path fill="hsl(192, 100%, 86%)" transform="scale(0.61875 0.61875)" d="M447.782 145.654L504.857 145.605C525.434 145.607 554.983 140.906 554.879 171.396L554.818 425.708C554.834 443.889 559.479 470.449 534.758 474.802C529.839 475.669 524.519 475.149 519.534 475.125L495.998 475.105C466.867 475.104 437.653 475.554 408.531 475.063L404.946 474.992C405.61 474.871 406.258 474.719 406.914 474.559C404.782 473.463 371.302 477.773 376.467 467.259C378.277 463.573 387.239 466.095 390.476 465.148L388.709 464.689C400.173 464.984 411.667 464.819 423.135 464.818L513.298 464.825C539.505 464.832 543.79 466.734 543.725 441.563L543.722 184.609C543.755 159.174 546.684 156.454 516.567 156.478C502.391 156.49 487.985 157.015 473.834 156.293C461.935 154.59 432.959 160.357 425.605 152.312C420.112 146.303 425.801 147.51 429.871 146.715C435.436 145.628 442.617 146.288 448.397 146.308L448.294 145.752L449.106 145.914L449.167 146.274L449.648 146.189L449.689 145.947L447.782 145.654Z"/>
	<path fill="hsl(192, 100%, 86%)" transform="scale(0.61875 0.61875)" d="M190.338 317.611C199.003 317.27 213.859 342.367 240.518 328.563C246.919 325.248 253.935 316.641 261.641 317.83C293.449 322.741 305.669 358.937 301.294 387.447C295.966 389.538 279.971 388.586 273.429 388.716C262.564 388.443 251.664 388.611 240.795 388.611L163.804 388.639C147.974 388.723 147.239 391.639 147.598 374.766C148.185 347.238 159.706 321.031 190.338 317.611ZM262.397 328.664C249.178 336.054 241.486 343.047 225.351 342.878C207.548 342.692 202.353 337.177 187.658 328.712C163.769 336.807 157.551 354.805 158.149 377.946C163.256 377.981 168.352 378.051 173.453 377.737C181.444 378.17 189.493 377.989 197.495 377.99L270.009 377.989C277.046 377.989 284.139 378.21 291.167 377.824C290.943 359.51 282.34 333.639 262.397 328.664Z"/>
	<path fill="hsl(192, 100%, 86%)" transform="scale(0.61875 0.61875)" d="M231.918 109.761L312.406 109.711C316.462 109.696 320.748 109.387 324.745 110.174C349.475 115.048 343.884 143.974 343.92 162.213L343.973 174.832C344.014 177.885 344.256 180.968 343.941 184.01C339.537 190.268 325.022 187.826 317.668 187.825L123.754 187.835L123.765 410.406L278.03 410.314L277.723 410.728C278.956 411.527 286.067 410.925 288.007 410.938C280.711 412.456 285.152 413.083 285.894 418.309C287.412 420.162 291.075 420.28 293.363 420.509L297.269 420.867C293.437 420.838 289.589 420.305 285.837 421.225C272.974 421.476 260.085 421.325 247.217 421.324L140.58 421.318C133.771 421.314 119.98 422.831 114.113 419.69C111.774 414.972 113.116 377.333 113.116 369.929L113.156 194.136C113.196 190.342 111.37 180.149 115.683 178.259C119.874 176.422 186.99 177.358 196.494 177.362L269.801 176.952C290.726 176.951 311.786 177.445 332.691 176.77C332.259 165.62 332.537 154.389 332.553 143.229C332.583 122.892 334.488 119.303 310.578 120.151C306.273 120.303 301.942 120.219 297.634 120.221L162.649 120.205C152.844 120.206 110.961 117.702 104.642 124.95C98.9922 131.431 101.371 143.191 101.363 151.065L101.309 440.805C101.26 464.743 101.1 464.855 127.27 464.799L294.726 464.811C310.942 464.803 326.94 462.905 343.237 463.845C346.402 466.144 347.909 464.92 351.374 465.014L351.108 465.138C345.321 467.78 347.422 466.554 347.345 473.867C350.442 474.089 353.911 473.467 356.781 474.815C354.526 481.97 364.297 503.294 370.309 509.017C373.297 511.862 379.861 514.039 380.373 518.637C381.433 528.166 364.532 524.521 358.892 524.409C336.385 523.961 313.726 523.543 291.221 523.741C287.255 523.776 262.997 526.838 263.914 520.633C265.041 513.012 287.587 512.528 291.612 474.698C276.736 474.323 261.695 475.092 246.8 475.196L119.853 476.217C94.2808 476.176 90.1962 464.972 90.6797 441.835C90.8047 435.852 90.7248 429.85 90.7246 423.865L90.7405 145.188C90.7326 141.554 90.2868 137.93 90.3295 134.3C90.6822 104.287 129.113 109.745 149.345 109.727L198.933 109.821C209.895 109.656 220.958 109.513 231.918 109.761ZM302.199 474.698C302.284 489.243 297 503.875 286.434 513.98L344.219 514.056C349.299 514.015 354.781 514.275 359.801 513.39L359.584 512.952C352.393 498.621 346.167 493.589 346.198 474.735C334.596 475.703 313.751 475.803 302.199 474.698Z"/>
</svg>
