<?xml version="1.0" encoding="utf-8" ?>
<svg xmlns="http://www.w3.org/2000/svg" xmlns:xlink="http://www.w3.org/1999/xlink" width="632" height="632">
	<path fill="hsl(192, 100%, 86%)" transform="matrix(0.9875 0 0 0.9875 -0.000244141 0)" d="M266.259 495.72C229.55 475.964 263.528 432.321 233.516 409.415C222.386 400.921 208.983 410.102 197.22 411.394C173.199 414.032 161.983 388.489 169.575 368.038C176.22 350.138 182.091 351.092 173.153 331.391C164.754 312.879 155.787 309.637 140.984 297.644C130.334 289.015 120.335 277.242 127.542 263.222C135.464 247.812 154.367 248.759 164.122 235.841C170.624 227.229 166.436 219.312 177.914 205.053C185.795 195.262 173.117 182.717 168.885 174.254C157.929 152.346 176.084 124.286 201.281 132.699C209.635 135.489 212.684 139.562 222.335 138.421C232.888 137.174 229.958 127.542 235.23 121.349C244.151 110.871 255.35 113.637 267.011 112.731C295.362 110.528 288.926 72.1536 319.615 69.8185C344.094 69.1212 343.955 89.306 353.547 102.067C363.735 115.621 373.734 109.908 387.8 111.993C426.578 117.74 392.646 159.871 428.87 137.234C457.458 119.37 486.833 145.659 470.375 174.507C466.862 180.665 461.88 183.495 461.31 191.321C460.791 198.451 467.947 202.646 470.286 208.878C472.963 216.008 470.949 223.746 473.991 230.855C482.087 249.78 518.096 247.892 515.274 275.44C513.545 292.329 494.181 299.681 482.764 309.163C474.099 316.359 464.762 332.542 463.601 344.031C462.067 359.206 489.082 384.809 461.748 406.697C447.829 417.842 435.384 407.369 421.074 405.84C399.987 403.588 391.692 429.966 392.48 446.905C393.627 471.546 397.379 477.328 374.935 495.639C389.29 528.075 347.977 538.894 324.159 540.175C310.513 540.583 287.456 539.692 276.364 531.668C265.572 523.862 257.39 507.957 266.259 495.72ZM318.579 81.3231C299.507 84.4753 304.063 117.85 271.948 123.613C261.332 125.518 248.231 120.839 241.616 132.186C241.303 150.478 219.939 152.947 206.047 147.843C199.956 145.605 195.206 141.809 188.296 143.347C180.957 144.98 177.086 151.648 177.07 158.881C177.035 174.459 196.889 186.738 191.13 205.28C188.309 214.365 181.384 214.363 178.767 228.91C173.034 260.783 136.595 255.119 136.763 272.89C136.87 284.197 159.176 296.268 166.871 302.984C177.543 312.297 188.589 331.906 189.029 346.345C189.496 361.687 167.97 381.626 184.165 396.55C191.603 403.404 201.203 398.548 209.33 396.129C240.397 386.879 257.549 413.785 259.349 441.619C260.434 458.383 253.059 469.816 268.173 483.192C278.149 492.022 291.148 490.173 303.547 490.167L328.042 490.111L345.634 490.17C357.796 490.196 366.157 490.068 375.323 480.931C385.447 470.838 381.192 459.057 380.931 446.762C380.285 416.281 398.234 386.546 432.236 396.122C440.688 398.503 449.218 403.38 456.788 395.759C465.073 387.418 462.056 374.15 457.471 364.822C450.317 350.271 450.743 342.175 456.909 327.347C462.939 312.847 469.59 304.608 482.076 295.416C488.19 290.915 504.476 282.172 504.094 273.384C503.248 253.966 463.183 258.783 460.503 224.09C459.844 215.55 461.455 214.995 455.796 207.841C438.507 185.982 460.085 177.053 463.003 161.729C465.008 151.198 456.989 142.003 446.243 142.89C435.309 143.793 427.209 156.923 412.209 155.515C392.502 153.666 403.462 132.363 391.436 124.708C378.409 116.415 357.761 139.079 337.543 97.4344C333.064 88.2095 330.693 80.3745 318.579 81.3231ZM275.235 501.345C270.938 510.669 278.341 520.094 286.696 523.78C304.071 531.445 340.425 530.652 357.407 520.681C364.544 515.903 368.594 509.731 364.55 501.417C358.721 501.177 352.809 501.467 346.968 501.473L287.036 501.449C283.127 501.414 279.125 500.992 275.235 501.345Z"/>
	<path fill="hsl(192, 100%, 86%)" transform="matrix(0.9875 0 0 0.9875 -0.000244141 0)" d="M322.031 466.44L302.06 466.482C283.4 466.523 284.814 465.645 285.097 448.498C285.593 418.373 278.467 406.766 260.53 384.117C249.068 369.642 234.309 354.283 224.11 339.911C169.286 262.656 217.368 148.907 316.637 144.819C376.097 142.666 426.66 189.108 435.606 246.903C443.357 296.98 423.575 333.835 388.851 366.806C365.537 388.944 354.81 413.598 355.334 445.192C355.635 463.35 358.918 466.572 340.059 466.5L322.031 466.44ZM315.363 156.387C220.424 161.001 182.678 270.876 240.513 342.335C250.533 354.716 261.376 366.353 271.632 379.205C292.984 405.96 296.766 420.707 296.513 454.686C305.618 455.112 314.79 454.874 323.906 454.896L344.029 454.899C342.564 420.012 348.835 392.733 373.57 365.792C380.961 357.741 389.634 350.934 396.852 342.777C437.343 297.01 435.22 225.741 389.765 184.134C369.999 166.041 342.389 154.679 315.363 156.387Z"/>
	<path fill="hsl(192, 100%, 86%)" transform="matrix(0.9875 0 0 0.9875 -0.000244141 0)" d="M323.784 381.406L323.802 401.501C323.826 406.361 324.585 411.968 323.358 416.706C321.518 423.816 313.909 423.084 312.583 416.176C311.67 411.417 312.36 402.138 312.391 396.997L312.403 353.669C312.432 332.836 316.206 315.934 293.403 309.269C286.365 307.212 286.814 300.508 292.828 297.873C304.33 296.885 313.861 304.36 318.909 314.352C326.498 302.195 352.944 289.309 353.095 304.344C353.15 309.814 344.314 309.024 340.702 310.119C322.459 315.65 323.762 339.459 323.768 354.512L323.784 381.406Z"/>
	<path fill="hsl(192, 100%, 86%)" transform="matrix(0.9875 0 0 0.9875 -0.000244141 0)" d="M353.919 552.809C336.896 570.425 314.42 575.983 294.473 559.322C288.797 554.58 278.303 547.22 285.515 539.66C296.726 539.061 312.974 573.24 339.261 550.116C342.096 547.623 346.043 542.549 349.719 541.683C355.282 540.372 357.624 547.921 353.919 552.809Z"/>
</svg>
