<?xml version="1.0" encoding="utf-8" ?>
<svg xmlns="http://www.w3.org/2000/svg" xmlns:xlink="http://www.w3.org/1999/xlink" width="1024" height="1024">
	<path fill="#20154c" transform="scale(1.6 1.6)" d="M103.701 271.577C110.855 252.488 119.966 239.343 142.277 236.879C159.842 234.939 181.714 237.263 200.071 236.472C247.718 234.418 296.276 225.192 337.881 200.994C367.424 183.811 401.289 156.597 434.897 151.354C437.663 151.057 440.862 150.736 443.067 152.775C451.475 160.548 449.865 203.862 449.865 215.789L449.926 283.979C487.446 282.128 503.497 319.489 479.042 343.944C469.978 353.008 461.994 354.243 449.74 354.22C450.297 375.729 452.402 471.451 442.122 478.868C438.699 481.338 433.338 480.039 429.565 479.122C391.231 469.8 356.272 432.601 320.889 413.39C298.584 401.28 264.911 388.003 239.636 383.488C233.035 401.914 222.129 416.152 202.171 420.167C206.944 434.678 222.519 451.054 224.39 460.062C224.895 473.294 210.236 486.82 197.647 487.79C170.049 489.914 140.499 407.931 138.677 379.739C118.26 377.613 106.004 367.309 101.464 346.59C65.1555 332.032 68.1994 286.731 103.701 271.577ZM432.979 164.748C399.485 171.793 359.745 205.04 326.664 221.569C303.33 233.227 271.158 240.381 245.512 245.035C231.316 287.632 226.841 327.452 243.99 370.96C267.099 376.763 289.676 384.333 311.358 394.282C321.57 399.168 331.918 404.268 341.366 410.545C372.168 431.01 397.852 455.99 434.032 467.024C438.495 445.422 437.175 423.323 437.177 401.415L437.173 236.114C437.173 226.936 438.454 171.259 435.16 164.975C434.861 164.403 433.528 164.666 432.979 164.748ZM227.182 247.321C215.109 248.064 202.914 249.148 190.82 249.266L159.27 249.262C145.94 249.262 134.203 247.762 124.554 258.779C111.68 273.478 108.764 311.649 110.138 331.853C110.954 343.854 117.844 359.396 129.153 365.047C136.63 368.027 143.258 367.019 151.091 366.936C173.806 366.696 207.508 365.116 229.709 369.275C217.103 334.131 217.447 280.483 231.908 247.188C230.347 247.228 228.736 247.198 227.182 247.321ZM99.9808 287.523C87.6202 297.965 84.3714 315.111 95.0486 327.988C96.2463 329.423 97.4554 330.848 98.6012 332.325C92.7839 308.259 101.713 290.108 99.9808 287.523ZM450.007 295.294C449.538 310.268 449.35 326.909 449.766 341.932C457.707 341.39 463.757 340.407 469.905 334.946C487.225 317.11 474.657 295.37 450.007 295.294ZM188.901 379.409C191.632 389.164 193.994 399.304 197.967 408.636C203.65 407.655 208.343 405.961 213.241 402.899C215.077 401.607 216.822 400.305 218.495 398.808C218.847 392.979 218.567 387.109 218.412 381.275C208.758 379.874 198.651 378.841 188.901 379.409ZM151.777 379.687C154.664 407.137 167.045 439.396 182.604 462.194C189.407 472.161 194.511 481.362 206.485 470.092C208.779 467.535 210.446 465.12 211.652 461.879C209.01 455.905 204.173 451.299 200.887 445.714C190.46 427.995 179.255 400.797 177.403 379.738C168.876 379.512 160.307 379.578 151.777 379.687Z"/>
	<path fill="#20154c" transform="scale(1.6 1.6)" d="M577.438 326.508C567.829 326.879 570.215 317.628 569.57 310.75C565.555 267.898 534.645 230.5 490.983 223.49C486.695 222.801 472.701 222.449 476.114 214.555C477.158 212.141 478.912 210.973 481.283 210.071C491.746 209.427 503.933 212.748 513.665 216.538C555.244 232.729 577.814 268.292 582.319 311.11C582.965 317.25 584.344 323.837 577.438 326.508Z"/>
	<path fill="#20154c" transform="scale(1.6 1.6)" d="M546.659 333.598C541 330.906 542.129 325.755 542.037 320.419C541.507 289.793 520.453 260.265 490.87 251.206C487.158 250.069 464.599 248.798 471.048 240.028C472.934 237.463 475.605 236.443 478.636 236.029C483.789 235.939 488.974 237.304 493.857 238.819C529.858 249.989 557.38 286.67 554.613 324.914C554.241 330.055 552.429 334.224 546.659 333.598Z"/>
	<path fill="#20154c" transform="scale(1.6 1.6)" d="M418.234 368.098C409.305 366.598 409.281 353.951 408.097 346.876C405.3 330.168 400.219 256.117 417.184 247.205C423.842 246.899 424.117 253.036 423.243 258.251C417.719 291.209 414.085 309.964 420.695 345.163C421.966 351.931 429.189 366.155 418.234 368.098Z"/>
	<path fill="#20154c" transform="scale(1.6 1.6)" d="M516.166 337.762C509.971 333.937 511.133 330.231 511.152 323.833C511.218 301.755 497.959 282.214 475.759 276.955C471.338 275.908 464.434 276.261 460.862 273.362C455.665 269.144 462.063 264.108 467.833 263.564C501.682 262.714 525.308 295.393 524.092 327.694C523.901 332.758 522.088 338.081 516.166 337.762Z"/>
	<path fill="#20154c" transform="scale(1.6 1.6)" d="M161.078 301.334C161.757 297.058 165.418 286.742 159.772 284.504C152.911 281.785 127.828 285.937 123.003 282.46C118.697 279.357 121.171 272.17 128.585 271.362C135.342 270.929 155.225 270.41 161.111 271.974C183.282 277.867 173.499 301.175 171.419 316.965C167.872 343.892 170.346 344.99 138.503 344.973C133.41 344.97 127.821 345.354 122.797 344.493C118.95 343.834 115.884 337.955 118.821 334.841C122.22 331.239 135.703 332.31 140.761 332.303C146.049 332.357 151.741 332.888 156.97 332.198C158.295 326.273 158.661 320.227 159.091 314.189C150.7 313.73 142.158 314.072 133.752 314.086C129.319 314.093 116.756 315.851 118.382 308.099C119.037 304.976 120.561 303.288 123.213 301.623C135.71 300.767 148.532 301.567 161.078 301.334Z"/>
</svg>
