<?xml version="1.0" encoding="utf-8" ?>
<svg xmlns="http://www.w3.org/2000/svg" xmlns:xlink="http://www.w3.org/1999/xlink" width="1024" height="1024">
	<path fill="hsl(192, 100%, 86%)" transform="scale(1.6 1.6)" d="M144.08 409.682C141.534 409.042 138.928 409.115 136.329 408.871C122.289 407.552 106.927 392.856 112.036 377.93C119.15 357.142 142.489 339.714 149.504 310.563C155.176 286.992 138.199 276.932 137.12 252.777C133.555 172.895 205.649 101.364 279.583 84.0566C291.605 81.2423 303.527 80.0418 315.837 79.5142L316.176 79.4946C365.596 76.9719 431.988 101.114 469.618 134.929C499.13 161.45 519.678 199.587 523.462 239.337C529.832 306.268 489.09 377.297 454.592 433.232C430.445 472.383 414.342 498.028 421.526 545.981C424.558 566.226 433.116 571.404 405.782 571.386L324.646 571.373C313.366 571.374 302.057 571.214 290.781 571.501C283.204 571.234 255.383 573.646 251.647 568.243C246.421 560.685 262.367 539.87 249.11 520.405C239.973 506.991 230.309 514.258 217.768 517.129C199.174 521.385 174.137 518.447 162.822 501.189C153.036 486.262 161.264 477.823 164.152 463.878C161.995 460.875 158.951 458.592 156.916 455.483C155.232 452.911 154.441 449.825 152.603 447.331C150.768 444.841 148.267 443.233 146.601 440.523C146.423 437.314 146.694 434.732 148.383 431.895L146.139 428.875C140.947 421.911 142.914 417.597 144.08 409.682ZM312.248 93.569C263.693 96.5487 221.132 119.151 189.049 155.432C167.148 180.197 148.434 216.851 150.42 250.881C151.196 264.17 158.615 274.107 162.691 286.209C178.161 332.132 112.083 376.752 129.078 391.333C137.702 398.732 155.304 389.308 157.529 409.753C157.951 413.629 157.205 417.697 158.372 421.453C161.723 432.244 165.393 425.195 163.932 441.415C168.679 450.034 181.498 456.461 178.33 468.113C176.083 476.378 169.178 483.989 174.188 492.925C183.308 509.194 208.272 505.412 222.761 501.049C233.528 497.806 241.098 496.424 250.773 503.109C267.582 514.724 272.279 538.73 266.381 557.476C276.532 557.513 286.734 557.299 296.876 557.625C333.433 556.948 372.803 556.605 409.332 557.651C402.014 503.895 408.892 481.44 435.98 436.828C479.367 365.372 536.396 277.563 495.843 192.72C480.428 160.471 453.883 135.624 422.322 119.464C392.1 103.991 346.712 90.6234 312.248 93.569Z"/>
	<path fill="hsl(192, 100%, 86%)" transform="scale(1.6 1.6)" d="M333.086 420.052C302.252 425.735 298.91 390.315 290.386 383.893C281.48 377.182 256.057 405.512 233.725 386.959C210.529 367.69 235.535 344.962 233.754 330.041C231.189 308.559 191.048 309.931 188.297 278.374C185.387 245.003 221.075 245.841 231.024 233.354C237.777 224.877 229.029 211.546 225.759 203.174C219.038 185.966 225.795 166.419 244.784 162.317C267.618 157.385 286.298 176.154 291.101 175.732C299.165 169.809 289.983 136.742 319.229 132.279C346.417 129.134 354.033 156.033 365.68 174.873C380.698 169.083 397.845 157.69 414.512 163.964C430.584 170.015 436.921 188.426 427.985 203.256C425.425 207.503 422.097 211.659 420.348 216.317C418.164 222.135 419.726 234.721 424.946 238.737C427.662 240.827 431.668 241.883 434.853 243.149C454.828 251.088 473.92 270.794 464.906 293.479C459.305 307.576 444.798 312.194 432.198 317.725C395.564 333.807 449.873 376.922 406.639 394.738C386.851 402.892 377.363 392.587 361.177 385.912C351.494 397.735 354.756 413.782 333.086 420.052ZM320.464 145.359C301.424 151.898 315.718 183.028 296.174 190.093C281.945 195.238 265.4 169.982 245.945 176.359C222.12 184.168 255.164 214.495 245.09 236.87C235.633 257.876 206.904 252.517 202.645 271.437C199.031 287.494 215.028 293.157 226.093 299.963C270.045 326.998 231.548 352.724 239.5 372.391C247.896 393.154 277.556 363.338 293.644 369.245C310.483 375.428 307.954 410.393 330.379 406.103C346.034 398.586 342.182 377.785 356.911 372.853C371.144 368.086 382.86 390.078 402.558 381.199C424.118 371.481 388.345 340.983 414.525 313.394C426.138 301.156 463.398 298.277 450.706 272.786C441.107 253.506 419.322 259.409 408.455 239.018C397.519 218.497 422.723 195.784 416.812 183.397C413.484 176.424 405.888 175.229 399.064 176.64C379.494 180.685 363.935 202.235 350.118 176.694C344.065 165.506 336.182 143.947 320.464 145.359Z"/>
	<path fill="hsl(192, 100%, 86%)" transform="scale(1.6 1.6)" d="M337.878 339.643C320.818 341.863 303.371 336.416 290.273 325.367C251.509 292.669 268.241 226.541 318.08 222.316C369.998 217.692 407.06 280.15 374.57 319.814C365.787 330.535 351.691 338.243 337.878 339.643ZM322.044 236.073C266.187 239.324 270.906 327.709 333.489 325.908C397.159 317.78 375.161 234.608 322.044 236.073Z"/>
</svg>
