<?xml version="1.0" encoding="utf-8" ?>
<svg xmlns="http://www.w3.org/2000/svg" xmlns:xlink="http://www.w3.org/1999/xlink" width="1024" height="1024">
	<path fill="hsl(192, 100%, 86%)" transform="scale(2 2)" d="M233.728 139.891C234.492 130.598 234.003 120.949 234.005 111.611L233.999 60.1382C233.998 56.6838 234.096 53.1982 233.948 49.7473C233.293 34.4176 232.223 39.036 245.388 30.0165C249.066 27.4965 252.67 24.8579 256.319 22.2943C263.374 27.9601 271.099 32.8841 278.358 38.3045C277.964 43.6264 278.053 48.9582 278.052 54.2904L278.077 139.791C300.222 120.666 315.894 107.685 326.281 77.9272C328.269 72.2329 328.979 66.5428 330.779 61.1122L330.901 60.7496C341.61 65.8554 352.38 74.3795 362.534 80.7785L383.831 93.9078C398.506 102.949 399.664 104.21 398.015 124.258C395.367 156.458 385.536 177.374 368.995 204.458C321.102 282.883 281.216 328.931 277.97 429.297C277.417 446.388 277.635 466.637 278.296 483.645C270.931 483.356 263.498 483.533 256.125 483.511L234.062 483.603C233.793 463.06 234.718 442.358 233.69 421.843C230.237 352.948 208.635 308.319 173.771 252.163C148.593 211.608 114.372 170.913 113.442 120.785C113.121 103.497 115.803 101.484 129.19 93.1794L169.816 67.777C173.517 65.5035 177.084 62.8178 180.961 60.8643L181.041 61.4564C185.502 92.8856 209.184 121.495 233.728 139.891Z"/>
	<path fill="hsl(192, 100%, 86%)" transform="scale(2 2)" d="M453.402 393.445C423.634 394.007 400.769 395.756 372.197 407.503C359.494 412.726 342.605 424.898 331.245 410.305C325.592 403.043 326.651 393.014 327.94 384.488C340.825 299.308 427.306 243.801 438.567 149.544C439.303 143.386 439.028 137.128 439.839 131.013C446.186 132.954 484.616 158.755 486.48 161.611C489.896 166.843 485.578 195.299 484.012 201.525C468.758 262.197 405.566 286.95 389.449 351.074C400.266 350.786 411.496 350.827 422.142 350.373C444.188 349.434 465.083 348.231 487.175 348.266C487.707 363.918 486.622 379.692 487.513 395.314C476.136 394.138 464.832 393.641 453.402 393.445Z"/>
	<path fill="hsl(192, 100%, 86%)" transform="scale(2 2)" d="M122.993 350.754C114.027 320.021 94.0184 295.076 72.7085 271.936C44.9735 241.819 23.1586 214.861 24.6728 171.405C24.7752 168.468 24.5999 164.645 25.7134 161.914C27.2615 158.117 66.3104 133.402 71.9663 131.274C72.4771 131.789 72.6891 142.576 72.7841 144.143C77.0492 214.536 130.526 266.011 162.45 324.835C172.709 343.738 196.37 394.465 179.032 412.036C166.462 424.774 147.499 410.236 134.724 405.223C110.038 395.536 84.4612 393.458 58.1875 393.51C47.1258 393.631 35.9853 394.673 24.9814 395.754C24.6753 379.904 25.1631 364.039 24.8249 348.189L94.0368 349.791C103.694 349.99 113.342 350.385 122.993 350.754Z"/>
</svg>
