<?xml version="1.0" encoding="utf-8" ?>
<svg xmlns="http://www.w3.org/2000/svg" xmlns:xlink="http://www.w3.org/1999/xlink" width="1024" height="1024">
	<path fill="hsl(192, 100%, 86%)" transform="scale(1.6 1.6)" d="M188.963 183.167C186.179 163.789 183.516 129.759 194.706 114.082C197.228 110.548 201.085 108.945 204.039 105.936C206.922 103 209.125 99.3799 211.98 96.3695C230.426 76.9211 257.212 70.2614 283.06 69.5173C316.157 69.2893 351.183 82.6923 365.754 114.574C376.422 137.918 370.086 160.07 361.566 182.676C377.261 191.384 366.289 220.879 359.166 231.144C357.31 233.818 353.86 235.586 352.492 238.572C350.813 242.238 349.729 246.261 348.171 250.005C336.027 279.192 309.756 308.06 276.04 308.757C242.615 308.035 213.66 277.78 202.192 247.981C197.409 235.553 199.136 240.427 192.077 230.693C184.862 220.744 175.642 192.888 188.963 183.167ZM279.582 82.9421C257.078 84.7116 222.861 94.3515 213.246 117.502C211.127 122.604 212.913 121.659 207.229 122.582C197.55 133.027 198.714 163.882 202.405 178.096C204.886 187.651 212.037 199.817 196.005 197.527C196.623 203.87 197.947 216.656 203.014 220.981C212.392 228.986 208.513 228.199 212.998 239.259C222.903 263.685 248.007 296.424 277.653 294.868C307.693 293.185 330.118 263.155 338.687 236.79C340.828 230.203 340.831 221.506 349.15 220.839C352.657 213.618 354.436 206.447 356.043 198.655C334.899 199.812 353.703 166.872 356.101 156.008C366.283 109.884 327.133 83.293 285.264 82.7807C283.415 82.7581 281.416 82.7106 279.582 82.9421Z"/>
	<path fill="hsl(192, 100%, 86%)" transform="scale(1.6 1.6)" d="M307.084 149.68C264.711 167.196 246.459 137.824 232.546 140.439C226.907 141.499 226.164 150.767 220.02 151.583C206.387 153.393 212.239 129.815 230.525 127.293C245.721 125.287 254.134 135.115 267.404 139.291C295.539 148.145 314.539 126.121 322.203 127.869C325.67 128.661 328.33 132.469 327.081 135.958C324.941 141.936 312.677 147.219 307.084 149.68Z"/>
	<path fill="hsl(192, 100%, 86%)" transform="scale(1.6 1.6)" d="M352.484 449.362C318.594 453.001 280.282 453.254 246.372 452.734C214.127 452.239 124.148 445.879 104.197 431.648C86.9002 419.31 97.7097 391.982 104.744 376.149C114.354 354.52 125.979 350.683 144.865 341.24C164.09 331.628 183.529 322.849 202.984 313.766C207.749 311.542 219.202 303.615 221.632 303.238C230.607 303.807 238.079 315.395 243.607 321.407C254.176 332.902 264.445 344.753 275.358 355.914C286.928 342.007 308.462 319.278 321.395 307.911C332.05 298.546 336.544 308.635 346.059 313.542C363.249 322.409 384.68 331.971 402.752 339.463C408.499 337.454 413.94 334.972 419.873 333.47C497.146 313.907 563.084 400.889 520.475 471.308C507.153 493.324 486.437 507.592 461.635 513.681C415.092 523.396 365.601 495.526 352.484 449.362ZM221.855 318.697C207.946 327.073 193.273 333.063 178.585 339.867C169.028 344.293 132.446 361.18 126.974 366.86C119.572 374.544 103.965 408.344 109.978 418.388C119.472 434.247 232.06 438.405 252.276 438.971C285.707 439.907 315.352 438.623 348.838 435.901L348.726 430.62C347.561 396.937 360.914 367.742 388.122 348.232L349.049 329.731C342.491 326.559 335.077 323.562 329.181 319.273C314.303 332.911 301.541 348.697 287.379 363.065C285.504 364.968 283.359 366.805 281.685 368.878C281.465 375.339 283.217 396.299 279.227 400.24C276.797 402.64 272.55 402.383 270.3 399.868C266.901 396.067 267.792 389.564 267.799 384.901L267.844 367.877C263.807 363.993 260.119 359.68 256.338 355.547L237.143 334.507C234.099 331.151 225.332 320.417 221.855 318.697ZM434.991 344.815C369.664 350.492 338.644 431.742 382.615 474.967C390.242 460.584 391.796 453.544 407.065 444.749C388.394 422.841 389.942 392.261 412.206 373.478C454.321 337.946 515.507 393.4 475.207 444.946C479.556 447.729 483.208 450.964 486.751 454.707C490.01 458.527 494.582 464.344 494.046 469.716C493.726 472.921 490.539 476.093 487.167 475.636C482.651 475.025 480.27 468.212 478.046 464.924C474.677 459.945 468.213 456.946 462.823 454.754C444.439 463.932 436.376 463.57 418.93 454.758C402.71 461.266 398.493 470.501 393.299 485.777C450.201 529.49 529.076 481.081 519.591 412.337C514.16 372.98 475.089 340.275 434.991 344.815ZM442.182 376.385C395.208 379.412 399.098 445.13 440.697 448C483.568 445.419 486.09 375.572 442.182 376.385Z"/>
	<path fill="hsl(192, 100%, 86%)" transform="scale(1.6 1.6)" d="M438.05 408.312C438.781 399.821 441.105 388.864 450.562 386.284C468.948 385.101 472.583 414.25 454.318 421.551C446.767 424.57 433.952 425.328 426.171 421.875C421.025 419.104 415.856 413.927 415.226 407.914C413.837 394.642 426.724 406.333 430.396 407.692C432.977 408.647 435.359 408.45 438.05 408.312ZM451.402 402.007C450.132 403.449 449.338 404.585 450.627 406.214L451.631 406.583C452.869 404.943 453.424 403.252 451.402 402.007Z"/>
</svg>
