<?xml version="1.0" encoding="utf-8" ?>
<svg xmlns="http://www.w3.org/2000/svg" xmlns:xlink="http://www.w3.org/1999/xlink" width="1024" height="1024">
	<path fill="#20154c" transform="scale(1.6 1.6)" d="M297.829 392.308C283.439 391.971 247.144 390.94 236.674 394.672C227.672 397.881 217.061 411.476 210.273 418.592C196.795 432.72 171.595 459.605 154.851 469.064C146.835 473.593 139.356 472.555 132.406 466.294C119.23 454.424 122.355 426.802 125.667 410.257C126.767 404.763 129.313 398.267 128.866 392.697C128.306 385.704 87.043 387.122 84.2063 341.614C83.5661 331.342 84.1105 320.751 84.1113 310.441L84.1037 203.174C84.0954 192.335 83.375 180.738 85.3579 170.05C89.8375 145.905 110.469 130.119 134.485 128.568C137.181 128.312 140.136 128.661 142.855 128.699L453.454 133.336C475.511 133.662 493.971 131.518 510.724 149.776C525.889 166.302 524.672 178.909 524.674 200.129L524.664 256.531C524.673 261.755 525.937 282.577 521.992 285.901C518.988 288.432 513.62 287.112 512.192 283.445C510.891 280.104 511.708 268.592 511.715 264.559L511.708 207.195C511.709 197.136 512.926 185.818 510.891 176.007C503.316 139.501 462.858 146.642 436.288 145.924C416.718 145.395 397.343 145.503 377.923 144.99C369.671 144.772 361.393 143.803 353.141 143.719L151.362 141.459C144.897 141.397 138.255 141.071 131.816 141.739C92.6992 145.792 97.1895 183.757 97.1854 211.426L97.1798 319.486C97.1753 339.946 95.5357 366.388 120.881 374.545C127.152 376.563 133.481 375.899 138.165 381.481C150.226 395.859 124.934 439.608 140.242 456.41C145.828 462.542 154.991 453.255 159.335 449.61C174.13 437.2 188.067 423.014 201.359 409.001C229.393 379.444 227.228 379.548 267.032 379.551L298.291 379.613C300.296 341.273 329.972 306.816 362.937 290.139C371.694 285.709 380.804 282.632 389.767 278.74C385.253 273.308 380.408 268.161 375.802 262.807C371.766 265.419 367.4 267.624 363.195 269.958L341.81 281.886C321.341 293.347 299.663 310.777 274.876 301.783C264.597 298.054 230.086 274.664 218.898 266.048C206.966 275.233 195.47 285.062 183.865 294.655L125.752 341.676C121.71 344.922 117.711 350.436 111.992 350.294C108.915 350.218 105.475 348.149 105.734 344.721C106.133 339.448 113.078 335.38 116.709 332.348L135.848 316.617C155.151 301.053 174.638 285.728 193.548 269.685C198.133 265.721 202.797 261.877 207.507 258.064C201.742 254.826 196.338 250.767 190.88 247.037L131.543 206.864C126.413 203.418 97.4979 188.368 109.116 181.067C114.532 177.663 123.607 185.655 127.728 188.441L259.682 277.651C281.821 292.401 288 297.059 313.035 283.044L475.34 190.404C480.242 187.611 488.22 180.806 494.308 182.313C500.298 183.797 500.926 189.906 496.306 193.207C492.421 195.983 487.87 198.144 483.745 200.589L422.71 236.118C411.038 242.924 399.244 249.502 387.422 256.043C392.475 262.833 398.98 268.553 404.218 275.265C409.963 274.933 415.662 274.009 421.407 273.634C470.245 270.448 522.502 288.808 550.235 331.108C579.502 375.748 571.174 439.381 525.105 469.449C526.851 481.549 536.044 510.006 517.341 513.441C504.214 515.851 489.671 502.242 479.667 495.298C466.519 499.047 453.649 501.708 439.936 502.304C372.423 505.237 301.064 465.883 297.829 392.308ZM428.608 286.074C371.282 288.779 307.491 328.451 310.652 392.129C314.213 463.883 394.259 499.907 458.194 487.209C464.459 485.816 475.878 481.235 480.935 481.265C485.88 481.295 504.2 501.451 514.075 500.287C519.378 499.662 511.484 470.884 511.263 465.502L511.546 465.175C515.976 460.155 522.29 456.672 527.171 451.977C567.455 413.231 561.984 353.641 521.184 317.703C496.256 295.744 461.696 284.485 428.608 286.074Z"/>
	<path fill="#20154c" transform="scale(1.6 1.6)" d="M467.432 350.393C464.651 350.692 461.711 350.401 458.911 350.376L416.722 350.348C411.334 350.382 395.373 352.679 393.016 346.02C391.642 342.139 395.131 338.684 398.498 337.565C402.558 337.236 406.734 337.436 410.811 337.443L452.496 337.491C456.819 337.455 461.225 337.15 465.535 337.357C473.725 337.749 475.473 347.422 467.432 350.393Z"/>
	<path fill="#20154c" transform="scale(1.6 1.6)" d="M523.862 388.116C514.389 388.309 504.79 387.856 495.297 387.852L363.139 387.851C356.771 387.853 350.221 388.434 343.888 388.201C333.594 387.824 333.749 376.833 343.012 375.103C345.608 374.917 348.325 375.132 350.935 375.147L486.839 375.177C498.745 375.176 510.814 374.768 522.703 375.191C532.692 375.547 532.844 386.483 523.862 388.116Z"/>
	<path fill="#20154c" transform="scale(1.6 1.6)" d="M489.122 426.503C449.862 427.136 410.597 426.131 371.341 426.587C365.865 426.65 352.445 429.492 351.964 420.812C351.407 410.763 369.816 414.118 375.552 413.906C387.355 414.368 399.258 414.073 411.075 414.074L494.363 414.034C499.461 413.995 513.486 411.563 513.526 419.624C513.579 430.053 496.609 426.603 489.122 426.503Z"/>
</svg>
