<?xml version="1.0" encoding="utf-8" ?>
<svg xmlns="http://www.w3.org/2000/svg" xmlns:xlink="http://www.w3.org/1999/xlink" width="1024" height="1024">
	<path fill="#20154c" transform="scale(1.6 1.6)" d="M117.291 438.74C122.546 438.644 135.534 438.046 139.993 439.031C147.337 440.655 145.245 446.164 140.095 448.761C137.121 449.076 111.119 451.114 112.912 443.501C113.473 441.118 115.315 439.896 117.291 438.74Z"/>
	<path fill="#20154c" transform="scale(1.6 1.6)" d="M506.229 443.451C513.948 443.468 521.867 443.002 529.561 443.451C532.12 446.443 531.661 448.98 529.561 452.2C527.31 453.214 525.554 453.397 523.13 453.413C517.571 453.384 505.697 454.724 501.485 452.332C493.787 447.96 500.938 443.99 506.229 443.451Z"/>
	<path fill="#20154c" transform="scale(1.6 1.6)" d="M423.314 443.451C431.51 442.981 445.822 442.87 454.071 443.451C455.862 445.069 456.768 446.587 457.712 448.761C456.758 450.939 456.182 452.118 454.071 453.413C448.295 453.915 424.049 454.515 421.744 451.565C419.151 448.246 420.178 445.663 423.314 443.451Z"/>
	<path fill="#20154c" transform="scale(1.6 1.6)" d="M457.712 163.437C465.698 163.161 474.002 165.416 476.328 173.921L476.199 173.624C472.04 182.008 472.981 189.035 459.3 184.986C453.215 184.378 453.684 181.672 454.071 176.228C450.256 175.926 443.886 175.706 441.868 171.769C438.758 165.702 448.1 164.146 453.936 166.231C455.33 165.656 456.027 164.107 457.712 163.437Z"/>
	<path fill="#20154c" transform="scale(1.6 1.6)" d="M463.083 169.272C467.304 169.311 472.207 173.41 465.146 176.228C458.502 177.591 456.656 172.805 463.083 169.272Z"/>
	<path fill="#20154c" transform="scale(1.6 1.6)" d="M447.257 504.018C453.286 503.745 461.57 510.759 465.146 515.152C460.471 521.181 456.966 527.972 452.162 533.918C444.569 543.315 448.084 531.098 441.893 529.77C438.776 529.52 430.529 530.201 429.634 525.896C426.762 512.078 453.106 522.167 454.875 518.8C453.875 517.058 447.137 515.039 444.707 513.25L444.342 512.977L443.435 509.309C444.452 506.998 445.102 505.506 447.257 504.018Z"/>
	<path fill="#20154c" transform="scale(1.6 1.6)" d="M175.718 163.437C180.614 161.737 193.619 169.397 191.676 173.833C188.527 177.139 180.363 175.748 176.136 176.181L175.718 176.228C181.798 177.554 195.603 184.101 184.019 187.747C176.253 189.442 168.11 189.771 163.912 181.872L164.881 177.462C161.097 175.813 157.091 176.606 157.218 171.248C157.359 165.343 164.319 166.156 168.446 166.426C170.851 164.208 172.536 163.77 175.718 163.437Z"/>
	<path fill="#20154c" transform="scale(1.6 1.6)" d="M179.826 203.827C189.85 202.82 197.383 209.342 183.032 212.93C160.869 218.471 160.66 232.943 161.719 253.431C161.886 256.672 162.433 259.987 161.504 263.165C151.593 274.035 151.563 253.021 151.581 248.305C151.658 227.337 155.482 208.587 179.826 203.827Z"/>
	<path fill="#20154c" transform="scale(1.6 1.6)" d="M454.071 207.06C461.757 205.07 467.808 208.685 473.421 213.917C486.8 226.387 485.581 238.916 485.694 255.359C485.732 260.928 487.596 269.755 479.483 269.752L478.757 269.405C472.617 266.407 475.513 257.581 475.8 252.03C477.984 209.793 451.231 221.032 447.858 211.038C448.081 208.135 451.692 207.314 454.071 207.06Z"/>
	<path fill="#20154c" transform="scale(1.6 1.6)" d="M480.921 443.451C484.519 443.16 486.434 442.884 488.551 446.224C489.758 481.964 473.054 496.625 438.014 495.979C430.162 495.61 428.021 487.584 435.354 485.629C443.661 483.415 452.658 487.49 463.019 482.609C486.799 471.405 472.24 446.764 480.921 443.451Z"/>
	<path fill="#20154c" transform="scale(1.6 1.6)" d="M157.91 436.292C161.984 436.026 162.911 437.553 164.881 441.011C165.001 451.887 163.061 463.989 171.809 472.329C185.306 485.197 205.976 474.607 212.594 481.567C215.092 484.194 213.465 487.388 210.829 489.242C193.513 490.926 173.838 490.507 162.297 476.016C156.579 468.837 150.229 442.035 157.91 436.292Z"/>
	<path fill="#20154c" transform="scale(1.6 1.6)" d="M316.086 316.568C329.815 315.546 343.988 320.489 354.445 329.39C372.146 344.459 372.898 362.898 371.954 384.189C370.678 412.979 356.123 437.505 324.999 439.69C292.809 440.327 269.27 418.167 268.444 385.901C267.947 366.491 267.877 347.052 282.284 332.064C290.871 323.131 303.634 316.876 316.086 316.568ZM316.086 326.637C279.239 331.25 274.712 361.405 278.576 391.861C281.411 414.202 302.351 431.939 324.999 429.927C354.311 425.601 362.439 403.237 362.781 376.949C363.233 342.28 348.755 329.255 316.086 326.637Z"/>
	<path fill="#20154c" transform="scale(1.6 1.6)" d="M443.435 297.807C450.624 298.238 457.938 297.814 465.148 297.809L509.49 297.804C518.701 297.802 537.625 294.408 542.212 305.635C544.623 311.534 543.566 376.293 543.561 387.678C543.555 400.759 546.867 416.994 530.85 422.483C524.261 425.906 515.591 424.551 508.433 424.545L463.623 424.586C431.622 424.817 430.998 413.815 430.98 388.072L430.968 325.691C430.971 313.332 427.453 300.639 443.435 297.807ZM525.97 307.064C519.841 307.967 530.199 331.774 517.916 331.929C513.961 331.979 509.966 331.249 505.964 331.242L478.624 331.267C473.693 331.272 467.932 331.798 463.117 330.816C458.918 329.959 459.379 323.031 462.992 321.705C465.901 320.637 507.584 321.264 514.713 321.255C514.602 316.851 514.67 312.446 514.713 308.041L440.936 308.041C440.439 319.359 440.954 330.855 440.936 342.192L440.923 382.823C440.926 406.819 437.2 414.195 462.588 414.092L480.727 414.052C493.664 414.046 507.678 414.721 520.44 414.323C536.285 413.829 533.487 403.982 533.484 392.157L533.461 337.213C533.467 333.113 534.276 310.548 532.047 308.165C530.655 306.677 527.805 306.891 525.97 307.064Z"/>
	<path fill="#20154c" transform="scale(1.6 1.6)" d="M463.083 387.796C468.409 386.813 480.889 387.791 486.997 387.805L503.453 387.775C507.194 387.733 510.984 387.462 514.713 387.796C516.746 389.474 517.633 390.995 518.657 393.353C517.757 395.374 516.869 396.692 514.713 397.498C503.655 398.938 476.707 397.854 465.201 397.485C457.147 397.227 456.203 390.528 463.083 387.796Z"/>
	<path fill="#20154c" transform="scale(1.6 1.6)" d="M465.146 353.498C478.436 352.161 502.658 353.139 516.286 353.498C517.785 354.967 518.874 356.472 519.959 358.25C518.269 361.906 517.175 363.399 512.821 363.422L480.269 363.437C474.542 363.458 468.391 363.929 462.724 363.332C455.129 362.532 455.701 353.748 465.146 353.498Z"/>
	<path fill="#20154c" transform="scale(1.6 1.6)" d="M111.784 294.433C117.283 293.233 137.665 294.432 144.22 294.437L177.349 294.426C187.329 294.402 202.198 291.742 206.121 304.268C208.113 310.627 207.243 325.47 207.245 332.808L207.257 390.132C207.27 407.063 209.027 416.313 189.925 421.702C184.372 423.016 178.546 422.503 172.894 422.501L126.567 422.497C98.2475 422.566 93.2183 418.089 93.2686 387.34L93.2584 330.37C93.2444 314.942 91.9102 296.063 111.784 294.433ZM185.574 303.778C185.652 310.931 184.835 320.54 185.574 327.349C168.195 328.156 144.65 327.516 126.703 326.637C125.967 323.355 125.891 320.515 126.703 317.234C142.722 316.714 160.976 318.456 176.422 317.234C176.508 315.266 177.541 305.356 175.826 304.495C172.882 303.018 118.64 303.295 110.521 303.778C101.035 306.547 103.586 323.396 103.384 331.104C103.081 342.667 101.287 396.845 103.918 405.112C107.044 414.933 116.989 412.66 125.116 412.666L171.613 412.675C202.061 412.683 197.232 410.443 197.223 383.624L197.2 344.844L197.221 319.36C197.23 315.304 197.572 311.094 197.2 307.064C193.807 302.837 190.45 303.54 185.574 303.778Z"/>
	<path fill="#20154c" transform="scale(1.6 1.6)" d="M177.854 383.67C178.884 383.586 179.945 383.651 180.979 383.67C191.002 397.301 169.341 393.369 162.126 393.366L125.596 393.353C119.087 393.57 118.011 387.565 120.727 384.715C122.9 382.435 138.461 383.656 141.924 383.656L177.854 383.67Z"/>
	<path fill="#20154c" transform="scale(1.6 1.6)" d="M125.596 349.534C129.83 348.708 133.62 349.338 137.879 349.416C143.235 349.513 179.547 349.013 181.215 349.965C185.694 352.522 185.083 358.478 179.826 359.053C175.319 359.051 123.653 359.868 122.332 358.962C117.416 355.593 120.155 350.272 125.596 349.534Z"/>
	<path fill="#20154c" transform="scale(1.6 1.6)" d="M305.022 447.456C309.697 447.224 334.793 446.956 338.471 447.814C341.542 448.529 344.461 455.164 346.119 457.917C363.551 463.74 385.276 460.534 399.773 476.513C408.677 486.326 408.438 497.075 408.411 509.524C408.386 521.507 410.439 537.727 400.661 546.519C389.426 556.621 370.413 553.448 356.587 553.447C350.293 553.447 343.899 553.763 337.622 553.442L285.398 553.448C268.306 553.455 239.969 557.76 234.285 535.814C232.856 530.295 233.1 497.543 234.093 491.769C237.636 471.167 256.888 466.153 274.621 461.932L296.908 456.581C298.488 452.865 300.399 447.769 305.022 447.456ZM296.908 467.603C280.677 470.58 248.254 472.677 244.023 493.018C242.758 499.099 242.799 527.03 243.857 532.654C244.828 537.815 247.383 540.292 251.946 542.356C258.726 543.772 265.513 543.465 272.397 543.462L293.64 543.441C297.835 525.75 301.772 501.477 304.109 483.447C299.711 479.339 297.322 473.845 297.209 467.853L296.908 467.603ZM346.119 467.603C344.502 473.168 342.066 478.001 337.622 481.879C340.986 502.068 343.114 523.605 347.1 543.441C359.616 543.688 376.522 544.394 388.461 542.356C394.469 539.916 396.946 536.414 397.666 530.156C398.517 522.763 398.866 495.535 396.574 489.56C389.791 471.879 361.145 472.324 346.119 467.603ZM326.976 483.447C322.893 483.701 318.761 483.512 314.671 483.447C311.449 503.375 307.41 523.396 304.109 543.441C307.297 543.469 310.485 543.515 313.672 543.441C321.183 543.458 328.844 543.804 336.34 543.441C335.197 525.115 331.049 501.38 327.377 483.535L326.976 483.447ZM306.856 456.581C305.931 462.421 305.014 467.833 306.856 473.597C311.791 474.326 329.143 475.063 333.509 473.597C337.199 468.488 336.463 463.391 334.261 457.917C328.364 455.561 313.865 456.553 306.856 456.581Z"/>
	<path fill="#20154c" transform="scale(1.6 1.6)" d="M319.773 84.3843C324.689 84.057 333.728 82.8912 338.141 84.7797C347.805 88.9157 340.163 105.289 351.471 109.939C363.288 106.538 364.537 100.859 372.158 96.6261C381.97 96.0571 384.361 102.656 390.608 108.955C397.038 115.439 408.11 123.897 412.566 131.303C412.551 131.43 403.115 147.582 401.6 151.991C403.236 155.872 405.711 158.661 409.53 160.51C417.434 160.075 426.642 161.787 430.984 169.272C431.563 174.691 431.833 206.232 430.984 211.737C423.685 219.818 410.187 215.24 404.393 226.118C400.507 233.413 411.232 241.809 413.466 248.988C411.324 255.333 387.255 279.744 380.454 284.731C370.947 291.704 366.225 274.307 350.36 274.929L350.177 275.058C341.814 280.879 345.421 296.059 340.695 301.236C338.766 303.35 321.316 302.435 317.578 302.42C295.954 302.34 293.937 303.664 293.64 280.419C282.075 266.587 271.187 284.262 262.087 287.599C255.883 285.203 233.632 262.22 226.841 254.819C215.598 242.566 238.852 234.198 232.975 223.958C226.923 213.413 210.952 217.535 206.247 208.406C203.589 203.25 204.957 174.2 207.867 166.059C212.862 152.082 229.231 168.172 235.423 149.238C233.507 143.898 222.065 133.786 225.748 127.808C228.753 122.932 253.41 98.4721 261.069 96.6261C268.643 99.3107 273.495 109.807 280.606 109.751C295.99 109.63 288.166 92.6178 294.468 86.5331C297.491 83.614 314.767 84.414 319.773 84.3843ZM302.494 93.5241C300.42 95.3915 300.976 108.791 300.015 112.608C295.295 116.499 284.372 120.33 278.276 119.7C270.709 118.92 266.47 111.002 261.069 106.579C251.918 115.144 245.559 123.412 235.423 131.634C245.608 143.07 252.109 152.914 238.265 165.407C231.262 171.727 219.845 167.599 217.33 170.082C215.306 172.081 215.517 202.311 216.189 205.419C226.142 208.571 235.74 206.351 241.56 217.145C251.205 235.03 240.6 234.096 235.423 245.801C237.8 251.891 256.726 269.975 262.087 274.929C273.375 264.511 288.713 259.142 300.504 272.316C305.182 277.543 304.399 285.906 305.022 292.514C313.888 292.68 322.772 292.497 331.641 292.514L332.48 292.345C333.541 290.32 333.623 287.424 333.993 285.179C337.931 261.3 358.852 258.136 374.477 274.929C383.643 266.396 392.434 257.511 401.6 248.988C397.101 242.548 391.935 236.295 393.432 227.886C396.016 213.381 406.639 208.318 420.253 207.06C420.249 203.225 420.467 172.92 419.882 172.403C417.496 170.296 393.704 171.223 390.406 151.489C389.546 146.34 394.92 140.329 397.832 136.455L400.471 132.967C397.505 129.02 378.267 109.158 374.477 106.579C368.6 112.64 362.7 119.357 353.583 119.546C338.017 119.867 334.717 105.67 333.509 93.5241C323.256 93.5329 312.709 92.9793 302.494 93.5241Z"/>
	<path fill="#20154c" transform="scale(1.6 1.6)" d="M317.578 106.579C325.968 107.332 324.168 121.431 324.999 128.238C337.702 129.46 350.164 135.151 360.56 142.28C364.566 137.632 369.096 132.128 374.477 129.109C390.136 132.852 375.375 143.799 369.599 149.238C377.951 160.147 382.539 174.113 382.773 187.747C388.868 186.816 407.828 182.809 412.899 184.417C414.153 186.016 413.548 193.143 413.466 195.337C403.265 196.499 393.02 196.409 382.773 196.334C383.003 214.759 375.335 221.254 372.158 235.858C380.742 241.277 390.588 247.456 377.016 255.475C372.12 252.015 366.49 247.453 362.726 242.786C350.026 253.32 336.992 251.611 324.999 257.742C324.955 263.19 326.792 270.403 321.467 273.917C310.329 279.054 312.1 264.113 312.534 257.742C299.12 252.974 289.165 249.97 277.802 240.621C271.765 244.627 267.965 251.317 262.087 255.475C249.958 246.177 261.091 240.583 267.864 232.195C260.901 219.722 256.423 209.748 254.215 195.337C249.085 195.761 232.014 197.236 227.898 195.703C226.352 193.118 226.968 187.908 227.071 184.986L255.447 184.986C259.619 171.268 260.32 162.807 268.396 149.238C265.076 145.131 256.131 139.463 256.437 133.657C256.609 130.405 259.643 128.292 262.763 128.682C269.516 129.528 271.927 138.469 275.481 143.223C286.09 134.299 298.897 130.278 312.534 128.238C312.585 122.04 309.551 108.58 317.578 106.579ZM316.086 137.931C268.771 143.219 252.324 190.408 277.236 229.391C282.084 226.654 286.273 222.981 290.784 219.756C268.742 191.916 284.66 151.814 321.467 154.682C355.969 155.155 364.864 191.618 348.543 219.756C352.457 222.96 356.383 226.553 360.56 229.391C376.301 207.828 378.048 168.58 354.729 151.547C346.667 145.657 326.645 135.24 316.086 137.931ZM316.086 165.042C281.829 166.774 281.163 222.413 321.467 218.393C361.966 210.747 348.808 161.246 316.086 165.042ZM297.722 223.672C294.382 228.346 290.453 232.479 287.017 237.05C301.684 247.407 324.553 248.46 341.03 241.644C344.705 240.006 348.078 238.008 351.471 235.858C348.316 231.98 345.887 227.956 343.345 223.672C332.728 228.947 307.815 232.01 297.722 223.672Z"/>
</svg>
