<?xml version="1.0" encoding="utf-8" ?>
<svg xmlns="http://www.w3.org/2000/svg" xmlns:xlink="http://www.w3.org/1999/xlink" width="1024" height="1024">
	<path fill="#20154c" transform="scale(1.6 1.6)" d="M368.248 435.22C373.769 439.515 372.102 444.397 365.407 444.623C350.613 445.123 345.842 425.26 333.197 425.774C319.631 426.325 316.602 463.911 284.089 465.341C243.223 467.138 252.921 428.339 245.888 422.297C235.791 413.622 196.961 443.813 185.173 400.728C183.834 395.832 184.049 390.795 182.841 385.974C180.254 375.645 168.82 381.962 161.93 382.865C139.375 385.823 112.711 358.324 116.347 334.79C119.72 312.963 120.564 314.497 97.9072 305.347C76.8983 296.863 67.8783 277.003 77.2095 256.367C87.4254 233.774 108.894 235.436 118.758 222.892C130.618 207.808 116.705 199.503 115.126 185.212C112.503 161.472 136.523 140.873 160.713 149.481C166.361 151.49 174.112 156.633 180.165 155.862C203.066 152.944 188.472 105.274 230.374 100.747C257.152 97.1369 266.862 127.705 273.273 126.603C277.452 125.884 281.667 121.283 284.924 118.659C303.298 103.858 327.641 103.575 338.581 127.104C342.79 136.155 344.936 144.636 351.693 152.41C365.254 168.013 370.039 155.432 384.565 156.607C404.688 158.234 422.426 177.404 421.708 197.736C421.414 206.043 419.241 210.941 422.643 219.228C433.953 246.781 474.118 238.398 470.227 282.352C467.171 316.867 431.237 312.488 416.259 337.589C412.544 343.816 413.234 354.1 409.421 361.887C405.69 369.51 394.071 377.693 393.608 386.156C393.251 392.699 400.763 394.552 404.269 398.756C406.827 401.824 408.46 405.529 411.131 408.552C415.549 408.369 419.962 407.018 424.403 407.417C436.98 408.547 472.447 440.623 482.011 450.055C499.381 467.184 530.826 500.526 528.542 524.969C526.499 546.828 501.037 569.216 478.822 566.868C453.094 564.148 438.276 546.859 422.988 527.98C411.652 513.982 387.591 481.997 380.95 464.833C378.19 457.7 371.193 430.155 387.29 433.016C395.963 434.558 395.201 445.869 395.762 452.321C397.037 466.979 418.026 494.479 426.834 506.496C438.913 522.699 457.45 548.781 477.96 550.878C492.381 552.352 511.396 537.619 512.511 522.957C514.278 499.726 446.007 432.491 424.049 424.857C411.407 420.462 410.831 433.005 393.541 412.817C388.535 416.7 371.529 430.854 368.248 435.22ZM231.73 116.99C200.487 120.215 220.908 166.811 182.486 171.304C163.559 173.517 149.367 152.621 135.572 169.793C121.133 187.767 160.011 215.841 122.954 239.965C111.836 247.202 96.0533 250.686 91.1612 264.503C84.767 282.561 99.0878 288.018 111.742 293.354C152.236 310.43 124.048 334.238 134.931 351.453C153.372 380.625 172.475 356.918 187.936 367.866C203.957 379.211 194.108 397.969 206.23 406.947C218.439 415.99 235.985 395.881 255.187 409.092C269.824 419.163 261.003 439.476 270.021 446.051C272.016 447.505 290.838 446.564 295.814 446.632C300.07 442.374 302.884 435.729 305.709 430.45C320.435 402.789 335.674 406.84 360.814 419.298C367.027 415.836 376.041 406.78 382.033 401.948C368.893 375.48 384.701 375.101 393.519 356.779C395.675 352.299 396.483 347.614 397.327 342.766C404.45 301.85 439.346 307.934 451.041 289.502C454.72 283.704 455.134 272.936 452.176 266.791C443.808 249.404 398.592 246.453 404.193 202.232C405.998 187.983 403.165 178.984 386.856 173.566C375.266 169.715 369.961 186.709 345.308 168.208C323.665 151.967 332.696 141.519 320.912 128.846C304.517 111.216 288.232 148.051 267.98 142.349C252.197 137.905 252.532 115.724 231.73 116.99Z"/>
	<path fill="#20154c" transform="scale(1.6 1.6)" d="M276.168 363.969C192.583 360.367 112.874 284.516 185.027 206.973C209.692 180.465 238.526 170.767 273.909 169.513C328.661 167.075 392.847 200.884 392.968 262.031C393.104 330.433 338.318 363.929 276.168 363.969ZM271.437 185.136C241.401 186.488 216.02 196.711 195.502 219.085C134.71 285.375 211.544 348.211 279.243 348.167C306.522 347.936 334.042 340.78 353.663 320.714C380.375 293.395 387.8 244.612 358.587 216.268C336.22 194.566 302.411 183.298 271.437 185.136Z"/>
	<path fill="#20154c" transform="scale(1.6 1.6)" d="M332.217 243.767C322.932 243.825 311.674 238.639 320.166 229.453C323.907 225.406 335 226.476 340.308 226.406C348.115 226.169 357.62 224.411 359.175 234.276C360.074 239.983 360.238 253.449 359.121 258.96C357.169 268.59 344.933 271.172 344.535 254.192C339.772 258.376 335.695 263.403 331.348 268.012C316.113 284.165 311.63 278.573 293.43 279.088C282.157 287.624 269.814 328.529 248.826 315.03C239.761 309.199 232.791 293.581 223.403 285.943C219.843 287.335 216.419 289.504 213.063 291.354C209.178 293.191 203.131 295.561 199.388 292.194C186.921 280.979 222.736 265.586 231.557 270.925C238.594 275.183 250.109 294.168 257.314 301.498C269.149 290.439 271.621 279.691 277.493 267.11C286.312 264.346 302.165 264.285 311.13 264.792C319.188 258.824 324.817 250.41 332.217 243.767Z"/>
</svg>
