<?xml version="1.0" encoding="utf-8" ?>
<svg xmlns="http://www.w3.org/2000/svg" xmlns:xlink="http://www.w3.org/1999/xlink" width="1024" height="1024">
	<path fill="#20154c" transform="scale(1.6 1.6)" d="M126.794 360.435C129.972 359.988 137.929 361.757 135.603 366.305C132.711 371.962 122.481 366.95 115.63 374.516C108.807 382.05 113.175 389.363 109.902 397.186L109.75 397.54C96.4131 406.569 95.6361 364.932 126.794 360.435Z"/>
	<path fill="#20154c" transform="scale(1.6 1.6)" d="M362.899 416.84C369.095 417.278 371.384 423.098 375.263 427.238C388.052 440.884 392.925 437.205 379.173 451.961C375.644 455.748 372.482 459.979 368.398 463.197C365.48 464.511 360.888 463.854 360.612 459.886C360.319 455.681 373.467 444.469 376.71 440.9C372.488 437.464 354.318 422.858 362.899 416.84Z"/>
	<path fill="#20154c" transform="scale(1.6 1.6)" d="M362.899 300.048C368.421 299.469 383.786 321.664 386.693 326.59C381.883 334.009 372.158 341.267 365.552 347.495C364.708 347.852 363.776 348.089 362.899 348.363C349.851 343.946 369.239 329.641 374.355 326.59C370.272 318.571 363.72 313.433 359.366 306.309C357.308 302.941 360.189 301.529 362.899 300.048Z"/>
	<path fill="#20154c" transform="scale(1.6 1.6)" d="M454.799 191.127C462.601 190.339 466.855 206.478 471.565 212.647C474.389 207.515 488.372 181.38 494.796 195.98C493.905 198.53 492.215 200.512 490.58 202.62C485.393 209.429 479.683 221.421 472.213 225.402C465.782 221.147 451.148 197.537 451.999 193.908C452.293 192.654 453.819 191.785 454.799 191.127Z"/>
	<path fill="#20154c" transform="scale(1.6 1.6)" d="M386.693 333.749C394.324 333.529 390.514 349.561 391.416 354.383C391.988 357.438 394.212 359.976 395.177 362.923C393.813 367.471 389.594 370.819 388.673 375.287C386.362 386.5 404.204 399.062 393.624 401.788C379.033 401.084 376.877 368.354 384.912 357.458C382.09 348.731 376.216 339.324 386.693 333.749Z"/>
	<path fill="#20154c" transform="scale(1.6 1.6)" d="M534.522 326.59C543.158 327.819 549.557 338.161 551.146 345.978C552.456 352.429 549.16 357.793 545.734 362.923C557.915 377.772 553.979 401.159 535.844 404.77C533.721 403.271 533.431 401.747 532.833 399.347C535.149 393.363 541.443 390.318 543.415 384.193C546.743 373.855 534.551 368.113 534.635 362.479C534.71 357.445 542.25 354.401 542.526 349.242C542.929 341.715 534.421 335.018 529.871 329.922L529.937 329.199C531.073 327.519 532.685 327.164 534.522 326.59Z"/>
	<path fill="#20154c" transform="scale(1.6 1.6)" d="M285.897 100.197L285.837 99.5053C282.072 94.9892 276.821 93.9276 272.205 91.0062C279.05 88.119 269.354 82.5659 268.552 81.545L267.962 81.5416L268.228 81.2308L268.427 81.4798L268.554 81.221C274.791 82.936 291.545 94.0096 293.312 93.9771C317.232 116.85 328.735 143.457 325.362 176.343C324.342 178.757 325.091 180.967 325.362 183.458L325.157 183.066C321.959 177.039 316.678 178.305 314.989 174.922C315.056 139.618 313.653 126.015 285.897 100.197Z"/>
	<path fill="#20154c" transform="scale(1.6 1.6)" d="M156.382 177.241C151.156 122.01 185.122 76.746 243.141 77.1733C264.109 77.3277 276.313 82.2331 293.312 93.9771C291.545 94.0096 274.791 82.936 268.554 81.221L268.427 81.4798L268.228 81.2308L267.962 81.5416L268.552 81.545C269.354 82.5659 279.05 88.119 272.205 91.0062C276.821 93.9276 282.072 94.9892 285.837 99.5053L285.897 100.197C254.028 76.5251 205.073 82.9936 181.298 115.196C166.262 135.562 166.245 154.908 166.285 178.969L165.98 178.646C164.96 172.263 165.358 165.206 165.563 158.746L165.607 158.85C166.466 145.009 172.657 137.708 166.093 125.718L165.885 125.651L165.743 125.174C161.422 127.587 157.408 156.187 157.194 160.869C156.94 166.406 157.898 171.364 156.474 176.896L156.382 177.241Z"/>
	<path fill="#20154c" transform="scale(1.6 1.6)" d="M413.044 368.22C418.43 367.259 423.94 368.272 429.368 368.296C437.699 368.331 458.598 364.45 460.466 376.81C461.579 384.168 457.949 393.288 449.954 394.277C442.899 395.077 413.47 395.114 408.816 392.007C399.101 385.523 401.177 370.04 413.044 368.22ZM413.044 376.566C409.924 381.88 412.261 383.738 417.265 386.325C421.283 381.728 437.109 382.703 442.347 383.605L442.252 383.541L442.855 384.262L442.725 384.196L442.606 384.527C443.849 384.506 444.736 384.017 445.806 383.463C448.261 385.082 448.661 383.671 450.876 382.359C450.562 381.277 450.235 380.197 449.954 379.105C445.555 376.345 420.576 376.233 413.044 376.566Z"/>
	<path fill="#20154c" transform="scale(1.6 1.6)" d="M504.587 368.22C512.275 368.325 519.696 366.326 526.116 371.863C533.381 378.128 532.551 391.301 522.21 393.849C517.25 395.071 503.734 394.212 497.885 394.277C465.291 398.629 468.89 372.152 480.597 369.14C486.135 367.715 498.538 368.119 504.587 368.22ZM487.873 377.378C483.669 377.292 480.157 379.937 483.481 383.245L484.039 382.944C484.655 383.408 484.958 383.439 485.163 384.208L484.106 384.494L484.605 384.917C493.569 384.024 505.114 382.66 513.98 383.463L516.509 384.155C518.58 384.704 520.183 383.367 521.877 382.359C521.011 380.524 520.081 378.918 518.728 377.378C510.015 377.004 496.534 376.793 487.873 377.378Z"/>
	<path fill="#20154c" transform="scale(1.6 1.6)" d="M314.989 174.922C316.678 178.305 321.959 177.039 325.157 183.066L325.362 183.458C325.091 180.967 324.342 178.757 325.362 176.343C325.305 179.116 325.13 181.945 325.362 184.71C347.345 197.704 346.203 229.882 316.632 233.71L316.368 234.243C305.549 256.343 301.7 276.291 279.338 293.329C279.203 292.956 279.274 293.205 279.222 292.562C287.034 286.81 293.968 278.293 298.553 269.787C299.93 267.232 303.416 258.111 303.499 255.486C303.545 254.038 303.34 247.929 302.155 247.481C292.226 258.624 291.1 277.45 270.743 287.151L270.017 286.812C293.091 273.933 307.788 236.784 312.11 212.342C314.288 200.025 314.63 187.396 314.989 174.922ZM323.949 194.572C322.769 199.825 320.145 219.893 319.883 225.402C321.709 224.124 323.592 222.887 325.362 221.535L325.54 221.124C328.6 214.242 333.068 212.738 329.983 204.312C328.776 201.017 326.829 196.73 323.949 194.572Z"/>
	<path fill="#20154c" transform="scale(1.6 1.6)" d="M506.15 327.551C513.238 328.146 519.813 326.846 525.495 332.296C532.764 339.266 528.425 354.442 519 357.098C515.023 358.219 501.75 357.476 496.827 357.458C491.709 357.225 481.753 357.81 477.674 354.873C470.84 349.953 469.914 332.998 478.445 329.68C485.325 327.004 498.043 328.732 506.15 327.551ZM512.906 336.691C506.098 337.204 485.72 336.958 483.148 338.025C482.05 339.513 481.673 345.676 483.514 346.92C485.007 347.928 487.624 347.533 489.361 347.495L516.087 347.495C519.461 342.526 519.066 335.677 512.906 336.691Z"/>
	<path fill="#20154c" transform="scale(1.6 1.6)" d="M433.391 327.551C441.198 327.352 449.409 326.46 455.579 332.281C462.885 339.175 462.482 353.748 451.554 356.735C445.851 358.294 434.479 357.479 428.281 357.458C421.282 357.433 412.409 358.798 406.373 354.377C397.127 347.606 400.446 332.454 411.215 329.167C416.406 327.582 427.082 328.105 433.391 327.551ZM439.711 337.446C435.24 337.247 417.156 336.826 413.044 337.446C405.859 345.253 413.189 348.796 420.763 348.363C429.618 346.738 438.694 348.606 447.393 347.156C450.228 346.684 450.314 344.518 450.876 342.082C447.915 337.352 445.011 336.42 439.711 337.446Z"/>
	<path fill="#20154c" transform="scale(1.6 1.6)" d="M407.851 81.3246C410.723 81.604 413.96 84.0941 412.162 87.118C409.806 91.0793 400.72 96.9134 396.343 103.736C405.564 102.722 417.624 103.734 427.198 103.744L461.931 103.784C469.6 103.853 480.531 100.857 481.775 109.494C482.742 116.202 483.998 167.771 480.672 171.905C478.963 174.03 475.896 173.59 474.084 171.832C470.48 168.336 471.518 160.586 471.565 155.981L468.606 157.663C464.4 154.592 460.926 149.421 457.41 145.538C451.182 138.659 440.723 130.415 438.317 121.135C439.125 118.849 440.625 117.101 442.081 115.198C443.832 116.668 445.081 118.537 447.08 119.75C461.54 127.234 463.014 140.307 471.565 146.686C472.481 142.154 472.908 118.493 472.213 113.641L395.177 112.34C401.903 120.963 417.126 124.647 405.448 134.202C400.056 131.292 379.49 114.445 377.142 109.369C377.072 104.387 400.821 82.9222 407.851 81.3246Z"/>
	<path fill="#20154c" transform="scale(1.6 1.6)" d="M468.606 293.329C474.951 284.279 490.228 284.656 496.827 293.329C499.505 286.489 508.977 286.041 514.871 288.65C537.88 298.836 521.312 330.014 496.827 311.36C492.3 316.976 473.024 317.105 468.606 310.455C466.977 312.645 465.536 314.238 462.843 315.089C458.279 316.739 453.075 317.124 448.571 315.089C445.563 314.26 443.007 312.652 440.781 310.455C431.957 325.587 400.279 314.413 412.257 295.306C417.805 286.456 429.664 286.328 438.317 290.291C438.761 291.083 439.131 292.008 439.932 292.489C446.165 284.973 463.297 284.792 468.606 293.329ZM509.615 295.119C504.72 295.664 502.351 297.324 500.861 301.952C502.598 305.346 505.266 309.307 509.615 308.917C513.419 307.467 516.429 305.365 518.728 301.952C516.396 299.85 512.67 295.794 509.615 295.119ZM426.611 295.119C414.845 297.976 418.543 310.02 426.611 308.917C429.946 307.431 432.114 304.541 434.579 301.952C432.963 298.285 430.937 295.163 426.611 295.119ZM480.613 295.119C477.45 295.795 476.009 296.197 474.845 299.242L474.651 299.744C474.612 299.845 474.577 299.947 474.54 300.048C475.329 305.943 478.73 307.649 484.378 307.698C486.642 306.118 488.545 303.836 490.58 301.952C488.923 298.728 487.808 296.689 484.378 295.119C483.128 295.087 481.86 295.004 480.613 295.119ZM454.799 295.119C451.124 295.961 448.455 296.246 446.189 299.496L445.947 299.839C445.899 299.908 445.853 299.978 445.806 300.048C447.131 303.297 449.717 307.135 453.474 307.698C464.32 304.971 464.482 295.349 454.799 295.119Z"/>
	<path fill="#20154c" transform="scale(1.6 1.6)" d="M435.939 431.002L435.976 430.805C428.562 432.051 419.535 434.4 412.898 429.587C406.022 424.6 402.825 413.737 408.26 406.614C413.153 400.201 423.348 403.516 429.865 404.445C444.75 406.566 480.959 405.195 496.579 404.696C502.829 404.497 509.462 403.197 515.673 403.783C541.115 406.184 529.716 442.39 495.908 431.002C492.652 431.747 489.572 432.38 486.224 432.504C486.898 435.335 487.761 437.969 487.873 440.9C506.499 441.739 530.96 436.365 544.437 451.079C553.638 461.125 552.778 473.204 552.722 485.869C552.624 486.857 552.629 488.057 552.198 488.951C551.591 484.31 553.051 471.987 549.943 469.192C543.141 463.075 544.125 485.93 543.592 487.645C543.758 455.504 540.528 449.736 507.703 449.813L486.224 449.825C478.492 464.569 458.361 465.149 449.954 451.006C435.877 451.646 421.821 449.016 407.851 451.006C408.043 450.013 423.274 448.57 425.463 449.066C427.007 446.984 430.647 445.285 431.111 443.444C428.826 440.971 417.249 441.964 413.38 441.715L413.044 441.69C424.69 440.324 438.793 442.426 448.571 440.9C447.838 438.129 447.332 435.361 447.08 432.504C443.545 432.708 439.548 431.321 435.939 431.002ZM439.711 414.042L439.711 422.854C446.136 422.801 491.081 423.635 493.506 422.119C493.764 420.07 493.883 417.862 494.796 415.984C483.538 413.1 453.009 414.526 439.711 414.042ZM458.443 432.504C457.355 432.614 456.17 432.609 455.243 433.238C454.143 443.434 462.841 458.379 474.54 449.066C478.366 444.365 479.163 438.251 480.613 432.504C473.227 432.439 465.83 432.406 458.443 432.504ZM510.487 412.301C498.037 413.547 501.374 425.849 512.906 423.793C522.721 419.97 522.242 411.848 510.487 412.301ZM423.96 412.301C421.713 412.405 419.503 412.264 417.265 412.301C416.014 413.448 415.038 414.633 414.023 415.984C414.815 419.873 416.545 422.648 420.763 422.854C425.122 422.688 427.584 421.761 430.293 418.446L430.293 414.042C428.292 413.201 426.187 412.086 423.96 412.301Z"/>
	<path fill="#20154c" transform="scale(1.6 1.6)" d="M552.722 485.869C552.726 492.636 553.496 523.451 552.014 527.834C548.713 531.539 540.776 530.011 536.388 530.013L415.561 529.987C407.842 530.009 385.207 532.208 381.359 529.89C378.885 523.932 380.289 513.815 380.289 507.433C380.287 480.358 374.242 439.745 413.044 441.69L413.38 441.715C417.249 441.964 428.826 440.971 431.111 443.444C430.647 445.285 427.007 446.984 425.463 449.066C423.274 448.57 408.043 450.013 407.851 451.006C385.727 454.091 390.007 478.251 390.01 494.533C390.012 503.35 389.577 512.327 390.005 521.124L409.082 521.124L409.079 499.383C409.098 492.34 406.558 477.269 418.758 482.72C419.012 487.213 418.787 491.748 418.769 496.249L418.758 520.608C447.328 520.283 475.974 520.277 504.548 520.638C508.394 520.686 512.256 521.071 516.087 520.608L516.053 499.759C516.039 496.465 515.714 492.989 516.087 489.721C531.427 477.339 525.667 513.394 525.98 521.124C531.851 521.145 537.747 521.254 543.592 520.608C543.339 509.64 543.597 498.62 543.592 487.645C544.125 485.93 543.141 463.075 549.943 469.192C553.051 471.987 551.591 484.31 552.198 488.951C552.629 488.057 552.624 486.857 552.722 485.869Z"/>
	<path fill="#20154c" transform="scale(1.6 1.6)" d="M156.382 177.241L156.474 176.896C157.898 171.364 156.94 166.406 157.194 160.869C157.408 156.187 161.422 127.587 165.743 125.174L165.885 125.651L166.093 125.718C172.657 137.708 166.466 145.009 165.607 158.85L165.563 158.746C165.358 165.206 164.96 172.263 165.98 178.646L166.285 178.969C166.229 212.615 174.295 253.749 199.186 278.615C217.134 296.546 248.394 299.978 270.017 286.812L270.743 287.151C291.1 277.45 292.226 258.624 302.155 247.481C303.34 247.929 303.545 254.038 303.499 255.486C303.416 258.111 299.93 267.232 298.553 269.787C293.968 278.293 287.034 286.81 279.222 292.562C279.274 293.205 279.203 292.956 279.338 293.329C278.688 319.165 278.713 325.862 306.911 332.692C310.158 333.478 313.563 333.683 316.632 335.098L317.412 336.124C325.677 346.895 303.839 341.493 299.765 340.047C300.476 357.406 286.813 404.064 270.017 410.54C263.163 408.97 244.328 398.751 240.327 395.101C229.435 401.084 219.841 407.797 207.463 410.54C194.857 399.474 177.853 354.133 177.771 338.773C167.047 341.68 155.945 344.376 145.049 346.52C123.935 350.676 95.6288 352.494 89.1082 377.779C86.2398 388.902 86.744 426.509 87.4251 440.9C95.3365 441.087 103.296 440.913 111.212 440.911L157.504 440.9C157.271 436.262 157.494 431.575 157.483 426.931C157.474 422.772 155.309 414.058 161.579 413.625C167.443 413.22 166.345 423.113 166.328 426.644L166.285 440.9C171.564 440.532 176.885 440.856 182.175 440.88L301.032 440.9C296.936 438.069 285.59 430.997 285.138 426.861C284.889 424.587 287.311 422.537 289.438 422.47C294.083 422.325 313.02 440.252 316.632 443.686C314.215 447.966 292.506 476.197 289.616 478.444C279.724 486.133 252.962 470.187 265.379 463.159C268.797 461.224 275.755 469.242 282.05 470.863C289.65 467.419 296.296 457.022 299.765 449.825C289.7 447.557 279.131 449.839 268.942 449.842L166.285 449.825L166.285 476.708C167.698 471.128 171.136 462.353 176.789 460.322C179.078 459.499 182.072 461.178 182.719 463.505C183.846 467.562 179.778 471.909 177.771 475.126C182.159 479.524 185.51 485.066 190.828 488.515C200.794 489.393 217.486 488.779 227.626 488.327C232.392 488.115 237.338 487.201 242.093 487.582C259.219 488.956 263.016 510.909 245.447 515.6C239.482 517.193 230.642 516.403 224.296 516.404L174.451 516.409C151.545 516.536 157.5 515.378 157.497 490.061L157.504 449.825L100.273 449.819C96.2439 449.818 80.993 450.843 78.3766 449.453C76.9113 447.29 77.8731 393.335 78.2956 385.54C80.283 348.874 109.604 344.213 137.816 338.727C151.004 336.162 187.993 329.814 196.729 321.678C203.082 315.762 200.933 301.343 201.092 293.329C186.747 279.804 167.875 255.379 165.472 234.832L164.761 234.858C156.684 235.209 148.364 227.902 144.363 221.498C134.754 206.119 144.107 193.098 157.504 184.71C156.922 182.216 156.472 179.806 156.382 177.241ZM210.353 297.159C210.302 313.626 212.637 317.908 201.092 330.051C205.148 363.562 216.634 369.017 238.837 386.325C246.176 381.646 253.253 376.968 259.384 370.703C270.693 357.768 274.445 344.852 276.619 328.207C268.415 324.852 270.169 303.987 270.017 297.159C253.956 304.249 235.924 307.383 218.987 300.833C216.088 299.712 213.287 298.143 210.353 297.159ZM172.172 481.497C165.917 489.562 166.951 497.267 166.285 507.155L234.421 507.21C237.322 507.247 240.433 507.54 243.31 507.155C249.408 503.706 248.371 498.202 242.851 496.617C241.25 496.158 209.844 497.136 205.688 497.217C199.864 497.33 193.537 498.159 187.768 497.473C179.161 496.449 177.418 486.532 172.172 481.497ZM285.897 333.749C284.743 354.511 267.815 381.468 249.706 390.61C253.536 392.339 257.03 394.172 260.473 396.601C263.165 397.868 265.785 399.262 268.461 400.554C280.886 389.086 290.207 352.495 291.836 336.691C289.777 335.809 287.827 334.889 285.897 333.749ZM191.903 335.098C189.955 335.869 188.005 336.637 186.072 337.446C192.846 363.952 196.245 376.237 210.353 401.788C212.763 399.48 215.947 398.109 218.894 396.601L229.383 390.61C209.542 379.356 195.687 357.933 192.379 335.385L191.903 335.098ZM157.504 194.572C147.437 202.321 147.283 214.847 157.504 222.87C158.823 224.083 160.176 224.706 161.8 225.402C161.758 224.639 157.695 195.038 157.504 194.572Z"/>
	<path fill="#20154c" transform="scale(1.6 1.6)" d="M209.271 183.458C210.168 183.824 211.17 184.14 211.952 184.71C226.009 189.567 222.986 205.251 216.552 202.912C212.625 201.484 211.467 194.613 210.353 191.127C210.159 189.787 210.203 189.111 209.271 188.085C209.611 186.393 209.667 185.162 209.271 183.458Z"/>
	<path fill="#20154c" transform="scale(1.6 1.6)" d="M209.271 183.458C210.168 183.824 211.17 184.14 211.952 184.71C210.788 186.934 210.428 188.59 210.353 191.127C210.159 189.787 210.203 189.111 209.271 188.085C209.611 186.393 209.667 185.162 209.271 183.458Z"/>
	<path fill="#20154c" transform="scale(1.6 1.6)" d="M243.31 98.2011C249.133 97.9051 272.426 101.372 261.428 109.813C255.786 109.752 239.202 108.666 240.771 101.382C241.111 99.8042 241.998 99.0341 243.31 98.2011Z"/>
	<path fill="#20154c" transform="scale(1.6 1.6)" d="M283.847 115.198C286.257 115.495 302.659 134.286 293.312 141.028C289.645 141.97 275.828 120.824 283.847 115.198Z"/>
	<path fill="#20154c" transform="scale(1.6 1.6)" d="M207.463 191.127C189.538 197.068 185.475 175.691 200.421 177.713C204.285 178.236 206.989 180.478 209.271 183.458C209.667 185.162 209.611 186.393 209.271 188.085C208.788 189.221 208.182 190.127 207.463 191.127Z"/>
	<path fill="#20154c" transform="scale(1.6 1.6)" d="M282.05 178.969C292.005 177.561 296.286 185.448 289.033 190.592C279.553 197.316 272.519 179.539 273.386 195.98C271.87 202.119 263.758 203.43 262.944 196.12C261.834 186.142 273.721 179.778 282.05 178.969Z"/>
	<path fill="#20154c" transform="scale(1.6 1.6)" d="M193.351 163.869C203.946 162.565 226.515 170.186 229.711 180.062C230.63 182.9 230.652 188.042 227.264 189.216C224.807 188.788 221.928 186.175 219.878 184.71C214.968 178.153 205.732 173.807 198.038 171.731C191.915 173.629 185.592 185.39 184.645 172.222C184.202 166.064 187.651 163.994 193.351 163.869Z"/>
	<path fill="#20154c" transform="scale(1.6 1.6)" d="M283.847 163.869C294.732 162.902 309.215 170.114 297.013 176.343C286.583 172.111 275.015 172 266.65 180.576C262.199 185.445 257.097 198.017 254.846 181.615C253.131 169.114 275.271 164.713 283.847 163.869Z"/>
	<path fill="#20154c" transform="scale(1.6 1.6)" d="M229.383 96.0474C232.848 95.5775 234.404 100.279 233.264 103.016C231.975 106.114 222.79 107.503 219.58 108.796C195.748 118.4 197.388 144.036 190.828 146.686C187.801 145.909 186.431 145.21 184.719 142.551C182.969 122.087 209.278 98.4791 229.383 96.0474Z"/>
	<path fill="#20154c" transform="scale(1.6 1.6)" d="M211.952 245.993C217.839 245.588 216.822 251.595 218.971 255.382C227.333 270.122 252.535 269.303 261.483 255.713C263.336 252.898 263.39 247.816 266.548 246.146C272.919 242.778 273.098 251.947 271.179 256.708C259.624 280.294 223.356 282.203 210.511 258.368C208.014 253.734 206.462 248.703 211.952 245.993Z"/>
</svg>
