<?xml version="1.0" encoding="utf-8" ?>
<svg xmlns="http://www.w3.org/2000/svg" xmlns:xlink="http://www.w3.org/1999/xlink" width="396" height="396">
	<path fill="hsl(192, 100%, 86%)" transform="scale(0.61875 0.61875)" d="M345.211 541.558C361.402 541.04 381.14 543.249 396.674 539.536L396.971 539.92C395.547 540.67 393.598 540.444 392.395 541.423L392.992 541.615C395.075 544.087 393.865 550.048 391.187 551.58C392.877 552.041 394.733 550.513 396.403 551.037L396.517 551.238C388.868 553.775 377.82 552.312 369.843 552.311L306.541 552.321C302.961 552.322 299.025 552.662 295.487 552.233C299.718 551.565 316.138 551.81 321.252 551.801C330.161 551.786 362.264 557.631 359.835 543.526C357.406 540.717 347.756 543.367 344.779 541.959L345.211 541.558Z"/>
	<path fill="hsl(192, 100%, 86%)" transform="scale(0.61875 0.61875)" d="M230.302 87.4367C240.173 86.9135 250.299 87.3686 260.194 87.3714L357.553 87.373C363.844 87.3646 370.624 86.8045 376.853 87.4458L378.998 87.814L379.133 88.0351C376.562 88.0984 373.953 87.5731 371.409 87.894L371.479 88.0556C373.233 88.1882 377.184 87.8606 378.529 89.1696C375.908 94.7567 368.893 96.2491 363.579 96.9581L363.377 96.7201L363.21 97.3061L362.779 97.1067L362.714 97.1339C367.781 98.1003 376.925 95.4443 381.199 97.8286C374.387 98.3174 367.601 98.1084 360.781 98.0424L338.437 97.9469C320.204 97.9085 301.822 98.8613 283.608 97.8348C293.741 95.2141 312.013 100.308 320.124 94.7028C321.694 93.6176 322.383 91.6179 323.772 90.3155L324.899 90.6469L325.112 90.2605C325.032 89.8604 324.992 89.2891 324.825 88.9275L324.146 89.5913L324.467 89.43L323.812 88.5214C301.963 86.4029 273.987 87.3488 251.877 87.3665C245.293 87.3718 236.875 87.9089 230.605 87.4612L230.302 87.4367Z"/>
	<path fill="hsl(192, 100%, 86%)" transform="scale(0.61875 0.61875)" d="M258.213 377.631L336.564 377.616C340.999 377.616 351.388 376.054 351.085 383.294C350.728 391.821 299.872 388.947 290.752 388.684C300.78 385.545 321.169 389.929 330.885 387.673C335.75 386.544 334.152 383.2 336.067 380.251L337.037 380.072C334.439 377.179 281.095 377.612 270.743 377.632C266.854 377.64 261.958 378.646 258.213 377.631Z"/>
	<path fill="hsl(192, 100%, 86%)" transform="scale(0.61875 0.61875)" d="M330.214 239.182C334.468 238.888 352.962 238.458 355.556 239.96C357.623 241.158 360.636 249.623 352.405 249.821L337.238 249.763C333.989 249.775 329.742 250.658 326.824 248.813C322.305 245.955 324.434 240.079 330.214 239.182Z"/>
	<path fill="hsl(192, 100%, 86%)" transform="scale(0.61875 0.61875)" d="M285.392 350.744L325.087 350.759C332.974 350.759 340.984 350.458 348.845 351.102L348.531 351.635C347.705 351.69 346.975 351.651 346.156 351.569L346.18 351.777C349.823 353.208 348.29 359.655 342.238 360.767L342.385 360.75C334.675 361.824 326.827 360.189 320.528 361.016C309.576 361.637 296.531 361.568 285.597 361.203C296.618 359.168 306.66 365.184 312.049 352.589C305.664 350.609 288.36 352.488 285.392 350.744Z"/>
	<path fill="hsl(192, 100%, 86%)" transform="scale(0.61875 0.61875)" d="M159.938 409.737C164.982 409.577 191.517 409.185 193.781 410.663C196.325 412.324 198.707 419.184 192.578 420.292C187.408 420.371 163.181 421.242 160.011 420.242C154.644 418.548 155.44 411.83 159.938 409.737Z"/>
	<path fill="hsl(192, 100%, 86%)" transform="scale(0.61875 0.61875)" d="M272.635 472.916C280.878 472.538 289.145 472.671 297.395 472.674L357.71 472.657C362.192 472.647 376.828 470.883 377.256 477.885C377.694 485.059 367.002 483.703 362.451 483.745L315.25 483.741C306.131 483.743 296.822 484.143 287.725 483.753C297.209 481.432 330.02 484.85 335.154 482.541C336.894 481.759 339.159 477.368 337.763 475.524C334.817 471.634 321.706 473.457 317.548 473.455L287.366 473.273C282.509 473.279 277.425 473.947 272.635 472.916Z"/>
	<path fill="hsl(192, 100%, 86%)" transform="scale(0.61875 0.61875)" d="M305.44 441.821C321.881 440.994 338.714 441.383 355.171 441.704C360.692 441.812 370.64 439.701 374.892 444.185C374.991 447.002 375.627 451.858 371.783 452.288C352.831 454.411 318.494 452.852 298.923 452.451C308.836 451.258 320.46 454.61 329.989 450.999C332.065 450.212 334.601 445.897 333.408 443.648C326.425 440.235 313.636 443.975 305.44 441.821Z"/>
	<path fill="hsl(192, 100%, 86%)" transform="scale(0.61875 0.61875)" d="M342 201.722C349.171 201.444 395.95 201.04 399.179 202.985C400.61 203.847 399.748 210.627 399.033 211.857C396.854 213.417 382.716 212.706 379.646 212.663C364.47 212.956 341.251 214.092 326.357 212.781C321.564 212.36 319.663 207.614 323.158 203.936C327.238 199.643 336.647 202.137 342 201.722Z"/>
	<path fill="hsl(192, 100%, 86%)" transform="scale(0.61875 0.61875)" d="M285.597 361.203C258.788 361.601 231.924 361.258 205.109 361.256L177.005 361.255C172.437 361.258 167.558 361.599 163.017 361.198C158.585 360.807 154.479 356.491 158.439 352.403C162.13 348.592 170.12 350.797 174.762 350.818L285.392 350.744C288.36 352.488 305.664 350.609 312.049 352.589C306.66 365.184 296.618 359.168 285.597 361.203Z"/>
	<path fill="hsl(192, 100%, 86%)" transform="scale(0.61875 0.61875)" d="M216.877 409.709L314.527 409.894C331.081 409.892 347.825 409.326 364.348 410.21C368.309 410.423 373.426 419.514 364.738 419.722C354.787 421.171 341.376 420.348 331.011 420.347L233.986 420.359C228.04 420.382 209.979 423.87 213.57 412.616C214.035 411.158 215.642 410.381 216.877 409.709Z"/>
	<path fill="hsl(192, 100%, 86%)" transform="scale(0.61875 0.61875)" d="M161.118 321.051C167.156 320.524 173.61 321.026 179.702 321.036L282.53 321.048C293.772 321.048 305.085 320.787 316.32 321.106C325.017 321.352 331.533 329.08 321.227 331.376C312.283 332.159 303.226 331.856 294.253 331.855L179.941 331.847C174.964 331.842 164.055 333.931 159.723 331.509C154.542 328.613 155.216 322.001 161.118 321.051Z"/>
	<path fill="hsl(192, 100%, 86%)" transform="scale(0.61875 0.61875)" d="M298.923 452.451C290.465 452.816 281.857 452.511 273.387 452.511L183.662 452.519C178.905 452.529 160.625 454.213 157.193 450.88C153.367 447.165 157.54 441.751 161.967 441.503C169.136 441.101 176.578 441.565 183.782 441.576L277.253 441.563C286.612 441.557 296.098 441.237 305.44 441.821C313.636 443.975 326.425 440.235 333.408 443.648C334.601 445.897 332.065 450.212 329.989 450.999C320.46 454.61 308.836 451.258 298.923 452.451Z"/>
	<path fill="hsl(192, 100%, 86%)" transform="scale(0.61875 0.61875)" d="M290.752 388.684C281.55 389.151 272.256 388.9 263.043 388.896L179.821 388.887C174.676 388.896 161.702 390.738 157.621 387.204C155.168 385.08 154.81 381.845 157.098 379.476C160.18 376.286 168.301 377.559 172.255 377.585L258.213 377.631C261.958 378.646 266.854 377.64 270.743 377.632C281.095 377.612 334.439 377.179 337.037 380.072L336.067 380.251C334.152 383.2 335.75 386.544 330.885 387.673C321.169 389.929 300.78 385.545 290.752 388.684Z"/>
	<path fill="hsl(192, 100%, 86%)" transform="scale(0.61875 0.61875)" d="M213.212 306.488L183.292 306.52C163.286 306.535 154.699 307.314 154.687 284.689L154.61 207.427C154.45 188.786 161.35 187.159 178.32 187.555C180.056 188.617 182.811 188.163 184.14 189.705C183.273 195.825 175.395 196.077 172.203 197.679C174.878 198.511 178.777 196.479 181.119 198.382C176.362 198.384 171.544 198.204 166.803 198.603C164.613 206.339 165.363 214.636 165.362 222.578L165.368 251.853C165.372 259.008 164.33 289.302 166.502 293.418C172.564 297.146 204.44 295.303 213.293 295.591L212.346 295.917L212.491 296.158C215.857 296.67 220.178 295.249 223.266 296.578L223.632 297.127C222.329 301.702 212.776 305.919 212.744 305.991L213.212 306.488Z"/>
	<path fill="hsl(192, 100%, 86%)" transform="scale(0.61875 0.61875)" d="M244.65 496.692C249.034 496.37 253.552 496.559 257.948 496.558L280.566 496.553C286.298 496.551 296.199 495.924 301.443 496.583C315.612 498.363 319.744 526.006 297.46 528.102C287.654 528.34 277.708 527.822 267.879 527.826C255.235 527.832 230.772 532.646 228.56 515.623C226.964 503.346 232.951 497.844 244.65 496.692ZM243.812 507.623C237.749 508.052 237.915 513.943 240.404 515.924C242.531 517.618 289.159 517.82 296.952 516.792C302.944 515.663 303.774 510.762 299.08 507.496L262.372 507.46C256.318 507.456 249.796 506.956 243.812 507.623Z"/>
	<path fill="hsl(192, 100%, 86%)" transform="scale(0.61875 0.61875)" d="M178.32 187.555C197.944 187.145 217.617 187.467 237.247 187.453L254.328 187.399C267.397 187.284 274.671 188.927 274.915 204.364C275.243 225.215 274.951 246.117 274.952 266.972L274.957 285.379C275.019 308.498 266.693 306.492 245.068 306.496L213.212 306.488L212.744 305.991C212.776 305.919 222.329 301.702 223.632 297.127L223.266 296.578C220.178 295.249 215.857 296.67 212.491 296.158L212.346 295.917L213.293 295.591C219.001 295.418 258.748 296.457 261.974 294.826C265.699 292.942 263.76 264.174 263.762 258.06L263.774 223.976C263.777 215.536 263.904 207.108 263.349 198.68C256.818 197.637 245.031 198.358 238.026 198.355L181.119 198.382C178.777 196.479 174.878 198.511 172.203 197.679C175.395 196.077 183.273 195.825 184.14 189.705C182.811 188.163 180.056 188.617 178.32 187.555Z"/>
	<path fill="hsl(192, 100%, 86%)" transform="scale(0.61875 0.61875)" d="M201.067 228.475C203.504 228.363 207.836 227.825 208.216 231.204C208.652 235.092 208.037 236.276 205.746 237.625C203.688 238.838 198.888 245.86 197.255 248.032C201.745 251.913 206.501 257.308 206.29 263.559C205.791 278.419 192.209 257.959 190.749 256.028C189.677 258.541 188.132 260.9 186.677 263.203C183.209 267.272 176.962 265.891 176.821 259.987C176.713 255.459 182.284 251.907 185.171 248.985C182.195 244.702 175.809 239.902 176.139 234.179C176.622 225.775 187.347 233.765 190.617 239.352C193.832 235.519 195.923 230.048 201.067 228.475Z"/>
	<path fill="hsl(192, 100%, 86%)" transform="scale(0.61875 0.61875)" d="M221.053 227.27C230.563 226.699 249.308 240.563 253.69 247.507C253.909 250.082 253.856 252.421 253.299 254.952C249.619 259.178 243.632 262.335 238.931 265.327C235.224 267.741 219.707 284.698 218.847 270.854C218.11 258.981 217.738 243.583 217.779 231.552C217.788 228.875 218.357 227.961 221.053 227.27ZM228.675 238.89C227.687 245.891 227.294 253.612 228.018 260.662L236.165 255.558C238.318 254.006 240.47 252.484 242.337 250.585C238.557 244.626 234.348 242.636 228.675 238.89Z"/>
	<path fill="hsl(192, 100%, 86%)" transform="scale(0.61875 0.61875)" d="M295.487 552.233C290.623 552.781 285.181 552.322 280.257 552.319L152.209 552.403C131.2 552.216 113.175 538.443 110.688 517.139C109.965 510.945 110.379 504.619 110.391 498.393L110.404 195.68C110.401 174.049 110.085 152.37 110.403 130.746C110.589 118.12 113.34 107.279 122.705 98.3068C134.345 87.1553 146.603 87.3661 161.765 87.358L182.188 87.3522C198.214 87.3508 214.283 87.0833 230.302 87.4367L230.605 87.4612C236.875 87.9089 245.293 87.3718 251.877 87.3665C273.987 87.3488 301.963 86.4029 323.812 88.5214L324.467 89.43L324.146 89.5913L324.825 88.9275C324.992 89.2891 325.032 89.8604 325.112 90.2605L324.899 90.6469L323.772 90.3155C322.383 91.6179 321.694 93.6176 320.124 94.7028C312.013 100.308 293.741 95.2141 283.608 97.8348C274.606 98.225 265.571 98.0692 256.563 98.1836L186.868 98.4576C175.552 98.4627 154.311 97.3651 143.647 99.5795C115.078 105.512 122.833 136.571 121.246 157.123L238.291 157.171C244.462 157.173 250.655 157.04 256.812 157.495C265.302 157.05 273.8 157.168 282.299 157.161L315.135 157.159C315.96 158.181 316.839 157.96 317.464 158.832L317.433 158.805L317.206 159.154C310.273 169.715 306.028 164.629 297.314 167.416C277.42 168.186 253.908 168.263 233.879 167.727C202.778 166.97 169.632 167.042 138.505 167.612C132.967 167.713 127.438 168.38 121.904 168.478C121.337 181.26 121.555 194.084 121.554 206.876L121.525 472.493C134.952 473.041 148.504 472.679 161.945 472.677L233.759 472.67C246.641 472.67 259.782 472.139 272.635 472.916C277.425 473.947 282.509 473.279 287.366 473.273L317.548 473.455C321.706 473.457 334.817 471.634 337.763 475.524C339.159 477.368 336.894 481.759 335.154 482.541C330.02 484.85 297.209 481.432 287.725 483.753L177.761 483.737C159.178 483.736 139.988 483.155 121.467 483.9C121.808 499.895 117.871 521.591 129.752 532.964C140.48 543.233 154.9 541.451 168.568 541.441L294.694 541.425C311.51 541.425 328.403 541.094 345.211 541.558L344.779 541.959C347.756 543.367 357.406 540.717 359.835 543.526C362.264 557.631 330.161 551.786 321.252 551.801C316.138 551.81 299.718 551.565 295.487 552.233Z"/>
	<path fill="hsl(192, 100%, 86%)" transform="scale(0.61875 0.61875)" d="M256.812 157.495C265.302 157.05 273.8 157.168 282.299 157.161L315.135 157.159C315.96 158.181 316.839 157.96 317.464 158.832L317.433 158.805L317.206 159.154C310.273 169.715 306.028 164.629 297.314 167.416C277.42 168.186 253.908 168.263 233.879 167.727C244.345 164.611 271.05 172.303 276.184 159.2C272.859 157.168 261.319 158.84 256.736 158.005L256.812 157.495Z"/>
	<path fill="hsl(192, 100%, 86%)" transform="scale(0.61875 0.61875)" d="M324.601 112.002C346.099 109.212 350.547 135.165 330.92 142.691C305.661 146.003 305.404 113.712 324.601 112.002ZM325.053 120.909L322.551 122.765C320.027 128.605 321.924 135.082 328.972 132.324C334.884 128.587 332.658 120.942 325.053 120.909Z"/>
	<path fill="hsl(192, 100%, 86%)" transform="scale(0.61875 0.61875)" d="M370.258 111.374C390.837 110.353 394.81 141.788 373.838 143.859C353.594 144.166 348.244 113.857 370.258 111.374ZM370.626 120.965C364.307 124.674 365.916 134.658 373.084 132.619C376.144 130.774 376.779 129.095 377.756 125.812C375.887 122.806 374.3 120.89 370.626 120.965Z"/>
	<path fill="hsl(192, 100%, 86%)" transform="scale(0.61875 0.61875)" d="M150.56 123.481C155.897 123.109 161.423 123.564 166.783 123.579L274.045 123.62C278.572 123.65 291.682 121.292 293.625 126.901C294.875 130.506 293.486 132.77 290.193 134.005C283.961 135.252 273.784 134.56 267.223 134.563L176.722 134.557C169.118 134.553 160.957 135.15 153.433 134.289C146.595 133.506 144.99 127.141 150.56 123.481Z"/>
	<path fill="hsl(192, 100%, 86%)" transform="scale(0.61875 0.61875)" d="M376.853 87.4458C390.367 86.6191 403.429 87.6127 413.992 97.0211C429.221 110.585 427.749 122.655 427.722 140.514L427.714 185.152C427.711 191.997 427.288 199.036 427.644 205.851C484.24 193.191 545.058 232.584 557.561 288.812C564.114 318.277 559.63 347.453 543.298 372.989C534.482 386.774 521.518 401.368 516.044 416.695C513.939 422.586 510.373 437.604 511.629 443.687C512.36 447.225 514.861 451.813 512.802 455.257C509.6 460.612 505.384 455.535 508.754 468.08C513.16 469.401 513.748 471.602 514.917 475.628C513.415 479.528 512.496 480.445 508.381 480.681C509.916 504.694 511.013 512.448 484.565 512.3L464.158 512.295C452.02 512.3 439.679 512.758 427.566 512.134C426.79 528.076 413.551 549.636 396.517 551.238L396.403 551.037C394.733 550.513 392.877 552.041 391.187 551.58C393.865 550.048 395.075 544.087 392.992 541.615L392.395 541.423C393.598 540.444 395.547 540.67 396.971 539.92L396.674 539.536C409.767 532.596 413.96 528.952 416.5 512.484C394.3 511.943 390.563 504.974 394.483 480.653L392.958 480.436C386.208 479.502 387.294 468.116 394.52 468.964C395.019 465.232 395.453 461.481 395.714 457.724C382.979 445.231 390.95 444.991 390.88 431.37C390.783 412.461 361.639 382.36 354.061 361.341C342.896 361.056 331.68 361.645 320.528 361.016C326.827 360.189 334.675 361.824 342.385 360.75L342.238 360.767C348.29 359.655 349.823 353.208 346.18 351.777L346.156 351.569C346.975 351.651 347.705 351.69 348.531 351.635L348.845 351.102C347.524 344.615 346.03 338.16 345.205 331.585C339.087 282.819 360.817 241.903 402.588 217.41C406.818 214.93 411.423 211.91 416.216 210.742C415.019 198.781 416.13 179.699 416.422 167.182L339.962 167.592C325.765 167.596 311.501 167.87 297.314 167.416C306.028 164.629 310.273 169.715 317.206 159.154L317.433 158.805L317.464 158.832C316.839 157.96 315.96 158.181 315.135 157.159C317.644 156.966 320.288 157.151 322.81 157.155L389.665 157.185C398.483 157.196 407.594 157.722 416.332 156.55C415.293 124.807 423.721 100.867 381.199 97.8286C376.925 95.4443 367.781 98.1003 362.714 97.1339L362.779 97.1067L363.21 97.3061L363.377 96.7201L363.579 96.9581C368.893 96.2491 375.908 94.7567 378.529 89.1696C377.184 87.8606 373.233 88.1882 371.479 88.0556L371.409 87.894C373.953 87.5731 376.562 88.0984 379.133 88.0351L378.998 87.814L376.853 87.4458ZM446.618 215.437C367.121 224.417 328.013 311.754 376.089 377.369C393.701 401.406 402.579 416.056 403.797 447.554C411.24 447.957 418.736 447.799 426.188 447.782C425.179 438.153 425.825 428.6 425.147 418.998C423.692 398.387 420.992 374.855 420.573 354.515C408.483 352.242 401.184 341.547 403.68 329.623C407.606 310.864 434.932 309.807 441.021 329.574C446.956 329.491 452.915 329.506 458.848 329.693L462.956 329.788C464.87 320.11 474.027 313.121 484.018 315.297C505.477 319.969 507.414 346.035 483.57 355.141L476.645 448.132C484.443 447.788 492.215 447.917 500.01 447.724C499.573 418.795 507.377 403.945 524.313 380.256C529.194 373.427 534.36 366.694 538.18 359.189C570.771 295.165 522.935 214.087 450.797 215.277C449.442 215.299 447.958 215.245 446.618 215.437ZM449.567 339.821C446.577 340.023 443.422 340.099 440.571 341.11C438.732 347.766 437.177 351.532 430.161 352.553C434.112 379.065 438.581 420.553 436.635 447.815L454.992 447.76L466.51 447.804C464.382 426.091 468.247 377.578 473.433 354.446C458.735 347.243 470.785 338.004 449.567 339.821ZM412.083 458.579C410.102 458.64 408.117 458.727 406.135 458.754C405.958 463.934 405.931 469.14 405.577 474.31C420.548 475.119 435.67 474.697 450.664 474.697L478.865 474.705C482.933 474.711 487.014 474.905 491.079 474.802L497.51 474.658C496.936 469.23 496.541 463.99 496.581 458.524C491.763 458.23 486.95 458.411 482.128 458.452L462.473 458.472C445.709 458.47 428.831 458.045 412.083 458.579ZM492.217 484.834C463.563 485.928 434.744 484.662 406.059 485.13C405.398 492.254 401.62 500.996 411.334 501.027L464.816 500.97C471.576 500.974 492.301 501.841 497.466 500.102C497.517 495.042 497.222 490.008 497.188 484.955C495.531 484.868 493.876 484.755 492.217 484.834ZM420.956 325.663C409.606 328.99 412.207 344.018 424.448 343.442C433.664 338.849 433.303 324.284 420.956 325.663ZM479.214 326.316C474.812 327.738 473.054 329.805 471.634 333.971C473.323 338.814 475.67 344.134 481.72 342.924C485.926 341.2 488.102 338.454 489.298 334.224C487.637 329.107 484.829 325.854 479.214 326.316Z"/>
	<path fill="hsl(192, 100%, 86%)" transform="scale(0.61875 0.61875)" d="M468.536 234.817C484.106 234.194 488.963 231.769 491.197 245.175C485.265 246.139 479.45 245.26 473.479 244.942C476.38 250.674 479.186 256.297 481.416 262.336C483.884 269.931 479.427 277.425 474.728 272.385C470.232 267.562 462.132 245.713 462.194 237.937C464.122 235.727 465.659 235.115 468.536 234.817Z"/>
	<path fill="hsl(192, 100%, 86%)" transform="scale(0.61875 0.61875)" d="M451.037 249.516C455.445 250.233 478.68 283.689 465.282 283.302C458.327 283.101 456.886 270.666 452.804 266.674L451.992 267.429C449.611 271.843 445.015 283.913 438.811 283.963C422.234 284.097 448.195 252.039 451.037 249.516Z"/>
	<path fill="hsl(192, 100%, 86%)" transform="scale(0.61875 0.61875)" d="M419.911 234.809C429.96 233.872 446.082 230.595 441.187 245.277C439.279 250.997 432.034 273.557 425.395 273.454C413.818 269.557 425.809 252.818 429.796 245.559C424.667 245.594 417.829 247.54 413.32 244.457C407.551 240.514 414.247 235.392 419.911 234.809Z"/>
</svg>
