<?xml version="1.0" encoding="utf-8" ?>
<svg xmlns="http://www.w3.org/2000/svg" xmlns:xlink="http://www.w3.org/1999/xlink" width="480" height="480">
	<path fill="hsl(192, 100%, 86%)" transform="matrix(0.75 0 0 0.75 -0.000488281 -6.10352e-05)" d="M263.296 356.562C225.736 356.317 241.322 328.056 227.528 315.887C219.002 308.366 206.679 310.203 196.389 302.361C173.699 285.069 196.772 261.124 194.597 253.16C191.052 240.183 154.903 230.871 188.692 204.924C199.67 196.494 196.693 194.935 192.222 182.646C188.898 173.51 188.413 162.969 194.772 154.943C204.065 143.211 216.694 148.172 225.722 143.611C239.065 136.869 232.425 110.79 250.285 106.113C263.476 102.658 272.538 115.313 284.375 113.802C299.656 111.852 300.17 92.7845 318.842 90.42C333.863 88.6363 337.703 101.713 345.641 109.077C360.901 123.235 375.072 100.06 390.905 106.158C408.413 112.901 402.322 132.962 411.103 141.233C418.988 148.66 431.218 142.048 442.949 153.412C459.628 169.57 442.712 184.549 443.14 194.882C443.528 204.272 464.92 209.486 465.017 224.006C465.119 239.507 445.569 245.289 444.764 253.546C443.703 264.433 461.552 275.413 450.138 294.695C439.477 312.705 421.805 305.4 411.709 317.939C400.385 332.004 412.919 356.366 376.614 356.145C369.61 420.694 383.607 467.431 413.973 522.076C417.194 527.872 415.696 530.848 410.049 533.838C401.421 530.209 386.689 516.657 377.431 518.531C364.773 521.093 374.211 556.344 376.019 564.315C374.304 567.314 372.93 568.631 369.676 569.864C352.051 562.755 328.135 521.497 320.92 502.01L320.813 501.556C320.101 502.196 314.538 515.176 313.316 517.548C305.951 531.838 288.185 558.884 274.434 568.374C270.02 571.42 267.224 569.363 264.72 565.165C265.08 553.53 275.988 527.222 265.887 519.726C255.501 512.017 239.242 531.776 231.357 532.886C215.517 535.117 234.184 508.02 235.948 504.62C261.765 454.886 268.893 412.844 263.296 356.562ZM318.759 102.242C306.666 104.672 299.783 134.247 273.22 124.659C257.139 118.855 251.326 107.641 245.665 132.282C237.444 168.063 211.561 149.896 203.372 162.924C195.1 176.083 214.429 189.627 206.316 203.447C201.481 211.683 185.129 219.314 186.553 225.153C188.956 235.007 205.532 239.096 206.557 254.234C207.872 273.661 177.482 287.282 221.235 299.52C255.886 309.213 235.02 342.463 260.145 345.206C269.677 340.366 275.262 332.314 288.832 336.3C304.748 340.974 308.371 362.623 321.516 360.386C330.556 357.396 329.775 354.208 335.265 347.307C347.87 331.463 364.1 333.219 378.234 344.655C403.053 344.909 388.406 320.554 407.665 305.156C419.212 295.924 442.672 299.443 442.23 280.921C441.92 267.992 423.493 257.627 439.121 240.642C444.196 235.126 451.079 231.655 453.375 224.083C449.578 213.171 432.477 210.808 430.412 196.414C428.367 182.162 456.603 161.595 419.084 157.084C389.639 153.544 398.526 122.672 387.867 117.861C378.471 113.619 355.837 139.894 334.794 114.513C330.007 108.739 327.572 101.77 318.759 102.242ZM356.59 346.964C341.593 349.447 343.759 366.216 324.738 371.379C321.506 401.599 327.51 431.268 327.101 461.414C327.026 466.985 326.337 472.696 326.67 478.251C328.224 504.146 348.548 527.427 361.565 548.31C360.851 545.235 360.107 542.186 359.731 539.046C356.178 514.639 372.882 496.957 395.365 512.384C377.502 479.113 366.476 442.938 364.171 405.168C363.344 391.619 362.884 361.952 366.066 350.142C362.962 348.253 360.281 347.13 356.59 346.964ZM279.129 347.257C277.141 347.67 275.413 348.236 273.58 349.13C274.313 357.463 275.721 365.7 276.247 374.064C279.067 418.917 268.924 471.355 245.907 510.722C272.518 497.597 284.249 516.655 280.686 543.055L279.802 547.136C323.175 494.843 316.748 473.947 312.663 411.659C311.834 399.023 312.046 384.391 313.236 371.877C295.401 363.371 294.73 346.005 279.129 347.257Z"/>
	<path fill="hsl(192, 100%, 86%)" transform="matrix(0.75 0 0 0.75 -0.000488281 -6.10352e-05)" d="M325.548 327.584C277.558 330.693 225.857 295.49 221.191 245.538C215.872 188.589 259.375 141.978 315.405 136.695C320.231 135.907 325.634 136.508 330.467 137.048C377.981 142.354 416.173 183.863 419.207 231.447C422.613 284.883 376.273 324.565 325.548 327.584ZM313.9 148.562C266.957 152.738 228.123 195.458 232.761 243.271C237.145 288.467 282.704 318.955 326.173 316.01C348.579 315.014 372.88 303.333 387.926 286.945C438.267 232.113 385.976 142.815 313.9 148.562Z"/>
	<path fill="hsl(192, 100%, 86%)" transform="matrix(0.75 0 0 0.75 -0.000488281 -6.10352e-05)" d="M278.967 244.333C272.719 232.241 245.773 221.648 256.833 204.7C265.232 191.83 289.095 200.745 296.089 193.339C303.952 185.012 302.526 165.159 318.527 161.618C336.607 159.976 336.167 184.71 345.338 194.605C357.542 197.513 384.02 193.564 386.286 210.591C388.191 224.908 369.72 232.964 362.598 242.775L362.334 243.142C362.115 257.964 376.003 280.657 359.803 288.037C348.997 292.959 332.732 277.207 321.955 273.266C315.972 270.682 296.789 289.345 285.902 289.034C263.882 288.406 278.51 255.564 278.967 244.333ZM319.057 173.31C311.157 182.172 311.687 198.092 300.843 204.528C293.5 208.885 267.789 208.554 265.531 211.729C266.207 218.242 287.455 231.314 290.222 242.694C292.065 250.275 283.564 274.245 285.966 276.607C293.161 277.195 307.75 260.761 322.788 261.24L323.206 261.322C331.162 262.972 351.067 277.415 354.417 277.009C359.256 273.642 346.632 248.306 352.102 238.064C359.379 224.436 390.415 211.927 364.999 209.044C338.59 206.047 336.131 207.859 326.254 182.67C324.925 179.282 323.378 173.728 319.057 173.31Z"/>
</svg>
