<?xml version="1.0" encoding="utf-8" ?>
<svg xmlns="http://www.w3.org/2000/svg" xmlns:xlink="http://www.w3.org/1999/xlink" width="1024" height="1024">
	<path fill="#B7F1FF" transform="scale(1.6 1.6)" d="M197.307 161.665C202.796 161.59 241.202 160.54 244.445 162.984C250.22 167.337 243.095 170.579 238.352 170.98L208.259 170.951C204.776 170.949 192.964 172.219 190.263 170.174C183.481 165.039 192.646 162.057 197.307 161.665Z"/>
	<path fill="#B7F1FF" transform="scale(1.6 1.6)" d="M403.104 161.665C409.379 161.35 448.67 160.438 451.497 163.167C456.401 167.902 449.529 170.854 444.757 170.98L417.932 170.994C412.926 171.009 407.674 171.345 402.698 170.844C392.352 169.803 392.926 162.953 403.104 161.665Z"/>
	<path fill="#B7F1FF" transform="scale(1.6 1.6)" d="M163.886 419.621C166.267 419.53 167.236 420.056 168.614 422.077C169.007 429.965 168.56 438.005 168.614 445.917L193.73 445.932C201.343 445.936 209.557 446.263 217.041 444.819C212.877 440.738 205.883 439.007 204.487 432.829C208.553 422.39 217.736 434.455 222.955 438.997C226.355 441.755 239.51 450.569 228.432 454.159C224.719 455.363 188.39 454.699 181.28 454.707C155.546 454.737 159.635 458.444 159.712 434.947C159.727 430.209 157.581 421.007 163.886 419.621Z"/>
	<path fill="#B7F1FF" transform="scale(1.6 1.6)" d="M477.451 416.512C486.17 417.145 483.037 429.874 483.053 435.635C483.107 456.017 488.299 457.488 465.07 457.472L422.065 457.492C416.358 457.501 407.305 458.716 409.999 448.551C411.212 443.976 417.907 441.129 421.719 438.997C424.464 436.947 441.077 422.995 441.366 434.463C441.505 440.007 428.961 443.284 423.883 448.433C435.743 446.683 460.341 448.691 473.557 448.433C474.027 438.895 473.694 429.175 473.557 419.621C474.673 418.205 475.899 417.383 477.451 416.512Z"/>
	<path fill="#B7F1FF" transform="scale(1.6 1.6)" d="M476.566 187.211C479.544 187.421 480.726 188.514 482.417 191.014C482.776 203.558 481.039 222.79 483.129 234.487C486.671 229.838 499.289 214.827 503.988 214.85C506.438 214.862 508.559 217.998 508.537 220.227C508.508 223.088 481.27 251.516 476.566 251.602C473.336 249.959 448.877 223.685 446.573 219.322C452.443 203.721 465.178 229.181 473.156 235.965L473.557 236.302C473.937 220.899 472.889 205.367 473.557 189.988C474.48 188.968 475.523 188.104 476.566 187.211Z"/>
	<path fill="#B7F1FF" transform="scale(1.6 1.6)" d="M158.619 197.691C161.338 197.632 163.065 198.767 164.937 200.662L164.962 228.282C165.028 234.991 165.421 241.525 164.937 248.238C171.008 242.241 180.569 226.929 188.33 229.549C197.589 232.674 183.553 242.045 181.126 244.51C176.244 249.472 167.01 262.834 160.503 264.551C152.817 260.597 146.541 251.287 140.527 245.185C136.827 241.43 125.348 234.523 129.75 229.592C136.613 221.906 149.105 242.589 154.596 248.238C156.965 233.299 156.192 215.859 156.178 200.662C156.892 199.554 157.711 198.643 158.619 197.691Z"/>
	<path fill="#B7F1FF" transform="scale(1.6 1.6)" d="M322.726 280.608C328.016 279.531 345.13 302.5 349.155 306.917C351.754 309.77 356.885 313.559 358.38 316.842C353.124 330.449 344.876 315.892 339.932 309.694C335.517 304.16 331.132 298.603 326.629 293.141L326.637 331.926C326.64 336.701 328.226 355.495 324.714 358.757C322.913 359.736 319.086 360.829 317.943 358.281C316.916 355.992 317.006 305.928 319.107 296.139C310.729 303.75 302.861 315.893 295.183 321.339C289.71 325.22 285.117 318.519 289.081 313.885C295.803 306.026 316.339 283.96 322.726 280.608Z"/>
	<path fill="#B7F1FF" transform="scale(1.6 1.6)" d="M317.73 392.624C355.16 390.494 366.053 457.784 324.714 471.607C317.142 471.651 310.512 470.819 304.435 465.999C282.666 448.73 285.197 395.978 317.73 392.624ZM317.73 402C290.008 405.371 295.857 466.066 322.726 462.412C351.443 452.447 345.119 397.819 317.73 402Z"/>
	<path fill="#B7F1FF" transform="scale(1.6 1.6)" d="M298.392 471.607C300.05 471.393 301.107 471.449 302.189 472.851L303.818 474.971L303.818 477.834C311.215 477.181 318.266 477.189 324.714 481.228C327.181 489.728 325.297 505.672 312.583 499.8C312.277 494.027 313.908 488.708 316.554 483.581C312.298 482.183 308.244 481.658 303.818 481.228L303.823 481.706C303.931 498.278 312.395 515.854 314.04 531.261L327.737 531.261C328.49 526.178 337.104 484.838 338.661 482.569C335.304 479.389 333.916 477.772 334.898 472.848C352.838 470.338 385.998 482.967 396.081 498.473C402.751 510.383 402.831 524.811 402.186 538.139C396.173 542.835 378.571 540.568 371.029 540.579L277.59 540.873C272.99 540.872 240.085 542.493 238.471 537.961C237.281 534.619 238.373 514.655 239.202 510.642C245.567 479.807 273.708 479.069 298.392 471.607ZM294.558 482.569C264.006 489.428 244.86 494.359 247.489 531.261C256.795 531.316 275.24 532.46 283.58 531.261C283.618 528.377 283.751 525.458 283.58 522.578C283.571 520.747 283.526 518.906 283.58 517.076C269.805 505.933 286.895 502.776 290.356 506.078C292.26 507.894 289.389 525.837 289.663 531.261C294.689 531.246 299.744 531.117 304.767 531.261C301.172 517.053 296.966 502.674 295.571 488.027C295.423 486.475 295.691 483.895 294.879 482.61L294.558 482.569ZM347.223 483.581C343.844 497.918 340.208 516.665 338.661 531.261C343.158 531.246 347.861 530.935 352.334 531.261C352.512 523.228 351.002 515.061 351.555 507.133C367.064 507.128 362.378 515.376 362.451 528.203L362.451 531.261L392.518 531.261C393.038 491.632 379.868 491.918 347.223 483.581Z"/>
	<path fill="#B7F1FF" transform="scale(1.6 1.6)" d="M351.555 95.9457C357.13 95.0546 375.519 95.0133 378.913 98.1471C382.324 101.298 381.206 113.054 381.208 117.24L380.41 219.322L380.144 219.591C374.423 225.272 355.617 222.765 347.78 222.762L290.628 222.773L272.395 222.84C257.685 222.787 261.163 211.504 261.171 200.947L261.185 132.235C261.181 123.582 258.811 103.91 266.14 97.8414C270.008 94.6393 282.482 95.9456 287.253 95.9457L336.869 95.933C341.763 95.8906 346.671 95.5411 351.555 95.9457ZM271.064 124.813L271.064 213.423L358.029 213.408C362.224 213.381 366.436 213.138 370.623 213.423C370.61 185.239 372.387 153.188 371.32 125.597L271.064 124.813ZM276.503 102.3C269.528 102.983 269.722 109.7 270.01 115.33L369.766 116.193L371.056 116.111C372.494 114.284 371.506 108.34 371.32 105.893C364.689 105.049 357.594 105.912 350.892 105.909C346.981 105.907 288.568 105.247 288.206 105.43C284.878 107.117 282.434 107.589 278.711 107.464C278.384 106.106 277.997 103.165 277.007 102.281L276.503 102.3Z"/>
	<path fill="#B7F1FF" transform="scale(1.6 1.6)" d="M353.439 140.023C362.697 140.833 362.601 152.634 355.492 156.362C347.913 155.862 345.727 144.168 353.439 140.023Z"/>
	<path fill="#B7F1FF" transform="scale(1.6 1.6)" d="M288.511 140.023C296.809 140.919 298.774 152.016 290.628 156.362C280.729 158.582 282.502 144.116 288.511 140.023Z"/>
	<path fill="#B7F1FF" transform="scale(1.6 1.6)" d="M332.88 137.415C339.036 139.457 344.142 151.122 334.898 156.362C333.233 156.435 331.886 155.61 330.413 154.922C327.13 149.377 327.181 141.306 332.88 137.415Z"/>
	<path fill="#B7F1FF" transform="scale(1.6 1.6)" d="M355.492 161.238C362.409 161.518 362.524 179.98 355.492 181.534C348.02 176.814 346.756 165.061 355.492 161.238Z"/>
	<path fill="#B7F1FF" transform="scale(1.6 1.6)" d="M332.88 161.665C342.865 161.845 340.983 175.476 334.898 181.534L334.243 181.835C328.156 180.058 324.16 167.282 332.88 161.665Z"/>
	<path fill="#B7F1FF" transform="scale(1.6 1.6)" d="M287.82 161.238C296.533 159.58 297.778 178.274 290.628 181.534C281.851 179.742 282.036 166.244 287.82 161.238Z"/>
	<path fill="#B7F1FF" transform="scale(1.6 1.6)" d="M287.82 187.211C295.48 185.197 300.876 202.793 291.746 203.625C276.484 204.033 281.69 188.293 287.82 187.211Z"/>
	<path fill="#B7F1FF" transform="scale(1.6 1.6)" d="M314.04 159.73C320.333 159.106 317.887 170.987 317.672 175.961C317.51 179.739 316.991 183.163 312.583 182.728C310.671 182.106 308.654 181.423 308.036 179.293C306.04 172.411 305.781 162.081 314.04 159.73Z"/>
	<path fill="#B7F1FF" transform="scale(1.6 1.6)" d="M316.554 187.211C320.855 187.72 336.218 201.644 317.73 203.625C303.502 205.698 305.708 192.635 316.554 187.211Z"/>
	<path fill="#B7F1FF" transform="scale(1.6 1.6)" d="M314.04 130.312C315.301 130.205 316.905 130.086 317.876 131.049C319.774 132.933 319.857 152.359 317.827 154.194C316.709 155.204 315.433 155.009 314.04 154.922C304.776 149.871 304.958 133.688 314.04 130.312Z"/>
	<path fill="#B7F1FF" transform="scale(1.6 1.6)" d="M344.542 187.211C346.22 187.123 346.335 187.267 347.209 188.755C348.484 188.924 353.873 184.705 356.276 193.142C357.758 198.343 357.707 202.333 352.334 203.625C341.499 204.243 340.92 203.154 338.661 192.603C339.42 191.063 340.296 189.669 341.238 188.238L344.542 187.211Z"/>
	<path fill="#B7F1FF" transform="scale(1.6 1.6)" d="M217.041 398.754L109.726 398.764C103.196 398.764 96.6522 398.902 90.1471 398.222C76.1665 396.759 78.3386 389.459 78.4313 378.528L78.4164 285.794C78.2978 266.677 94.3467 271.766 110.391 271.828L197.982 271.854C207.688 271.854 243.863 267.345 243.492 281.372C243.806 304.658 243.491 327.992 243.492 351.283L243.505 375.708C243.516 401.325 243.966 398.87 217.041 398.754ZM87.435 281.372L87.4315 351.137C87.4287 363.552 86.9485 376.167 87.435 388.556C93.9222 389.938 100.673 389.124 107.26 389.006L107.254 375.511C107.3 346.449 121.462 339.702 149.2 340.265C155.65 346.857 157.359 354.63 159.655 363.271C162.715 357.403 167.251 342.517 173.728 340.342C180.587 338.039 194.004 341.701 200.186 345.103C217.148 354.439 213.769 372.573 213.76 389.006C220.306 388.991 227.085 388.646 233.608 389.006C235.72 388.632 234.76 379.543 234.751 377.634L234.767 311.728C234.758 302.962 234.502 294.128 234.759 285.369C234.091 278.559 224.731 281.369 217.904 281.37L190.24 281.353C184.234 281.317 178.217 280.566 172.228 280.608C180.584 285.25 188.156 292.19 190.946 301.676C194.533 313.871 184.77 333.438 172.227 336.921C153.041 342.248 135.391 330.987 131.053 311.741C128.171 298.953 137.739 283.774 150.692 281.027L150.778 280.931C145.59 280.408 138.964 281.307 133.593 281.363L104.305 281.398C98.6963 281.394 93.0388 281.553 87.435 281.372ZM175.499 349.694C169.074 357.934 169.338 375.946 162.06 381.047L161.566 381.398L161.152 381.168C151.786 375.907 151.415 354.296 147.143 351.021C142.67 347.591 123.897 351.096 119.801 358.059C116.161 364.247 117.433 381.09 117.45 388.556L117.685 389.116C121.876 389.81 135.764 388.979 140.692 388.98L204.487 389.006C204.53 364.587 207.913 348.009 175.499 349.694ZM162.735 285.369C154.813 287.332 145.212 293.437 140.922 300.493C133.844 312.133 146.278 327.817 159.655 329.25C181.468 332.468 195.187 293.436 162.735 285.369Z"/>
	<path fill="#B7F1FF" transform="scale(1.6 1.6)" d="M243.492 281.372C243.806 304.658 243.491 327.992 243.492 351.283L243.505 375.708C243.516 401.325 243.966 398.87 217.041 398.754C223.368 396.28 237.3 400.313 241.213 395.096C242.032 394.004 243.34 387.552 243.101 386.262C242.025 385.876 238.406 387.036 234.759 386.09L234.759 389.688C231.951 389.524 222.802 390.302 220.86 389.471C225.1 389.508 229.423 389.861 233.608 389.006C235.72 388.632 234.76 379.543 234.751 377.634L234.767 311.728C234.758 302.962 234.502 294.128 234.759 285.369C235.002 275.215 235.453 296.685 235.432 297.901C235.355 302.176 233.382 320.412 237.353 322.7C241.405 320.758 242.426 332.858 242.939 335.724L243.013 335.599C242.764 333.766 243.067 331.993 243.125 330.157C243.509 317.917 241.18 291.736 243.492 281.372Z"/>
	<path fill="#B7F1FF" transform="scale(1.6 1.6)" d="M149.2 299.627C151.653 301.108 151.999 305.167 157.258 307.175C163.396 309.52 168.284 303.978 173.454 301.733L175.499 304.938C174.361 307.918 173.375 310.951 172.228 313.928C165.132 325.852 147.258 317.859 145.491 304.938C146.233 302.464 147.038 301.112 149.2 299.627Z"/>
	<path fill="#B7F1FF" transform="scale(1.6 1.6)" d="M399.184 261.268C405.43 260.708 413.259 261.252 419.713 261.265L523.87 261.273C533.828 261.272 544.012 260.802 553.94 261.281C565.799 261.852 562.828 277.432 562.824 285.472L562.803 367.1C562.812 377.136 567.25 397.448 554.442 398.754L439.303 398.754C433.264 398.753 398.98 399.426 396.15 398.38C388.927 395.712 391.422 374.131 391.428 367.657L391.438 288.831C391.432 278.51 387.961 265.555 399.184 261.268ZM534.376 270.935L400.915 270.935L400.91 350.014C400.909 363.216 400.609 376.495 400.915 389.688C407.432 389.799 413.952 389.687 420.469 389.688L553.603 389.688L553.603 270.935C547.206 270.471 540.784 271.011 534.376 270.935Z"/>
	<path fill="#B7F1FF" transform="scale(1.6 1.6)" d="M520.742 327.601C523.675 327.511 528.339 326.838 530.573 329.089C535.82 334.379 528.292 337.607 522.422 337.179C518.778 337.227 515.153 337.437 511.6 336.487C511.235 334.01 511.336 331.727 511.6 329.25C514.553 328.288 517.666 327.92 520.742 327.601Z"/>
	<path fill="#B7F1FF" transform="scale(1.6 1.6)" d="M438.623 327.601L479.913 327.599C486.143 327.591 492.876 326.955 499.045 327.601C499.096 330.561 499.052 333.526 499.045 336.487C493.482 336.916 487.999 337.192 482.417 337.179L443.961 337.171C439.164 337.173 425.803 338.923 422.01 335.688C420.175 334.123 420.566 330.898 422.208 329.343C425.193 326.513 434.478 327.586 438.623 327.601Z"/>
	<path fill="#B7F1FF" transform="scale(1.6 1.6)" d="M427.177 358.757L501.907 358.74C507.278 358.741 527.179 358.091 530.874 359.174C536.436 364.626 531.421 368.179 525.089 368.34C517.026 368.026 508.837 368.336 500.762 368.341L452.404 368.356C447.164 368.356 424.802 369.917 421.095 366.701C416.977 363.129 421.786 358.768 427.177 358.757Z"/>
	<path fill="#B7F1FF" transform="scale(1.6 1.6)" d="M423.883 297.259C430.661 297.028 437.526 297.248 444.311 297.249L516.392 297.285C520.624 297.294 528.063 295.842 531.875 298.022C535.378 300.025 534.783 305.908 530.704 306.72C523.843 306.932 516.914 306.733 510.045 306.732L444.18 306.704C441.136 306.701 415.312 309.055 419.996 300.489C421.008 298.637 421.847 297.816 423.883 297.259Z"/>
</svg>
