<?xml version="1.0" encoding="iso-8859-1"?>
<!-- Uploaded to: SVG Repo, www.svgrepo.com, Generator: SVG Repo Mixer Tools -->
<svg fill="#fff" height="800px" width="800px" version="1.1" id="Layer_1" xmlns="http://www.w3.org/2000/svg" xmlns:xlink="http://www.w3.org/1999/xlink" 
	 viewBox="0 0 512 512" xml:space="preserve">
<g>
	<g>
		<g>
			<path d="M497.453,241.022l-43.995-114.147l43.984-113.132c1.207-3.104,0.805-6.603-1.077-9.352C494.485,1.644,491.37,0,488.039,0
				H23.961c-5.571,0-10.089,4.517-10.089,10.089v491.823c0,5.571,4.517,10.089,10.089,10.089h50.443
				c5.571,0,10.089-4.517,10.089-10.089V254.739h403.547c3.325,0,6.437-1.638,8.318-4.381
				C498.239,247.618,498.649,244.124,497.453,241.022z M64.315,491.823H34.049V20.177h30.266V491.823z M84.493,234.562V20.177
				h388.801l-40.056,103.025c-0.912,2.342-0.916,4.94-0.011,7.284l40.113,104.075H84.493z"/>
			<path d="M135.566,66.837h47.291c5.571,0,10.089-4.517,10.089-10.089s-4.517-10.089-10.089-10.089h-47.291
				c-18.427,0-33.419,14.992-33.419,33.419v23.961c0,18.427,14.992,33.419,33.419,33.419c0.537,0,1.062-0.054,1.576-0.135
				c0.514,0.081,1.039,0.135,1.576,0.135h20.808c7.302,0,13.241,5.94,13.241,13.241v23.961c0,7.302-5.94,13.241-13.241,13.241
				h-47.291c-5.571,0-10.089,4.517-10.089,10.089c0,5.571,4.517,10.089,10.089,10.089h47.291c18.427,0,33.419-14.992,33.419-33.419
				V150.7c0-18.427-14.992-33.419-33.419-33.419h-20.808c-0.537,0-1.062,0.054-1.576,0.135c-0.515-0.081-1.039-0.135-1.576-0.135
				c-7.302,0-13.241-5.94-13.241-13.241V80.079C122.325,72.777,128.265,66.837,135.566,66.837z"/>
			<path d="M246.542,66.837h47.291c5.571,0,10.089-4.517,10.089-10.089s-4.517-10.089-10.089-10.089h-47.291
				c-18.427,0-33.419,14.992-33.419,33.419v47.291v47.291c0,18.427,14.992,33.419,33.419,33.419h47.291
				c5.571,0,10.089-4.517,10.089-10.089c0-5.571-4.517-10.089-10.089-10.089h-47.291c-7.302,0-13.241-5.94-13.241-13.241v-37.202
				h60.532c5.571,0,10.089-4.517,10.089-10.089s-4.517-10.089-10.089-10.089H233.3V80.079
				C233.3,72.777,239.24,66.837,246.542,66.837z"/>
			<path d="M381.478,46.66h-23.961c-18.427,0-33.419,14.992-33.419,33.419v94.581c0,18.427,14.992,33.419,33.419,33.419h23.961
				c18.427,0,33.419-14.992,33.419-33.419V80.079C414.896,61.652,399.905,46.66,381.478,46.66z M394.719,174.66
				c0,7.302-5.94,13.241-13.241,13.241h-23.961c-7.302,0-13.241-5.94-13.241-13.241V80.079c0-7.302,5.94-13.241,13.241-13.241
				h23.961c7.302,0,13.241,5.94,13.241,13.241V174.66z"/>
			<path d="M316.532,293.833c0-5.571-4.517-10.089-10.089-10.089h-186.64c-5.571,0-10.089,4.517-10.089,10.089
				s4.517,10.089,10.089,10.089h186.64C312.015,303.921,316.532,299.404,316.532,293.833z"/>
			<path d="M479.212,324.099H296.355c-5.571,0-10.089,4.517-10.089,10.089s4.517,10.089,10.089,10.089h182.857
				c5.571,0,10.089-4.517,10.089-10.089S484.783,324.099,479.212,324.099z"/>
		</g>
	</g>
</g>
</svg>