<?xml version="1.0" encoding="utf-8" ?>
<svg xmlns="http://www.w3.org/2000/svg" xmlns:xlink="http://www.w3.org/1999/xlink" width="396" height="396">
	<path fill="hsl(192, 100%, 86%)" transform="scale(0.61875 0.61875)" d="M112.222 524.712C110.648 516.518 111.47 507.425 111.486 499.071L111.481 152.799C111.481 140.726 109.773 126.906 119.121 117.557C131.591 105.086 150.374 108.312 166.517 108.197L490.647 108.197C525.752 108.239 527.853 124.936 527.87 155.579L527.853 193.714C528.417 199.595 527.999 205.714 527.922 211.624L528.507 502.765C528.573 514.481 530.422 528.61 522.36 538.278C511.706 551.052 500.114 548.897 485.48 548.883L157.904 548.889C138.641 548.9 116.918 550.76 112.222 524.712ZM121.528 200.318L121.577 458.953C121.578 472.162 121.776 485.391 121.607 498.598C122.507 508.49 119.355 523.654 126.037 531.908C133.803 541.503 150.702 539.038 161.555 539.03L482.421 539.022C488.304 539.034 494.463 539.623 500.305 539.171C522.724 537.435 518.45 509.436 518.433 493.779L517.79 238.946C517.79 230.168 517.35 221.112 518.096 212.37C518.082 208.266 518.398 204.145 518.259 200.047C500.127 200.912 481.778 200.357 463.623 200.358L194.838 200.354C170.407 200.331 145.956 200.577 121.528 200.318ZM204.007 117.658C190.323 117.927 176.613 117.754 162.926 117.751C129.743 117.746 121.564 116.021 121.575 150.143L121.587 173.541C121.59 179.301 121.729 185.075 121.215 190.818C142.652 191.495 164.261 190.945 185.718 190.945L418.017 190.951C424.327 190.952 430.655 191.073 436.953 190.615C444.399 190.465 451.872 190.959 459.334 190.95L518.402 190.628L518.446 159.119C518.478 131.442 521.356 117.483 490.213 117.716L277.986 117.759C253.348 117.759 228.638 118.146 204.007 117.658Z"/>
	<path fill="hsl(192, 100%, 86%)" transform="scale(0.61875 0.61875)" d="M164.528 134.109C190.386 131.38 199.378 168.822 171.499 175.035C142.89 177.544 136.615 140.598 164.528 134.109ZM167.425 143.537C151.914 146.805 152.209 163.133 168.066 165.717C183.658 165.33 181.607 142.875 167.425 143.537Z"/>
	<path fill="hsl(192, 100%, 86%)" transform="scale(0.61875 0.61875)" d="M226.244 133.839C251.683 131.98 259.948 170.666 231.64 175.288C198.447 176.238 200.219 137.868 226.244 133.839ZM226.392 143.526C210.44 148.604 214.463 167.262 230.134 166.182C245.743 161.684 242.474 142.102 226.392 143.526Z"/>
	<path fill="hsl(192, 100%, 86%)" transform="scale(0.61875 0.61875)" d="M357.754 136.414C368.34 136.143 378.952 136.283 389.541 136.282L474.858 136.29C480.404 136.291 486.208 135.952 491.725 136.416C497.103 136.867 503.093 146.113 488.813 146.16C476.94 145.836 465.035 146.003 453.157 146.004L370.131 146.018C365.425 146.022 360.604 146.217 355.912 145.864C345.359 145.07 347.707 136.955 357.754 136.414Z"/>
	<path fill="hsl(192, 100%, 86%)" transform="scale(0.61875 0.61875)" d="M353.841 163.896C360.605 163.448 367.567 163.759 374.347 163.759L461.437 163.755C467.163 163.755 491.91 162.51 496.169 165C501.708 168.238 498.944 172.454 493.91 173.405C463.698 173.786 433.44 173.455 403.223 173.455L365.48 173.41C362.328 173.418 359.174 173.839 356.032 173.794C349.122 173.694 347.278 166.047 353.841 163.896Z"/>
	<path fill="hsl(192, 100%, 86%)" transform="scale(0.61875 0.61875)" d="M413.34 421.57C413.885 418.516 415.796 416.131 416.134 412.861C416.695 407.446 415.355 401.435 416.502 396.151C416.545 401.749 419.035 420.257 413.34 421.57Z"/>
	<path fill="hsl(192, 100%, 86%)" transform="scale(0.61875 0.61875)" d="M325.026 497.153L324.776 496.539C330.499 493.902 327.964 492.072 330.828 488.002C332.274 485.947 334.706 485.035 335.96 482.676C337.154 480.429 336.129 478.613 338.466 476.741C338.035 490.875 338.921 497.52 325.026 497.153Z"/>
	<path fill="hsl(192, 100%, 86%)" transform="scale(0.61875 0.61875)" d="M359.093 475.669C362.115 476.574 364.294 482.697 367.669 481.745C374.07 479.941 380.271 470.742 384.107 465.66C386.331 462.713 390.957 459.263 390.669 455.33C390.07 447.161 378.588 442.869 384.006 434.046C385.117 432.238 385.913 429.227 387.948 428.418C385.665 432.153 383.962 435.53 382.981 439.809C385.975 446.707 393.042 450.645 396.399 457.358C392.484 463.558 373.718 481.713 367.179 483.842C364.183 481.466 361.46 478.673 359.093 475.669Z"/>
	<path fill="hsl(192, 100%, 86%)" transform="scale(0.61875 0.61875)" d="M473.12 346.378C477.103 346.141 497.446 345.627 499.944 346.894C503.173 348.532 504.544 354.693 497.579 356.192C491.319 356.673 469.833 357.753 468.482 351.671C467.76 348.421 470.311 346.827 473.12 346.378Z"/>
	<path fill="hsl(192, 100%, 86%)" transform="scale(0.61875 0.61875)" d="M142.563 346.094C150.446 346.51 175.548 343.066 176.256 351.686C176.605 355.939 173.53 355.917 170.05 355.992C164.419 355.928 142.267 357.394 138.473 354.468C133.816 350.877 138.241 346.375 142.563 346.094Z"/>
	<path fill="hsl(192, 100%, 86%)" transform="scale(0.61875 0.61875)" d="M142.033 315.805C161.864 314.983 184.977 315.121 204.764 316.027C206.181 319.51 206.113 321.389 204.919 324.85C203.393 325.03 201.804 325.044 200.266 325.134C192.21 325.325 143.474 326.649 137.877 324.849C136.23 320.176 136.511 316.363 142.033 315.805Z"/>
	<path fill="hsl(192, 100%, 86%)" transform="scale(0.61875 0.61875)" d="M493.93 315.14C499.029 314.859 500.758 314.957 502.277 320.093C501.918 321.255 501.431 322.307 500.908 323.403C494.727 326.764 481.342 325.263 474.3 325.263L438.291 325.203C436.646 325.209 434.985 325.038 433.343 324.927L432.719 324.465C429.304 321.898 428.111 316.554 433.648 315.772C450.16 313.44 475.584 316.311 493.93 315.14Z"/>
	<path fill="hsl(192, 100%, 86%)" transform="scale(0.61875 0.61875)" d="M143.947 285.441C146.259 285.192 148.791 285.416 151.124 285.432L197.133 285.46C204.514 285.462 212.245 285.049 219.547 286.225C222.742 293.803 219.896 294.632 212.734 294.754C203.1 296.055 141.648 296.318 137.863 293.574C132.272 289.52 139.523 285.979 143.947 285.441Z"/>
	<path fill="hsl(192, 100%, 86%)" transform="scale(0.61875 0.61875)" d="M419.272 285.449C423.206 285.197 427.259 285.444 431.206 285.466L452.803 285.487C466.307 285.488 481.252 284.73 494.572 285.878C501.77 286.498 505.189 293.971 497.134 295.258C486.962 295.507 426.491 296.595 419.449 294.594C413.3 292.847 413.634 287.135 419.272 285.449Z"/>
	<path fill="hsl(192, 100%, 86%)" transform="scale(0.61875 0.61875)" d="M355.493 267.215C341.997 268.408 325.989 267.252 312.215 267.247L178.219 267.251C155.586 267.258 141.147 273.096 140.373 244.231C139.8 222.882 143.808 220.774 163.908 221.071C169.137 221.148 174.373 221.097 179.601 221.097L437.586 221.053L471.135 221.073C493.606 221.047 500.731 219.093 500.294 245.155C499.875 270.124 491.973 267.261 472.452 267.255L382.069 267.257C373.28 267.258 364.247 268.015 355.493 267.215ZM447.646 230.278C423.13 230.709 398.559 230.385 374.038 230.385L186.45 230.375C174.403 230.37 162.339 230.167 150.304 230.775C149.876 239.058 149.53 248.246 151.116 256.399C157.957 258.449 172.72 257.561 180.425 257.555L306.282 257.549C323.692 257.55 341.117 257.397 358.524 257.605C390.143 257.024 421.866 257.549 453.496 257.55L474.851 257.556C477.891 257.557 488.32 258.892 489.686 255.901C491.909 251.035 490.453 236.65 488.636 231.675C481.103 229.289 457.117 230.52 447.646 230.278Z"/>
	<path fill="hsl(192, 100%, 86%)" transform="scale(0.61875 0.61875)" d="M437.586 221.053L471.135 221.073C493.606 221.047 500.731 219.093 500.294 245.155C499.875 270.124 491.973 267.261 472.452 267.255L382.069 267.257C373.28 267.258 364.247 268.015 355.493 267.215C360.077 266.288 364.765 267.287 369.404 267.291C375.832 267.297 427.864 267.648 430.695 265.115C431.799 264.127 433.461 260.737 433.546 259.29C424.518 257.194 409.99 258.27 400.624 258.277L359.064 257.924L358.524 257.605C390.143 257.024 421.866 257.549 453.496 257.55L474.851 257.556C477.891 257.557 488.32 258.892 489.686 255.901C491.909 251.035 490.453 236.65 488.636 231.675C481.103 229.289 457.117 230.52 447.646 230.278C446.896 230 446.15 230.139 445.44 229.804C447.781 227.53 479.335 233.476 484.476 226.363C484.343 225.122 483.803 224.058 483.843 222.792C480.854 219.101 441.212 223.445 437.586 221.053Z"/>
	<path fill="hsl(192, 100%, 86%)" transform="scale(0.61875 0.61875)" d="M281.797 329.097C309.078 326.705 293.846 309.359 300.854 302.446C303.969 299.373 312.243 300.413 316.171 300.402L333.163 300.31C341.803 306.159 330.963 322.344 344.466 326.477C356.366 330.119 360.843 319.706 369.767 314.918C377.424 318.155 393.12 335.213 396.666 341.549C391.505 351.172 378.269 355.316 385.996 368.045C399.517 390.314 417.296 358.284 416.502 396.151C415.355 401.435 416.695 407.446 416.134 412.861C415.796 416.131 413.885 418.516 413.34 421.57C401.402 422.876 395.36 418.778 387.948 428.418C385.913 429.227 385.117 432.238 384.006 434.046C378.588 442.869 390.07 447.161 390.669 455.33C390.957 459.263 386.331 462.713 384.107 465.66C380.271 470.742 374.07 479.941 367.669 481.745C364.294 482.697 362.115 476.574 359.093 475.669C350.903 468.661 349.042 465.39 338.791 472.206C338.694 473.712 338.653 475.244 338.466 476.741C336.129 478.613 337.154 480.429 335.96 482.676C334.706 485.035 332.274 485.947 330.828 488.002C327.964 492.072 330.499 493.902 324.776 496.539L325.026 497.153C295.248 497.181 302.052 500.129 297.369 473.816C283.743 458.66 275.689 485.525 266.146 482.309C259.865 480.192 244.17 463.974 241.085 457.69C244.632 447.818 255.85 446.322 252.655 435.689C246.417 414.923 236.826 425.69 223.667 418.416C222.109 411.445 221.633 384.581 223.148 380.963C225.65 374.984 240.133 378.357 245.353 375.868C249.333 373.97 253.925 363.808 253.384 359.122C252.569 352.062 238.071 345.694 241.512 338.362C243.213 334.738 261.879 317.066 265.257 316.126C267.442 315.518 278.046 326.885 281.797 329.097ZM308.554 311.144C306.932 335.368 310.755 329.719 289.453 337.018C286.157 338.147 282.978 339.739 279.612 340.642C275.056 336.554 270.782 332.138 265.804 328.547C260.938 332.221 256.528 336.738 252.25 341.073C256.201 345.048 263.864 351.408 263.821 357.537C263.775 364.191 258.32 378.666 253.458 383.214C248.618 387.741 238.739 386.323 232.534 387.167C232.7 395.189 232.435 403.251 232.789 411.262C239.916 411.778 250.28 411.505 255.23 417.449C257.162 419.77 266.317 438.684 266.026 440.829C265.469 444.939 256.872 453.56 254.476 458.044C258.64 462.861 263.305 466.961 268.166 471.042C272.958 466.927 278.566 456.827 285.529 457.404C290.917 457.85 304.252 462.049 307.346 466.779C307.714 473.022 307.698 480.206 309.584 486.199C312.844 486.391 316.255 486.232 319.484 486.543L325.986 486.232L327.221 482.319C327.635 478.793 327.875 468.935 329.558 466.202C331.633 462.833 347.405 457.019 351.046 455.989C355.666 458.258 360.083 462.525 363.539 466.294C365.414 467.96 367.161 469.827 368.948 471.591C373.408 466.455 378.06 461.018 383.074 456.425C378.264 450.871 372.706 445.798 373.235 437.821C374.624 416.883 388.326 412.516 405.964 411.404L405.967 387.441C397.131 386.757 388.067 387.006 381.788 379.729C370.372 366.496 370.38 352.84 383.077 341.115C379.041 336.266 374.818 331.614 370.428 327.083C365.494 330.248 360.622 338.543 355.446 340.202C353.288 340.894 331.351 332.171 329.687 329.884C327.159 326.409 326.717 315.358 326.536 311.049L308.554 311.144Z"/>
	<path fill="hsl(192, 100%, 86%)" transform="scale(0.61875 0.61875)" d="M327.221 482.319C330.695 488.32 322.78 487.711 319.484 486.543L325.986 486.232L327.221 482.319Z"/>
	<path fill="hsl(192, 100%, 86%)" transform="scale(0.61875 0.61875)" d="M383.074 456.425C383.238 460.156 370.867 471.626 368.958 472.178C367.783 471.671 362.881 467.723 363.539 466.294C365.414 467.96 367.161 469.827 368.948 471.591C373.408 466.455 378.06 461.018 383.074 456.425Z"/>
	<path fill="hsl(192, 100%, 86%)" transform="scale(0.61875 0.61875)" d="M317.072 348.905C384.631 347.359 380.742 445.59 319.838 446.662C254.428 446.454 252.857 351.283 317.072 348.905ZM315.871 358.569C261.559 362.7 273.906 441.891 320.045 436.75C370.467 432.727 368.087 357.111 315.871 358.569Z"/>
</svg>
