<?xml version="1.0" encoding="utf-8" ?>
<svg xmlns="http://www.w3.org/2000/svg" xmlns:xlink="http://www.w3.org/1999/xlink" width="1024" height="1024">
	<path fill="#20154c" transform="scale(1.6 1.6)" d="M332.433 411.707C305.179 412.431 289.552 437.755 282.041 437.831C279.828 437.853 205.074 393.719 191.733 388.487C165.903 378.357 135.154 381.517 110.24 392.771C102.527 396.256 88.2652 409.019 87.1939 391.633C86.8293 385.716 87.0116 379.725 87.0118 373.797L87.0135 199.105C86.9858 177.901 84.2844 163.556 99.5072 146.397C116.96 126.724 143.857 115.418 169.821 113.881C203.741 110.962 232.902 132.114 266.367 131.536C280.427 131.293 293.597 127.279 307.163 124.045C337.948 116.707 369.202 111.919 400.557 118.48C423.601 123.301 450.809 134.161 464.021 154.592C471.868 166.728 471.259 180.211 471.268 194.13L471.264 249.917C471.258 262.004 471.558 274.783 468.915 286.657C465.73 300.967 454.499 292.737 444.802 290.524C398.923 280.058 350.511 300.222 326.804 341.213C323.487 346.95 317.044 366.7 314.729 368.04C311.551 369.88 306.391 368.779 304.665 365.4C302.736 361.623 304.89 356.268 306.203 352.588C327.297 293.45 397.155 257.725 456.424 278.881C457.164 255.304 457.151 231.847 457.149 208.25C457.146 180.102 462.589 163.699 435.48 146.992C389.082 118.396 337.72 131.551 288.766 143.347C288.385 161.788 288.661 180.284 288.659 198.73L288.661 373.193C288.662 387.274 288.295 401.448 288.907 415.512C301.975 404.265 317.287 396.096 334.858 395.861C335.614 392.603 336.418 389.4 337.399 386.201C338.936 380.237 341.791 374.151 344.645 368.701C371.33 317.737 435.698 297.764 486.62 324.763C536.656 351.292 554.009 415.348 527.527 464.654C545.681 481.803 581.968 496 582.509 522.198C582.797 536.126 572.27 546.545 558.434 546.594C533.287 546.685 511.76 517.261 495.01 500.494C490.471 502.729 486.041 505.177 481.407 507.218C414.145 536.835 335.192 485.744 332.433 411.707ZM170.492 128.568C147.417 130.204 124.988 139.242 109.522 156.966C99.0468 168.969 101.335 180.575 101.334 195.407L101.349 339.918C101.349 353.524 100.993 367.199 101.189 380.794C149.765 361.337 178.619 362.695 222.985 388.233C239.756 397.65 258.446 407.764 274.586 417.643C274.64 413.152 274.372 408.675 274.357 404.185L274.349 178.89C274.351 168.017 274.181 157.132 274.703 146.268C265.236 146.303 255.759 146.746 246.413 144.952C220.112 139.903 198.36 126.274 170.492 128.568ZM431.046 327.656C406.762 329.512 384.443 339.784 368.459 358.418C315.868 419.727 368.537 501.571 441.986 500.979C520.672 500.133 553.749 404.631 499.579 351.641C482.218 334.657 455.384 324.898 431.046 327.656ZM519.507 477.365C515.495 482.691 510.643 487.118 505.938 491.806C518.507 503.797 538.106 529.145 555.381 532.15C562.827 532.751 567.763 531.075 568.174 522.85C568.869 508.949 549.079 498.929 539.642 491.996C532.967 487.091 526.551 481.742 519.507 477.365Z"/>
	<path fill="#20154c" transform="scale(1.6 1.6)" d="M244.039 228.582C236.026 226.163 227.386 219.851 219.938 215.788C199.799 204.8 176.251 194.492 153.134 192.628C147.155 192.146 140.671 193.163 134.915 191.396C127.351 184.725 133.153 178.058 141.209 177.304C166.085 176.082 195.364 186.638 217.176 197.64C221.828 199.986 250.183 214.853 252.2 217.259C256.868 222.823 250.064 229.159 244.039 228.582Z"/>
	<path fill="#20154c" transform="scale(1.6 1.6)" d="M329.244 215.396C325.423 218.116 311.671 229.705 310.45 216.053C309.803 208.819 321.234 202.984 326.251 199.867C348.743 185.892 374.468 178.704 400.864 177.639C406.425 177.486 412.416 177.02 417.937 177.68C427.531 178.825 431.504 193.31 415.627 192.497C384.685 190.913 354.899 197.519 329.244 215.396Z"/>
	<path fill="#20154c" transform="scale(1.6 1.6)" d="M246.983 292.84C238.859 293.222 220.924 281.025 212.985 276.956C192.716 266.566 171.284 253.815 148.342 250.643C145.099 250.194 138.531 250.625 135.958 249.247C128.473 245.236 131.199 236.842 138.255 234.761C168.38 233.12 207.924 259.268 235.659 272.802C240.896 275.357 250.684 277.333 252.903 283.274C254.562 287.714 250.954 291.519 246.983 292.84Z"/>
	<path fill="#20154c" transform="scale(1.6 1.6)" d="M327.799 286.676C322.657 291.133 311.854 296.928 310.75 285.599C310.025 278.159 321.172 273.251 326.053 269.606C349.237 252.29 375.293 236.512 404.897 234.822C410.36 234.291 420.571 233.613 424.495 237.992C427.773 241.65 426.728 247.436 421.918 249.155C417.885 250.596 407.708 249.627 402.974 249.781C378.254 250.582 346.846 270.175 327.799 286.676Z"/>
	<path fill="#20154c" transform="scale(1.6 1.6)" d="M244.988 357.613C232.559 355.288 219.422 347.395 208.6 341.097L186.621 328.524C175.009 321.951 163.5 315.766 150.508 312.434C147.265 311.602 135.337 310.351 133.469 307.628C129.304 301.559 133.331 296.674 139.664 295.392C157.096 294.215 196.572 317.283 211.175 325.955C219.889 331.13 228.887 337.429 238.708 340.327C241.94 341.28 245.435 341.717 248.459 343.252C256.305 347.236 252.006 356.136 244.988 357.613Z"/>
	<path fill="#20154c" transform="scale(1.6 1.6)" d="M438.643 386.158C408.637 386.416 398.566 405.701 391.497 406.733C387.943 407.252 382.925 404.549 382.627 400.64C382.166 394.569 391.47 388.579 395.7 385.627C408.403 376.763 421.665 372.637 437.114 372.012C456.388 371.624 474.546 378.966 488.492 392.262C496.624 400.016 491.169 409.414 482.648 405.813C479.641 404.543 477.107 401.323 474.53 399.294C464.106 391.085 451.939 386.352 438.643 386.158Z"/>
	<path fill="#20154c" transform="scale(1.6 1.6)" d="M443.048 418.859C433.114 417.257 428.285 419.131 421.074 426.038C412.202 434.535 402.821 426.209 409.077 417.469C414.277 410.205 425.356 405.16 433.982 403.852C453.232 401.543 478.285 421.043 466.665 428.188C458.766 433.046 452.975 421.292 443.048 418.859Z"/>
	<path fill="#20154c" transform="scale(1.6 1.6)" d="M440.406 460.944C424.691 461.727 422.218 439.978 438.445 437.266C454.92 436.702 455.988 457.254 440.406 460.944Z"/>
</svg>
