<?xml version="1.0" encoding="utf-8" ?>
<svg xmlns="http://www.w3.org/2000/svg" xmlns:xlink="http://www.w3.org/1999/xlink" width="1024" height="1024">
	<path fill="#B8F1FF" transform="scale(1.6 1.6)" d="M350.189 384.376C252.859 445.065 121.807 386.517 114.336 267.858C109.087 184.488 173.027 113.774 255.992 108.569C259.689 108.231 263.572 108.386 267.283 108.397C378.583 108.736 451.895 227.486 402.894 325.929C398.392 334.972 392.467 343.087 387.153 351.641C399.433 368.358 412.476 387.832 425.21 403.733C472.019 414.929 551.116 505.937 548.589 555.326C547.803 570.675 539.005 580.884 523.047 579.802C501.561 578.344 473.156 550.546 459.567 535.116C442.63 516.245 400.332 455.606 397.083 431.416C395.01 429.026 392.518 426.933 390.208 424.775C376.328 411.799 363.316 398.109 350.189 384.376ZM262.947 121.695C182.075 126.499 122.962 187.33 127.865 269.309C132.322 343.848 197.958 395.877 270.391 395.303C396.131 390.731 449.54 241.09 361.037 159.623C336.587 137.116 296.879 119.516 262.947 121.695ZM378.089 362.119C373.367 367.666 367.246 371.805 361.64 376.388C373.202 389.178 385.384 402.18 398.175 413.751L401.381 416.799C404.209 412.955 407.043 410.666 411.215 408.363C403.373 398.103 395.202 385.535 387.538 374.813C384.565 370.654 381.647 365.775 378.089 362.119ZM422.438 418.524C399.254 422.535 419.143 451.372 424.991 461.473C441.419 489.851 488.445 561.267 524.182 566.241C533.656 566.371 535.093 558.807 534.875 550.636C534.034 519.234 497.679 474.141 475.531 453.406C464.673 443.24 437.522 418.658 422.438 418.524Z"/>
	<path fill="#B8F1FF" transform="scale(1.6 1.6)" d="M272.804 376.745C209.223 383.12 148.858 330.514 145.053 266.651C141.056 199.551 192.816 143.931 259.283 140.136C351.446 136.291 417.301 232.297 374.197 314.986C354.684 352.418 314.217 374.289 272.804 376.745ZM261.112 153.31C201.034 157.213 154.569 206.415 158.674 267.346C159.984 286.793 166.359 300.346 175.482 317.07C184.839 304.597 212.508 304.077 228.818 297.558C234.434 295.314 241.335 285.178 247.765 290.59C255.172 296.824 255.218 306.268 265.23 310.426C277.272 313.071 282.377 303.478 287.81 294.654C295.45 282.243 298.118 291.859 306.883 296.542C323.757 305.557 343.953 302.806 360.965 310.801C363.504 306.663 365.24 301.901 366.878 297.339C384.542 248.136 364.953 195.934 320.411 168.684C303.265 158.194 281.269 151.762 261.112 153.31ZM241.917 306.372C233.255 310.439 225.41 313.498 216.15 315.873C206.824 318.264 188.925 318.465 185.504 327.833L185.392 328.147C209.919 362.43 269.396 370.895 306.952 356.079C325.202 348.922 340.752 337.311 352.814 321.848C334.007 316.926 313.827 316.656 296.746 306.243C286.062 327.449 258.112 331.83 244.483 310.486C243.727 309.303 242.863 307.333 241.917 306.372Z"/>
	<path fill="#B8F1FF" transform="scale(1.6 1.6)" d="M306.254 255.2L300.371 268.723C292.56 286.624 275.163 302.823 255.239 290.784C243.221 283.522 236.824 266.679 228.828 253.94C224.534 247.098 225.729 240.121 224.806 232.523C224.083 226.579 220.084 208.054 226.76 203.913L227.186 204.013L226.76 203.913C227.885 179.301 258.788 172.604 278.713 174.988C294.236 176.846 291.633 180.444 300.731 186.357C304.248 188.643 308.478 189.232 311.135 192.795C321.393 206.55 316.53 218.215 314.252 232.081C315.021 230.582 315.607 228.962 316.248 227.404C316.118 243.074 311.976 242.314 306.254 255.2ZM266.419 188.549C260.221 189.305 252.488 191.022 247.902 195.597C252.32 201.718 258.454 202.2 265.469 201.028C271.816 200.42 279.151 199.168 283.657 194.226C279.078 189.076 273.028 187.646 266.419 188.549ZM289.441 210.69C271.692 214.924 260.229 215.519 242.205 212.892C242.159 220.601 243.212 227.712 243.934 235.329C245.428 251.107 243.624 258.919 256.275 273.352C280.422 299.283 293.503 248.538 298.789 234.138C297.762 230.93 291.488 211.825 289.441 210.69Z"/>
	<path fill="#B8F1FF" transform="scale(1.6 1.6)" d="M269.848 301.969C267.412 303.96 264.106 303.157 261.673 301.383C257.916 298.646 263.742 297.832 265.127 296.853C266.542 298.225 267.883 299.664 268.87 301.38L269.149 301.449C269.213 300.361 268.111 299.404 268.113 298.141L268.433 297.97C269.386 298.648 270.227 300.902 269.848 301.969Z"/>
</svg>
