<?xml version="1.0" encoding="utf-8" ?>
<svg xmlns="http://www.w3.org/2000/svg" xmlns:xlink="http://www.w3.org/1999/xlink" width="396" height="396">
	<path fill="hsl(192, 100%, 86%)" transform="scale(0.61875 0.61875)" d="M223.229 394.509C230.218 394.434 283.258 394.002 285.129 395.546C288.474 398.305 286.844 403.257 281.013 403.977C273.824 404.188 223.625 405.032 220.404 402.923C217.435 400.979 216.739 395.074 223.229 394.509Z"/>
	<path fill="hsl(192, 100%, 86%)" transform="scale(0.61875 0.61875)" d="M526.955 256.032C527.632 256.725 527.364 258.66 527.355 259.584C527.986 258.735 527.233 255.735 527.52 254.524C527.973 252.605 532.091 253.94 533.683 253.048C535.302 251.075 533.352 248.893 534.183 246.828L533.959 246.918L533.484 245.45C534.109 247.06 534.484 249.023 535.77 250.255C537.588 256.132 536.5 329.849 536.356 339.745C536.277 345.204 528.462 344.068 527.473 339.463C526.391 334.424 527.036 325.679 527.037 320.312L527.003 264.35C526.987 261.653 526.707 258.7 526.955 256.032Z"/>
	<path fill="hsl(192, 100%, 86%)" transform="scale(0.61875 0.61875)" d="M305.23 235.293C310.766 235.772 339.914 265.868 344.038 271.861C337.826 280.453 316.289 300.843 307.154 308.214C305.269 309.236 303.412 309.679 301.652 308.083C295.469 302.475 306.835 295.334 310.483 291.914C317.545 285.296 324.755 278.705 331.379 271.648C325.316 265.573 319.32 259.423 313.189 253.417C308.385 248.712 294.2 239.767 305.23 235.293Z"/>
	<path fill="hsl(192, 100%, 86%)" transform="scale(0.61875 0.61875)" d="M206.239 234.434C210.738 234.883 213.164 239.294 210.146 243.154C203.295 251.918 188.373 263.565 179.931 272.22C185.072 277.552 215.891 303.514 209.213 308.085C207.802 309.051 206.236 309.003 204.66 308.601C198.891 305.01 171.779 278.679 167.461 272.676C170.992 267.025 199.737 236.745 206.239 234.434Z"/>
	<path fill="hsl(192, 100%, 86%)" transform="scale(0.61875 0.61875)" d="M246.76 217.784C249.862 217.73 251.155 219.452 252.347 222.123C248.501 236.237 243.319 249.996 238.993 263.973C236.901 270.73 225.08 314.478 222.967 317.484C222.13 318.675 221.228 318.791 219.879 318.981C210.338 316.154 215.718 309.603 217.716 302.804L230.505 260.457C233.369 251.241 239.265 226.478 244.143 219.053C244.982 218.583 245.89 218.197 246.76 217.784Z"/>
	<path fill="hsl(192, 100%, 86%)" transform="scale(0.61875 0.61875)" d="M289.139 220.078C300.905 220.945 293.565 233.97 291.243 240.423C283.456 262.062 277.534 285.449 270.189 307.536C268.233 313.416 266.622 325.686 261.18 329.171C249.754 333.144 258.801 312.429 259.781 309.398L278.887 247.054C280.301 242.279 284.654 222.114 289.139 220.078Z"/>
	<path fill="hsl(192, 100%, 86%)" transform="scale(0.61875 0.61875)" d="M124.139 230.742C125.611 234.286 124.51 258.011 125.088 266.643C125.682 275.525 122.641 291.612 124.766 299.509L124.948 298.595L125.273 298.416L125.369 299.442L126.379 298.599C127.995 298.785 129.137 300.751 130.832 300.289C136.066 295.518 133.269 270.484 133.105 261.412C132.974 254.188 133.914 246.978 133.666 239.687C133.53 235.662 133.071 232.057 133.675 228.032L133.744 367.179L264.408 367.116C268.247 367.116 282.652 365.714 285.257 368.456C286.48 369.744 287.06 374.409 285.674 375.907C280.401 377.27 270.816 376.561 265.139 376.562L156.017 376.536C148.736 376.523 141.317 376.981 134.079 376.837C122.525 376.608 124.469 365.296 124.308 356.879C123.504 314.85 124.84 272.784 124.139 230.742Z"/>
	<path fill="hsl(192, 100%, 86%)" transform="scale(0.61875 0.61875)" d="M97.5248 274.988C96.9497 241.121 97.4836 207.149 97.4685 173.271L97.4566 141.783C97.4538 119.092 99.3054 97.5195 127.911 97.2314L405.993 97.2091C422.817 97.0721 440.398 98.6508 444.456 119.578C445.359 124.234 445.011 129.259 445.001 133.985L444.986 230.986C461.405 231.626 477.98 231.178 494.413 231.178C510.358 231.177 531.163 228.907 535.77 250.255C534.484 249.023 534.109 247.06 533.484 245.45L533.959 246.918L534.183 246.828C533.352 248.893 535.302 251.075 533.683 253.048C532.091 253.94 527.973 252.605 527.52 254.524C527.233 255.735 527.986 258.735 527.355 259.584C527.364 258.66 527.632 256.725 526.955 256.032C526.82 238.1 508.746 241.321 497.369 241.345L418.535 241.331C384.768 241.265 385.999 241.808 385.996 272.801L386.015 320.309C386.009 330.423 391.228 345.26 377.767 340.651C374.583 330.184 376.389 292.362 376.393 280.352C376.403 250.254 372.036 231.301 408.75 230.844C408.265 219.003 408.821 207.13 408.432 195.282C385.686 195.562 362.912 195.339 340.164 195.339L164.736 195.337C154.418 195.334 144.079 195.2 133.765 195.513C133.607 206.348 133.74 217.195 133.675 228.032C133.071 232.057 133.53 235.662 133.666 239.687C133.914 246.978 132.974 254.188 133.105 261.412C133.269 270.484 136.066 295.518 130.832 300.289C129.137 300.751 127.995 298.785 126.379 298.599L125.369 299.442L125.273 298.416L124.948 298.595L124.766 299.509C122.641 291.612 125.682 275.525 125.088 266.643C124.51 258.011 125.611 234.286 124.139 230.742L124.216 207.592C124.221 203.95 123.28 190.322 126.112 187.697C130.602 183.535 154.052 185.313 160.2 185.315L395.905 185.327C401.119 185.325 414.189 182.939 417.172 188.537C419.215 192.37 417.805 223.562 418.397 230.95C424.048 231.227 429.63 231.153 435.281 230.944C434.884 210.025 435.462 189.09 435.1 168.174C429.135 168.712 421.866 167.787 415.681 167.79L132.329 167.925C123.94 168.001 115.577 167.547 107.191 168.088C107.32 199.244 107.711 230.533 107.176 261.683C106.863 262.202 106.875 281.647 106.839 283.598C106.758 287.947 108.001 298.649 100.235 298.317L99.8389 298.298C99.1215 298.796 98.1294 299.607 97.9472 300.48C97.1085 295.343 98.1912 276.888 97.5248 274.988ZM335.233 106.728C317.587 107.062 299.903 106.832 282.254 106.833L148.857 106.813C118.139 106.804 107.959 103.4 107.338 136.925L107.111 158.497L173.328 158.417C184.585 158.418 195.974 158.015 207.206 158.641C217.517 158.104 227.949 158.422 238.275 158.423L434.991 157.917C435.296 149.568 436.023 127.081 434.28 119.954C431.711 109.454 421.815 107.068 412.209 106.841C386.573 106.233 360.871 107.387 335.233 106.728Z"/>
	<path fill="hsl(192, 100%, 86%)" transform="scale(0.61875 0.61875)" d="M167.958 127.235C177.919 126.808 180.326 134.48 172.192 137.252C163.702 137.447 158.163 130.172 167.958 127.235Z"/>
	<path fill="hsl(192, 100%, 86%)" transform="scale(0.61875 0.61875)" d="M136.895 127.299C145.92 126.763 150.947 133.243 141.403 137.094C133.082 138.185 127.269 130.183 136.895 127.299Z"/>
	<path fill="hsl(192, 100%, 86%)" transform="scale(0.61875 0.61875)" d="M199.596 127.275C209.446 126.88 212.071 134.767 202.502 137.14C194.19 137.872 189.177 129.448 199.596 127.275Z"/>
	<path fill="hsl(192, 100%, 86%)" transform="scale(0.61875 0.61875)" d="M399.116 127.35C401.224 127.271 403.237 127.399 405.335 127.614C406.822 128.526 408.388 129.813 408.312 131.74C407.999 139.701 394.734 137.223 389.746 137.251L261.823 137.233C258.064 137.282 247.867 136.306 253.444 129.886C256.702 126.137 267.461 127.67 271.852 127.671L359.278 127.669C372.542 127.668 385.867 127.947 399.116 127.35Z"/>
	<path fill="hsl(192, 100%, 86%)" transform="scale(0.61875 0.61875)" d="M107.176 261.683C107.424 266.632 107.247 271.645 107.238 276.604L107.215 404.378C106.892 439.908 114.705 437.674 147.567 437.664L298.437 438.135C297.819 425.194 298.22 412.076 298.217 399.118C298.21 374.963 293.194 351.273 326.347 350.119C341.135 349.605 356.102 350.074 370.906 350.074L505.609 350.07C514.77 350.062 524.474 349.409 533.549 350.646C559.01 354.116 554.182 384.519 554.169 402.159L554.174 511.591C554.186 536.735 553.21 553.702 522.541 554.001L346.914 554.012C324.341 554.14 298.325 556.823 298.098 525.87C297.907 499.858 298.782 473.785 298.22 447.777C291.672 447.309 285.102 447.444 278.542 447.444L142.213 447.465C104.709 447.485 97.4495 439.62 97.457 403.194L97.4642 285.168C97.4607 281.801 97.2966 278.346 97.5248 274.988C98.1912 276.888 97.1085 295.343 97.9472 300.48C98.1294 299.607 99.1215 298.796 99.8389 298.298L100.235 298.317C108.001 298.649 106.758 287.947 106.839 283.598C106.875 281.647 106.863 262.202 107.176 261.683ZM412.402 359.211C403.58 359.844 394.597 359.535 385.754 359.532L344.844 359.527C305.016 359.426 307.622 359.253 307.675 395.055L307.681 492.742C307.683 505.192 307.231 518.293 308.576 530.694C310.199 545.652 323.601 544.029 334.033 544.017L441.219 543.945L518.672 544.014C545.118 544.098 544.677 536.533 544.683 512.813L544.672 384.481C544.651 352.84 527.17 359.51 502.369 359.516L443.908 359.526C433.535 359.526 422.705 360.162 412.402 359.211Z"/>
	<path fill="hsl(192, 100%, 86%)" transform="scale(0.61875 0.61875)" d="M335.928 430.415C339.335 430.195 364.831 430.374 366.759 430.844C369.417 431.491 370.706 437.832 366.254 439.77C361.747 440.014 338.603 440.141 335.566 439.183C330.655 437.634 331.748 431.946 335.928 430.415Z"/>
	<path fill="hsl(192, 100%, 86%)" transform="scale(0.61875 0.61875)" d="M353.415 465.785C357.359 465.643 365.702 464.359 368.872 466.843C370.641 468.23 371.441 471.5 369.721 473.229C366.777 476.19 354.278 475.14 349.932 475.104C346.105 475.267 336.995 476.882 334.103 473.751C324.737 463.61 349.934 465.406 353.415 465.785Z"/>
	<path fill="hsl(192, 100%, 86%)" transform="scale(0.61875 0.61875)" d="M434.241 429.842C444.274 430.063 516.972 429.111 519.896 430.477C523.369 432.099 522.016 435.895 520.843 438.635C508.861 440.385 482.57 439.89 469.95 439.099C463.115 439.526 456.237 439.37 449.392 439.369L398.054 439.381C393.971 439.417 381.83 441.374 381.631 435.059C381.391 427.441 397.264 429.924 401.719 429.924C412.558 429.925 423.403 430.015 434.241 429.842Z"/>
	<path fill="hsl(192, 100%, 86%)" transform="scale(0.61875 0.61875)" d="M385.001 391.703C390.845 391.195 397.028 391.571 402.904 391.571L483.045 391.56C493.019 391.555 503.073 391.348 513.038 391.861C523.153 392.382 524.979 399.767 515.7 401.156C509.438 401.656 502.929 401.329 496.646 401.324L416.099 401.299C406.935 401.315 397.662 401.638 388.508 401.298C377.678 400.897 376.209 393.696 385.001 391.703Z"/>
	<path fill="hsl(192, 100%, 86%)" transform="scale(0.61875 0.61875)" d="M438.811 465.156C457.283 465.772 475.893 465.326 494.38 465.313C503.455 465.307 517.96 461.849 522.382 470.761C519.395 478.143 506.689 475.335 499.267 475.336L464.531 475.322L408.687 475.299C402.494 475.284 381.993 477.782 381.486 470.854C380.916 463.061 398.504 465.316 402.737 465.315C414.745 465.312 426.812 465.584 438.811 465.156Z"/>
	<path fill="hsl(192, 100%, 86%)" transform="scale(0.61875 0.61875)" d="M339.376 501.693C351.397 501.231 363.541 501.575 375.578 501.576L490.151 501.567C498.232 501.557 506.629 501.064 514.681 501.657C522.753 502.251 527.415 510.861 516.266 511.497L356.829 511.525C350.728 511.526 344.278 511.985 338.212 511.588C330.18 511.063 328.698 502.929 339.376 501.693Z"/>
</svg>
