<?xml version="1.0" encoding="utf-8" ?>
<svg xmlns="http://www.w3.org/2000/svg" xmlns:xlink="http://www.w3.org/1999/xlink" width="1820" height="1024">
	<path fill="#A4D4D6" d="M0 0L1818.44 0C1820.58 3.35778 1819.99 8.22266 1820 12.0828L1820 742.336L1820.01 943.951L1820 997.417C1819.99 1004.76 1820.98 1013.76 1819.75 1020.9C1819.56 1022.02 1819.05 1023.05 1818.44 1024L0 1024L0 0Z"/>
	<path fill="#FEFEFE" d="M917.072 243.734C920.354 243.501 923.787 243.21 926.995 244.123C932.227 245.612 936.942 249.265 939.482 254.094Q939.706 254.514 939.909 254.945Q940.111 255.376 940.291 255.817Q940.471 256.258 940.629 256.708Q940.786 257.157 940.92 257.614Q941.054 258.071 941.165 258.534Q941.276 258.998 941.363 259.466Q941.45 259.934 941.513 260.406Q941.576 260.878 941.614 261.353Q941.653 261.828 941.668 262.304Q941.682 262.78 941.672 263.256Q941.662 263.732 941.628 264.207Q941.594 264.682 941.536 265.155Q941.478 265.628 941.395 266.097Q941.313 266.566 941.207 267.03Q941.101 267.494 940.971 267.953Q940.841 268.411 940.688 268.862C938.414 275.466 933.752 278.719 927.725 281.648C924.068 281.974 920.455 282.307 916.888 281.215C911.894 279.686 907.451 276.013 905.058 271.371Q904.838 270.95 904.639 270.519Q904.441 270.087 904.264 269.646Q904.088 269.205 903.934 268.756Q903.78 268.306 903.649 267.85Q903.518 267.393 903.41 266.931Q903.302 266.468 903.218 266Q903.134 265.533 903.073 265.062Q903.012 264.591 902.976 264.117Q902.939 263.643 902.926 263.169Q902.914 262.694 902.925 262.219Q902.936 261.744 902.972 261.27Q903.007 260.797 903.066 260.325Q903.125 259.854 903.208 259.386Q903.291 258.919 903.398 258.456Q903.504 257.993 903.634 257.536Q903.763 257.079 903.916 256.629C906.208 249.888 910.932 246.715 917.072 243.734Z"/>
	<path fill="#A4D4D6" d="M918.946 251.536C920.478 251.514 922.025 251.509 923.551 251.655C926.3 251.919 929.259 253.808 930.901 256.043C932.7 258.491 933.294 261.043 932.924 264.036C932.354 268.644 929.604 271.283 926.024 273.873Q924.035 273.949 922.05 273.794C918.617 273.533 915.566 272.086 913.42 269.302C911.702 267.073 911.226 264.471 911.577 261.726C912.206 256.797 915.227 254.347 918.946 251.536Z"/>
	<path fill="#FEFEFE" d="M198.85 147.069C202.473 148.641 207.607 157.427 210.839 160.912C214.933 165.327 221.028 168.684 224.609 173.037C226.005 174.734 225.721 175.819 225.318 177.741C221.699 181.152 215.398 182.235 210.754 183.605C208.32 188.579 206.151 193.678 202.29 197.734C196.666 196.749 193.119 186.553 189.176 182.791C185.606 179.385 179.809 178.228 175.725 175.23C176.141 171.437 195.208 151.803 198.85 147.069Z"/>
	<path fill="#FEFEFE" d="M1672.75 274.222C1679.39 273.48 1684.73 273.789 1690.35 277.758Q1690.81 278.088 1691.26 278.441Q1691.71 278.793 1692.13 279.167Q1692.56 279.542 1692.97 279.937Q1693.38 280.332 1693.77 280.747Q1694.16 281.162 1694.53 281.596Q1694.9 282.03 1695.24 282.481Q1695.59 282.933 1695.91 283.401Q1696.23 283.869 1696.53 284.353Q1696.83 284.837 1697.11 285.334Q1697.38 285.832 1697.63 286.344Q1697.88 286.854 1698.11 287.377Q1698.33 287.9 1698.53 288.433Q1698.73 288.967 1698.9 289.509Q1699.07 290.052 1699.21 290.602Q1699.36 291.152 1699.47 291.709Q1699.59 292.266 1699.68 292.828C1700.59 298.78 1699.27 305.043 1695.56 309.859C1691.74 314.824 1686.62 317.359 1680.54 318.245C1676.65 318.726 1673.09 318.437 1669.41 317.021C1664.04 314.963 1660.2 311.354 1657.87 306.075C1655.38 300.435 1655 293.827 1657.35 288.077C1660.39 280.644 1665.61 277.268 1672.75 274.222Z"/>
	<path fill="#A4D4D6" d="M1675.45 282.222C1678.77 281.978 1681.77 282.419 1684.64 284.182Q1685.28 284.578 1685.87 285.036Q1686.47 285.495 1687.01 286.012Q1687.55 286.529 1688.04 287.099Q1688.53 287.668 1688.96 288.285Q1689.39 288.902 1689.75 289.559Q1690.11 290.216 1690.41 290.907Q1690.7 291.598 1690.92 292.315Q1691.14 293.032 1691.29 293.768C1692.04 297.408 1691.35 301.368 1689.19 304.421C1686.5 308.231 1683.22 309.615 1678.74 310.32C1676.4 310.533 1674.6 310.211 1672.47 309.296C1669.15 307.872 1666.58 305.356 1665.29 301.949C1663.86 298.148 1664.13 293.591 1665.84 289.922C1667.86 285.607 1671.21 283.812 1675.45 282.222Z"/>
	<path fill="#FEFEFE" d="M1426.02 444.318C1425.8 444.084 1425.59 443.847 1425.37 443.616C1417.34 435.259 1411.25 436.226 1411.4 421.284C1411.45 415.672 1413.68 410.589 1417.76 406.73Q1418.21 406.31 1418.67 405.911Q1419.14 405.513 1419.62 405.139Q1420.1 404.764 1420.61 404.414Q1421.11 404.063 1421.63 403.738Q1422.15 403.413 1422.68 403.114Q1423.21 402.815 1423.76 402.542Q1424.31 402.27 1424.87 402.025Q1425.43 401.78 1426 401.562Q1426.58 401.345 1427.16 401.157Q1427.74 400.968 1428.33 400.808Q1428.92 400.648 1429.52 400.518Q1430.12 400.388 1430.72 400.287Q1431.33 400.186 1431.93 400.115Q1432.54 400.044 1433.15 400.004Q1433.76 399.963 1434.38 399.952Q1434.99 399.941 1435.6 399.961C1441.82 400.208 1448.27 402.921 1452.42 407.639C1456.2 411.94 1457.54 417.482 1457.08 423.106C1456.57 429.445 1453.89 435.39 1448.95 439.478C1446.3 441.666 1443.47 443.128 1440.27 444.328C1436.14 446.352 1430.38 444.97 1426.02 444.318Z"/>
	<path fill="#A4D4D6" d="M1428.58 408.443C1432.63 407.771 1436.01 407.162 1439.9 408.944Q1440.63 409.273 1441.32 409.674Q1442.01 410.075 1442.66 410.544Q1443.3 411.013 1443.9 411.545Q1444.5 412.077 1445.04 412.667Q1445.57 413.257 1446.05 413.899Q1446.53 414.54 1446.94 415.227Q1447.34 415.914 1447.68 416.638Q1448.02 417.363 1448.28 418.118C1449.51 421.739 1449.29 425.59 1447.48 428.992C1445.29 433.087 1441.5 435.367 1437.16 436.512C1435.94 437.198 1435.17 437.329 1433.75 437.238C1429.53 436.967 1425.62 435.286 1422.85 432.01C1420.18 428.847 1419.45 424.977 1419.92 420.973C1420.62 415.041 1424.13 411.984 1428.58 408.443Z"/>
	<path fill="#FBB467" d="M1633.51 790.114C1639.21 793.184 1705 860.365 1705.46 862.02C1705.53 862.28 1705.58 862.545 1705.65 862.808C1704.09 867.232 1671.96 900.145 1666.64 903.962C1666.62 903.797 1666.63 903.628 1666.6 903.466C1665.91 900.269 1600.9 835.251 1593.33 829.39C1598.05 828.581 1629.13 796.838 1632.8 791.473C1633.23 790.837 1633.25 790.73 1633.51 790.114Z"/>
	<path fill="#FBB467" d="M559.086 136.308C569 136.636 578.099 138.736 586.37 144.46Q587.323 145.127 588.242 145.841Q589.161 146.555 590.043 147.313Q590.925 148.072 591.768 148.874Q592.612 149.675 593.414 150.518Q594.216 151.361 594.975 152.242Q595.735 153.124 596.449 154.042Q597.164 154.961 597.831 155.914Q598.499 156.867 599.119 157.851Q599.738 158.836 600.308 159.851Q600.878 160.866 601.396 161.907Q601.915 162.949 602.381 164.015Q602.847 165.081 603.259 166.17Q603.671 167.258 604.029 168.365Q604.386 169.472 604.688 170.596Q604.99 171.72 605.236 172.857Q605.481 173.995 605.67 175.143C607.677 187.058 605.102 198.858 597.991 208.658C589.413 220.478 577.867 225.365 563.9 227.514C553.348 227.64 542.686 224.418 534.242 218.041Q533.336 217.356 532.464 216.628Q531.592 215.9 530.758 215.129Q529.923 214.359 529.127 213.548Q528.332 212.738 527.577 211.889Q526.822 211.04 526.11 210.155Q525.398 209.27 524.73 208.351Q524.062 207.432 523.441 206.481Q522.819 205.53 522.245 204.55Q521.671 203.57 521.146 202.563Q520.621 201.555 520.146 200.523Q519.671 199.491 519.248 198.437Q518.824 197.383 518.453 196.309Q518.083 195.235 517.765 194.145Q517.447 193.054 517.184 191.949Q516.92 190.844 516.711 189.727Q516.503 188.611 516.349 187.485Q516.203 186.358 516.114 185.226Q516.024 184.093 515.989 182.958Q515.955 181.822 515.977 180.686Q515.998 179.55 516.075 178.417Q516.153 177.283 516.286 176.155Q516.419 175.027 516.607 173.907Q516.795 172.786 517.038 171.676Q517.281 170.567 517.578 169.47Q517.875 168.374 518.225 167.293Q518.576 166.212 518.979 165.15Q519.383 164.088 519.837 163.047Q520.292 162.006 520.798 160.989Q521.303 159.971 521.858 158.98Q522.413 157.989 523.016 157.026Q523.619 156.063 524.268 155.131Q524.918 154.199 525.612 153.3C534.188 142.24 545.657 137.955 559.086 136.308Z"/>
	<path fill="#184B6A" d="M585.904 161.438C586.65 161.682 586.366 161.55 587.071 161.943C588.991 163.013 588.895 163.056 589.503 165.108C583.494 176.059 568.426 192.66 560.148 204.319C553.798 198.093 548.146 190.834 542.322 184.101C540.676 182.292 538.629 180.281 537.318 178.212C536.33 176.655 536.666 175.156 537.142 173.528L538.595 173.526C546.514 177.642 553.497 187.882 559.283 194.696Q572.001 177.593 585.904 161.438Z"/>
	<path fill="#52BAB5" d="M140.743 331.776C155.162 331.246 185.812 329.969 199.067 332.34Q200.955 332.695 202.797 333.241Q204.638 333.787 206.414 334.519Q208.191 335.25 209.883 336.16Q211.575 337.069 213.165 338.147Q213.957 338.697 214.722 339.285Q215.486 339.873 216.221 340.498Q216.955 341.123 217.658 341.784Q218.36 342.445 219.029 343.139Q219.699 343.834 220.333 344.561Q220.967 345.287 221.564 346.045Q222.161 346.802 222.721 347.588Q223.28 348.374 223.8 349.186Q224.319 349.999 224.798 350.836Q225.277 351.673 225.714 352.533Q226.152 353.393 226.546 354.273Q226.94 355.153 227.29 356.052Q227.64 356.951 227.945 357.866Q228.251 358.781 228.51 359.71Q228.77 360.639 228.984 361.579Q229.197 362.52 229.364 363.47Q229.521 364.38 229.632 365.297Q229.743 366.213 229.809 367.134Q229.875 368.055 229.896 368.979Q229.916 369.902 229.891 370.825Q229.866 371.748 229.795 372.668Q229.724 373.589 229.608 374.505Q229.492 375.421 229.331 376.33Q229.169 377.24 228.963 378.14Q228.757 379.04 228.507 379.929Q228.257 380.818 227.963 381.693Q227.669 382.568 227.333 383.428Q226.996 384.288 226.617 385.13Q226.238 385.972 225.819 386.794Q225.399 387.617 224.939 388.417Q224.479 389.218 223.98 389.995Q223.481 390.772 222.944 391.523C216.805 400.109 208.01 404.898 197.723 406.533C183.142 407.063 148.219 408.253 135.214 405.619C130.321 404.627 125.54 402.456 121.48 399.566Q120.766 399.059 120.078 398.517Q119.389 397.974 118.729 397.399Q118.069 396.823 117.438 396.215Q116.808 395.606 116.208 394.968Q115.608 394.329 115.041 393.661Q114.475 392.993 113.942 392.297Q113.409 391.602 112.911 390.881Q112.414 390.159 111.953 389.414Q111.492 388.669 111.069 387.902Q110.645 387.135 110.261 386.348Q109.877 385.56 109.532 384.755Q109.187 383.949 108.883 383.127Q108.579 382.305 108.317 381.47Q108.054 380.634 107.834 379.786Q107.613 378.938 107.435 378.08Q107.257 377.222 107.122 376.356C105.443 365.929 108.138 354.6 114.502 346.152C121.148 337.331 130.054 333.347 140.743 331.776Z"/>
	<path fill="#F4554D" d="M127.409 866.819C124.573 855.569 124.941 844.454 129.515 833.689Q130.031 832.502 130.605 831.342Q131.179 830.183 131.81 829.053Q132.442 827.923 133.129 826.827Q133.816 825.73 134.557 824.669Q135.298 823.608 136.091 822.586Q136.884 821.563 137.727 820.582Q138.57 819.6 139.461 818.661Q140.352 817.723 141.288 816.83Q142.225 815.938 143.205 815.093Q144.185 814.248 145.207 813.453Q146.228 812.659 147.287 811.916Q148.347 811.173 149.442 810.484Q150.537 809.796 151.666 809.162Q152.794 808.529 153.953 807.953Q155.111 807.377 156.297 806.859Q157.483 806.342 158.693 805.884Q159.887 805.425 161.103 805.025Q162.318 804.625 163.552 804.286Q164.786 803.947 166.035 803.669Q167.284 803.391 168.545 803.175Q169.807 802.959 171.077 802.806Q172.348 802.653 173.624 802.563Q174.9 802.473 176.18 802.446Q177.459 802.419 178.738 802.455Q180.017 802.491 181.293 802.59Q182.568 802.69 183.838 802.852Q185.107 803.014 186.367 803.239Q187.626 803.464 188.873 803.75Q190.12 804.037 191.352 804.385Q192.583 804.733 193.796 805.142Q195.009 805.55 196.2 806.018Q197.391 806.486 198.557 807.012C212.793 813.462 221.32 824.704 226.723 838.984C230.351 854.466 230.341 869.117 221.767 883.134C215.389 893.561 206.082 900.333 195.196 905.496Q177.258 906.091 159.319 905.539C156.406 904.022 153.426 902.514 150.655 900.75C138.016 892.703 130.635 881.28 127.409 866.819Z"/>
	<path fill="#FEFEFE" d="M176.069 840.137C177.369 840.296 178.693 840.467 179.96 840.813C183.594 841.804 187.168 844.31 188.851 847.738C190.257 850.6 190.217 853.832 189.24 856.81C187.519 862.052 183.793 864.195 179.122 866.52C177.081 866.209 174.818 865.933 172.896 865.166C169.609 863.854 166.72 860.881 165.363 857.634Q165.124 857.074 164.945 856.492Q164.767 855.909 164.65 855.312Q164.533 854.714 164.48 854.107Q164.427 853.5 164.438 852.891Q164.449 852.283 164.523 851.678Q164.598 851.074 164.736 850.481Q164.874 849.887 165.073 849.312Q165.272 848.736 165.531 848.185C167.646 843.573 171.556 841.75 176.069 840.137Z"/>
	<path fill="#7E283D" d="M226.723 838.984C230.351 854.466 230.341 869.117 221.767 883.134C215.389 893.561 206.082 900.333 195.196 905.496Q177.258 906.091 159.319 905.539C156.406 904.022 153.426 902.514 150.655 900.75C138.016 892.703 130.635 881.28 127.409 866.819C131.586 872.938 135.337 879.469 140.674 884.684C150.114 893.908 164.204 898.985 177.29 898.763Q178.506 898.748 179.72 898.673Q180.933 898.597 182.142 898.461Q183.35 898.325 184.55 898.128Q185.75 897.931 186.939 897.675Q188.128 897.419 189.302 897.103Q190.476 896.787 191.634 896.413Q192.791 896.039 193.928 895.608Q195.065 895.176 196.178 894.688Q197.292 894.2 198.38 893.657Q199.469 893.114 200.528 892.517Q201.588 891.92 202.616 891.271Q203.644 890.622 204.639 889.922Q205.634 889.222 206.592 888.473Q207.55 887.724 208.47 886.929Q209.389 886.133 210.268 885.292Q211.147 884.451 211.982 883.567C224.342 870.622 226.992 856.147 226.723 838.984Z"/>
	<path fill="#096A7F" d="M187.238 429.766C193.9 429.665 202.128 427.756 208.253 430.816C210.101 432.756 210.143 434.768 210.487 437.303C211.729 440.557 212.246 442.516 215.671 444.049C219.107 445.586 222.706 446.851 226.02 448.652L236.287 442.215C241.518 447.708 246.677 453.227 251.658 458.949C249.117 462.535 246.666 466.253 243.938 469.695L249.492 481.969L263.985 485.686L264.259 506.871L248.89 509.894C247.189 513.646 245.589 517.495 243.711 521.159C246.015 524.25 248.551 527.327 250.423 530.697C245.888 536.21 241.034 544.137 233.791 545.931C231.162 545.614 229.551 544.062 227.538 542.486L225.268 541.429C220.676 542.021 216.101 544.66 211.913 546.573L209.103 559.525C201.53 560.036 193.815 559.731 186.224 559.697L183.477 547.091C179.357 545.404 175.452 543.218 171.519 541.14C167.819 543.58 163.845 545.645 159.975 547.802C154.736 542.275 149.565 536.739 144.639 530.929L151.219 521.568L145.927 509.078L132.622 507.038L132.548 485.831C137.05 484.757 141.652 483.972 146.193 483.071C147.804 478.449 149.686 474.075 151.749 469.645L143.999 460.037C148.661 453.715 154.547 448.01 159.886 442.241C163.283 444.307 166.545 446.732 169.839 448.968C174.341 446.427 178.881 444.671 183.722 442.922C185.022 438.587 186.073 434.142 187.238 429.766Z"/>
	<path fill="#52BAB5" d="M189.865 432.815L206.614 432.723C207.412 435.7 207.794 438.708 208.206 441.756C211.221 447.236 219.564 448.102 224.5 452.43C224.688 452.595 224.879 452.756 225.069 452.919C228.526 450.55 232.111 448.266 235.347 445.601C239.403 450.155 244.016 454.718 247.552 459.663L240.149 469.429C242.944 474.483 244.9 479.277 246.685 484.766L260.964 488.255C260.898 493.588 260.705 498.957 260.816 504.288C256.067 504.977 251.324 505.554 246.734 507.011C244.746 511.811 242.734 516.499 240.288 521.091L246.851 529.898C243.017 534.053 238.752 539.719 234.121 542.87L232.501 542.418L225.19 536.797C219.936 539.416 214.477 541.722 209.125 544.137C208.432 548.239 207.395 552.328 206.511 556.396L188.232 556.436C187.691 552.502 186.856 548.609 186.083 544.716C180.847 542.739 175.996 540.036 171.072 537.401L160.895 544.557C157.212 539.522 152.327 534.97 148.021 530.441L154.985 521.265C152.446 516.741 150.536 511.978 148.561 507.192C144.416 505.897 140.092 505.038 135.864 504.043L135.858 488.508L148.631 485.503C150.637 479.737 152.585 474.248 155.607 468.915L147.374 460.337C151.609 455.401 156.062 450.667 160.497 445.91L170.176 452.534C175.276 449.239 180.551 447.115 186.298 445.298C187.332 441.095 188.622 436.96 189.865 432.815Z"/>
	<path fill="#096A7F" d="M180.218 458.851C190.191 454.262 201.048 453.211 211.483 457.073C216.753 459.024 221.971 462.177 225.771 466.352L218.428 464.461C207.921 458.991 199.603 457.23 187.959 459.825C177.817 463.604 169.935 469.571 165.287 479.595Q164.9 480.422 164.554 481.267Q164.208 482.113 163.905 482.974Q163.602 483.836 163.342 484.711Q163.082 485.587 162.867 486.474Q162.651 487.362 162.479 488.259Q162.308 489.156 162.182 490.06Q162.055 490.965 161.974 491.875Q161.893 492.784 161.857 493.697Q161.822 494.61 161.831 495.523Q161.841 496.436 161.896 497.348Q161.952 498.259 162.052 499.167Q162.153 500.075 162.299 500.976Q162.445 501.878 162.635 502.771Q162.826 503.664 163.061 504.547Q163.295 505.43 163.574 506.299Q163.852 507.169 164.174 508.024Q164.51 508.877 164.887 509.713Q165.265 510.548 165.685 511.364Q166.104 512.179 166.564 512.972Q167.023 513.766 167.522 514.535Q168.021 515.305 168.557 516.048Q169.094 516.791 169.667 517.507Q170.241 518.223 170.849 518.908Q171.457 519.594 172.099 520.249Q172.741 520.903 173.415 521.525Q174.089 522.147 174.794 522.734Q175.498 523.321 176.231 523.872Q176.963 524.423 177.723 524.936Q178.482 525.45 179.267 525.925Q180.051 526.399 180.858 526.834Q181.665 527.269 182.493 527.663Q183.32 528.057 184.167 528.409C185.898 529.131 187.688 529.717 189.473 530.288C198.305 531.251 205.555 530.872 213.828 527.468L220.281 527.643C210.258 534.267 200.622 534.963 188.904 533.981C177.606 530.295 168.482 524.196 162.797 513.444Q162.336 512.569 161.919 511.673Q161.502 510.776 161.129 509.86Q160.757 508.944 160.43 508.011Q160.104 507.078 159.824 506.13Q159.544 505.181 159.311 504.22Q159.079 503.259 158.894 502.288Q158.709 501.316 158.573 500.337Q158.436 499.358 158.349 498.373Q158.261 497.388 158.222 496.4Q158.183 495.412 158.193 494.423Q158.203 493.434 158.262 492.447Q158.321 491.46 158.429 490.477Q158.536 489.494 158.693 488.518Q158.849 487.542 159.053 486.574Q159.258 485.607 159.51 484.651Q159.762 483.694 160.061 482.752C163.388 472.013 170.391 464.081 180.218 458.851Z"/>
	<path fill="#FEFEFE" d="M187.959 459.825C199.603 457.23 207.921 458.991 218.428 464.461L225.771 466.352C233.426 474.22 237.773 483.66 237.735 494.752C237.697 505.874 232.919 516.091 224.997 523.788C223.529 525.214 221.945 526.457 220.281 527.643L213.828 527.468C205.555 530.872 198.305 531.251 189.473 530.288C187.688 529.717 185.898 529.131 184.167 528.409Q183.32 528.057 182.493 527.663Q181.665 527.269 180.858 526.834Q180.051 526.399 179.267 525.925Q178.482 525.45 177.723 524.936Q176.963 524.423 176.231 523.872Q175.498 523.321 174.793 522.734Q174.089 522.147 173.415 521.525Q172.741 520.904 172.099 520.249Q171.457 519.594 170.849 518.908Q170.241 518.223 169.667 517.507Q169.094 516.791 168.557 516.048Q168.021 515.305 167.522 514.535Q167.023 513.766 166.564 512.973Q166.104 512.179 165.685 511.364Q165.265 510.548 164.887 509.713Q164.51 508.877 164.174 508.024Q163.852 507.169 163.574 506.299Q163.295 505.43 163.061 504.547Q162.826 503.664 162.635 502.771Q162.445 501.878 162.299 500.976Q162.153 500.075 162.052 499.167Q161.952 498.259 161.896 497.348Q161.841 496.436 161.831 495.523Q161.822 494.61 161.857 493.697Q161.893 492.784 161.974 491.875Q162.055 490.965 162.182 490.06Q162.308 489.156 162.479 488.259Q162.651 487.362 162.867 486.474Q163.082 485.587 163.342 484.711Q163.602 483.836 163.905 482.974Q164.208 482.113 164.554 481.267Q164.9 480.422 165.287 479.595C169.935 469.571 177.817 463.604 187.959 459.825Z"/>
	<path fill="#096A7F" d="M218.428 464.461L225.771 466.352C233.426 474.22 237.773 483.66 237.735 494.752C237.697 505.874 232.919 516.091 224.997 523.788C223.529 525.214 221.945 526.457 220.281 527.643L213.828 527.468C217.569 525.359 221.227 522.408 224.158 519.276C230.79 512.189 234.503 503.065 234.118 493.308C233.633 480.997 227.128 472.416 218.428 464.461Z"/>
	<path fill="#096A7F" d="M196.128 474.757C199.917 474.85 203.148 475.3 206.578 477.019C211.272 479.371 214.803 483.303 216.453 488.305Q216.608 488.786 216.739 489.275Q216.869 489.763 216.975 490.258Q217.081 490.752 217.162 491.251Q217.243 491.75 217.299 492.253Q217.354 492.756 217.385 493.26Q217.415 493.765 217.42 494.271Q217.425 494.776 217.404 495.282Q217.384 495.787 217.338 496.291Q217.292 496.794 217.221 497.295Q217.15 497.795 217.054 498.292Q216.958 498.788 216.837 499.279Q216.716 499.77 216.57 500.254Q216.425 500.739 216.255 501.215Q216.085 501.691 215.892 502.159Q215.699 502.626 215.482 503.083Q215.265 503.54 215.026 503.985C211.786 510.064 207.061 512.828 200.68 514.763C196.354 514.797 192.483 514.419 188.58 512.39C183.846 509.928 180.063 505.62 178.561 500.465Q178.42 499.995 178.303 499.519Q178.186 499.043 178.094 498.561Q178.001 498.079 177.933 497.594Q177.865 497.108 177.822 496.619Q177.779 496.131 177.761 495.641Q177.743 495.15 177.75 494.66Q177.757 494.17 177.789 493.68Q177.821 493.191 177.877 492.704Q177.934 492.216 178.015 491.733Q178.097 491.249 178.203 490.77Q178.309 490.291 178.439 489.819Q178.569 489.346 178.723 488.88Q178.877 488.415 179.055 487.957Q179.232 487.5 179.433 487.053Q179.634 486.605 179.857 486.169Q180.08 485.732 180.325 485.307C183.855 479.168 189.535 476.469 196.128 474.757Z"/>
	<path fill="#52BAB5" d="M197.082 477.335C199.778 477.425 202.221 478.071 204.704 479.109C208.645 480.758 211.74 484.246 213.221 488.222Q213.526 489.054 213.745 489.913Q213.965 490.771 214.096 491.648Q214.228 492.524 214.271 493.41Q214.314 494.295 214.268 495.18Q214.221 496.065 214.086 496.941Q213.951 497.817 213.728 498.674Q213.505 499.532 213.197 500.363Q212.889 501.194 212.499 501.99C209.88 507.387 205.74 509.637 200.272 511.48C196.914 511.253 193.732 510.985 190.677 509.456C186.687 507.458 183.419 504.044 182.028 499.758C180.664 495.557 181.199 491.03 183.298 487.169C186.367 481.526 191.201 479.176 197.082 477.335Z"/>
	<path fill="#52BAB5" d="M744.445 127.266C765.525 126.269 786.954 127.005 808.068 126.998C822.874 126.994 838.71 125.855 853.408 127.38C857.388 127.793 861.093 128.41 864.507 130.589C865.686 133.218 865.898 136.021 866.037 138.867C866.731 153.072 865.704 167.63 865.705 181.876C865.706 194.446 866.814 207.262 866.095 219.798C865.743 225.921 865.214 228.693 860.578 232.836C851.22 233.298 744.602 234.188 742.349 231.899C740.105 229.62 739.786 223.421 739.521 220.283C738.241 205.117 739.172 189.158 739.149 173.885C739.13 160.857 738.11 146.893 739.411 134.002C739.738 130.763 742.111 129.214 744.445 127.266Z"/>
	<path fill="#FEFEFE" d="M798.455 143.261C806.725 142.491 814.536 143.862 821.673 148.251C830.839 153.886 837.694 163.655 840.137 174.11C842.558 184.466 840.321 195.487 834.672 204.433C828.411 214.346 819.519 219.392 808.304 221.857C799.244 222.754 790.595 220.87 782.953 215.82C773.806 209.776 766.925 199.997 764.811 189.193Q764.635 188.261 764.505 187.322Q764.374 186.383 764.289 185.438Q764.204 184.494 764.165 183.546Q764.125 182.599 764.132 181.65Q764.138 180.702 764.19 179.755Q764.243 178.808 764.341 177.865Q764.438 176.922 764.582 175.984Q764.725 175.047 764.913 174.118Q765.102 173.188 765.335 172.269Q765.568 171.35 765.845 170.443Q766.122 169.536 766.443 168.644Q766.764 167.751 767.127 166.875Q767.49 165.999 767.896 165.142Q768.301 164.285 768.747 163.448Q769.193 162.611 769.679 161.797Q770.165 160.983 770.69 160.193C777.415 150.22 786.945 145.487 798.455 143.261Z"/>
	<path fill="#52BAB5" d="M788.036 203.574L789.837 204.209C791.209 206.49 792.647 208.738 793.417 211.305C793.86 212.78 793.939 212.687 793.227 214.015L790.47 213.484C787.772 211.909 783.106 209.906 781.971 206.959C783.648 204.625 785.364 204.509 788.036 203.574Z"/>
	<path fill="#52BAB5" d="M814.761 203.182C818.608 203.562 822.484 204.954 826.2 206.015L819.539 211.417C817.224 212.543 815.259 213.477 812.657 213.786L811.957 212.741C813.065 209.583 813.95 206.428 814.761 203.182Z"/>
	<path fill="#52BAB5" d="M792.983 150.112L793.847 150.414L794.282 152.098C793.32 154.639 792.196 157.817 790.106 159.67C788.157 161.397 785.602 160.352 783.31 159.97L780.862 158.515L781.226 156.832C784.212 153.596 789.036 151.938 792.983 150.112Z"/>
	<path fill="#52BAB5" d="M811.212 149.879C814.869 151.133 818.524 152.729 821.667 155.016C823.585 156.412 824.848 157.461 825.184 159.837L815.014 161.907C813.983 157.846 812.524 153.859 811.212 149.879Z"/>
	<path fill="#52BAB5" d="M794.798 202.617L809.926 202.692C808.847 206.168 807.427 209.539 806.083 212.92L805.253 214.278C804.358 214.722 803.641 215.386 802.646 215.048C799.375 213.937 796.256 205.675 794.798 202.617Z"/>
	<path fill="#52BAB5" d="M801.968 148.797L804.336 149.815C806.124 151.935 808.329 154.731 808.923 157.5C809.353 159.507 809.367 160.182 808.264 161.852L805.358 162.101C803.249 162.148 800.311 162.52 798.318 161.862C796.818 161.368 796.718 160.692 796.078 159.382C796.599 155.651 799.885 151.881 801.968 148.797Z"/>
	<path fill="#52BAB5" d="M827.023 163.697L828.577 163.687C829.862 164.567 830.641 165.544 831.449 166.866C833.875 170.835 835.602 173.445 834.425 178.195C832.095 180.366 830.279 179.789 827.16 179.89C824.223 180.011 820.983 180.505 818.335 178.998C815.943 176.307 816.055 169.66 815.514 166.064C819.433 165.594 823.197 164.644 827.023 163.697Z"/>
	<path fill="#52BAB5" d="M794.195 166.117C799.8 166.331 805.421 166.299 811.03 166.343C811.819 170.722 813.306 175.807 811.325 179.927L791.559 179.861L794.195 166.117Z"/>
	<path fill="#52BAB5" d="M769.681 184.073L787.375 184.008C787.975 188.575 789.241 193.884 788.59 198.452L787.031 199.085C783.55 199.987 780.197 201.484 776.861 202.818C773.072 196.7 771.103 191.051 769.681 184.073Z"/>
	<path fill="#52BAB5" d="M776.444 162.07L789.702 165.184C788.956 169.235 788.997 175.701 786.957 179.135C786.574 179.779 785.208 179.844 784.476 180.013L769.637 179.926C770.875 173.271 773.117 167.902 776.444 162.07Z"/>
	<path fill="#52BAB5" d="M791.785 183.998L812.527 184.005C812.423 188.82 811.642 193.604 810.997 198.371L793.943 198.303C793.071 193.568 792.477 188.764 791.785 183.998Z"/>
	<path fill="#52BAB5" d="M817.13 184.008L835.897 184.051C834.875 189.614 833.279 194.617 830.768 199.69C830.43 200.157 830.268 200.441 829.778 200.814C827.387 202.63 818.283 199.645 815.447 198.975C816.28 194.023 816.665 189.006 817.13 184.008Z"/>
	<path fill="#F9694F" d="M1544.59 780.444C1548.96 782.3 1591.4 825.014 1593.33 829.39C1600.9 835.251 1665.91 900.269 1666.6 903.466C1666.63 903.628 1666.62 903.797 1666.64 903.962L1666.59 905.48C1646.87 907.134 1625.84 905.666 1605.99 905.662L1480.62 905.63C1484.11 898.877 1482.14 851.22 1481.38 840.935L1481.94 840.047C1486.71 837.568 1542.02 785.263 1544.59 780.444Z"/>
	<path fill="#52BAB5" d="M281.877 748.152C252.841 748.526 223.767 748.306 194.725 748.359C178.268 748.389 160.906 749.536 144.543 747.844C138.361 747.205 132.707 746.139 127.28 742.94C117.479 737.163 109.863 726.874 107.193 715.806C104.377 704.127 106.345 690.665 112.802 680.507Q113.322 679.696 113.877 678.909Q114.433 678.121 115.022 677.359Q115.612 676.598 116.235 675.863Q116.857 675.128 117.512 674.421Q118.167 673.714 118.853 673.037Q119.538 672.36 120.253 671.715Q120.968 671.069 121.71 670.455Q122.453 669.842 123.222 669.262Q123.991 668.682 124.785 668.136Q125.579 667.591 126.397 667.081Q127.214 666.572 128.054 666.099Q128.893 665.626 129.752 665.191Q130.612 664.756 131.489 664.359Q132.367 663.962 133.262 663.605Q134.156 663.247 135.066 662.93Q135.975 662.613 136.898 662.336C152.108 657.781 230.478 660.334 252.239 660.368C260.945 660.381 272.354 661.572 280.792 659.647C280.97 659.607 281.146 659.558 281.323 659.514C282.233 670.648 281.795 682.01 281.809 693.181L281.877 748.152Z"/>
	<path fill="#FEFEFE" d="M1654.34 316.014C1657.65 318.069 1662.82 321.119 1664.07 324.95C1662.98 330.522 1644.03 350.1 1638.75 353.89C1638.43 354.123 1637.97 354.372 1637.64 354.562C1641.74 355.106 1644.59 359.36 1646.94 362.439C1657.24 375.953 1660.89 397.079 1658.49 413.66C1657.1 423.208 1652.89 437.807 1645.67 444.43C1645.32 445.692 1644.74 446.477 1643.98 447.504C1633.63 461.482 1615.74 471.148 1598.73 473.591C1580.63 476.189 1557.91 471.265 1543.88 459.346C1538.28 454.592 1533.71 448.048 1527.92 443.795C1527.78 443.687 1527.62 443.585 1527.48 443.481C1527.52 439.983 1518.87 424.793 1517.39 419.088C1512.76 401.29 1516.12 381.023 1525.5 365.273Q1526.41 363.763 1527.39 362.299Q1528.38 360.836 1529.43 359.422Q1530.48 358.008 1531.61 356.648Q1532.73 355.288 1533.91 353.984Q1535.1 352.68 1536.35 351.436Q1537.6 350.192 1538.91 349.011Q1540.22 347.83 1541.58 346.714Q1542.95 345.598 1544.37 344.551Q1545.79 343.503 1547.25 342.527Q1548.72 341.55 1550.23 340.647Q1551.75 339.743 1553.31 338.915Q1554.86 338.087 1556.46 337.336Q1558.05 336.585 1559.68 335.913Q1561.31 335.242 1562.97 334.651Q1564.63 334.06 1566.32 333.551Q1568.01 333.042 1569.72 332.616C1586.23 328.435 1607.39 330.132 1622.15 339.076C1625.17 340.907 1627.94 342.331 1628.81 345.787C1632.89 342.919 1653.11 320.612 1654.25 316.599C1654.31 316.41 1654.31 316.209 1654.34 316.014Z"/>
	<path fill="#184B6A" d="M1527.48 443.481C1527.52 439.983 1518.87 424.793 1517.39 419.088C1512.76 401.29 1516.12 381.023 1525.5 365.273Q1526.41 363.763 1527.39 362.299Q1528.38 360.836 1529.43 359.422Q1530.48 358.008 1531.61 356.648Q1532.73 355.288 1533.91 353.984Q1535.1 352.68 1536.35 351.436Q1537.6 350.192 1538.91 349.011Q1540.22 347.83 1541.58 346.714Q1542.95 345.598 1544.37 344.551Q1545.79 343.503 1547.25 342.527Q1548.72 341.55 1550.23 340.647Q1551.75 339.743 1553.31 338.915Q1554.86 338.087 1556.46 337.336Q1558.05 336.585 1559.68 335.913Q1561.31 335.242 1562.97 334.651Q1564.63 334.06 1566.32 333.551Q1568.01 333.042 1569.72 332.616C1586.23 328.435 1607.39 330.132 1622.15 339.076C1625.17 340.907 1627.94 342.331 1628.81 345.787L1628.13 347.663C1623.46 348.397 1613.63 340.836 1608.64 339.048C1581.46 329.313 1550.11 340.603 1533.5 363.631Q1532.55 364.944 1531.67 366.303Q1530.79 367.661 1529.97 369.062Q1529.16 370.463 1528.42 371.903Q1527.68 373.343 1527.01 374.818Q1526.34 376.292 1525.74 377.799Q1525.14 379.305 1524.62 380.84Q1524.1 382.374 1523.66 383.932Q1523.22 385.49 1522.85 387.069Q1522.49 388.647 1522.2 390.242Q1521.92 391.836 1521.71 393.443Q1521.51 395.05 1521.38 396.665Q1521.26 398.28 1521.21 399.9Q1521.17 401.519 1521.2 403.139Q1521.24 404.758 1521.35 406.374Q1521.47 407.99 1521.67 409.598Q1521.86 411.206 1522.14 412.802Q1522.41 414.447 1522.76 416.077Q1523.11 417.706 1523.54 419.317Q1523.98 420.927 1524.49 422.513Q1525 424.1 1525.59 425.659Q1526.18 427.217 1526.85 428.745Q1527.52 430.272 1528.26 431.765Q1529 433.257 1529.82 434.71Q1530.64 436.163 1531.52 437.573Q1532.41 438.984 1533.37 440.348Q1534.33 441.713 1535.35 443.027Q1536.38 444.342 1537.47 445.604Q1538.55 446.866 1539.71 448.072Q1540.86 449.278 1542.07 450.424Q1543.28 451.571 1544.54 452.656Q1545.81 453.741 1547.12 454.761Q1548.44 455.782 1549.81 456.735Q1551.16 457.687 1552.55 458.572Q1553.94 459.456 1555.37 460.27Q1556.8 461.084 1558.27 461.825Q1559.75 462.567 1561.25 463.234Q1562.76 463.901 1564.3 464.492Q1565.84 465.084 1567.4 465.597Q1568.97 466.111 1570.56 466.546Q1572.15 466.982 1573.76 467.337Q1575.37 467.693 1576.99 467.967Q1578.62 468.242 1580.25 468.436Q1581.89 468.629 1583.53 468.741Q1585.18 468.853 1586.82 468.882Q1588.47 468.912 1590.12 468.859Q1591.77 468.807 1593.41 468.672Q1595.05 468.538 1596.69 468.322Q1598.32 468.105 1599.94 467.808C1616.86 464.65 1632.54 455.026 1642.33 440.765C1652.1 426.55 1656.15 407.792 1652.81 390.908C1650.86 381.082 1646.56 372.871 1641.14 364.606C1639.9 362.714 1637.46 359.954 1636.78 357.917C1636.43 356.883 1637.21 355.459 1637.64 354.562C1641.74 355.106 1644.59 359.36 1646.94 362.439C1657.24 375.953 1660.89 397.079 1658.49 413.66C1657.1 423.208 1652.89 437.807 1645.67 444.43C1645.32 445.692 1644.74 446.477 1643.98 447.504C1633.63 461.482 1615.74 471.148 1598.73 473.591C1580.63 476.189 1557.91 471.265 1543.88 459.346C1538.28 454.592 1533.71 448.048 1527.92 443.795C1527.78 443.687 1527.62 443.585 1527.48 443.481Z"/>
	<path fill="#184B6A" d="M1582.48 343.555Q1583.09 343.495 1583.7 343.461Q1585.16 343.376 1586.63 343.365Q1588.1 343.354 1589.57 343.416Q1591.03 343.478 1592.49 343.614Q1593.95 343.749 1595.41 343.957Q1596.86 344.166 1598.3 344.446Q1599.74 344.727 1601.16 345.079Q1602.59 345.432 1603.99 345.855Q1605.4 346.278 1606.78 346.771Q1608.16 347.263 1609.52 347.825Q1610.87 348.386 1612.2 349.015Q1613.53 349.643 1614.82 350.337Q1616.11 351.031 1617.37 351.789Q1618.63 352.546 1619.84 353.366Q1621.06 354.185 1622.24 355.065Q1623.41 355.944 1624.54 356.881Q1625.67 357.819 1626.75 358.811Q1627.84 359.82 1628.88 360.881Q1629.92 361.943 1630.91 363.053Q1631.89 364.164 1632.83 365.322Q1633.76 366.48 1634.63 367.682Q1635.5 368.884 1636.32 370.128Q1637.13 371.371 1637.88 372.653Q1638.63 373.934 1639.32 375.251Q1640.01 376.569 1640.63 377.918Q1641.26 379.267 1641.81 380.645Q1642.37 382.023 1642.86 383.426Q1643.34 384.83 1643.76 386.256Q1644.18 387.682 1644.53 389.126Q1644.88 390.571 1645.16 392.031Q1645.43 393.491 1645.64 394.962Q1645.84 396.434 1645.98 397.914Q1646.11 399.394 1646.17 400.879Q1646.21 402.347 1646.18 403.815Q1646.15 405.283 1646.05 406.747Q1645.95 408.212 1645.78 409.67Q1645.6 411.128 1645.36 412.576Q1645.11 414.023 1644.79 415.457Q1644.48 416.89 1644.09 418.307Q1643.7 419.723 1643.24 421.118Q1642.79 422.513 1642.26 423.884Q1641.74 425.255 1641.14 426.599Q1640.55 427.942 1639.89 429.254Q1639.23 430.567 1638.51 431.845Q1637.79 433.123 1637 434.364Q1636.22 435.605 1635.37 436.806Q1634.53 438.006 1633.63 439.164Q1632.72 440.321 1631.76 441.432Q1630.8 442.543 1629.79 443.606C1619.38 454.474 1605.46 460.27 1590.5 460.642C1577.38 461.624 1563.32 457.246 1552.77 449.509Q1551.61 448.645 1550.49 447.726Q1549.37 446.806 1548.3 445.832Q1547.23 444.859 1546.2 443.834Q1545.18 442.809 1544.21 441.735Q1543.24 440.661 1542.32 439.541Q1541.4 438.42 1540.54 437.256Q1539.68 436.092 1538.87 434.887Q1538.07 433.682 1537.33 432.439Q1536.58 431.196 1535.9 429.918Q1535.22 428.64 1534.6 427.33Q1533.98 426.021 1533.43 424.682Q1532.88 423.343 1532.39 421.979Q1531.9 420.615 1531.48 419.229Q1531.07 417.842 1530.71 416.437Q1530.36 415.032 1530.08 413.611Q1529.8 412.19 1529.59 410.757Q1529.38 409.334 1529.24 407.901Q1529.1 406.469 1529.04 405.032Q1528.97 403.595 1528.97 402.156Q1528.97 400.718 1529.05 399.281Q1529.12 397.844 1529.27 396.413Q1529.41 394.981 1529.63 393.559Q1529.85 392.136 1530.13 390.726Q1530.42 389.316 1530.77 387.922Q1531.13 386.528 1531.55 385.153Q1531.98 383.778 1532.47 382.426Q1532.96 381.074 1533.52 379.748Q1534.08 378.422 1534.7 377.125Q1535.32 375.828 1536.01 374.563Q1536.69 373.299 1537.44 372.07Q1538.19 370.84 1539 369.65Q1539.8 368.459 1540.67 367.31C1551.22 353.175 1565.4 346.134 1582.48 343.555Z"/>
	<path fill="#FEFEFE" d="M1623.72 441.657C1621.26 446.799 1611.68 450.961 1606.61 452.766Q1605.32 453.218 1604.01 453.607Q1602.7 453.995 1601.38 454.319Q1600.05 454.643 1598.71 454.901Q1597.37 455.159 1596.02 455.351Q1594.66 455.543 1593.3 455.669Q1591.94 455.794 1590.58 455.853Q1589.22 455.911 1587.85 455.903Q1586.48 455.894 1585.12 455.819Q1583.76 455.743 1582.4 455.601Q1581.04 455.458 1579.69 455.249Q1578.34 455.041 1577 454.766Q1575.67 454.491 1574.34 454.15Q1573.02 453.81 1571.72 453.405Q1570.41 453 1569.13 452.532Q1567.85 452.064 1566.59 451.533Q1565.33 451.002 1564.1 450.41Q1562.91 449.82 1561.75 449.171Q1560.58 448.522 1559.46 447.817Q1558.33 447.111 1557.24 446.351Q1556.14 445.591 1555.09 444.777Q1554.04 443.964 1553.03 443.1Q1552.01 442.235 1551.05 441.322Q1550.08 440.408 1549.16 439.448Q1548.24 438.488 1547.36 437.484Q1546.49 436.479 1545.67 435.433Q1544.85 434.386 1544.08 433.3Q1543.31 432.215 1542.59 431.092Q1541.88 429.97 1541.22 428.813Q1540.56 427.657 1539.96 426.469Q1539.36 425.281 1538.82 424.065Q1538.28 422.85 1537.8 421.608Q1537.32 420.367 1536.9 419.104Q1536.48 417.835 1536.12 416.546Q1535.77 415.257 1535.47 413.953Q1535.18 412.648 1534.95 411.331Q1534.73 410.013 1534.56 408.686Q1534.4 407.359 1534.3 406.026Q1534.21 404.692 1534.17 403.355Q1534.14 402.019 1534.18 400.682Q1534.21 399.346 1534.31 398.012Q1534.41 396.679 1534.58 395.352Q1534.74 394.026 1534.97 392.709Q1535.2 391.392 1535.5 390.088Q1535.79 388.784 1536.15 387.496Q1536.51 386.208 1536.94 384.939Q1537.36 383.671 1537.84 382.425Q1538.33 381.178 1538.87 379.957Q1539.42 378.737 1540.02 377.544C1545.57 366.692 1556.98 355.265 1568.97 351.613C1583.49 347.191 1600.63 348.111 1614.12 355.456C1617.89 357.508 1623.06 360.989 1624.31 365.175C1613.63 356.25 1599.3 350.747 1585.24 352.107C1571.98 353.389 1559.73 360.652 1551.5 371.01C1542.93 381.808 1538.62 394.996 1540.28 408.77Q1540.41 409.944 1540.61 411.11Q1540.8 412.277 1541.05 413.432Q1541.3 414.587 1541.61 415.728Q1541.92 416.869 1542.28 417.993Q1542.65 419.117 1543.07 420.221Q1543.49 421.326 1543.97 422.408Q1544.44 423.489 1544.97 424.546Q1545.5 425.603 1546.08 426.631Q1546.66 427.66 1547.3 428.658Q1547.93 429.657 1548.61 430.622Q1549.29 431.587 1550.02 432.517Q1550.75 433.447 1551.53 434.339Q1552.3 435.231 1553.12 436.083Q1553.94 436.935 1554.8 437.745Q1555.66 438.555 1556.56 439.321Q1557.46 440.086 1558.4 440.806Q1559.44 441.602 1560.51 442.347Q1561.59 443.092 1562.7 443.783Q1563.81 444.475 1564.95 445.111Q1566.09 445.748 1567.27 446.329Q1568.44 446.909 1569.64 447.432Q1570.84 447.955 1572.06 448.419Q1573.28 448.883 1574.53 449.287Q1575.77 449.69 1577.03 450.033Q1578.29 450.376 1579.57 450.657Q1580.85 450.939 1582.14 451.157Q1583.43 451.376 1584.73 451.532Q1586.02 451.688 1587.33 451.78Q1588.63 451.872 1589.94 451.901Q1591.25 451.93 1592.56 451.896Q1593.86 451.861 1595.17 451.763Q1596.47 451.664 1597.77 451.503C1607.15 450.337 1615.27 446.426 1623.16 441.425L1623.72 441.657Z"/>
	<path fill="#FBB467" d="M1623.72 441.657L1623.16 441.425C1615.27 446.426 1607.15 450.337 1597.77 451.503Q1596.47 451.664 1595.17 451.763Q1593.86 451.861 1592.56 451.896Q1591.25 451.93 1589.94 451.901Q1588.63 451.872 1587.33 451.78Q1586.02 451.688 1584.73 451.532Q1583.43 451.376 1582.14 451.157Q1580.85 450.939 1579.57 450.658Q1578.29 450.376 1577.03 450.033Q1575.77 449.69 1574.53 449.287Q1573.28 448.883 1572.06 448.419Q1570.84 447.955 1569.64 447.432Q1568.44 446.909 1567.27 446.329Q1566.09 445.748 1564.95 445.112Q1563.81 444.475 1562.7 443.783Q1561.59 443.092 1560.51 442.347Q1559.44 441.602 1558.4 440.806Q1557.46 440.086 1556.56 439.321Q1555.66 438.555 1554.8 437.745Q1553.94 436.935 1553.12 436.083Q1552.3 435.231 1551.53 434.339Q1550.75 433.447 1550.02 432.517Q1549.29 431.587 1548.61 430.622Q1547.93 429.657 1547.3 428.658Q1546.66 427.66 1546.08 426.631Q1545.5 425.603 1544.97 424.546Q1544.44 423.489 1543.97 422.408Q1543.49 421.326 1543.07 420.221Q1542.65 419.117 1542.28 417.993Q1541.92 416.869 1541.61 415.728Q1541.3 414.587 1541.05 413.432Q1540.8 412.277 1540.61 411.11Q1540.41 409.944 1540.28 408.77C1538.62 394.996 1542.93 381.808 1551.5 371.01C1559.73 360.652 1571.98 353.389 1585.24 352.107C1599.3 350.747 1613.63 356.25 1624.31 365.175C1629.94 367.498 1634.26 375.132 1636.54 380.515Q1637.1 381.801 1637.59 383.114Q1638.09 384.427 1638.51 385.764Q1638.94 387.1 1639.3 388.456Q1639.66 389.812 1639.95 391.185Q1640.24 392.557 1640.46 393.943Q1640.68 395.328 1640.83 396.723Q1640.98 398.118 1641.06 399.519Q1641.14 400.919 1641.15 402.322Q1641.15 403.725 1641.09 405.127Q1641.03 406.528 1640.9 407.925Q1640.76 409.321 1640.56 410.709Q1640.36 412.097 1640.08 413.473Q1639.81 414.849 1639.47 416.21Q1639.12 417.57 1638.71 418.911Q1638.3 420.253 1637.82 421.571Q1637.34 422.89 1636.8 424.183C1634.4 430.006 1629.48 438.694 1623.72 441.657Z"/>
	<path fill="#F9694F" d="M1572.81 380.886C1573.85 380.807 1574.75 380.82 1575.76 381.112C1580.86 382.584 1616 403.185 1617.88 406.59C1615.76 410.392 1604.87 414.646 1600.78 416.23C1600.7 416.373 1600.62 416.528 1600.52 416.66C1597.63 420.341 1578.24 429.796 1573.71 430.435L1572.64 429.426C1570.85 418.548 1571.43 392.069 1572.81 380.886Z"/>
	<path fill="#F9694F" d="M343.991 362.7C320.863 357.764 301.797 346.979 288.726 326.676Q288.189 325.827 287.673 324.966Q287.157 324.104 286.662 323.23Q286.167 322.356 285.694 321.47Q285.221 320.584 284.77 319.686Q284.319 318.789 283.89 317.881Q283.462 316.973 283.055 316.054Q282.649 315.135 282.266 314.207Q281.882 313.279 281.521 312.341Q281.161 311.404 280.824 310.458Q280.486 309.512 280.172 308.558Q279.858 307.604 279.568 306.642Q279.278 305.68 279.011 304.712Q278.745 303.744 278.502 302.769Q278.26 301.794 278.041 300.814Q277.823 299.834 277.628 298.848Q277.434 297.863 277.264 296.873Q277.094 295.883 276.949 294.889Q276.803 293.895 276.682 292.898Q276.561 291.901 276.465 290.901Q276.368 289.901 276.297 288.899Q276.225 287.897 276.178 286.894Q276.131 285.891 276.109 284.887Q276.087 283.882 276.089 282.878Q276.092 281.874 276.119 280.869Q276.146 279.865 276.198 278.862Q276.25 277.859 276.327 276.858Q276.403 275.856 276.505 274.857Q276.606 273.858 276.732 272.861Q276.858 271.865 277.008 270.872Q277.159 269.878 277.333 268.889Q277.508 267.9 277.707 266.916Q277.907 265.931 278.13 264.952C282.643 244.476 296.392 225.251 314.065 214.04Q314.916 213.498 315.78 212.976Q316.643 212.455 317.52 211.955Q318.396 211.455 319.284 210.976Q320.172 210.498 321.072 210.041Q321.972 209.585 322.882 209.15Q323.793 208.716 324.714 208.304Q325.635 207.892 326.566 207.502Q327.496 207.113 328.436 206.747Q329.376 206.38 330.325 206.037Q331.274 205.694 332.231 205.374Q333.188 205.054 334.152 204.757Q335.116 204.461 336.088 204.188Q337.059 203.915 338.037 203.666Q339.014 203.418 339.998 203.193Q340.981 202.968 341.97 202.767Q342.959 202.566 343.952 202.39Q344.945 202.213 345.943 202.061Q346.94 201.909 347.941 201.782Q348.942 201.654 349.945 201.551Q350.949 201.448 351.955 201.369Q352.961 201.291 353.968 201.237Q354.975 201.183 355.984 201.154Q356.992 201.125 358.001 201.121Q359.01 201.116 360.019 201.136Q361.027 201.157 362.035 201.202Q363.043 201.247 364.05 201.316Q365.056 201.386 366.06 201.48Q367.065 201.574 368.067 201.693Q369.069 201.812 370.067 201.955Q371.066 202.098 372.061 202.266Q373.056 202.434 374.046 202.626Q375.037 202.818 376.022 203.034Q377.015 203.267 378.002 203.524Q378.989 203.781 379.969 204.062Q380.949 204.343 381.923 204.648Q382.896 204.952 383.862 205.281Q384.827 205.609 385.784 205.961Q386.742 206.312 387.69 206.687Q388.639 207.062 389.578 207.46Q390.517 207.858 391.446 208.278Q392.375 208.699 393.294 209.142Q394.213 209.584 395.12 210.05Q396.028 210.515 396.924 211.002Q397.82 211.489 398.704 211.998Q399.588 212.506 400.459 213.036Q401.331 213.567 402.189 214.118Q403.047 214.669 403.891 215.241Q404.736 215.812 405.566 216.405Q406.397 216.997 407.213 217.609Q408.028 218.221 408.829 218.853Q409.63 219.485 410.415 220.136Q411.2 220.787 411.969 221.457Q412.738 222.127 413.49 222.815Q414.243 223.504 414.978 224.21Q415.714 224.917 416.432 225.641Q417.15 226.365 417.851 227.107Q418.551 227.848 419.233 228.607Q419.915 229.365 420.579 230.14Q421.242 230.914 421.887 231.705Q422.531 232.495 423.156 233.302Q423.782 234.107 424.387 234.928Q424.992 235.749 425.577 236.585Q426.163 237.42 426.727 238.27Q427.292 239.119 427.836 239.982Q428.364 240.82 428.872 241.67Q429.379 242.521 429.866 243.384Q430.352 244.247 430.817 245.122Q431.282 245.996 431.725 246.882Q432.169 247.768 432.59 248.664Q433.011 249.561 433.41 250.467Q433.81 251.374 434.186 252.29Q434.563 253.206 434.917 254.132Q435.271 255.057 435.602 255.99Q435.933 256.924 436.24 257.866Q436.548 258.807 436.833 259.756Q437.117 260.705 437.378 261.66Q437.64 262.616 437.877 263.578Q438.115 264.539 438.328 265.507Q438.542 266.474 438.732 267.446Q438.921 268.418 439.087 269.395Q439.253 270.372 439.394 271.352Q439.536 272.332 439.653 273.316Q439.771 274.3 439.864 275.286Q439.957 276.272 440.026 277.26Q440.095 278.249 440.139 279.238Q440.183 280.228 440.203 281.218Q440.223 282.209 440.219 283.199Q440.214 284.19 440.185 285.18Q440.156 286.17 440.103 287.159Q440.05 288.148 439.972 289.136Q439.895 290.124 439.793 291.109Q439.691 292.094 439.564 293.077Q439.438 294.059 439.288 295.038Q439.137 296.018 438.963 296.993Q438.788 297.968 438.59 298.938Q438.391 299.909 438.169 300.874Q437.953 301.842 437.714 302.804Q437.474 303.767 437.21 304.723Q436.946 305.679 436.659 306.628Q436.371 307.577 436.06 308.518Q435.748 309.46 435.413 310.393Q435.078 311.327 434.72 312.252Q434.362 313.176 433.98 314.092Q433.599 315.007 433.195 315.913Q432.791 316.818 432.364 317.713Q431.937 318.609 431.488 319.493Q431.039 320.377 430.568 321.249Q430.096 322.122 429.603 322.983Q429.111 323.843 428.596 324.691Q428.082 325.539 427.546 326.373Q427.011 327.208 426.455 328.029Q425.898 328.85 425.322 329.657Q424.745 330.463 424.148 331.255Q423.551 332.047 422.935 332.824Q422.318 333.601 421.683 334.362Q421.047 335.123 420.392 335.868Q419.738 336.613 419.065 337.341Q418.392 338.069 417.7 338.78Q417.009 339.491 416.3 340.185Q415.592 340.878 414.866 341.554Q414.14 342.229 413.397 342.886Q412.654 343.543 411.895 344.181Q411.136 344.819 410.361 345.438Q409.587 346.057 408.797 346.656Q408.007 347.256 407.202 347.835Q406.397 348.414 405.578 348.973Q404.759 349.532 403.926 350.07Q403.093 350.608 402.247 351.125C393.037 356.826 383.019 360.345 372.582 363.051C372.529 374.468 372.215 385.954 372.741 397.36L343.996 397.322L343.991 362.7Z"/>
	<path fill="#A4D4D6" d="M352.483 225.14Q353.832 225.03 355.184 224.98Q356.537 224.929 357.89 224.939Q359.243 224.948 360.595 225.017Q361.946 225.086 363.294 225.214Q364.641 225.343 365.981 225.53Q367.321 225.718 368.652 225.965Q369.983 226.212 371.301 226.517Q372.62 226.822 373.924 227.185Q375.227 227.547 376.514 227.968Q377.801 228.388 379.067 228.864Q380.334 229.34 381.579 229.872Q382.823 230.404 384.043 230.99Q385.263 231.576 386.456 232.215Q387.649 232.855 388.812 233.546Q389.976 234.237 391.108 234.979Q392.24 235.721 393.338 236.512Q394.491 237.369 395.6 238.281Q396.709 239.194 397.772 240.16Q398.834 241.127 399.847 242.145Q400.861 243.163 401.822 244.23Q402.784 245.297 403.691 246.41Q404.599 247.524 405.45 248.681Q406.302 249.838 407.095 251.035Q407.887 252.233 408.62 253.469Q409.353 254.704 410.023 255.975Q410.694 257.245 411.3 258.547Q411.907 259.849 412.449 261.18Q412.99 262.51 413.465 263.866Q413.94 265.222 414.347 266.599Q414.754 267.977 415.092 269.373Q415.431 270.769 415.7 272.18Q415.968 273.591 416.167 275.014Q416.377 276.417 416.518 277.829Q416.659 279.241 416.73 280.659Q416.801 282.076 416.803 283.495Q416.804 284.914 416.736 286.331Q416.668 287.749 416.53 289.161Q416.392 290.573 416.185 291.977Q415.978 293.381 415.702 294.773Q415.426 296.165 415.082 297.541Q414.738 298.918 414.326 300.276Q413.915 301.634 413.437 302.97Q412.96 304.307 412.417 305.618Q411.874 306.929 411.268 308.212Q410.661 309.494 409.993 310.746Q409.324 311.997 408.594 313.214Q407.865 314.431 407.076 315.611Q406.288 316.791 405.442 317.93C395.001 331.902 380.579 338.6 363.699 341.022C349.872 342.322 335.191 338.657 323.869 330.575Q322.686 329.731 321.547 328.83Q320.407 327.929 319.314 326.972Q318.221 326.016 317.176 325.006Q316.131 323.997 315.138 322.937Q314.144 321.877 313.204 320.769Q312.265 319.661 311.381 318.507Q310.497 317.354 309.672 316.159Q308.846 314.963 308.081 313.728Q307.315 312.493 306.612 311.222Q305.909 309.951 305.27 308.646Q304.63 307.341 304.056 306.007Q303.482 304.672 302.975 303.31Q302.467 301.949 302.028 300.564Q301.589 299.179 301.219 297.774Q300.849 296.369 300.548 294.947Q300.248 293.526 300.019 292.091Q299.805 290.688 299.661 289.276Q299.516 287.864 299.441 286.447Q299.366 285.03 299.36 283.61Q299.355 282.191 299.419 280.773Q299.483 279.356 299.617 277.943Q299.75 276.53 299.953 275.125Q300.156 273.72 300.428 272.327Q300.699 270.934 301.039 269.556Q301.378 268.178 301.785 266.818Q302.192 265.459 302.665 264.121Q303.138 262.782 303.676 261.469Q304.214 260.156 304.816 258.871Q305.418 257.585 306.082 256.331Q306.746 255.077 307.471 253.857Q308.196 252.637 308.98 251.454Q309.764 250.271 310.605 249.128C320.912 234.923 335.5 227.779 352.483 225.14Z"/>
	<path fill="#52BAB5" d="M373.297 441.95L386.861 441.952C408.812 442.004 440.571 446.7 457.147 429.851C462.723 424.183 466.395 417.007 468.138 409.277C470.775 397.58 469.451 383.802 469.397 371.857L469.142 314.318C469.142 299.468 469.702 284.937 481.061 273.845C486.746 268.294 494.118 264.958 501.898 263.604C519.018 260.623 540.289 262.62 557.828 262.618L655.015 262.223C667.562 262.262 681.375 264.342 690.507 273.724C703.606 287.182 702.115 305.541 701.933 322.779L1244.85 322.529C1244.12 323.036 1243.69 323.317 1242.77 323.355C1222.14 324.202 1201.12 323.409 1180.46 323.409L1057.36 323.46L698.765 323.469L592.108 322.906C578.595 322.873 556.924 320.933 544.421 323.953C532.958 326.722 522.576 337.043 520.541 348.806C518.564 360.232 519.724 373.296 519.727 384.908L519.763 456.882L324.437 456.901L324.313 535.038C322.047 533.995 319.119 534.334 316.659 534.286C302.712 534.014 290.577 534.475 279.848 524.035C270.929 515.355 266.491 502.646 266.301 490.362C266.091 476.842 269.453 462.566 279.175 452.656C294.071 437.473 324.167 441.88 343.984 441.754L343.996 397.322L372.741 397.36C375.055 406.051 373.372 431.937 373.297 441.95Z"/>
	<path fill="#184B6A" d="M343.996 397.322L372.741 397.36C371.885 412.051 372.494 426.945 372.508 441.666L343.984 441.754L343.996 397.322Z"/>
	<path fill="#52BAB5" d="M1527.48 443.481C1527.62 443.585 1527.78 443.687 1527.92 443.795C1533.71 448.048 1538.28 454.592 1543.88 459.346C1557.91 471.265 1580.63 476.189 1598.73 473.591C1615.74 471.148 1633.63 461.482 1643.98 447.504C1644.74 446.477 1645.32 445.692 1645.67 444.43C1645.85 444.501 1646.03 444.579 1646.21 444.645C1650.23 446.087 1655.29 445.83 1659.52 445.822C1683.36 445.773 1704.93 443.047 1717.39 468.758C1722.47 479.256 1722.53 490.039 1718.71 500.933Q1718.37 501.925 1717.98 502.898Q1717.59 503.871 1717.16 504.823Q1716.72 505.776 1716.24 506.704Q1715.75 507.634 1715.22 508.537Q1714.69 509.44 1714.11 510.316Q1713.54 511.191 1712.92 512.036Q1712.3 512.882 1711.64 513.694Q1710.98 514.507 1710.28 515.286Q1709.57 516.064 1708.84 516.806Q1708.1 517.548 1707.32 518.252Q1706.54 518.956 1705.73 519.62Q1704.92 520.283 1704.08 520.905Q1703.24 521.527 1702.36 522.106Q1701.49 522.684 1700.59 523.218Q1699.69 523.752 1698.76 524.239Q1697.83 524.727 1696.88 525.167C1691.82 527.497 1686.41 528.664 1680.89 529.227C1670.16 530.321 1658.77 529.547 1647.97 529.434Q1621.12 529.104 1594.27 529.166C1584.81 529.189 1573.07 528.422 1564.04 531.581C1553.47 535.275 1544.9 544.475 1540.97 554.795C1537.18 564.759 1537.5 576.79 1541.98 586.497C1545.76 594.706 1552.78 600.295 1561.17 603.375C1587.01 612.859 1620.29 595.332 1636.16 627.961C1641.17 638.269 1641.98 650.896 1638.14 661.708C1634.9 670.812 1627.21 679.159 1618.42 683.168C1614.24 685.078 1609.73 686.074 1605.17 686.475C1590.65 687.749 1575.2 686.469 1560.6 686.368L1481.13 686.172C1481.94 687.581 1482.33 688.779 1482.42 690.391C1484.07 720.892 1482.43 754.496 1482.41 785.33C1482.4 798.585 1484.09 828.169 1481.94 840.047L1481.38 840.935Q1481.51 836.104 1481.5 831.272L1481.56 633.833L1481.68 568.162C1481.7 556.24 1482.41 543.812 1481.38 531.94C1481.16 529.399 1480.2 527.744 1478.35 525.992C1476.86 524.571 1475.58 523.802 1473.51 523.546C1458.93 521.749 1440.5 523.209 1425.58 523.181Q1373.2 522.972 1320.83 523.324C1321.09 522.817 1321.17 522.687 1321.41 522.098C1323.39 517.093 1323.32 448.962 1321.24 443.659C1330.99 445.521 1342.56 444.316 1352.53 444.312C1376.98 444.299 1401.59 443.692 1426.02 444.318C1430.38 444.97 1436.14 446.352 1440.27 444.328C1451.38 444.381 1522.8 446.007 1527.48 443.481Z"/>
	<path fill="#FEFEFE" d="M1556.59 633.329L1559.85 633.239C1563.55 635.633 1567.67 639.317 1569.03 643.637C1572.74 641.564 1574.51 638.064 1577.46 635.216C1579.14 633.593 1581.37 632.573 1583.65 632.57C1583.81 634.092 1583.51 634.928 1582.87 636.31C1582.74 636.578 1582.61 636.842 1582.49 637.111C1580.28 641.971 1577.54 644.643 1572.86 647.202C1575.3 648.483 1577.3 650.332 1579.3 652.216C1581.61 654.387 1583.11 656.197 1583.22 659.373L1581.38 660.937C1577 661.298 1572.95 653.403 1569.04 651.034C1568.65 653.054 1566.95 654.622 1565.63 656.128C1563.45 658.61 1561.07 661.197 1557.59 661.444L1556.44 660.365C1555.87 653.451 1562.05 653.235 1564.31 647.818C1564.36 647.69 1564.4 647.559 1564.45 647.429C1563.31 643.663 1559.05 641.853 1556.95 638.676C1555.66 636.722 1556.2 635.474 1556.59 633.329Z"/>
	<path fill="#184B6A" d="M1244.76 280.124L1081.87 280.023L1035.19 280C1028.63 280.038 1021.84 280.792 1015.33 280.483C1013.04 280.375 1010.6 279.786 1008.95 278.103C1006.96 276.07 1006.41 272.794 1006.18 270.063C1005.54 262.597 1006.11 254.776 1006.17 247.268L1006.2 209.747C1006.18 182.164 1004.73 153.773 1006.35 126.27C1006.57 122.463 1006.9 118.386 1008.63 114.939C1017.21 111.971 1157.62 114.034 1178.81 114.047L1399.03 114.032C1432.69 114.046 1466.48 113.403 1500.13 114.039C1505.15 114.133 1510.86 114.521 1515.42 116.783C1515.56 116.852 1515.69 116.925 1515.83 116.995C1519.06 127.355 1516.73 182.788 1516.72 198.109C1516.71 222.276 1517.54 246.562 1516.99 270.712C1516.94 273.142 1516.83 276.205 1515.88 278.456L1513.84 278.136L1513.28 279.215C1494.75 281.939 1468.92 280.058 1449.53 280.036L1320.37 279.87C1321.38 281.728 1321.76 283.298 1321.88 285.41C1322.77 300.736 1323.36 436.96 1321.4 443.187C1321.35 443.346 1321.29 443.502 1321.24 443.659C1323.32 448.962 1323.39 517.093 1321.41 522.098C1321.17 522.687 1321.09 522.817 1320.83 523.324Q1373.2 522.971 1425.58 523.181C1440.5 523.209 1458.93 521.749 1473.51 523.546C1475.58 523.802 1476.86 524.571 1478.35 525.992C1480.2 527.744 1481.16 529.399 1481.38 531.94C1482.41 543.812 1481.7 556.24 1481.68 568.162L1481.56 633.833L1481.5 831.272Q1481.51 836.104 1481.38 840.935C1482.14 851.22 1484.11 898.877 1480.62 905.63L1605.99 905.662C1625.84 905.666 1646.87 907.134 1666.59 905.48C1683.16 906.324 1699.8 905.232 1716.37 905.153C1720.8 905.131 1725.57 904.673 1728.86 907.919L1728.61 909.443C1726.11 911.07 1723.04 911.272 1720.13 911.433C1703.54 912.348 1686.51 911.374 1669.87 911.341L1567.49 911.229L1172.44 909.142L433.817 910.317L227.499 910.571Q165.874 911.371 104.246 910.958C100.523 910.913 95.3995 911.239 92.4687 908.64L92.7845 906.869C100.578 903.55 147.354 905.721 159.319 905.539Q177.258 906.091 195.196 905.496C204.149 906.517 214.212 905.656 223.277 905.649L281.783 905.616Q282.227 826.884 281.877 748.152L281.809 693.181C281.795 682.01 282.233 670.648 281.323 659.514C281.607 658.979 281.704 658.743 282.124 658.237C285.943 653.637 317.375 655.915 324.294 655.997L324.313 535.038L324.437 456.901L519.763 456.882L519.727 384.908C519.724 373.296 518.564 360.232 520.541 348.806C522.576 337.043 532.958 326.722 544.421 323.953C556.924 320.933 578.595 322.873 592.108 322.906L698.765 323.469L1057.36 323.46L1180.46 323.409C1201.12 323.409 1222.14 324.202 1242.77 323.355C1243.69 323.317 1244.12 323.036 1244.85 322.529C1247.32 318.444 1247.3 288.285 1245.96 282.882C1245.71 281.908 1245.26 280.989 1244.76 280.124Z"/>
	<path fill="#F9694F" d="M1250.82 280.441C1270.34 278.133 1294.54 279.823 1314.64 279.821C1315 280.44 1315.33 281.022 1315.59 281.691C1317.49 286.623 1317.22 497.965 1316.32 517.519C1316.24 519.254 1315.85 520.65 1315.1 522.228L1314.68 523.048C1308.79 525.215 1286.54 523.678 1278.94 523.654C1279.36 522.972 1279.69 522.321 1279.97 521.565C1281.5 517.438 1281.14 376.612 1280.27 361.974C1279.94 356.324 1279.45 349.476 1276.88 344.404C1271.42 333.609 1262 327.613 1250.76 324.014C1253.08 318.607 1252.91 286.009 1250.82 280.441Z"/>
	<path fill="#FEFEFE" d="M329.515 461.749C392.954 461.01 456.472 461.63 519.919 461.591L519.901 510.344L371.731 510.455C368.718 514.267 370.341 640.457 370.353 656.315L328.848 656.22C328.832 634.862 327.151 467.439 329.515 461.749Z"/>
	<path fill="#FBB467" d="M374.729 514.797L519.831 514.662L519.86 656.259L374.813 656.373L374.729 514.797Z"/>
	<path fill="#52BAB5" d="M537.312 407.77C537.196 394.126 534.381 358.022 541.158 347.794C542.899 345.166 544.732 343.903 547.808 343.327C557.817 341.454 568.735 342.192 578.902 342.177L624.417 342.147L776.915 341.777L1071.23 341.963C1125.67 341.906 1180.39 340.74 1234.79 342.099C1240.75 342.248 1250.21 342.692 1255.17 346.383C1259.21 349.394 1261.23 354.996 1261.93 359.798C1262.93 366.769 1263.59 402.869 1260.33 407.237L537.312 407.77Z"/>
	<path fill="#FEFEFE" d="M654.027 361.826C655.693 361.727 657.378 361.689 659.034 361.931C662.263 362.402 665.551 364.442 667.314 367.199C668.929 369.723 669.366 372.639 668.738 375.553C667.737 380.196 664.81 382.462 661.104 384.974C659.486 385.116 657.746 385.281 656.132 385C652.843 384.427 649.659 382.877 647.724 380.048C646.029 377.57 645.528 374.543 646.094 371.619C647.05 366.674 650.073 364.342 654.027 361.826Z"/>
	<path fill="#FEFEFE" d="M581.374 361.858C582.962 361.98 584.636 362.094 586.158 362.603C589.201 363.62 591.81 366.057 593.061 369.008C594.357 372.066 594.133 375.568 592.822 378.579C590.997 382.773 587.92 384.395 583.958 386.033C581.809 385.837 579.649 385.668 577.697 384.666C574.779 383.168 572.457 380.468 571.501 377.322Q571.333 376.772 571.22 376.209Q571.106 375.645 571.048 375.074Q570.989 374.502 570.986 373.927Q570.984 373.352 571.036 372.78Q571.089 372.208 571.198 371.643Q571.306 371.079 571.468 370.528Q571.631 369.976 571.846 369.443Q572.061 368.911 572.327 368.401C574.347 364.538 577.405 363.096 581.374 361.858Z"/>
	<path fill="#FBB467" d="M617.614 361.768C619.142 361.709 620.675 361.683 622.19 361.925C625.963 362.528 629.566 364.629 631.601 367.929C633.081 370.329 633.477 373.262 632.862 375.997C631.769 380.856 628.581 383.226 624.649 385.824C622.437 385.918 619.522 386.274 617.394 385.653C614.352 384.766 611.549 382.417 610.014 379.646C608.39 376.712 608.143 373.416 609.213 370.239C610.709 365.798 613.748 363.88 617.614 361.768Z"/>
	<path fill="#FEFEFE" d="M1031.75 360.42C1055.87 358.673 1081.07 360.285 1105.33 360.285C1139.9 360.285 1174.85 359.158 1209.39 360.378C1212.03 360.472 1215.11 360.542 1217.52 361.769C1220.77 363.427 1223.51 367.12 1224.31 370.654C1224.98 373.632 1223.57 377.458 1222.03 380.011C1220.09 383.215 1217.34 384.502 1213.81 385.336C1209.21 386.652 1044.17 386.89 1033.8 385.37C1030.46 384.88 1027.09 383.129 1025.13 380.315C1023.15 377.465 1022.88 373.967 1023.62 370.664C1024.72 365.78 1027.71 363.044 1031.75 360.42Z"/>
	<path fill="#FEFEFE" d="M1279.74 529.331C1287.37 528.121 1295.64 528.735 1303.36 528.716L1345.02 528.649C1386.17 528.61 1427.61 527.529 1468.72 528.605C1471.13 528.668 1472.92 528.494 1474.6 530.288C1478.4 544.471 1476.34 563.487 1476.36 578.232L1476.36 658.798L1476.59 822.161C1476.57 847.763 1477.13 873.545 1476.36 899.129C1476.28 901.601 1476.08 903.53 1474.89 905.774L1450.09 905.78L1251.9 905.707C1261.65 902.797 1270.14 894.343 1274.99 885.617C1277.56 880.978 1280.15 874.807 1280.52 869.459C1281.67 852.675 1280.67 835.25 1280.65 818.388L1280.56 716.605L1280.56 583.736C1280.56 572.477 1282.27 538.074 1279.74 529.331Z"/>
	<path fill="#66B9DB" d="M1407.57 615.106C1414.44 617.109 1419.86 625.306 1423.08 631.28Q1423.7 632.422 1424.26 633.592Q1424.82 634.763 1425.33 635.96Q1425.83 637.157 1426.28 638.377Q1426.72 639.597 1427.11 640.837Q1427.49 642.078 1427.81 643.336Q1428.14 644.594 1428.4 645.866Q1428.66 647.138 1428.86 648.422Q1429.06 649.705 1429.19 650.997Q1429.33 652.289 1429.4 653.586Q1429.47 654.882 1429.48 656.181Q1429.48 657.48 1429.43 658.777Q1429.37 660.075 1429.25 661.368Q1429.13 662.661 1428.95 663.947Q1428.77 665.233 1428.52 666.508Q1428.28 667.784 1427.97 669.045Q1427.66 670.307 1427.29 671.552C1423.12 685.225 1413.02 696.558 1400.36 703.029Q1399.17 703.644 1397.95 704.198Q1396.73 704.753 1395.49 705.246Q1394.24 705.739 1392.98 706.17Q1391.71 706.601 1390.42 706.968Q1389.13 707.335 1387.83 707.637Q1386.53 707.939 1385.21 708.176Q1383.89 708.413 1382.56 708.584Q1381.23 708.755 1379.9 708.86Q1378.56 708.964 1377.23 709.003Q1375.89 709.041 1374.55 709.012Q1373.21 708.983 1371.88 708.888Q1370.54 708.792 1369.21 708.631Q1367.88 708.469 1366.56 708.241Q1365.24 708.013 1363.94 707.72Q1362.63 707.427 1361.34 707.069Q1360.05 706.711 1358.78 706.289C1354.78 704.94 1350.89 703.001 1347.26 700.839C1347.71 700.608 1347.84 700.553 1348.3 700.246C1352.18 697.663 1406.65 619.002 1407.57 615.106Z"/>
	<path fill="#FBB467" d="M1347.26 700.839C1339.95 695.447 1333.85 688.964 1329.79 680.764Q1329.2 679.593 1328.68 678.394Q1328.15 677.195 1327.68 675.971Q1327.22 674.748 1326.81 673.502Q1326.41 672.257 1326.07 670.993Q1325.72 669.729 1325.44 668.449Q1325.17 667.169 1324.95 665.877Q1324.74 664.585 1324.59 663.284Q1324.44 661.983 1324.36 660.676Q1324.27 659.369 1324.25 658.06Q1324.23 656.75 1324.28 655.441Q1324.33 654.133 1324.44 652.828Q1324.55 651.523 1324.73 650.225Q1324.91 648.928 1325.15 647.641Q1325.39 646.353 1325.69 645.08Q1326 643.807 1326.37 642.55Q1326.74 641.294 1327.17 640.057C1331.75 626.792 1340.86 615.425 1353.6 609.281C1367.04 602.799 1382.12 602.433 1396.03 607.554C1399.86 608.961 1405.83 611.333 1407.57 615.106C1406.65 619.002 1352.18 697.663 1348.3 700.246C1347.84 700.553 1347.71 700.608 1347.26 700.839Z"/>
	<path fill="#FBB467" d="M1362.62 749.777L1363.51 749.726Q1364.85 749.65 1366.2 749.642Q1367.54 749.634 1368.88 749.694Q1370.22 749.755 1371.56 749.883Q1372.9 750.012 1374.23 750.208Q1375.56 750.405 1376.88 750.669Q1378.2 750.933 1379.5 751.264Q1380.8 751.595 1382.08 751.991Q1383.37 752.388 1384.63 752.849Q1385.89 753.311 1387.13 753.836Q1388.37 754.361 1389.58 754.948Q1390.79 755.535 1391.96 756.183Q1393.14 756.831 1394.28 757.538Q1395.43 758.246 1396.53 759.01Q1397.64 759.774 1398.7 760.594Q1399.77 761.414 1400.79 762.286Q1401.81 763.159 1402.79 764.083C1413.35 774.111 1419.14 788.406 1419.42 802.889C1419.71 817.306 1414.82 831.32 1404.69 841.723C1394.11 852.585 1380.61 857.73 1365.67 858.042C1354.42 857.683 1343.8 854.643 1334.64 847.96Q1333.53 847.136 1332.46 846.26Q1331.39 845.383 1330.36 844.456Q1329.33 843.529 1328.35 842.553Q1327.37 841.578 1326.44 840.556Q1325.5 839.534 1324.62 838.469Q1323.74 837.403 1322.91 836.297Q1322.08 835.19 1321.3 834.044Q1320.52 832.899 1319.8 831.717Q1319.08 830.535 1318.42 829.32Q1317.76 828.106 1317.15 826.86Q1316.55 825.615 1316.01 824.341Q1315.46 823.068 1314.98 821.771Q1314.5 820.473 1314.09 819.153Q1313.67 817.834 1313.31 816.496Q1312.96 815.158 1312.67 813.804Q1312.38 812.451 1312.16 811.085Q1311.96 809.785 1311.82 808.477Q1311.69 807.168 1311.62 805.855Q1311.55 804.541 1311.55 803.226Q1311.55 801.911 1311.61 800.597Q1311.67 799.283 1311.8 797.974Q1311.93 796.665 1312.12 795.365Q1312.32 794.064 1312.58 792.774Q1312.84 791.485 1313.16 790.21Q1313.48 788.935 1313.87 787.678Q1314.26 786.421 1314.71 785.185Q1315.16 783.949 1315.67 782.737Q1316.18 781.526 1316.75 780.341Q1317.32 779.156 1317.95 778.002Q1318.58 776.847 1319.27 775.726Q1319.96 774.605 1320.7 773.519Q1321.44 772.434 1322.24 771.387C1332.43 757.92 1346.31 751.885 1362.62 749.777Z"/>
	<path fill="#FEFEFE" d="M1356.15 756.888C1369.59 755.361 1381.98 757.378 1393.13 765.574C1403.52 773.205 1410.58 785.493 1412.46 798.202Q1412.62 799.328 1412.73 800.46Q1412.83 801.592 1412.88 802.728Q1412.93 803.864 1412.92 805.001Q1412.92 806.138 1412.86 807.274Q1412.79 808.409 1412.68 809.54Q1412.56 810.671 1412.39 811.795Q1412.21 812.919 1411.98 814.033Q1411.76 815.146 1411.47 816.248Q1411.19 817.349 1410.85 818.435Q1410.52 819.522 1410.13 820.59Q1409.74 821.658 1409.3 822.706Q1408.86 823.754 1408.36 824.779Q1407.87 825.804 1407.33 826.804Q1406.79 827.803 1406.2 828.775Q1405.61 829.747 1404.97 830.688Q1404.33 831.63 1403.65 832.539Q1402.98 833.438 1402.27 834.302Q1401.56 835.166 1400.8 835.993Q1400.05 836.82 1399.25 837.609Q1398.46 838.398 1397.62 839.146Q1396.79 839.894 1395.92 840.599Q1395.05 841.304 1394.15 841.966Q1393.24 842.627 1392.31 843.242Q1391.37 843.857 1390.4 844.425Q1389.44 844.992 1388.45 845.511Q1387.45 846.03 1386.44 846.499Q1385.42 846.967 1384.38 847.385Q1383.34 847.802 1382.28 848.167Q1381.22 848.532 1380.15 848.843Q1379.07 849.155 1377.98 849.412Q1376.89 849.67 1375.79 849.873Q1374.69 850.075 1373.58 850.223C1365.87 852.539 1355.32 850.474 1348.12 847.268Q1346.98 846.751 1345.86 846.178Q1344.75 845.605 1343.67 844.978Q1342.58 844.35 1341.53 843.669Q1340.48 842.987 1339.46 842.255Q1338.45 841.522 1337.47 840.739Q1336.49 839.956 1335.55 839.126Q1334.61 838.295 1333.72 837.419Q1332.82 836.543 1331.97 835.623Q1331.12 834.703 1330.32 833.741Q1329.51 832.78 1328.76 831.78Q1328 830.78 1327.3 829.743Q1326.59 828.706 1325.94 827.636Q1325.29 826.565 1324.69 825.464Q1324.1 824.362 1323.56 823.232Q1323.01 822.102 1322.53 820.946Q1322.05 819.79 1321.62 818.612C1317.41 807.05 1317.48 794.009 1322.87 782.84C1329.76 768.544 1341.85 761.877 1356.15 756.888Z"/>
	<path fill="#7E283D" d="M1372.09 800.968C1374.87 798.448 1377.3 794.416 1380.68 793.192C1382.53 794.049 1383.46 794.574 1384.58 796.302C1383.88 799.113 1380.99 801.61 1378.53 803.073C1378.13 803.31 1377.65 803.499 1377.23 803.68C1374.27 803.188 1374.1 803.175 1372.09 800.968Z"/>
	<path fill="#F4554D" d="M1362.25 820.657C1359.5 814.052 1349.44 809.636 1347.86 802.741L1348.99 801.609C1350.5 801.557 1351.93 801.725 1353.31 802.404C1356.4 803.927 1360.24 808.351 1361.41 811.614C1365.44 809.492 1370.19 805.115 1372.09 800.968C1374.1 803.175 1374.27 803.188 1377.23 803.68L1376.97 805.153C1372.85 810.435 1367.75 816.819 1362.25 820.657Z"/>
	<path fill="#F9694F" d="M1011.88 119.043L1510.19 119.129C1510.48 119.619 1510.53 119.679 1510.79 120.264C1512.03 122.997 1512.47 269.471 1510.79 273.838L1508.27 274.837C1449.81 273.562 1391.07 274.563 1332.59 274.574L1011.86 274.7L1011.88 119.043Z"/>
	<path fill="#FEFEFE" d="M1049.06 146.202C1051.69 145.717 1054.52 144.982 1057.14 145.829Q1057.73 146.024 1058.29 146.278Q1058.86 146.532 1059.4 146.842Q1059.94 147.152 1060.44 147.516Q1060.94 147.879 1061.4 148.292Q1061.87 148.705 1062.29 149.162Q1062.7 149.62 1063.07 150.118Q1063.44 150.616 1063.76 151.149Q1064.08 151.682 1064.34 152.245Q1064.56 152.722 1064.73 153.219Q1064.89 153.717 1065 154.23Q1065.11 154.743 1065.17 155.265Q1065.22 155.787 1065.22 156.312Q1065.21 156.836 1065.15 157.357Q1065.09 157.879 1064.98 158.39Q1064.86 158.902 1064.69 159.397Q1064.52 159.893 1064.29 160.367C1062.71 163.649 1060.1 165.071 1056.82 166.126C1055.97 166.38 1055.3 166.559 1054.41 166.592C1051.72 166.69 1048.19 165.826 1046.32 163.846C1044.34 161.743 1043.97 158.645 1043.99 155.876C1044.02 151.356 1046.04 149.217 1049.06 146.202Z"/>
	<path fill="#FEFEFE" d="M1150.49 146.218C1153.02 145.786 1155.96 145.116 1158.47 145.867C1161.61 146.804 1164.39 149.252 1165.77 152.224C1166.92 154.705 1166.95 157.721 1165.76 160.201C1164.17 163.513 1161.45 165.178 1158.1 166.308C1157.22 166.895 1156.94 166.945 1155.91 167.057C1153.34 167.332 1151.06 166.917 1149.1 165.148C1146.41 162.724 1145.22 158.874 1145.31 155.316C1145.4 151.167 1147.75 148.951 1150.49 146.218Z"/>
	<path fill="#FEFEFE" d="M1119.04 145.329C1121.87 145.01 1124.74 145.203 1127.27 146.614Q1127.77 146.89 1128.24 147.219Q1128.72 147.547 1129.15 147.923Q1129.58 148.299 1129.98 148.72Q1130.37 149.14 1130.71 149.599Q1131.06 150.058 1131.35 150.551Q1131.65 151.044 1131.89 151.566Q1132.13 152.087 1132.31 152.631Q1132.49 153.175 1132.62 153.736Q1132.72 154.231 1132.78 154.734Q1132.84 155.238 1132.84 155.744Q1132.85 156.25 1132.8 156.754Q1132.76 157.258 1132.67 157.756Q1132.57 158.253 1132.43 158.739Q1132.29 159.225 1132.1 159.695Q1131.91 160.165 1131.68 160.614Q1131.45 161.063 1131.17 161.487C1129.05 164.683 1126.31 165.844 1122.75 166.673C1121.34 167.056 1119.96 166.781 1118.55 166.462Q1118.1 166.364 1117.67 166.221Q1117.23 166.077 1116.82 165.888Q1116.4 165.7 1116 165.469Q1115.61 165.238 1115.24 164.967Q1114.87 164.696 1114.53 164.387Q1114.19 164.079 1113.89 163.737Q1113.58 163.395 1113.31 163.024Q1113.05 162.652 1112.82 162.254C1111.21 159.484 1110.89 155.509 1111.84 152.444C1113.04 148.6 1115.74 147.09 1119.04 145.329Z"/>
	<path fill="#FEFEFE" d="M1085.17 145.326C1087.93 145.051 1090.43 145.097 1092.92 146.474Q1093.41 146.747 1093.86 147.067Q1094.32 147.386 1094.75 147.749Q1095.17 148.112 1095.55 148.516Q1095.94 148.919 1096.28 149.358Q1096.63 149.797 1096.93 150.268Q1097.23 150.739 1097.48 151.238Q1097.73 151.736 1097.93 152.256Q1098.13 152.777 1098.28 153.315C1099.14 156.462 1098.68 159.816 1096.84 162.531C1094.74 165.642 1092.23 166.594 1088.75 167.176C1087.68 167.125 1086.66 167.021 1085.62 166.755C1082.79 166.025 1079.87 163.827 1078.46 161.307C1077.03 158.747 1076.84 155.53 1077.71 152.752C1078.96 148.759 1081.74 147.177 1085.17 145.326Z"/>
	<path fill="#FEFEFE" d="M1046.47 211.986C1058.58 210.678 1071.57 211.606 1083.8 211.613L1155.5 211.648L1395.51 211.607C1406.7 211.606 1462.45 210.26 1467.74 212.03C1469.38 212.577 1469.61 213.343 1470.41 214.742C1469.63 216.975 1469.32 216.971 1467.27 218.223C1466.74 218.351 1466.57 218.406 1465.95 218.462C1450.13 219.908 1432.97 218.512 1417.06 218.423L1325.71 218.406L1141.45 218.364C1112.49 218.362 1083.44 218.985 1054.48 218.5C1051.57 218.451 1048.39 218.69 1045.98 216.805C1045.2 214.621 1045.72 214.12 1046.47 211.986Z"/>
	<path fill="#FEFEFE" d="M1045.88 190.653C1078.45 188.844 1112.01 190.467 1144.68 190.441L1342.82 190.32L1429.63 190.38C1440.41 190.377 1456.89 188.422 1466.98 190.895C1468.8 191.34 1469.25 191.509 1470.25 193.101C1469.32 195.408 1468.71 195.541 1466.56 196.889C1466.29 196.958 1466.03 197.05 1465.75 197.094C1457.39 198.43 1446.96 197.301 1438.39 197.274L1376.46 197.156L1137.88 197.14L1078.99 196.975C1070.54 196.994 1061.91 197.831 1053.49 197.352C1050.94 197.207 1048.54 197.031 1046.31 195.664C1045.09 193.493 1045.41 193.15 1045.88 190.653Z"/>
	<path fill="#FEFEFE" d="M286.382 660.56L512.848 660.589C554.552 660.574 596.367 659.932 638.056 660.769L638.157 819.213C638.141 845.25 639.628 872.167 637.999 898.102C637.849 900.497 637.299 902.553 636.303 904.725C626.34 907.006 613.603 905.687 603.268 905.699L543.629 905.744L286.473 905.654L286.382 660.56Z"/>
	<path fill="#E4E3E3" d="M346.325 710.459C360.706 709.851 375.309 710.341 389.714 710.346L469.959 710.349L544.814 710.298C554.759 710.282 564.902 709.545 574.808 709.95C578.652 710.107 582.488 710.751 585.943 712.518C589.598 714.386 592.666 717.518 593.866 721.501C594.834 724.714 594.492 727.906 592.792 730.818C589.899 735.772 586.115 737.934 580.764 739.447C529.337 740.261 477.797 739.568 426.355 739.607Q402.725 739.587 379.097 739.87C367.737 739.996 356.129 740.547 344.814 739.429C341.156 737.191 337.85 734.792 336.023 730.785C334.419 727.266 333.998 723.274 335.49 719.643C337.549 714.631 341.523 712.373 346.325 710.459Z"/>
	<path fill="#E4E3E3" d="M345.559 769.837C359.843 769.159 374.301 769.599 388.607 769.588L469.566 769.68C505.075 769.782 541.043 768.223 576.49 769.536C579.654 769.653 583.476 769.833 586.374 771.233C589.435 772.711 591.564 775.704 592.688 778.844C594.088 782.754 594.192 787.351 592.326 791.133C590.184 795.477 586.513 797.519 582.127 799.09C547.838 800.101 513.265 799.108 478.94 799.057C434.388 798.99 389.799 799.631 345.253 799.028C341.746 796.905 338.615 794.969 336.458 791.382C334.565 788.233 333.78 784.238 334.826 780.671C336.408 775.278 340.799 772.243 345.559 769.837Z"/>
	<path fill="#E4E3E3" d="M346.356 827.751C380.801 826.31 415.769 827.883 450.264 827.935C470.79 827.966 574.686 826.025 584.883 829.452C588.178 830.56 590.957 833.557 592.371 836.662C594.091 840.438 594.412 845.048 592.749 848.903C590.729 853.587 586.92 855.758 582.359 857.484C560.535 858.433 350.294 858.687 344.394 856.502C340.935 855.221 338.069 852.493 336.457 849.19C334.67 845.528 334.023 840.613 335.578 836.748C337.603 831.714 341.728 829.846 346.356 827.751Z"/>
	<path fill="#FEFEFE" d="M537.312 407.77L1260.33 407.237C1262.07 409.294 1262.19 410.994 1262.27 413.586C1263.42 450.453 1262.49 487.692 1262.3 524.576L1262.29 673.947L1262.57 789.096C1262.55 807.067 1263.69 825.974 1262.15 843.852C1261.47 851.84 1260.35 856.764 1254.13 862.066C1249.67 865.868 1245.08 867.103 1239.33 867.531C1218.31 869.095 1196.19 867.704 1175.05 867.719L1044.53 867.782L642.605 867.577L642.535 733.752C642.548 716.811 644.683 672.097 640.779 658.56L639.358 657.981L640.467 657.813C635.631 654.446 550.704 656.432 536.948 656.472L537.312 407.77Z"/>
	<path fill="#52BAB5" d="M915.693 653.1L1004.39 653.011L1004.41 671.954L915.632 672.105L915.693 653.1Z"/>
	<path fill="#E4E3E3" d="M839.781 675.086L862.969 674.86L862.898 686.094L707.008 685.853L682.338 686.023L681.958 675.345L839.781 675.086Z"/>
	<path fill="#E4E3E3" d="M681.85 698.676L862.898 698.738C862.867 702.326 862.737 705.918 862.65 709.506L682.26 710.119L681.85 698.676Z"/>
	<path fill="#E4E3E3" d="M682.517 650.641L862.964 650.624L862.909 662.143C802.785 662.289 742.655 661.5 682.532 662.093L682.517 650.641Z"/>
	<path fill="#F4554D" d="M915.621 758.196L1005.04 758.128L1005.02 781.294L915.589 781.222L915.621 758.196Z"/>
	<path fill="#52BAB5" d="M682.347 795.501L862.936 795.531L862.851 807.148L682.438 807.392L682.347 795.501Z"/>
	<path fill="#52BAB5" d="M682.477 746.5C742.59 746.728 802.808 747.187 862.912 746.35L862.905 758.347C802.844 759.386 742.585 758.358 682.502 758.485L682.477 746.5Z"/>
	<path fill="#52BAB5" d="M682.481 770.526L862.92 770.491L862.877 782.414L682.508 782.358L682.481 770.526Z"/>
	<path fill="#52BAB5" d="M1028.15 653.627C1040.06 651.295 1064.64 653.258 1077.83 653.278L1193.56 653.188C1194 653.89 1194.3 654.395 1194.53 655.199C1195.6 659.049 1195.65 667.348 1193.66 670.774C1193.56 670.879 1193.49 671.009 1193.37 671.089C1191.02 672.684 1044.35 671.862 1027.69 671.875C1027.85 671.617 1028.03 671.367 1028.18 671.102C1030.46 667.091 1029.48 657.87 1028.15 653.627Z"/>
	<path fill="#F4554D" d="M1028.11 758.538C1041.2 756.405 1064.87 758.058 1079.21 758.071L1193.8 758.206C1194.29 759.024 1194.63 759.578 1194.84 760.521C1195.82 764.859 1196.02 776.875 1193.66 780.639C1190.71 782.249 1045.86 781.181 1027.53 781.249C1027.79 780.861 1027.87 780.761 1028.11 780.301C1030.31 775.946 1029.55 763.251 1028.11 758.538Z"/>
	<path fill="#F9694F" d="M915.58 794.443L1193.73 794.245C1194.29 795.091 1194.69 795.925 1194.96 796.915C1196.12 801.225 1196.08 809.973 1193.7 813.781C1190.55 815.103 943.346 813.931 915.574 814.13L915.58 794.443Z"/>
	<path fill="#52BAB5" d="M915.661 685.416L1193.66 685.574C1193.9 685.96 1193.95 686.018 1194.18 686.479C1196.07 690.287 1195.73 699.937 1194.36 704.016L1191.93 705.119L915.673 705.59L915.661 685.416Z"/>
	<path fill="#52BAB5" d="M599.791 525.303L682.356 525.284L682.37 593.388C655.108 591.965 627.232 593.076 599.917 593.162L599.791 525.303Z"/>
	<path fill="#184B6A" d="M1136.91 466.221C1140.44 466.117 1144.13 466.202 1147.6 466.803Q1148.71 466.989 1149.81 467.23Q1150.91 467.472 1152 467.769Q1153.09 468.066 1154.16 468.417Q1155.23 468.769 1156.28 469.174Q1157.33 469.58 1158.36 470.038Q1159.39 470.495 1160.4 471.005Q1161.41 471.514 1162.38 472.074Q1163.36 472.634 1164.31 473.242Q1165.26 473.851 1166.18 474.506Q1167.09 475.162 1167.98 475.863Q1168.86 476.564 1169.71 477.309Q1170.55 478.054 1171.36 478.841Q1172.17 479.628 1172.93 480.454Q1173.7 481.281 1174.42 482.145Q1175.15 483.009 1175.83 483.909Q1176.51 484.809 1177.14 485.742Q1177.78 486.667 1178.37 487.623Q1178.96 488.579 1179.5 489.562Q1180.04 490.546 1180.53 491.556Q1181.03 492.565 1181.47 493.598Q1181.91 494.63 1182.3 495.683Q1182.69 496.737 1183.03 497.808Q1183.37 498.879 1183.65 499.966Q1183.94 501.053 1184.17 502.152Q1184.4 503.252 1184.57 504.361Q1184.75 505.471 1184.87 506.587Q1184.99 507.704 1185.05 508.826Q1185.12 509.947 1185.13 511.07Q1185.13 512.194 1185.09 513.316Q1185.04 514.438 1184.94 515.557Q1184.84 516.676 1184.68 517.788Q1184.52 518.9 1184.31 520.003Q1184.11 521.115 1183.85 522.215Q1183.59 523.316 1183.27 524.402Q1182.96 525.488 1182.59 526.557Q1182.23 527.626 1181.81 528.676Q1181.39 529.726 1180.92 530.753Q1180.45 531.781 1179.92 532.784Q1179.4 533.787 1178.83 534.762Q1178.26 535.738 1177.64 536.684Q1177.02 537.63 1176.36 538.545Q1175.69 539.459 1174.99 540.339Q1174.28 541.22 1173.52 542.063Q1172.77 542.907 1171.98 543.713Q1171.19 544.518 1170.35 545.283Q1169.52 546.049 1168.65 546.771Q1167.78 547.494 1166.88 548.173Q1165.98 548.852 1165.04 549.485Q1164.1 550.11 1163.13 550.688Q1162.16 551.266 1161.16 551.796Q1160.16 552.326 1159.14 552.806Q1158.12 553.286 1157.08 553.716Q1156.03 554.145 1154.97 554.522Q1153.9 554.9 1152.82 555.225Q1151.74 555.55 1150.64 555.821Q1149.55 556.092 1148.44 556.309Q1147.33 556.526 1146.21 556.689Q1145.1 556.851 1143.97 556.959Q1142.85 557.066 1141.72 557.118Q1140.59 557.17 1139.46 557.166Q1138.33 557.163 1137.2 557.104Q1136.08 557.045 1134.95 556.931Q1133.83 556.817 1132.71 556.647Q1131.6 556.478 1130.49 556.254C1113.41 552.678 1102.49 541.797 1096.61 525.837C1095.32 522.329 1095.07 518.434 1092.91 515.314C1092.81 515.168 1092.7 515.029 1092.59 514.886L981.128 514.905C963.651 514.886 900.72 517.245 888.972 512.901L889.006 511.918C890.582 511.119 892.061 510.718 893.815 510.617C915.763 509.357 938.402 510.447 960.406 510.453L1092.49 510.462C1095.53 506.997 1096.64 492.764 1103.66 483.751C1111.87 473.217 1123.89 467.76 1136.91 466.221Z"/>
	<path fill="#FEFEFE" d="M1136.75 470.665C1141.28 470.533 1145.49 470.857 1149.9 471.974C1160.62 474.69 1169.4 481.522 1174.88 491.108Q1175.39 491.997 1175.86 492.91Q1176.33 493.823 1176.75 494.758Q1177.17 495.693 1177.54 496.648Q1177.92 497.603 1178.24 498.575Q1178.57 499.548 1178.84 500.535Q1179.12 501.522 1179.35 502.522Q1179.58 503.522 1179.75 504.532Q1179.93 505.543 1180.06 506.56Q1180.18 507.578 1180.26 508.601Q1180.34 509.623 1180.36 510.649Q1180.39 511.674 1180.36 512.699Q1180.33 513.724 1180.26 514.747Q1180.18 515.77 1180.05 516.787Q1179.92 517.805 1179.74 518.815Q1179.57 519.824 1179.34 520.824Q1179.11 521.824 1178.83 522.811C1175.9 533.193 1168.92 542.485 1159.39 547.655C1146.94 554.412 1134.75 552.885 1121.8 548.978C1119.02 545.925 1114.2 544.057 1111.05 541.103C1103.68 534.196 1102.02 524.88 1097.61 516.327L1097.18 515.518C1102.82 515.045 1115.77 517.054 1119.82 513.079C1115.2 509.039 1103.73 510.578 1097.81 510.668C1100.74 506.671 1101 495.569 1106.1 488.161C1113.34 477.646 1124.57 472.796 1136.75 470.665Z"/>
	<path fill="#F4554D" d="M1137.06 487.55L1140.13 487.92C1141.5 488.697 1152.85 504.895 1154.36 507.71C1156.49 511.655 1157.28 516.047 1155.94 520.387C1153.89 527.009 1147.84 530.709 1142.07 533.753C1141.72 535.103 1140.95 535.689 1139.96 536.582L1138.38 536.067C1135.33 532.288 1130.51 527.242 1128.76 522.736C1127.18 518.667 1130.9 516.25 1132.03 512.635C1133.4 508.235 1129.76 502.811 1131.21 497.879C1132.24 494.367 1135.41 491.859 1136.72 488.485C1136.84 488.175 1136.94 487.861 1137.06 487.55Z"/>
	<path fill="#2C9B5B" d="M691.245 486.97L772.756 486.868L772.652 593.483C745.741 594.857 718.108 593.563 691.119 593.561L691.245 486.97Z"/>
	<path fill="#FC8C2B" d="M782.505 441.481L866.215 441.51L866.351 542.811C866.355 559.641 866.962 576.696 866.055 593.483L782.532 593.431Q781.92 517.454 782.505 441.481Z"/>
</svg>
