<?xml version="1.0" encoding="utf-8" ?>
<svg xmlns="http://www.w3.org/2000/svg" xmlns:xlink="http://www.w3.org/1999/xlink" width="1820" height="1024">
	<path fill="#302A81" d="M0 0L1818.44 0C1820.58 3.35778 1819.99 8.22266 1820 12.0828L1820 742.336L1820.01 943.951L1820 997.417C1819.99 1004.76 1820.98 1013.76 1819.75 1020.9C1819.56 1022.02 1819.05 1023.05 1818.44 1024L0 1024L0 0Z"/>
	<path fill="#FAFAF9" d="M1644.91 338.222C1645.11 338.194 1645.31 338.155 1645.51 338.137C1647.52 337.957 1649.65 337.875 1651.18 339.214C1651.05 339.402 1650.93 339.597 1650.79 339.779C1648.47 342.799 1640.72 343.235 1637.14 343.547C1636.42 343.793 1635.25 343.696 1634.47 343.736L1633.5 341.834L1633.58 342.881L1634.01 341.575C1637.22 339.395 1641.17 338.935 1644.91 338.222Z"/>
	<path fill="#FAFAF9" d="M1615.7 315.998C1616.77 316.048 1617.72 316.294 1618.75 316.533L1619.22 318.216C1617.61 323.242 1613.84 330.458 1609.67 333.781L1607.91 333.885C1606.47 329.623 1613.78 320.877 1615.52 316.486C1615.58 316.324 1615.64 316.161 1615.7 315.998Z"/>
	<path fill="#23A7A7" d="M1550.54 130.67C1551.61 131.54 1552.76 132.305 1553.41 133.553C1555.49 135.212 1555.65 135.203 1556.14 137.794C1552.22 143.21 1544.27 147.899 1538.91 152.082L1538.59 152.082C1537.41 149.06 1535.97 146.147 1534.58 143.215C1539.82 139.341 1546.14 135.451 1550.54 130.67Z"/>
	<path fill="#FAFAF9" d="M413.317 472.032Q412.927 444.257 413.106 416.479C413.11 407.45 412.392 397.838 413.062 388.859C413.232 386.584 413.64 383.946 415.255 382.242C417.412 391.132 416.088 403.435 416.103 412.66L416.145 472.348L413.317 472.032Z"/>
	<path fill="#FAFAF9" d="M507.473 595.066C520.929 595 591.161 592.949 598.297 595.688C596.783 597.544 592.734 598.141 590.421 598.404C584.767 599.046 578.655 598.349 572.944 598.276C559.407 598.102 545.417 597.628 531.918 598.39C516.287 597.659 420.126 600.527 413.691 597.046L414.578 595.92C424.95 592.715 492.413 594.984 507.473 595.066Z"/>
	<path fill="#FAFAF9" d="M608.514 640.267C592.229 638.807 574.562 640.125 558.158 640.149L453.468 640.336C444.895 640.348 421.16 642.118 413.842 639.33L413.853 638.345C416.217 636.963 418.948 636.904 421.617 636.812C448.214 635.895 475.342 636.918 501.988 636.943L685.679 636.86L684.753 639.399C676.247 642.23 621.802 639.983 608.514 640.267Z"/>
	<path fill="#F15C63" d="M256.006 412.525C260.134 412.066 263.989 411.806 267.968 413.245C272.935 415.042 277.108 418.637 279.315 423.466Q279.703 424.31 280.005 425.189Q280.308 426.068 280.521 426.973Q280.735 427.877 280.858 428.799Q280.98 429.72 281.011 430.649Q281.041 431.578 280.98 432.505Q280.918 433.433 280.764 434.349Q280.611 435.266 280.367 436.163Q280.123 437.06 279.791 437.928C277.31 444.443 272.764 447.379 266.653 450.129C262.652 450.625 259.075 450.841 255.198 449.516Q254.292 449.204 253.422 448.805Q252.551 448.407 251.723 447.925Q250.895 447.443 250.118 446.883Q249.341 446.322 248.622 445.689Q247.904 445.055 247.25 444.355Q246.597 443.654 246.015 442.894Q245.433 442.133 244.928 441.319Q244.423 440.504 244 439.645Q243.788 439.216 243.597 438.778Q243.406 438.339 243.238 437.891Q243.069 437.443 242.923 436.988Q242.777 436.532 242.654 436.07Q242.531 435.608 242.431 435.14Q242.331 434.672 242.255 434.2Q242.179 433.727 242.126 433.252Q242.074 432.776 242.045 432.299Q242.016 431.821 242.011 431.343Q242.006 430.865 242.025 430.387Q242.044 429.909 242.087 429.432Q242.13 428.956 242.197 428.482Q242.263 428.008 242.353 427.538Q242.443 427.068 242.557 426.604Q242.67 426.139 242.807 425.681Q242.944 425.222 243.103 424.771C245.423 418.288 250.002 415.286 256.006 412.525Z"/>
	<path fill="#F7AF4D" d="M1548.31 106.219C1554.43 104.106 1564.71 100.301 1569.36 96.0378C1569.85 96.6858 1570.31 97.3801 1570.6 98.1437C1572.34 102.714 1573.82 116.524 1571.88 120.936C1578.12 127.054 1590.37 125.851 1597.05 131.15C1595.99 134.84 1585.56 146.068 1581.94 148.068C1581.75 148.172 1581.56 148.267 1581.36 148.366C1574.03 144.726 1566.35 141.743 1558.79 138.621L1556.14 137.794C1555.65 135.203 1555.49 135.212 1553.41 133.553C1552.76 132.305 1551.61 131.54 1550.54 130.67C1550.79 130.136 1551.05 129.559 1551.18 128.979C1552.16 124.619 1550.63 109.875 1548.31 106.219Z"/>
	<path fill="#F7AF4D" d="M1568.16 124.447L1570.46 125.525C1570.05 129.418 1562.79 135.438 1559.72 137.968C1559.31 138.301 1559.18 138.372 1558.79 138.621L1556.14 137.794C1555.65 135.203 1555.49 135.212 1553.41 133.553C1558.35 131.592 1564.17 127.969 1568.16 124.447Z"/>
	<path fill="#D65B38" d="M1539.8 355.336C1539.84 355.198 1539.9 355.062 1539.93 354.922C1541.79 348.197 1533.47 337.205 1544.14 330.374C1547.2 328.416 1550.99 327.901 1554.22 326.34C1563.59 321.817 1560.36 318.25 1573.64 321.476C1581.96 323.497 1591.91 327.994 1596.46 335.667C1598.43 338.984 1599.11 342.8 1598.08 346.56C1597.08 350.23 1595.04 353.096 1592.24 355.615C1591.67 352.657 1591.78 351.121 1589.65 348.924C1586.92 348.347 1584.23 348.513 1581.47 348.845C1577.5 349.323 1574.63 348.624 1570.78 347.645C1569.43 345.889 1569.09 345.453 1567.08 344.597C1559.81 346.67 1555.4 348.02 1547.77 347.241C1546.67 347.128 1546.87 346.819 1546.22 347.936C1544.66 350.631 1546.02 353.448 1543.9 355.924C1542.52 355.779 1541.16 355.642 1539.8 355.336Z"/>
	<path fill="#23A7A7" d="M556.857 325.523C562.392 325.631 567.382 326.344 572.082 329.49Q572.594 329.833 573.087 330.201Q573.581 330.569 574.056 330.961Q574.531 331.353 574.985 331.769Q575.44 332.184 575.873 332.622Q576.306 333.06 576.717 333.519Q577.128 333.978 577.515 334.457Q577.902 334.935 578.265 335.433Q578.628 335.931 578.966 336.446Q579.303 336.961 579.615 337.492Q579.926 338.024 580.21 338.57Q580.495 339.116 580.751 339.676Q581.008 340.236 581.236 340.808Q581.465 341.38 581.664 341.963Q581.864 342.546 582.034 343.138Q582.204 343.729 582.344 344.329Q582.485 344.929 582.595 345.535C583.781 351.804 582.576 358.464 578.959 363.754C574.928 369.651 569.211 372.62 562.351 373.944C557.091 373.742 552.386 373.283 547.781 370.512C542.081 367.082 537.992 361.714 536.436 355.226Q536.293 354.64 536.18 354.048Q536.066 353.455 535.983 352.858Q535.899 352.261 535.845 351.66Q535.791 351.059 535.768 350.456Q535.744 349.854 535.75 349.251Q535.756 348.647 535.793 348.045Q535.829 347.443 535.896 346.844Q535.962 346.244 536.058 345.649Q536.154 345.053 536.28 344.464Q536.406 343.874 536.561 343.291Q536.716 342.708 536.9 342.133Q537.084 341.559 537.296 340.994Q537.508 340.43 537.748 339.877Q537.989 339.323 538.256 338.783Q538.524 338.242 538.818 337.716Q539.112 337.189 539.432 336.678C543.556 330.209 549.55 327.122 556.857 325.523Z"/>
	<path fill="#171465" d="M552.53 471.55C600.386 447.168 630.189 443.875 681.649 459.429L681.623 472.167C668.933 470.271 654.088 471.673 641.188 471.685Q596.859 471.951 552.53 471.55Z"/>
	<path fill="#FCD2A5" d="M1539.8 355.336C1541.16 355.642 1542.52 355.779 1543.9 355.924C1546.02 353.448 1544.66 350.631 1546.22 347.936C1546.87 346.819 1546.67 347.128 1547.77 347.241C1555.4 348.02 1559.81 346.67 1567.08 344.597C1569.09 345.453 1569.43 345.889 1570.78 347.645C1574.63 348.624 1577.5 349.323 1581.47 348.845C1584.23 348.513 1586.92 348.347 1589.65 348.924C1591.78 351.121 1591.67 352.657 1592.24 355.615C1594.97 357.092 1595.28 357.227 1596.63 359.998C1597.1 365.916 1588.32 378.781 1584.49 383.098C1582.36 385.501 1579.95 387.141 1577.02 388.402C1578.11 391.94 1578.51 394.545 1577.1 398.128L1575.74 399.257C1573.54 403.167 1569.93 404.058 1565.78 405.235C1565.19 405.403 1564.6 405.564 1564 405.704L1562.64 405.716C1556.76 403.953 1553.39 402.143 1549.38 397.415C1551.11 393.455 1550.59 388.874 1549.69 384.775C1548.14 376.741 1539.42 370.005 1537.64 362.208C1537.06 359.669 1538.57 357.431 1539.8 355.336Z"/>
	<path fill="#F48349" d="M1575.74 399.257C1570.17 399.082 1563.87 398.533 1558.95 395.69C1555.66 393.783 1553.45 390.988 1552.49 387.31C1557.92 389.897 1563.8 394.065 1569.95 391.921L1570.8 391.142C1573.39 390.648 1575.04 390.318 1577.02 388.402C1578.11 391.94 1578.51 394.545 1577.1 398.128L1575.74 399.257Z"/>
	<path fill="#F7AF4D" d="M1570.78 347.645C1574.63 348.624 1577.5 349.323 1581.47 348.845C1584.23 348.513 1586.92 348.347 1589.65 348.924C1591.78 351.121 1591.67 352.657 1592.24 355.615C1594.97 357.092 1595.28 357.227 1596.63 359.998C1597.1 365.916 1588.32 378.781 1584.49 383.098C1582.36 385.501 1579.95 387.141 1577.02 388.402C1575.04 390.318 1573.39 390.648 1570.8 391.142C1573.06 385.305 1573.2 353.33 1570.78 347.645Z"/>
	<path fill="#23A7A7" d="M372.729 324.916L378.967 329.2C379.824 326.687 379.21 324.344 379.366 321.756C379.88 313.222 385.987 306.611 393.39 302.96C397.359 301.003 401.483 300.414 405.728 301.895C415.5 305.304 417.639 315.481 421.139 317.415C421.261 317.483 422.402 317.154 422.535 317.1C422.637 317.058 424.033 316.244 424.056 316.231C426.986 314.605 429.617 314.654 432.725 315.635C437.644 317.188 441.217 320.262 444.114 324.437C444.251 327.489 444.482 330.454 444.925 333.477C448.291 334.388 452.337 335.019 455.459 336.499C457.385 337.412 458.883 338.991 459.452 341.068C460.282 344.093 459.151 348.891 457.409 351.47C455.701 353.997 452.712 355.807 449.72 356.27C439.706 357.822 376.284 357.377 365.925 356.153C363.582 355.876 361.497 355.408 359.579 353.947C356.15 351.335 354.129 347.482 353.618 343.22C353.145 339.281 354.116 335.682 356.601 332.582C360.876 327.246 366.15 325.633 372.729 324.916Z"/>
	<path fill="#B1B4E3" d="M257.692 688.684C263.231 688.713 268.782 688.668 274.318 688.861L274.507 930.66L257.515 930.641C257.421 919.086 259.206 845.749 256.832 841.467C257.832 839.716 257.576 837.238 257.622 835.26L257.546 829.442C257.772 820.799 258.999 809.956 256.536 801.693C258.684 798.349 257.649 702.962 257.692 688.684Z"/>
	<path fill="#62DBE2" d="M1577.1 398.128C1596.24 400.675 1617.32 402.625 1630.09 419.114C1640.09 432.029 1642.31 450.534 1640.2 466.374C1640.03 467.623 1639.62 468.379 1638.96 469.426L1569.98 469.37L1557.14 469.149C1557.6 468.46 1558.04 467.79 1558.3 466.996C1559.81 462.438 1559.99 417.831 1558.37 414.364L1556.67 412.254C1557.52 409.298 1560.46 408.484 1562.38 406.067C1562.47 405.952 1562.56 405.833 1562.64 405.716L1564 405.704C1564.6 405.564 1565.19 405.403 1565.78 405.235C1569.93 404.058 1573.54 403.167 1575.74 399.257L1577.1 398.128Z"/>
	<path fill="#302A81" d="M1564 405.704C1566.56 406.993 1569.29 408.106 1571.07 410.439L1571.13 412.467C1570.08 413.363 1569.05 414.283 1567.98 415.143C1564.55 415.416 1561.72 415.054 1558.37 414.364L1556.67 412.254C1557.52 409.298 1560.46 408.484 1562.38 406.067C1562.47 405.952 1562.56 405.833 1562.64 405.716L1564 405.704Z"/>
	<path fill="#565ADB" d="M1558.37 414.364C1561.72 415.054 1564.55 415.416 1567.98 415.143C1571.98 421.004 1571.22 461.529 1569.98 469.37L1557.14 469.149C1557.6 468.46 1558.04 467.79 1558.3 466.996C1559.81 462.438 1559.99 417.831 1558.37 414.364Z"/>
	<path fill="#565ADB" d="M1512.25 836.322C1520.73 837.657 1584.64 837.806 1592.15 836.429C1598.56 836.965 1602.82 837.252 1607.14 842.491C1608.27 843.864 1609.03 845.459 1608.88 847.274C1608.66 849.89 1606.26 852.405 1604.22 853.934C1603.32 854.613 1602.34 854.944 1601.26 855.221C1601.69 857.58 1602.35 859.957 1601.91 862.348C1604.31 863.281 1605.23 864.114 1606.56 866.31C1606.61 868.235 1606.77 869.43 1605.3 870.934C1604.8 871.451 1604.49 871.619 1603.92 871.99C1602.97 874.628 1602.03 877.012 1602.06 879.868C1604.95 881.225 1606.32 882.55 1607.41 885.595C1608.12 887.562 1608.07 888.859 1607.37 890.798C1604.74 894.159 1601.02 895.284 1596.94 895.826C1580.95 897.95 1564.1 894.875 1548 896.154C1536.71 896.133 1515.06 898.372 1505.62 893.747C1503.67 892.793 1501.94 891.389 1501.32 889.232C1500.23 885.444 1502.89 882.367 1504.47 879.141C1504.65 878.586 1504.74 878.431 1504.77 877.785C1504.9 875.472 1503.09 873.595 1501.77 871.86C1501.79 871.562 1501.81 871.264 1501.82 870.965C1501.94 867.365 1502.41 864.866 1503.7 861.479C1505.26 859.974 1505.96 859.67 1506.36 857.489L1504.34 855.062C1504.25 854.406 1504.32 854.648 1504.11 854.057C1503.79 853.198 1503.47 852.345 1503.18 851.475C1502.37 849.023 1501.36 844.37 1502.84 842.015C1504.92 838.713 1508.73 837.395 1512.25 836.322Z"/>
	<path fill="#302A81" d="M1504.34 855.062C1536.48 856.645 1569.06 854.925 1601.26 855.221C1601.69 857.58 1602.35 859.957 1601.91 862.348C1587.4 863.553 1571.8 862.36 1557.18 862.302C1539.76 862.234 1520.98 863.439 1503.7 861.479C1505.26 859.974 1505.96 859.67 1506.36 857.489L1504.34 855.062Z"/>
	<path fill="#302A81" d="M1501.77 871.86L1571.15 872.215C1581.72 872.253 1593.46 873.318 1603.92 871.99C1602.97 874.628 1602.03 877.012 1602.06 879.868C1569.54 880.173 1537 879.074 1504.47 879.141C1504.65 878.586 1504.74 878.431 1504.77 877.785C1504.9 875.472 1503.09 873.595 1501.77 871.86Z"/>
	<path fill="#565ADB" d="M1504.47 879.141C1537 879.074 1569.54 880.173 1602.06 879.868C1604.95 881.225 1606.32 882.55 1607.41 885.595C1608.12 887.562 1608.07 888.859 1607.37 890.798C1604.74 894.159 1601.02 895.284 1596.94 895.826C1580.95 897.95 1564.1 894.875 1548 896.154C1536.71 896.133 1515.06 898.372 1505.62 893.747C1503.67 892.793 1501.94 891.389 1501.32 889.232C1500.23 885.444 1502.89 882.367 1504.47 879.141Z"/>
	<path fill="#565ADB" d="M1512.25 836.322C1520.73 837.657 1584.64 837.806 1592.15 836.429C1598.56 836.965 1602.82 837.252 1607.14 842.491C1608.27 843.864 1609.03 845.459 1608.88 847.274C1608.66 849.89 1606.26 852.405 1604.22 853.934C1603.32 854.613 1602.34 854.944 1601.26 855.221C1569.06 854.925 1536.48 856.645 1504.34 855.062C1504.25 854.406 1504.32 854.648 1504.11 854.057C1503.79 853.198 1503.47 852.345 1503.18 851.475C1502.37 849.023 1501.36 844.37 1502.84 842.015C1504.92 838.713 1508.73 837.395 1512.25 836.322Z"/>
	<path fill="#FAFAF9" d="M256.832 841.467C253.081 840.725 249.328 839.593 245.703 838.375C210.946 826.7 177.092 799.96 160.573 766.817C156.652 758.951 151.424 746.945 154.552 738.221C155.956 734.306 159.753 730.759 163.517 729.115C171.258 725.736 180.811 728.865 188.156 731.914C217.222 743.979 244.646 772.705 256.536 801.693C258.999 809.956 257.772 820.799 257.546 829.442L257.622 835.26C257.576 837.238 257.832 839.716 256.832 841.467Z"/>
	<path fill="#B3C2DA" d="M169.013 735.984C181.949 745.395 193.16 758.606 204.104 770.255Q231.427 799.304 257.546 829.442L257.622 835.26C252.066 827.719 244.929 820.817 238.653 813.848Q217.397 790.239 195.585 767.142C186.992 757.986 174.437 747.35 169.013 735.984Z"/>
	<path fill="#F7AF4D" d="M335.788 801.731L400.272 801.74Q400.005 841.482 400.178 881.223C400.254 894.904 401.781 910.559 399.901 924.03C399.527 926.71 398.552 928.388 396.675 930.28C396.574 930.383 396.469 930.483 396.366 930.584C387.527 932.025 348.144 932.132 339.499 930.657C337.933 928.826 336.61 927.171 336.209 924.713C334.241 912.636 335.658 898.185 335.669 885.898L335.788 801.731Z"/>
	<path fill="#F15C63" d="M1538.91 152.082C1539.04 152.219 1539.17 152.353 1539.3 152.492C1550.52 164.851 1555.05 188.13 1554.04 204.359Q1553.98 205.425 1553.9 206.489Q1553.82 207.553 1553.71 208.615Q1553.6 209.677 1553.47 210.736Q1553.33 211.794 1553.17 212.849Q1553.01 213.904 1552.82 214.955Q1552.63 216.006 1552.42 217.051Q1552.2 218.097 1551.96 219.137Q1551.72 220.177 1551.45 221.21Q1551.19 222.244 1550.9 223.271Q1550.6 224.297 1550.29 225.316Q1549.97 226.335 1549.63 227.346Q1549.28 228.357 1548.92 229.359Q1548.55 230.361 1548.16 231.353Q1547.76 232.346 1547.35 233.328Q1546.93 234.31 1546.49 235.282Q1546.04 236.254 1545.58 237.214Q1545.11 238.174 1544.62 239.122Q1544.13 240.071 1543.62 241.006Q1543.11 241.942 1542.57 242.865Q1542.03 243.788 1541.47 244.697Q1540.92 245.606 1540.33 246.5Q1539.75 247.395 1539.15 248.275Q1538.54 249.155 1537.92 250.02Q1537.29 250.884 1536.65 251.733Q1536 252.582 1535.33 253.414Q1534.66 254.246 1533.97 255.062Q1533.28 255.877 1532.58 256.675Q1531.87 257.473 1531.14 258.253Q1530.41 259.033 1529.66 259.794Q1528.91 260.556 1528.15 261.298Q1527.38 262.041 1526.6 262.764Q1525.81 263.488 1525.01 264.191Q1524.19 264.897 1523.35 265.583Q1522.51 266.269 1521.66 266.935Q1520.8 267.6 1519.93 268.244Q1519.06 268.888 1518.17 269.511Q1517.29 270.133 1516.39 270.734Q1515.48 271.335 1514.57 271.913Q1513.65 272.492 1512.72 273.047Q1511.79 273.603 1510.85 274.136Q1509.91 274.669 1508.95 275.179Q1507.99 275.688 1507.03 276.174Q1506.06 276.66 1505.08 277.122Q1504.1 277.585 1503.11 278.023Q1502.12 278.461 1501.12 278.874Q1500.11 279.288 1499.1 279.677Q1498.09 280.066 1497.07 280.43Q1496.05 280.794 1495.02 281.133Q1493.99 281.472 1492.96 281.786Q1491.92 282.1 1490.88 282.388Q1489.83 282.676 1488.78 282.939Q1487.73 283.201 1486.67 283.438Q1485.62 283.674 1484.55 283.885Q1483.49 284.096 1482.42 284.281Q1481.36 284.465 1480.28 284.624Q1479.21 284.782 1478.14 284.914Q1477.06 285.047 1475.98 285.152Q1474.91 285.258 1473.83 285.337Q1472.75 285.417 1471.66 285.47Q1470.58 285.522 1469.5 285.549Q1468.42 285.575 1467.33 285.575Q1466.25 285.575 1465.17 285.548Q1464.08 285.521 1463 285.468Q1461.92 285.415 1460.84 285.335C1438.4 283.729 1415.99 272.721 1401.34 255.589C1385.9 237.535 1379.34 214.715 1381.22 191.201C1383.06 168.294 1393.13 146.913 1410.77 131.948Q1411.58 131.253 1412.4 130.578Q1413.23 129.904 1414.07 129.25Q1414.91 128.596 1415.77 127.963Q1416.63 127.33 1417.5 126.719Q1418.37 126.107 1419.26 125.518Q1420.15 124.928 1421.05 124.361Q1421.96 123.794 1422.87 123.249Q1423.79 122.704 1424.72 122.183Q1425.65 121.661 1426.59 121.162Q1427.53 120.664 1428.49 120.189Q1429.44 119.714 1430.41 119.263Q1431.37 118.812 1432.35 118.385Q1433.32 117.958 1434.31 117.555Q1435.3 117.153 1436.3 116.775Q1437.29 116.397 1438.3 116.044Q1439.3 115.691 1440.32 115.363Q1441.33 115.035 1442.35 114.732Q1443.38 114.429 1444.41 114.152Q1445.43 113.875 1446.47 113.623Q1447.51 113.372 1448.55 113.146Q1449.59 112.92 1450.64 112.72Q1451.68 112.521 1452.73 112.347Q1453.79 112.173 1454.84 112.026Q1455.9 111.878 1456.96 111.757Q1458.02 111.635 1459.08 111.54Q1460.14 111.445 1461.2 111.377Q1462.27 111.308 1463.33 111.266Q1464.4 111.224 1465.46 111.208Q1466.53 111.192 1467.59 111.203Q1468.66 111.214 1469.72 111.251Q1470.79 111.288 1471.85 111.352Q1472.92 111.416 1473.98 111.506C1498.13 113.525 1518.24 124.777 1533.73 143.125C1529.92 147.578 1518.52 156.043 1512.82 157.361C1512.78 157.036 1512.76 156.708 1512.71 156.386C1511.85 151.366 1502.26 145.585 1498.12 143.106C1483.69 134.466 1467.73 132.156 1451.45 136.311C1434.68 140.587 1420.83 151.332 1412.18 166.268Q1411.4 167.612 1410.68 168.992Q1409.96 170.373 1409.31 171.787Q1408.66 173.201 1408.08 174.645Q1407.5 176.089 1406.99 177.56Q1406.49 179.031 1406.05 180.524Q1405.61 182.018 1405.25 183.532Q1404.89 185.045 1404.6 186.574Q1404.31 188.103 1404.1 189.645Q1403.89 191.186 1403.75 192.736Q1403.61 194.286 1403.55 195.841Q1403.49 197.396 1403.5 198.952Q1403.52 200.508 1403.61 202.061Q1403.7 203.615 1403.87 205.162Q1404.03 206.709 1404.27 208.246Q1404.52 209.784 1404.83 211.307Q1405.15 212.831 1405.54 214.337C1410.06 231.285 1421.74 245.302 1436.92 253.849Q1438.27 254.598 1439.65 255.281Q1441.03 255.963 1442.44 256.576Q1443.85 257.19 1445.29 257.733Q1446.74 258.276 1448.2 258.747Q1449.67 259.219 1451.16 259.617Q1452.64 260.016 1454.15 260.341Q1455.66 260.666 1457.18 260.916Q1458.7 261.166 1460.23 261.341Q1461.76 261.516 1463.29 261.616Q1464.83 261.715 1466.37 261.739Q1467.91 261.762 1469.45 261.71Q1470.99 261.658 1472.52 261.53Q1474.06 261.402 1475.58 261.198Q1477.11 260.995 1478.63 260.716Q1480.14 260.438 1481.64 260.085Q1483.14 259.732 1484.62 259.306C1501.28 254.55 1514.88 243.731 1523.11 228.493C1531.38 213.155 1532.58 195.543 1527.49 178.993C1526.17 174.679 1523.89 168.923 1520.32 165.977C1526.46 161.48 1532.89 157.13 1538.59 152.082L1538.91 152.082Z"/>
	<path fill="#FAFAF9" d="M1520.32 165.977C1523.89 168.923 1526.17 174.679 1527.49 178.993C1532.58 195.543 1531.38 213.155 1523.11 228.493C1514.88 243.731 1501.28 254.55 1484.62 259.306Q1483.14 259.732 1481.64 260.085Q1480.14 260.438 1478.63 260.716Q1477.11 260.995 1475.59 261.198Q1474.06 261.402 1472.52 261.53Q1470.99 261.658 1469.45 261.71Q1467.91 261.762 1466.37 261.739Q1464.83 261.715 1463.29 261.616Q1461.76 261.516 1460.23 261.341Q1458.7 261.166 1457.18 260.916Q1455.66 260.666 1454.15 260.341Q1452.64 260.016 1451.16 259.617Q1449.67 259.219 1448.2 258.747Q1446.74 258.276 1445.29 257.733Q1443.85 257.19 1442.44 256.576Q1441.03 255.963 1439.65 255.281Q1438.27 254.598 1436.92 253.849C1421.74 245.302 1410.06 231.285 1405.54 214.337Q1405.15 212.831 1404.83 211.307Q1404.52 209.784 1404.27 208.246Q1404.03 206.709 1403.87 205.162Q1403.7 203.615 1403.61 202.061Q1403.52 200.508 1403.5 198.952Q1403.49 197.396 1403.55 195.841Q1403.61 194.286 1403.75 192.736Q1403.89 191.186 1404.1 189.645Q1404.31 188.103 1404.6 186.574Q1404.89 185.045 1405.25 183.532Q1405.61 182.018 1406.05 180.524Q1406.49 179.031 1406.99 177.56Q1407.5 176.089 1408.08 174.645Q1408.66 173.201 1409.31 171.787Q1409.96 170.373 1410.68 168.992Q1411.4 167.612 1412.18 166.268C1420.83 151.332 1434.68 140.587 1451.45 136.311C1467.73 132.156 1483.69 134.466 1498.12 143.106C1502.26 145.585 1511.85 151.366 1512.71 156.386C1512.76 156.708 1512.78 157.036 1512.82 157.361C1518.52 156.043 1529.92 147.578 1533.73 143.125L1534.58 143.215C1535.97 146.147 1537.41 149.06 1538.59 152.082C1532.89 157.13 1526.46 161.48 1520.32 165.977Z"/>
	<path fill="#F15C63" d="M1504.65 177.686C1507.1 179.7 1508.26 183.062 1509.17 186.02C1512.61 197.081 1511.7 209.557 1506.19 219.771Q1505.67 220.72 1505.11 221.641Q1504.54 222.563 1503.93 223.456Q1503.32 224.349 1502.67 225.211Q1502.02 226.072 1501.32 226.901Q1500.63 227.729 1499.9 228.522Q1499.16 229.315 1498.39 230.071Q1497.62 230.827 1496.81 231.543Q1496 232.26 1495.15 232.936Q1494.31 233.612 1493.43 234.245Q1492.56 234.879 1491.65 235.468Q1490.75 236.057 1489.81 236.601Q1488.88 237.145 1487.92 237.642Q1486.96 238.139 1485.98 238.588Q1484.99 239.037 1483.99 239.437Q1482.98 239.837 1481.96 240.187Q1480.94 240.537 1479.9 240.836C1468.05 244.353 1455.39 242.561 1444.66 236.543Q1443.74 236.034 1442.84 235.48Q1441.95 234.926 1441.09 234.328Q1440.22 233.73 1439.39 233.09Q1438.55 232.449 1437.75 231.768Q1436.95 231.087 1436.18 230.366Q1435.41 229.645 1434.69 228.887Q1433.96 228.129 1433.27 227.335Q1432.57 226.542 1431.92 225.715Q1431.27 224.888 1430.67 224.029Q1430.06 223.17 1429.49 222.282Q1428.93 221.394 1428.41 220.479Q1427.89 219.564 1427.42 218.624Q1426.95 217.685 1426.52 216.722Q1426.09 215.76 1425.72 214.778Q1425.34 213.795 1425.01 212.795Q1424.69 211.795 1424.41 210.78C1421.2 199.247 1422.15 186.504 1428.18 176.045C1434.15 165.689 1444.48 158.242 1455.98 155.217C1466.83 152.36 1480.36 153.567 1490.06 159.473C1493.31 161.456 1497.12 164.096 1498.07 167.869C1496.38 171.073 1491.73 174.1 1488.38 175.472C1484.45 170.659 1477.74 167.327 1471.58 166.681C1463.13 165.794 1454.51 168.698 1447.99 174.068C1441.3 179.582 1436.87 187.261 1436.11 195.961C1435.36 204.55 1438.31 212.589 1443.91 219.061C1449.24 225.233 1456.49 228.945 1464.65 229.52Q1465.42 229.58 1466.2 229.602Q1466.97 229.623 1467.74 229.606Q1468.52 229.589 1469.29 229.534Q1470.06 229.478 1470.83 229.384Q1471.6 229.291 1472.36 229.159Q1473.13 229.027 1473.88 228.857Q1474.64 228.687 1475.38 228.48Q1476.13 228.273 1476.87 228.03Q1477.6 227.786 1478.32 227.506Q1479.04 227.225 1479.75 226.91Q1480.46 226.594 1481.15 226.244Q1481.84 225.893 1482.51 225.509Q1483.18 225.125 1483.84 224.707Q1484.49 224.29 1485.12 223.841Q1485.75 223.392 1486.36 222.912Q1486.97 222.432 1487.55 221.922C1493.27 216.902 1498.19 208.785 1498.63 201.039C1498.87 196.821 1497.86 190.121 1495.04 186.867C1494.56 186.309 1494.56 186.372 1494.08 185.91C1493.97 185.801 1493.86 185.687 1493.75 185.575C1497.66 183.173 1501.33 180.913 1504.65 177.686Z"/>
	<path fill="#FAFAF9" d="M1533.73 143.125L1534.58 143.215C1535.97 146.147 1537.41 149.06 1538.59 152.082C1532.89 157.13 1526.46 161.48 1520.32 165.977C1515.47 169.901 1510.04 174.627 1504.65 177.686C1501.33 180.913 1497.66 183.173 1493.75 185.575C1493.86 185.687 1493.97 185.801 1494.08 185.91C1494.56 186.372 1494.56 186.309 1495.04 186.867C1497.86 190.121 1498.87 196.821 1498.63 201.039C1498.19 208.785 1493.27 216.902 1487.55 221.922Q1486.97 222.432 1486.36 222.912Q1485.75 223.392 1485.12 223.841Q1484.49 224.29 1483.84 224.707Q1483.18 225.125 1482.51 225.509Q1481.84 225.893 1481.15 226.244Q1480.46 226.594 1479.75 226.91Q1479.04 227.225 1478.32 227.506Q1477.6 227.786 1476.87 228.03Q1476.13 228.273 1475.38 228.48Q1474.64 228.687 1473.88 228.857Q1473.13 229.027 1472.36 229.159Q1471.6 229.291 1470.83 229.384Q1470.06 229.478 1469.29 229.534Q1468.52 229.589 1467.74 229.606Q1466.97 229.623 1466.2 229.602Q1465.42 229.58 1464.65 229.52C1456.49 228.945 1449.24 225.233 1443.91 219.061C1438.31 212.589 1435.36 204.55 1436.11 195.961C1436.87 187.261 1441.3 179.582 1447.99 174.068C1454.51 168.698 1463.13 165.794 1471.58 166.681C1477.74 167.327 1484.45 170.659 1488.38 175.472C1491.73 174.1 1496.38 171.073 1498.07 167.869C1498.74 167.792 1499.05 167.791 1499.66 167.613C1503.33 166.545 1511.16 160.743 1512.82 157.361C1518.52 156.043 1529.92 147.578 1533.73 143.125Z"/>
	<path fill="#302A81" d="M1475.18 197.316L1475.9 200.437C1475.4 202.206 1474.83 203.622 1473.57 205.001C1471.63 207.113 1469.09 208.069 1466.24 208.054Q1465.83 208.054 1465.42 208.013Q1465.01 207.971 1464.6 207.887Q1464.2 207.804 1463.81 207.679Q1463.41 207.554 1463.03 207.39Q1462.66 207.226 1462.3 207.024Q1461.94 206.822 1461.6 206.584Q1461.26 206.347 1460.95 206.076Q1460.64 205.804 1460.36 205.503C1458.25 203.246 1457.32 199.905 1457.66 196.857C1457.94 194.335 1459.13 192.001 1461.26 190.555C1464.17 188.574 1467.3 188.956 1470.54 189.503C1472.85 190.811 1474.19 191.606 1475.33 194.155C1475.3 195.19 1475.36 196.298 1475.18 197.316Z"/>
	<path fill="#3881E0" d="M1533.73 143.125L1534.58 143.215C1535.97 146.147 1537.41 149.06 1538.59 152.082C1532.89 157.13 1526.46 161.48 1520.32 165.977C1515.47 169.901 1510.04 174.627 1504.65 177.686C1501.33 180.913 1497.66 183.173 1493.75 185.575C1487.9 189.462 1481.57 194.409 1475.18 197.316C1475.36 196.298 1475.3 195.19 1475.33 194.155C1474.19 191.606 1472.85 190.811 1470.54 189.503C1470.77 189.409 1471 189.32 1471.22 189.22C1475.22 187.452 1487.02 178.963 1488.38 175.472C1491.73 174.1 1496.38 171.073 1498.07 167.869C1498.74 167.792 1499.05 167.791 1499.66 167.613C1503.33 166.545 1511.16 160.743 1512.82 157.361C1518.52 156.043 1529.92 147.578 1533.73 143.125Z"/>
	<path fill="#F36CA7" d="M930.773 130.658L949.504 130.757C950.955 136.013 951.956 141.449 953.124 146.778C957.208 148.144 961.242 149.745 965.286 151.229C968.912 147.806 972.821 144.637 976.61 141.394C981.569 145.524 986.813 149.379 991.918 153.332L984.097 166.927C987.15 171.063 989.452 175.28 991.76 179.849C996.891 179.465 1002.1 179.563 1007.24 179.499L1010.73 199.005L996.216 205.72C995.435 210.347 994.099 214.869 992.878 219.396L1004.8 229.374C1001.39 235.185 998.015 240.975 994.965 246.985C990.458 245.396 986.013 243.565 981.552 241.845L969.819 251.081C971.445 256.159 972.624 261.339 973.851 266.524C967.178 269.322 960.534 271.739 953.623 273.881C951.22 269.289 948.972 263.77 945.474 259.932L943.347 260.015C941.312 259.997 938.707 259.775 936.764 260.409C932.66 261.749 929.693 270.357 927.804 274.02L907.558 266.698C908.29 261.366 909.855 256.102 911.173 250.889C906.444 247.697 902.09 243.892 897.671 240.287L884.47 246.085C880.445 240.157 876.627 234.254 873.185 227.965C877.046 224.731 881.449 221.995 885.591 219.129C884.262 214.651 883.777 209.807 883.048 205.195L867.729 199.866C868.704 192.966 870.368 186.191 871.908 179.4L887.75 180.702C890.061 175.338 893.212 170.761 896.773 166.187C893.414 161.778 890.218 157.219 886.953 152.738L902.682 138.939C907.208 142.666 911.364 146.821 915.584 150.885C919.387 149.142 923.456 147.958 927.427 146.657C928.105 141.214 929.455 135.971 930.773 130.658Z"/>
	<path fill="#302A81" d="M935.933 172.597C942.482 172.149 948.95 173.077 954.834 176.135Q955.473 176.467 956.094 176.831Q956.715 177.195 957.318 177.589Q957.92 177.984 958.501 178.408Q959.083 178.832 959.643 179.285Q960.203 179.738 960.739 180.218Q961.275 180.699 961.787 181.205Q962.298 181.712 962.784 182.244Q963.269 182.775 963.728 183.331Q964.186 183.886 964.616 184.464Q965.045 185.041 965.446 185.64Q965.846 186.238 966.216 186.856Q966.586 187.474 966.924 188.11Q967.262 188.745 967.568 189.397Q967.875 190.049 968.148 190.715Q968.421 191.381 968.66 192.06Q968.899 192.74 969.104 193.43Q969.332 194.167 969.522 194.915Q969.712 195.663 969.865 196.419Q970.018 197.175 970.132 197.938Q970.246 198.701 970.323 199.469Q970.398 200.237 970.436 201.007Q970.473 201.778 970.472 202.55Q970.471 203.321 970.431 204.092Q970.391 204.862 970.312 205.63Q970.233 206.397 970.116 207.16Q969.999 207.923 969.844 208.678Q969.689 209.434 969.496 210.181Q969.303 210.928 969.073 211.665Q968.843 212.401 968.576 213.125Q968.309 213.849 968.006 214.559Q967.703 215.268 967.365 215.962Q967.027 216.655 966.655 217.331C961.839 226.099 954.463 230.317 945.125 232.976C937.313 233.123 930.681 232.674 923.79 228.465Q923.142 228.069 922.515 227.641Q921.887 227.213 921.283 226.753Q920.678 226.294 920.097 225.805Q919.516 225.316 918.96 224.798Q918.405 224.28 917.876 223.735Q917.347 223.19 916.846 222.619Q916.346 222.047 915.875 221.452Q915.403 220.856 914.963 220.237Q914.522 219.619 914.113 218.979Q913.705 218.338 913.329 217.678Q912.953 217.019 912.61 216.341Q912.268 215.663 911.96 214.968Q911.652 214.274 911.38 213.565Q911.108 212.856 910.872 212.134Q910.635 211.412 910.436 210.679Q910.236 209.946 910.074 209.204Q909.904 208.477 909.77 207.742Q909.637 207.007 909.54 206.266Q909.443 205.526 909.384 204.781Q909.324 204.037 909.302 203.29Q909.28 202.544 909.295 201.797Q909.31 201.05 909.362 200.305Q909.415 199.56 909.504 198.819Q909.594 198.077 909.72 197.341Q909.847 196.605 910.01 195.876Q910.173 195.147 910.372 194.427Q910.572 193.708 910.807 192.999Q911.042 192.29 911.312 191.593Q911.582 190.897 911.887 190.215Q912.192 189.533 912.53 188.868Q912.868 188.202 913.24 187.554Q913.611 186.906 914.014 186.277C919.193 178.301 926.91 174.549 935.933 172.597Z"/>
	<path fill="#565ADB" d="M1080.62 219.36C1079.94 217.565 1064.89 205.167 1061.69 201.212C1052.38 189.691 1047.9 176.171 1049.61 161.357C1051.68 143.444 1062.97 128.713 1076.77 117.879C1102.09 97.996 1135.05 91.2036 1166.62 95.1191C1193.38 98.4384 1221.46 110.428 1238.33 132.216C1247.54 144.11 1253.13 159.492 1251.06 174.639C1249.12 188.911 1241.08 202.793 1229.66 211.562C1228.34 213.534 1228.06 213.619 1228.48 216.035C1230.19 226.061 1243.31 249.837 1241.75 258.311C1238.68 254.291 1202.92 230.725 1198.08 228.976C1186.44 238.191 1149.43 239.507 1134.69 237.797C1120.58 236.16 1107.37 231.894 1094.48 226.021C1090.08 224.014 1085.19 220.713 1080.62 219.36Z"/>
	<path fill="#FAFAF9" d="M1145.37 156.885C1148.56 156.353 1151.63 156.165 1154.61 157.609C1157.51 159.008 1159.86 161.737 1160.94 164.768C1161.98 167.686 1161.8 170.934 1160.28 173.656C1158.58 176.706 1156.12 178.263 1152.88 179.268C1151.3 179.73 1149.56 179.741 1147.92 179.592C1145.2 179.344 1142.39 178.156 1140.7 175.952C1138.77 173.422 1138.45 169.935 1138.82 166.854C1139.4 162.048 1141.79 159.779 1145.37 156.885Z"/>
	<path fill="#FAFAF9" d="M1111.34 156.882C1114.27 156.512 1117.18 156.743 1119.82 158.187Q1120.36 158.48 1120.87 158.827Q1121.38 159.174 1121.84 159.572Q1122.31 159.971 1122.74 160.415Q1123.16 160.86 1123.54 161.346Q1123.91 161.833 1124.24 162.356Q1124.56 162.879 1124.83 163.432Q1125.1 163.986 1125.3 164.564Q1125.51 165.143 1125.66 165.74C1126.41 168.92 1125.85 172.181 1123.93 174.845C1121.7 177.944 1118.99 179.078 1115.36 179.704C1114.22 179.837 1113.29 179.863 1112.15 179.65C1108.96 179.054 1105.9 177.647 1104.14 174.788C1102.44 172.045 1102.24 168.329 1103.16 165.266C1104.56 160.588 1107.33 159.069 1111.34 156.882Z"/>
	<path fill="#FAFAF9" d="M1182.7 156.885C1185.98 156.354 1188.74 156.271 1191.78 157.952C1194.71 159.576 1196.97 162.461 1197.75 165.739C1198.5 168.891 1198 172.234 1196.1 174.895C1193.78 178.166 1191.06 178.993 1187.35 179.619C1186.63 179.668 1185.93 179.675 1185.2 179.624C1182.32 179.419 1178.16 177.6 1176.37 175.296C1174.54 172.938 1174.44 170.12 1174.88 167.282C1175.69 162.04 1178.66 159.852 1182.7 156.885Z"/>
	<path fill="#F7AF4D" d="M1497.45 656.129C1497.63 656.062 1497.81 655.998 1497.98 655.928C1505.15 653.085 1511.8 647.759 1518.91 644.388C1539.98 634.397 1566.36 634.652 1587.75 643.538Q1588.74 643.951 1589.73 644.388Q1590.71 644.826 1591.68 645.287Q1592.66 645.749 1593.62 646.234Q1594.58 646.719 1595.53 647.228Q1596.47 647.736 1597.41 648.268Q1598.35 648.8 1599.27 649.355Q1600.19 649.91 1601.1 650.487Q1602.01 651.064 1602.9 651.664Q1603.79 652.263 1604.67 652.885Q1605.55 653.506 1606.42 654.149Q1607.28 654.792 1608.13 655.456Q1608.97 656.119 1609.8 656.804Q1610.63 657.488 1611.45 658.193Q1612.26 658.898 1613.06 659.622Q1613.85 660.347 1614.63 661.091Q1615.41 661.835 1616.17 662.598Q1616.93 663.361 1617.67 664.142Q1618.41 664.923 1619.13 665.723Q1619.85 666.522 1620.55 667.339Q1621.25 668.156 1621.93 668.989Q1622.61 669.823 1623.27 670.673Q1623.93 671.524 1624.57 672.39Q1625.21 673.256 1625.83 674.138Q1626.45 675.02 1627.04 675.917Q1627.64 676.813 1628.21 677.724Q1628.78 678.636 1629.33 679.561Q1629.89 680.485 1630.41 681.424Q1630.94 682.362 1631.45 683.313Q1631.95 684.264 1632.43 685.227Q1632.91 686.19 1633.37 687.164Q1633.83 688.139 1634.26 689.125Q1634.69 690.11 1635.1 691.106C1643.46 711.575 1643.64 735.819 1634.96 756.219C1629.71 768.546 1617.77 785.564 1604.91 790.741C1604.47 795.695 1601.37 801.074 1600.08 806.042C1598.12 813.605 1596.15 830.555 1592.15 836.429C1584.64 837.806 1520.73 837.657 1512.25 836.322C1512.46 835.464 1512.49 835.552 1512.52 834.768C1512.89 826.735 1507.5 795.96 1502.93 790.698C1501.95 787.739 1489.25 778.641 1486.19 775.047C1479.76 767.464 1474.41 758.341 1471.2 748.92C1463.17 725.373 1466.66 694.666 1481.86 674.695C1484.77 670.868 1495.75 660.025 1497.08 657.018C1497.21 656.725 1497.33 656.425 1497.45 656.129Z"/>
	<path fill="#FAFAF9" d="M1599.39 700.887C1599.57 700.859 1599.74 700.828 1599.91 700.802C1601.82 700.515 1603.43 700.475 1605.02 701.726C1606.58 702.957 1606.48 703.385 1606.77 705.268C1604.85 710.972 1550.4 764.793 1543.95 767.995C1541.91 763.134 1513.06 739.385 1507.49 736.163C1506.19 734.126 1504.09 732.184 1503.01 730.101C1501.92 727.969 1502.01 727.186 1502.73 725.081C1504.59 724.025 1505.05 723.519 1507.23 723.684C1513.05 727.291 1541.33 750.167 1543.43 755.015C1547.96 752.797 1596.54 705.427 1599.39 700.887Z"/>
	<path fill="#FAFAF9" d="M672.643 94.8265L695.748 94.726L700.834 114.36C707.519 115.511 713.39 117.654 719.425 120.717C724.154 116.195 728.864 111.671 733.805 107.38C740.329 112.279 747.034 117.042 753.387 122.155Q748.739 130.779 744.504 139.613C749.486 144.957 753.305 150.607 756.538 157.168C762.652 155.619 768.697 154.39 774.927 153.414C777.666 161.14 780.657 168.866 783.024 176.712L766.954 186.452C767.655 193.115 767.774 199.296 766.639 205.947C771.998 209.004 777.464 211.96 782.708 215.207C780.269 222.722 777.57 230.112 774.786 237.506C768.781 236.803 762.537 236.373 756.625 235.151C753.133 241.311 749.506 246.887 744.517 251.988L751.777 268.152C746.113 273.593 740.111 278.566 734.05 283.556C728.984 279.342 723.439 275.226 718.852 270.508C713.16 273.052 707.54 275.097 701.569 276.887L695.844 294.967L685.255 294.942L685.11 461.679C685.196 465.85 685.837 470.853 684.435 474.817C683.658 475.208 682.945 475.659 682.087 475.816C657.814 474.043 632.335 475.568 607.921 475.573L454.606 475.537C445.532 475.502 420.919 477.699 413.77 474.814L413.317 472.032L416.145 472.348L609.339 472.69L656.353 472.741C664.235 472.75 673.914 473.713 681.623 472.167L681.649 459.429L681.676 294.833L671.438 294.86L665.254 275.826C660.024 274.285 654.891 272.746 649.85 270.644L634.714 281.91Q625.375 275.479 616.121 268.926L622.441 251.339C617.165 246.161 612.207 240.773 608.244 234.494C601.892 235.851 595.569 237.293 589.105 238.006C586.557 230.769 583.825 223.55 581.477 216.249C587.012 212.144 592.589 208.301 598.449 204.675C598.247 199.074 598.17 193.666 598.686 188.073C593.026 184.683 587.066 181.447 581.725 177.581L589.391 155.201L608.618 157.263C612.13 150.782 616.061 145.313 621.169 139.947L612.425 123.078Q622.372 115.284 632.835 108.2C637.019 112.536 641.126 117.003 645.587 121.056C652.629 117.81 659.448 115.191 667.091 113.671C668.944 107.392 670.858 101.125 672.643 94.8265Z"/>
	<path fill="#D1E2E6" d="M675.308 131.844C691.082 130.861 705.532 132.722 719.042 141.657Q720.369 142.541 721.65 143.491Q722.932 144.44 724.164 145.452Q725.396 146.465 726.576 147.538Q727.756 148.61 728.881 149.741Q730.006 150.871 731.073 152.056Q732.14 153.242 733.147 154.479Q734.153 155.716 735.097 157.002Q736.04 158.288 736.918 159.619Q737.796 160.951 738.606 162.325Q739.416 163.699 740.157 165.111Q740.897 166.524 741.566 167.972Q742.235 169.419 742.831 170.899Q743.426 172.378 743.948 173.886Q744.469 175.393 744.913 176.925Q745.358 178.457 745.726 180.009Q746.094 181.561 746.384 183.129C749.571 199.995 745.341 217.503 735.704 231.598C725.383 246.691 709.891 254.919 692.262 258.173C675.657 260.7 657.921 255.308 644.419 245.602C630.97 235.935 622.519 221.056 619.945 204.79Q619.689 203.226 619.513 201.651Q619.337 200.076 619.241 198.494Q619.144 196.912 619.128 195.327Q619.112 193.742 619.176 192.159Q619.24 190.575 619.383 188.997Q619.527 187.418 619.751 185.849Q619.974 184.28 620.277 182.725Q620.579 181.169 620.96 179.631Q621.341 178.092 621.799 176.575Q622.257 175.058 622.792 173.566Q623.326 172.074 623.935 170.61Q624.544 169.147 625.226 167.717Q625.908 166.286 626.662 164.892Q627.416 163.498 628.239 162.144Q629.062 160.79 629.953 159.479Q630.843 158.168 631.799 156.904C642.668 142.27 657.553 134.482 675.308 131.844Z"/>
	<path fill="#FAFAF9" d="M676.438 142.459C689.181 141.911 700.415 143.468 711.529 150.281Q712.588 150.919 713.614 151.609Q714.64 152.299 715.629 153.04Q716.619 153.782 717.57 154.572Q718.521 155.362 719.431 156.199Q720.341 157.036 721.208 157.918Q722.075 158.8 722.896 159.724Q723.717 160.648 724.491 161.613Q725.264 162.578 725.988 163.58Q726.712 164.583 727.385 165.62Q728.057 166.658 728.677 167.728Q729.296 168.798 729.861 169.898Q730.425 170.998 730.934 172.126Q731.443 173.253 731.894 174.404Q732.345 175.556 732.737 176.728Q733.13 177.901 733.463 179.092Q733.795 180.283 734.068 181.489C737.365 195.764 735.107 211.401 727.121 223.769C718.421 237.243 705.924 243.757 690.689 247.041Q689.504 247.183 688.315 247.274Q687.125 247.366 685.933 247.406Q684.74 247.447 683.547 247.436Q682.354 247.426 681.163 247.364Q679.971 247.303 678.783 247.191Q677.595 247.079 676.413 246.916Q675.232 246.753 674.058 246.54Q672.884 246.327 671.72 246.064Q670.556 245.801 669.405 245.489Q668.253 245.176 667.116 244.815Q665.979 244.454 664.858 244.044Q663.737 243.635 662.635 243.178Q661.533 242.721 660.451 242.217Q659.37 241.714 658.31 241.165Q657.251 240.615 656.216 240.021Q655.181 239.428 654.173 238.79C642.181 231.161 634.257 218.658 631.235 204.858C628.291 191.411 631.729 177.054 639.295 165.682C648.075 152.483 661.192 145.438 676.438 142.459Z"/>
	<path fill="#565ADB" d="M678.466 171.644C683.822 171.28 688.643 171.169 693.688 173.253C699.893 175.815 704.915 180.623 707.446 186.872Q707.681 187.448 707.887 188.035Q708.093 188.621 708.27 189.218Q708.446 189.814 708.592 190.419Q708.738 191.023 708.854 191.635Q708.97 192.246 709.055 192.862Q709.139 193.478 709.193 194.098Q709.247 194.717 709.27 195.339Q709.293 195.96 709.284 196.582Q709.276 197.204 709.236 197.825Q709.197 198.446 709.126 199.064Q709.055 199.681 708.954 200.295Q708.852 200.909 708.72 201.516Q708.588 202.124 708.425 202.725Q708.262 203.325 708.07 203.916Q707.878 204.508 707.656 205.089Q707.434 205.67 707.183 206.239C703.662 214.084 697.276 218.173 689.498 221.084C683.411 221.408 678.354 221.408 672.72 218.687Q672.161 218.421 671.616 218.127Q671.07 217.833 670.541 217.512Q670.011 217.191 669.498 216.843Q668.985 216.496 668.491 216.123Q667.996 215.751 667.52 215.354Q667.045 214.957 666.59 214.536Q666.135 214.116 665.702 213.673Q665.269 213.23 664.859 212.766Q664.448 212.302 664.062 211.818Q663.675 211.334 663.314 210.831Q662.952 210.328 662.616 209.808Q662.28 209.287 661.971 208.751Q661.661 208.214 661.379 207.662Q661.097 207.111 660.843 206.546Q660.589 205.981 660.364 205.404Q660.139 204.827 659.943 204.239Q659.747 203.645 659.58 203.041Q659.414 202.438 659.278 201.827Q659.141 201.217 659.035 200.6Q658.929 199.983 658.854 199.362Q658.779 198.741 658.734 198.116Q658.69 197.492 658.676 196.866Q658.663 196.241 658.68 195.615Q658.698 194.99 658.746 194.366Q658.795 193.742 658.874 193.121Q658.953 192.5 659.063 191.884Q659.173 191.268 659.314 190.658Q659.454 190.048 659.625 189.446Q659.795 188.844 659.995 188.251Q660.195 187.658 660.424 187.076Q660.653 186.493 660.911 185.923Q661.168 185.353 661.454 184.796C665.157 177.621 671.049 174.113 678.466 171.644Z"/>
	<path fill="#FAFAF9" d="M257.692 688.684C229.061 684.154 204.789 672.249 187.41 648.322C171.763 626.78 166.823 601.542 170.992 575.454C174.759 551.887 189.838 530.601 208.978 516.807C229.054 502.339 256.581 496.313 280.908 500.384Q282.07 500.582 283.227 500.808Q284.384 501.034 285.535 501.288Q286.686 501.542 287.83 501.824Q288.974 502.106 290.112 502.417Q291.249 502.727 292.378 503.064Q293.507 503.402 294.628 503.767Q295.749 504.132 296.86 504.525Q297.972 504.917 299.073 505.337Q300.175 505.756 301.266 506.203Q302.357 506.649 303.437 507.122Q304.516 507.595 305.584 508.094Q306.652 508.593 307.708 509.118Q308.763 509.643 309.805 510.193Q310.848 510.744 311.876 511.32Q312.905 511.895 313.919 512.496Q314.933 513.097 315.932 513.722Q316.931 514.348 317.915 514.997Q318.899 515.647 319.866 516.321Q320.834 516.994 321.784 517.691Q322.735 518.388 323.669 519.108Q324.602 519.827 325.518 520.57Q326.433 521.312 327.33 522.077Q328.228 522.841 329.106 523.628Q329.984 524.414 330.843 525.222Q331.702 526.029 332.541 526.857Q333.38 527.685 334.198 528.534Q335.016 529.382 335.814 530.251Q336.611 531.119 337.387 532.006Q338.163 532.894 338.917 533.8Q339.672 534.706 340.403 535.63Q341.135 536.554 341.844 537.496Q342.553 538.438 343.239 539.397Q343.908 540.346 344.554 541.311Q345.2 542.276 345.822 543.256Q346.444 544.237 347.042 545.232Q347.639 546.228 348.212 547.238Q348.785 548.248 349.333 549.272Q349.881 550.295 350.404 551.332Q350.927 552.369 351.424 553.419Q351.921 554.468 352.392 555.529Q352.863 556.591 353.308 557.663Q353.752 558.736 354.171 559.819Q354.589 560.902 354.981 561.996Q355.372 563.089 355.737 564.191Q356.101 565.294 356.439 566.405Q356.776 567.516 357.086 568.635Q357.396 569.754 357.678 570.881Q357.961 572.007 358.215 573.14Q358.47 574.273 358.696 575.412Q358.923 576.551 359.122 577.695Q359.32 578.839 359.491 579.988Q359.661 581.136 359.803 582.289Q359.945 583.442 360.059 584.597Q360.172 585.753 360.258 586.911Q360.343 588.069 360.4 589.229Q360.457 590.389 360.485 591.55Q360.513 592.711 360.513 593.872Q360.512 595.033 360.484 596.194Q360.455 597.355 360.397 598.515Q360.34 599.675 360.254 600.833Q360.168 601.991 360.054 603.146Q359.94 604.302 359.797 605.454Q359.654 606.607 359.483 607.755Q359.312 608.904 359.113 610.048C354.852 634.598 340.912 657.477 320.37 671.766Q317.81 673.517 315.147 675.109Q312.484 676.7 309.73 678.126Q306.975 679.552 304.138 680.807Q301.301 682.062 298.393 683.142Q295.485 684.221 292.517 685.121Q289.548 686.021 286.531 686.738Q283.513 687.455 280.457 687.986Q277.401 688.517 274.318 688.861C268.782 688.668 263.231 688.713 257.692 688.684Z"/>
	<path fill="#F7AF4D" d="M266.058 525.482C280.648 525.845 294.507 529.731 306.489 538.28C324.439 551.086 332.481 569.378 336.017 590.545C316.009 590.191 295.964 590.376 275.951 590.318C273.399 585.743 271.123 583.26 266.389 580.911L266.058 525.482Z"/>
	<path fill="#171465" d="M195.379 594.704C212.124 594.665 235.852 593.077 251.799 594.89C253.935 599.807 255.883 602.46 261.018 604.495C261.608 604.729 262.206 604.931 262.811 605.123C263.56 624.494 262.17 643.913 262.523 663.279C246.627 661.5 231.867 655.851 219.718 645.294C204.505 632.075 196.793 614.639 195.379 594.704Z"/>
	<path fill="#565ADB" d="M195.358 591.083C197.737 570.567 204.769 553.244 221.321 540.262C233.144 530.989 246.844 526.786 261.623 525.76L261.399 581.209C257.182 584.138 254.307 586.554 251.955 591.211L251.799 594.89C235.852 593.077 212.124 594.665 195.379 594.704L195.358 591.083Z"/>
	<path fill="#B1B4E3" d="M195.358 591.083L251.955 591.211L251.799 594.89C235.852 593.077 212.124 594.665 195.379 594.704L195.358 591.083Z"/>
	<path fill="#565ADB" d="M275.478 595.649L335.474 595.513C333.198 616.357 324.742 634.92 308.104 648.225C295.719 658.129 281.163 662.668 265.48 663.194L262.523 663.279C262.17 643.913 263.56 624.494 262.811 605.123L266.156 604.968C271.081 602.714 273.01 600.397 275.478 595.649Z"/>
	<path fill="#B1B4E3" d="M262.811 605.123L266.156 604.968C264.648 624.218 265.947 643.882 265.48 663.194L262.523 663.279C262.17 643.913 263.56 624.494 262.811 605.123Z"/>
	<path fill="#565ADB" d="M290.576 186.44C301.391 167.308 315.761 153.387 337.387 147.348Q339.053 146.887 340.74 146.508Q342.426 146.129 344.13 145.835Q345.833 145.54 347.549 145.33Q349.265 145.12 350.989 144.995Q352.713 144.87 354.441 144.831Q356.17 144.791 357.898 144.837Q359.626 144.883 361.349 145.014Q363.073 145.145 364.788 145.362Q366.503 145.578 368.206 145.879Q369.908 146.18 371.593 146.565Q373.279 146.95 374.943 147.417Q376.607 147.885 378.246 148.434Q379.885 148.983 381.495 149.613Q383.105 150.243 384.682 150.951Q386.259 151.66 387.799 152.446Q389.339 153.231 390.838 154.092C404.681 161.944 414.462 173.602 421.548 187.685C440.014 187.714 456.896 192.256 470.263 205.849C480.145 215.897 485.926 228.485 488.388 242.257C501.73 245.734 512.281 251.084 519.575 263.435Q520.102 264.309 520.583 265.208Q521.064 266.108 521.5 267.03Q521.935 267.953 522.323 268.897Q522.71 269.84 523.05 270.802Q523.389 271.764 523.679 272.742Q523.969 273.721 524.21 274.712Q524.45 275.704 524.639 276.706Q524.828 277.709 524.967 278.72Q525.105 279.73 525.192 280.747Q525.279 281.763 525.314 282.783Q525.349 283.803 525.332 284.823Q525.315 285.843 525.247 286.861Q525.178 287.879 525.058 288.892Q524.938 289.905 524.766 290.911Q524.595 291.916 524.373 292.912Q524.151 293.908 523.878 294.891Q523.62 295.838 523.316 296.771Q523.012 297.704 522.661 298.621Q522.311 299.537 521.916 300.436Q521.52 301.334 521.081 302.211Q520.641 303.089 520.159 303.943Q519.676 304.797 519.151 305.627Q518.627 306.456 518.062 307.259Q517.497 308.061 516.893 308.834Q516.288 309.607 515.646 310.349Q515.005 311.092 514.326 311.801Q513.648 312.51 512.936 313.185Q512.224 313.86 511.478 314.498Q510.733 315.137 509.957 315.738Q509.182 316.338 508.377 316.9Q507.572 317.461 506.74 317.982Q505.909 318.502 505.052 318.981C488.029 328.591 463.141 323.575 444.114 324.437C441.217 320.262 437.644 317.188 432.725 315.635C429.617 314.654 426.986 314.605 424.056 316.231C424.033 316.244 422.637 317.058 422.535 317.1C422.402 317.154 421.261 317.483 421.139 317.415C417.639 315.481 415.5 305.304 405.728 301.895C401.483 300.414 397.359 301.003 393.39 302.96C385.987 306.611 379.88 313.222 379.366 321.756C379.21 324.344 379.824 326.687 378.967 329.2L372.729 324.916L371.819 324.801C360.097 323.4 347.344 324.373 335.522 324.399L265.852 324.567C254.412 324.583 241.233 325.843 230.122 323.003C222.241 320.988 214.663 315.778 209.545 309.513C202.022 300.304 199.326 288.319 200.642 276.612C201.78 266.495 208.816 256.075 216.753 249.878C221.61 246.085 226.84 243.923 232.578 241.903C234.36 224.926 240.703 210.413 254.276 199.482C265.324 190.585 276.857 187.831 290.576 186.44Z"/>
	<path fill="#F15C63" d="M342.989 197.525C353.636 196.421 364.036 197.908 373.25 203.621Q374.125 204.164 374.973 204.751Q375.82 205.338 376.636 205.966Q377.453 206.594 378.237 207.263Q379.022 207.931 379.771 208.638Q380.521 209.345 381.235 210.088Q381.948 210.832 382.624 211.61Q383.299 212.388 383.935 213.199Q384.57 214.011 385.164 214.853Q385.759 215.695 386.31 216.565Q386.861 217.436 387.368 218.333Q387.875 219.23 388.337 220.152Q388.798 221.073 389.213 222.016Q389.628 222.96 389.995 223.923Q390.362 224.886 390.68 225.866Q390.998 226.846 391.267 227.841Q391.536 228.836 391.755 229.843Q391.985 230.868 392.164 231.902Q392.344 232.937 392.472 233.979Q392.6 235.021 392.677 236.068Q392.754 237.116 392.779 238.165Q392.805 239.215 392.778 240.265Q392.752 241.315 392.674 242.362Q392.596 243.409 392.467 244.451Q392.337 245.493 392.157 246.527Q391.977 247.562 391.745 248.586Q391.514 249.611 391.233 250.622Q390.952 251.634 390.621 252.631Q390.291 253.627 389.912 254.606Q389.532 255.586 389.105 256.545Q388.679 257.504 388.205 258.441Q387.731 259.378 387.212 260.291Q386.693 261.204 386.13 262.09C379.236 272.721 368.953 278.197 356.879 280.882C346.742 282.1 336.119 280.106 327.343 274.832Q326.446 274.291 325.576 273.707Q324.707 273.122 323.868 272.495Q323.028 271.868 322.221 271.199Q321.415 270.531 320.642 269.823Q319.87 269.115 319.133 268.37Q318.397 267.624 317.699 266.843Q317.001 266.061 316.342 265.246Q315.684 264.431 315.067 263.584Q314.45 262.737 313.877 261.86Q313.303 260.984 312.773 260.079Q312.244 259.175 311.76 258.246Q311.277 257.316 310.84 256.364Q310.403 255.411 310.015 254.438Q309.626 253.465 309.286 252.474Q308.947 251.482 308.657 250.475Q308.367 249.468 308.128 248.448Q307.894 247.449 307.71 246.441Q307.526 245.432 307.391 244.415Q307.257 243.398 307.172 242.376Q307.087 241.354 307.053 240.329Q307.018 239.304 307.034 238.279Q307.05 237.254 307.116 236.23Q307.182 235.207 307.299 234.188Q307.415 233.169 307.581 232.157Q307.747 231.145 307.962 230.142Q308.178 229.139 308.442 228.149Q308.707 227.158 309.019 226.181Q309.332 225.204 309.692 224.244Q310.052 223.284 310.459 222.343Q310.866 221.401 311.318 220.481Q311.771 219.561 312.268 218.664Q312.765 217.767 313.305 216.895C320.137 205.91 330.801 200.47 342.989 197.525Z"/>
	<path fill="#171465" d="M1229.66 211.562C1266.09 214.788 1302.06 225.464 1326.32 254.474C1339.94 270.761 1354.87 306.19 1353.35 327.344C1353.24 328.821 1352.9 330.033 1352.3 331.378L1244.03 331.361C1231.38 331.338 1202.45 329.527 1192.09 332.265C1248.07 333.044 1304.15 332.459 1360.14 332.343L1407.38 332.227C1416.38 332.209 1425.96 331.61 1434.89 332.823C1439.09 333.393 1442.95 335.938 1445.87 338.911C1451.43 344.566 1453.52 352.2 1453.33 359.962C1453.23 363.801 1453.49 369.114 1451.62 372.507C1452.4 374.039 1452.81 375.4 1452.92 377.105C1454.26 398.229 1453.03 420.041 1452.94 441.261C1452.87 458.704 1453.92 476.512 1453.17 493.913C1453.03 497.277 1452.68 500.796 1451.66 504.019C1449.85 509.744 1445.67 514.128 1440.39 516.87C1428.11 523.255 1326.01 519.002 1301.35 520.118L1296.46 520.062C1296.84 520.587 1297.89 521.709 1298.05 522.268C1299.07 525.924 1298.96 591.447 1297.96 595.557C1297.73 596.489 1297.28 597.343 1296.76 598.143L1212.91 598.107C1199.78 598.106 1184.27 596.534 1171.41 598.898C1166.95 599.717 1163.29 601.868 1160.07 605.027C1152.12 612.817 1151.82 622.89 1151.85 633.35C1151.88 646.29 1154.15 723.796 1151.26 730.627C1148.11 732.784 1090.5 731.409 1082.07 731.385C1082.26 728.154 1046.99 644.849 1042.2 635.506Q1039.92 631.038 1037.08 626.9Q1034.24 622.761 1030.9 619.019C1008.23 593.51 974.435 588.602 942.052 586.598C941.579 591.801 939.9 596.282 936.92 600.59C932.002 607.701 924.149 612.385 915.695 613.917C906.385 615.606 896.24 613.698 888.445 608.247C881.018 603.052 876.743 595.917 875.217 587.07C875.893 569.165 875.357 551.037 875.41 533.106C868.134 528.195 861.179 523.076 854.721 517.11C833.131 497.161 819.349 472.467 818.106 442.779C818.097 432.006 819.386 422.601 821.893 412.132C820.571 410.784 819.635 409.171 818.785 407.495C809.159 388.505 803.848 367.535 810.703 346.7C814.95 333.793 822.116 323.19 831.417 313.373C841.204 303.044 853.009 294.928 867.135 291.944C879.096 289.417 891.234 290.945 903.225 292.345C933.255 295.85 962.468 299.299 991.207 287.274C1020.74 274.916 1032.29 252.445 1055.38 233.856C1062.91 227.798 1072.04 223.708 1080.62 219.36C1085.19 220.713 1090.08 224.014 1094.48 226.021C1107.37 231.894 1120.58 236.16 1134.69 237.797C1149.43 239.507 1186.44 238.191 1198.08 228.976C1202.92 230.725 1238.68 254.291 1241.75 258.311C1243.31 249.837 1230.19 226.061 1228.48 216.035C1228.06 213.619 1228.34 213.534 1229.66 211.562Z"/>
	<path fill="#F0913D" d="M1062.02 517.753C1063.74 517.437 1064.1 517.381 1065.83 517.966C1068.32 521.789 1071.72 528.837 1070.78 533.549C1065.96 536.074 1060.22 535.84 1054.92 535.799L1044.56 534.2C1046.78 532.765 1059.47 520.299 1062.02 517.753Z"/>
	<path fill="#D65B38" d="M993.368 450.88C1000.32 453.639 1005.73 457.157 1008.9 464.217Q1009.12 464.695 1009.31 465.184Q1009.5 465.672 1009.67 466.169Q1009.83 466.667 1009.98 467.172Q1010.12 467.676 1010.24 468.188Q1010.35 468.699 1010.45 469.216Q1010.54 469.732 1010.61 470.253Q1010.67 470.773 1010.71 471.296Q1010.75 471.819 1010.77 472.344Q1010.78 472.868 1010.77 473.393Q1010.76 473.917 1010.73 474.441Q1010.69 474.964 1010.63 475.485Q1010.56 476.006 1010.48 476.523Q1010.39 477.04 1010.27 477.553Q1010.16 478.065 1010.02 478.571Q1009.88 479.077 1009.72 479.576Q1009.56 480.074 1009.37 480.564C1007.27 485.975 1002.72 490.728 997.349 492.95C996.722 493.21 996.088 493.436 995.451 493.672C994.802 493.914 994.163 494.157 993.508 494.382L993.434 484.965L993.61 484.238L993.438 471.225L993.416 460.257L993.368 450.88Z"/>
	<path fill="#171465" d="M993.416 460.257C997.704 463.825 1001.06 467.084 1001.7 472.899C1002.04 475.941 1000.86 479.049 998.763 481.25C997.451 482.625 995.397 483.623 993.61 484.238L993.438 471.225L993.416 460.257Z"/>
	<path fill="#FCD2A5" d="M900.985 416.53C915.996 416.328 983.734 414.269 993.701 417.886C993.043 426.84 993.583 436.203 993.565 445.203L903.918 445.228C903.929 435.191 904.163 426.197 900.985 416.53Z"/>
	<path fill="#F0913D" d="M821.893 412.132C830.091 389.145 844.885 369.67 867.338 358.992Q869.942 357.758 872.636 356.734Q875.329 355.71 878.095 354.901Q880.861 354.092 883.682 353.504Q886.503 352.916 889.361 352.552C904.711 350.615 921.174 351.787 936.681 351.82L1021.27 351.891C1021.38 370.716 1024.54 394.491 1009.96 409.088Q1009.13 409.915 1008.24 410.68Q1007.35 411.445 1006.41 412.144Q1005.47 412.844 1004.48 413.474Q1003.5 414.104 1002.47 414.662Q1001.44 415.22 1000.37 415.702Q999.299 416.184 998.199 416.589Q997.099 416.994 995.973 417.318Q994.847 417.643 993.701 417.886C983.734 414.269 915.996 416.328 900.985 416.53C886.041 415.873 872.878 416.112 861.172 426.867C851.664 435.605 846.874 448.043 846.565 460.819C846.172 477.129 853.425 492.136 864.62 503.659C867.922 507.058 871.561 510.573 875.455 513.271L875.41 533.106C868.134 528.195 861.179 523.076 854.721 517.11C833.131 497.161 819.349 472.467 818.106 442.779C818.097 432.006 819.386 422.601 821.893 412.132Z"/>
	<path fill="#FCD2A5" d="M896.578 450.54Q944.974 450.436 993.368 450.88L993.416 460.257L993.438 471.225L993.61 484.238L993.434 484.965L993.508 494.382C993.824 508.482 994.552 521.729 984.163 532.795C976.641 540.808 966.392 544.073 955.608 544.319C951.332 544.417 946.877 544.099 942.627 543.612C940.199 549.021 941.836 560.773 941.895 567.019C941.931 573.513 941.715 580.119 942.052 586.598C941.579 591.801 939.9 596.282 936.92 600.59C932.002 607.701 924.149 612.385 915.695 613.917C906.385 615.606 896.24 613.698 888.445 608.247C881.018 603.052 876.743 595.917 875.217 587.07C875.893 569.165 875.357 551.037 875.41 533.106L875.455 513.271L875.436 499.583C869.75 497.548 865.657 495.677 862.041 490.644C858.573 485.819 856.772 479.752 857.897 473.832C858.814 469.006 861.486 464.975 865.572 462.242C869.938 459.321 876.537 457.229 881.773 458.586C897.142 462.571 890.823 483.89 895.2 491.765C898.613 483.412 896.635 460.304 896.578 450.54Z"/>
	<path fill="#171465" d="M950.027 466.245C951.416 466.483 953.347 467.116 954.428 468.058C956.071 469.492 956.838 471.614 956.732 473.758C956.591 476.591 954.83 478.296 952.886 480.061C951.085 479.777 948.87 479.242 947.488 477.975C945.855 476.479 945.361 474.651 945.552 472.501C945.796 469.757 948.122 467.95 950.027 466.245Z"/>
	<path fill="#F15C63" d="M873.799 469.698C876.008 470.204 876.773 469.97 878.09 471.89C878.492 475.932 878.838 485.919 876.533 489.065C875.059 488.659 873.201 488.245 872.005 487.252C870.33 485.862 869.371 483.101 869.255 480.991C869.015 476.632 871.055 472.87 873.799 469.698Z"/>
	<path fill="#F48349" d="M955.998 497.923C959.987 498.907 962.241 503.84 966.317 504.715C970.623 505.64 975.352 500.868 979.69 502.295C980.066 504.567 979.484 505.216 978.549 507.272L977.882 507.766C973.596 510.909 969.891 512.008 964.606 511.088C961.232 510.501 958.323 509.201 956.438 506.161C954.544 503.107 955.159 501.096 955.998 497.923Z"/>
	<path fill="#F0913D" d="M993.434 484.965C989.914 487.29 986.662 488.912 982.297 488.271C979.501 487.86 977.182 486.346 975.623 483.991C973.81 481.251 973.305 477.635 973.996 474.454C974.567 471.826 976.098 469.159 978.521 467.842C984.803 464.429 987.742 469.542 993.037 471.117C993.17 471.157 993.304 471.189 993.438 471.225L993.61 484.238L993.434 484.965Z"/>
	<path fill="#F48349" d="M890.915 537.256C908.166 539.445 925.327 541.825 942.627 543.612C940.199 549.021 941.836 560.773 941.895 567.019C921.675 562.326 903.39 554.603 890.915 537.256Z"/>
	<path fill="#FAFAF9" d="M1192.09 332.265C1248.07 333.044 1304.15 332.459 1360.14 332.343L1407.38 332.227C1416.38 332.209 1425.96 331.61 1434.89 332.823C1439.09 333.393 1442.95 335.938 1445.87 338.911C1451.43 344.566 1453.52 352.2 1453.33 359.962C1453.23 363.801 1453.49 369.114 1451.62 372.507C1452.4 374.039 1452.81 375.4 1452.92 377.105C1454.26 398.229 1453.03 420.041 1452.94 441.261C1452.87 458.704 1453.92 476.512 1453.17 493.913C1453.03 497.277 1452.68 500.796 1451.66 504.019C1449.85 509.744 1445.67 514.128 1440.39 516.87C1428.11 523.255 1326.01 519.002 1301.35 520.118L1296.46 520.062L1210.25 520.147C1192.62 520.195 1174.86 520.659 1157.25 519.962C1155.13 516.168 1150.1 514.062 1147.96 509.309C1147.31 507.869 1146.78 506.93 1145.75 505.738C1124.34 514.983 1100.32 522.934 1077.86 529.355C1077.91 529.154 1077.99 528.957 1078.02 528.751C1078.47 525.186 1074.14 516.79 1072.18 513.731C1080.68 511.647 1141.54 490.774 1146.41 486.738C1147.15 485.305 1147.47 483.931 1147.56 482.335C1148.34 468.466 1149.16 350.519 1147.27 344.223C1147.91 343.801 1148.44 343.386 1148.93 342.788C1150.08 341.359 1151.18 339.864 1152.47 338.552C1155.31 335.675 1160.7 332.668 1164.65 331.895C1168.29 331.182 1186.31 332.377 1192.09 332.265Z"/>
	<path fill="#23A7A7" d="M1312.36 467.997C1322.88 465.64 1337.33 467.349 1348.21 467.375L1424.26 467.476C1424.78 468.432 1424.94 469.461 1425.08 470.541C1425.47 473.577 1424.86 475.362 1423.1 477.778L1312.38 478.17C1312.53 477.88 1312.69 477.596 1312.84 477.301C1314.25 474.355 1313.3 470.919 1312.36 467.997Z"/>
	<path fill="#23A7A7" d="M1313.64 443.111L1423.52 443.357C1424.25 444.35 1424.52 445.44 1424.68 446.652C1425.07 449.486 1424.63 451.741 1422.86 453.976C1414.31 455.914 1399.65 454.362 1390.56 454.353L1312.38 454.401C1314.23 451.253 1313.66 446.679 1313.64 443.111Z"/>
	<path fill="#F15C63" d="M1169.72 467.106C1182.3 465.029 1197.41 466.504 1210.2 466.52L1291.86 466.6C1292.17 467.223 1292.19 467.205 1292.41 467.826C1293.71 471.51 1293.06 474.381 1291.44 477.735C1286.95 479.573 1183.32 478.23 1169.57 478.238C1169.65 478.09 1169.73 477.944 1169.81 477.794C1171.62 474.248 1170.93 470.7 1169.72 467.106Z"/>
	<path fill="#F15C63" d="M1170.06 443.107C1182.36 441.408 1196.4 442.682 1208.9 442.709Q1250.23 442.998 1291.55 442.628C1292.17 443.63 1292.49 444.553 1292.73 445.713C1293.38 448.806 1293.09 451.473 1291.3 454.09C1284.78 455.994 1266.26 454.613 1258.38 454.655L1169.53 455.142C1171.75 451.362 1171.08 447.148 1170.06 443.107Z"/>
	<path fill="#23A7A7" d="M1312.95 358.665C1325.26 357.281 1338.68 358.27 1351.09 358.274L1423.77 358.3C1424.19 358.956 1424.48 359.58 1424.64 360.347C1425.94 366.544 1425.88 425.746 1423.78 429.229C1422.31 430.615 1324.72 430.199 1312.35 430.229C1314.84 426.276 1314.41 365.526 1312.95 358.665Z"/>
	<path fill="#F15C63" d="M1383.99 387.998C1386.9 387.614 1389.42 387.52 1392.14 388.786C1395.34 390.272 1397.88 393.419 1398.95 396.746C1399.95 399.82 1399.74 403.259 1398.11 406.081C1396.23 409.314 1393.54 410.797 1390.02 411.624C1388.89 411.824 1387.93 411.933 1386.78 411.809C1383.54 411.461 1380.55 410.092 1378.65 407.355C1376.69 404.523 1376.26 400.563 1376.93 397.223C1377.85 392.625 1380.39 390.533 1383.99 387.998Z"/>
	<path fill="#F0913D" d="M1346.92 381.776C1350.28 380.953 1353.47 380.511 1356.77 381.944C1359.9 383.299 1362.54 386.096 1363.61 389.362C1364.59 392.366 1364.42 395.494 1362.97 398.32C1361.14 401.889 1358.36 403.731 1354.62 404.891C1353.88 405.286 1353.4 405.381 1352.56 405.369C1349.51 405.327 1346.27 404.731 1344.11 402.402C1341.64 399.727 1340.83 396.183 1340.86 392.629C1340.91 387.647 1343.58 385.021 1346.92 381.776Z"/>
	<path fill="#F15C63" d="M1170.54 358.665C1210.66 357.236 1251.24 358.592 1291.42 358.339C1291.99 359.287 1292.42 360.09 1292.6 361.2C1293.65 367.825 1293.6 426.676 1291.43 429.78C1286.77 431.649 1184.43 430.324 1169.63 430.353C1172 426.641 1171.62 366.874 1170.54 358.665Z"/>
	<path fill="#FAFAF9" d="M1187.38 403.111C1196.02 403.052 1228.56 401.047 1234.61 403.798C1234.98 404.449 1235.31 405.009 1235.39 405.768C1235.64 408.121 1235.02 410.25 1233.62 412.12C1227.17 413.787 1195.57 413.277 1188.27 412.327C1186.93 409.625 1187.38 406.078 1187.38 403.111Z"/>
	<path fill="#FAFAF9" d="M1214.11 380.889C1232.62 380.568 1251.17 380.881 1269.68 380.925C1270.11 381.594 1270.14 381.542 1270.36 382.187C1271.42 385.384 1270.96 388.961 1269.49 391.925L1242.14 391.852C1228.71 391.805 1201.03 393.459 1189.19 391.227C1188.06 391.013 1188.07 390.499 1187.45 389.582C1187.22 386.767 1186.66 384.124 1188.17 381.599C1191.34 379.827 1209.24 380.926 1214.11 380.889Z"/>
	<path fill="#171465" d="M1451.62 372.507C1461.47 372.208 1505.51 397.366 1512.24 403.508C1512.57 403.808 1512.98 404.298 1513.25 404.61L1513.04 406.136C1520.39 404.498 1527.49 401.908 1534.96 400.399C1538.96 399.588 1546.04 399.534 1549.38 397.415C1553.39 402.143 1556.76 403.953 1562.64 405.716C1562.56 405.833 1562.47 405.952 1562.38 406.067C1560.46 408.484 1557.52 409.298 1556.67 412.254L1558.37 414.364C1559.99 417.831 1559.81 462.438 1558.3 466.996C1558.04 467.79 1557.6 468.46 1557.14 469.149L1569.98 469.37L1576.77 470.335C1581.55 482.951 1564.86 546.954 1558.78 560.562L1556.95 561.797C1560.97 564.593 1563.8 568.519 1564.71 573.401C1565.53 577.778 1564.04 582.161 1561.5 585.717C1558.3 590.196 1552.86 593.708 1547.38 594.491C1544.21 594.945 1541.12 594.467 1537.99 593.95C1538.24 607.487 1504.12 641.841 1497.45 656.129C1497.33 656.425 1497.21 656.725 1497.08 657.018C1495.75 660.025 1484.77 670.868 1481.86 674.695C1466.66 694.666 1463.17 725.373 1471.2 748.92C1474.41 758.341 1479.76 767.464 1486.19 775.047C1489.25 778.641 1501.95 787.739 1502.93 790.698C1507.5 795.96 1512.89 826.735 1512.52 834.768C1512.49 835.552 1512.46 835.464 1512.25 836.322C1508.73 837.395 1504.92 838.713 1502.84 842.015C1501.36 844.37 1502.37 849.023 1503.18 851.475C1503.47 852.345 1503.79 853.198 1504.11 854.057C1504.32 854.648 1504.25 854.406 1504.34 855.062L1506.36 857.489C1505.96 859.67 1505.26 859.974 1503.7 861.479C1502.41 864.866 1501.94 867.365 1501.82 870.965C1501.81 871.264 1501.79 871.562 1501.77 871.86C1503.09 873.595 1504.9 875.472 1504.77 877.785C1504.74 878.431 1504.65 878.586 1504.47 879.141C1502.89 882.367 1500.23 885.444 1501.32 889.232C1501.94 891.389 1503.67 892.793 1505.62 893.747C1515.06 898.372 1536.71 896.133 1548 896.154C1564.44 898.394 1582.22 897.163 1598.79 897.034C1599.72 902.594 1592.8 924.703 1589.47 929.457C1589.22 929.825 1588.72 930.305 1588.43 930.601L1630.95 930.474C1637.38 930.44 1644.16 929.644 1650.53 930.495C1654.17 930.981 1657.64 931.817 1660.51 934.217C1661.04 935.41 1661.49 935.665 1661.05 936.983C1660.42 938.834 1657.31 941.302 1655.51 941.99C1651.7 943.443 1545.26 942.311 1533.07 942.298L1085.59 941.697L473.913 942.299L254.426 942.491C227.222 942.479 199.979 943.282 172.784 942.857C169.223 942.802 163.725 943.236 160.55 941.429C159.493 940.828 158.775 939.794 158.122 938.799C157.813 936.061 157.726 935.898 159.188 933.589C161.722 931.964 163.964 931.156 166.957 930.794C177.998 929.46 190.021 930.573 201.199 930.668Q229.357 930.799 257.515 930.641L274.507 930.66C295.918 930.635 318.181 929.354 339.499 930.657C348.144 932.132 387.527 932.025 396.366 930.584C403.245 930.44 410.345 929.956 417.193 930.603C416.902 930.341 416.609 930.08 416.333 929.801C414.672 928.123 413.681 926.75 413.466 924.363C412.664 915.471 413.309 906.031 413.348 897.095L413.446 846.592L413.621 680.841L455.382 680.862C468.023 668.046 480.098 655.653 490.923 641.179C503.855 641.179 604.818 642.349 608.514 640.267C621.802 639.983 676.247 642.23 684.753 639.399L685.679 636.86C675.649 634.261 640.917 636.183 628.604 636.2L494.178 636.114C498.929 623.557 503.691 612.454 506.635 599.228C514.867 599.314 523.834 599.949 531.918 598.39C545.417 597.628 559.407 598.102 572.944 598.276C578.655 598.349 584.767 599.046 590.421 598.404C592.734 598.141 596.783 597.544 598.297 595.688C591.161 592.949 520.929 595 507.473 595.066C507.197 581.877 505.537 569.911 502.816 557.028C492.754 557.001 419.467 558.127 415.545 556.563C415.14 556.402 414.337 555.441 413.976 555.106C423.488 551.401 487.074 553.62 502.108 553.687Q501.692 552.156 501.343 550.608C498.691 538.741 500.032 524.095 506.62 513.688C495.291 513.682 419.668 515.79 414.008 511.846C418.747 508.396 496.729 510.238 508.76 510.258C517.306 495.449 530.454 486.129 544.042 476.357L633.852 476.591C649.59 476.6 666.507 477.78 682.087 475.816C682.945 475.659 683.658 475.208 684.435 474.817C685.837 470.853 685.196 465.85 685.11 461.679C704.877 469.832 724.51 478.095 746.283 477.73C769.364 477.342 790.856 469.549 807.484 453.251C810.868 449.934 813.401 445.893 816.699 442.477L818.106 442.779C819.349 472.467 833.131 497.161 854.721 517.11C861.179 523.076 868.134 528.195 875.41 533.106C875.357 551.037 875.893 569.165 875.217 587.07C876.743 595.917 881.018 603.052 888.445 608.247C896.24 613.698 906.385 615.606 915.695 613.917C924.149 612.385 932.002 607.701 936.92 600.59C939.9 596.282 941.579 591.801 942.052 586.598C974.435 588.602 1008.23 593.51 1030.9 619.019Q1034.24 622.761 1037.08 626.9Q1039.92 631.038 1042.2 635.506C1046.99 644.849 1082.26 728.154 1082.07 731.385C1090.5 731.409 1148.11 732.784 1151.26 730.627C1154.15 723.796 1151.88 646.29 1151.85 633.35C1151.82 622.89 1152.12 612.817 1160.07 605.027C1163.29 601.868 1166.95 599.717 1171.41 598.898C1184.27 596.534 1199.78 598.106 1212.91 598.107L1296.76 598.143C1297.28 597.343 1297.73 596.489 1297.96 595.557C1298.96 591.447 1299.07 525.924 1298.05 522.268C1297.89 521.709 1296.84 520.587 1296.46 520.062L1301.35 520.118C1326.01 519.002 1428.11 523.255 1440.39 516.87C1445.67 514.128 1449.85 509.744 1451.66 504.019C1452.68 500.796 1453.03 497.277 1453.17 493.913C1453.92 476.512 1452.87 458.704 1452.94 441.261C1453.03 420.041 1454.26 398.229 1452.92 377.105C1452.81 375.4 1452.4 374.039 1451.62 372.507Z"/>
	<path fill="#FAFAF9" d="M629.356 595.102C644.241 594.995 667.947 593.343 681.784 595.098C684.432 595.434 684.516 595.832 686.143 597.88C677.921 599.162 636.889 599.887 630.352 597.792L629.356 595.102Z"/>
	<path fill="#FAFAF9" d="M502.816 557.028C492.754 557.001 419.467 558.127 415.545 556.563C415.14 556.402 414.337 555.441 413.976 555.106C423.488 551.401 487.074 553.62 502.108 553.687C524.881 553.711 681.07 552.356 684.825 554.711L684.657 556.215C681.284 558.22 521.791 557.032 502.816 557.028Z"/>
	<path fill="#FAFAF9" d="M508.76 510.258C530.935 510.266 677.146 508.494 684.933 511.496L684.731 512.36C671.622 515.794 638.126 513.704 622.917 513.698L506.62 513.688C495.291 513.682 419.668 515.79 414.008 511.846C418.747 508.396 496.729 510.238 508.76 510.258Z"/>
	<path fill="#F15C63" d="M1537.99 593.95C1537.12 593.074 1535.74 592.363 1534.73 591.618C1530 588.125 1527.16 583.065 1526.42 577.218Q1526.31 576.424 1526.28 575.624Q1526.26 574.823 1526.31 574.024Q1526.36 573.224 1526.49 572.434Q1526.62 571.643 1526.83 570.87Q1527.04 570.096 1527.32 569.347Q1527.6 568.598 1527.96 567.881Q1528.32 567.164 1528.74 566.486Q1529.17 565.807 1529.66 565.175C1533.03 560.862 1538.39 558.451 1543.75 557.902C1548.74 557.392 1553.06 558.7 1556.95 561.797C1560.97 564.593 1563.8 568.519 1564.71 573.401C1565.53 577.778 1564.04 582.161 1561.5 585.717C1558.3 590.196 1552.86 593.708 1547.38 594.491C1544.21 594.945 1541.12 594.467 1537.99 593.95Z"/>
	<path fill="#B3C2DA" d="M1296.46 520.062L1301.35 520.118C1303.42 524.343 1303.73 591.804 1302 596.475C1301.78 597.077 1301.45 597.616 1301.1 598.143L1405.6 598.129C1419.15 598.126 1437.38 596.468 1450.44 598.511C1454.38 599.128 1458.26 600.881 1461.14 603.684C1462.55 605.06 1464.22 606.838 1464.31 608.905C1464.33 609.245 1464.28 609.585 1464.26 609.925C1467.15 612.242 1468 614.724 1468.39 618.283C1469.15 625.325 1469.46 658.305 1467.44 664.081L1466.32 664.856C1459.56 657.566 1469.05 622.11 1461.59 613.297C1461.33 610.618 1459.65 608.064 1457.57 606.369C1454.17 603.588 1449.66 602.748 1445.38 602.466C1428.54 601.356 1410.92 602.503 1394.01 602.524L1287.42 602.619L1210.42 602.656C1199.16 602.655 1186.78 601.432 1175.64 602.73C1170.08 603.378 1165.33 605.319 1161.8 609.796C1158.7 613.728 1157.17 618.538 1156.49 623.444C1155.2 632.757 1156.08 643.161 1156.12 652.603L1156.38 708.856C1156.4 714.981 1157.66 725.283 1155 730.694C1153.87 731.02 1152.43 730.716 1151.26 730.627C1154.15 723.796 1151.88 646.29 1151.85 633.35C1151.82 622.89 1152.12 612.817 1160.07 605.027C1163.29 601.868 1166.95 599.717 1171.41 598.898C1184.27 596.534 1199.78 598.106 1212.91 598.107L1296.76 598.143C1297.28 597.343 1297.73 596.489 1297.96 595.557C1298.96 591.447 1299.07 525.924 1298.05 522.268C1297.89 521.709 1296.84 520.587 1296.46 520.062Z"/>
	<path fill="#62DBE2" d="M1549.38 397.415C1553.39 402.143 1556.76 403.953 1562.64 405.716C1562.56 405.833 1562.47 405.952 1562.38 406.067C1560.46 408.484 1557.52 409.298 1556.67 412.254L1558.37 414.364C1559.99 417.831 1559.81 462.438 1558.3 466.996C1558.04 467.79 1557.6 468.46 1557.14 469.149C1549.63 470.038 1541.22 469.415 1533.64 469.414L1487 469.324C1489.12 465.845 1488.6 460.92 1488.75 456.941C1489.29 443.1 1490.59 425.905 1501.17 415.614C1504.72 412.161 1509.14 409.829 1512.72 406.45C1512.83 406.347 1512.93 406.241 1513.04 406.136C1520.39 404.498 1527.49 401.908 1534.96 400.399C1538.96 399.588 1546.04 399.534 1549.38 397.415Z"/>
	<path fill="#F36CA7" d="M575.383 759.121C587.262 759.054 628.524 756.604 636.797 761.04C637.066 762.257 637.236 763.459 637.366 764.698C638.796 778.362 638.127 792.56 638.115 806.301L638.082 873.977L638.07 908.727C638.072 913.762 638.691 919.874 637.912 924.808C637.593 926.826 635.543 928.998 634.279 930.563C625.317 931.815 583.835 932.259 576.16 929.89C574.786 929.466 574.846 929.567 574.156 928.426C572.477 925.653 572.629 920.94 572.457 917.695C570.821 886.769 572.226 854.938 572.231 823.918C572.234 806.641 570.695 780.519 572.6 764.565C572.885 762.179 573.821 760.852 575.383 759.121Z"/>
	<path fill="#F15C63" d="M492.942 720.105L557.836 720.275L558.062 854.759C558.077 877.343 559.373 900.639 557.934 923.132C557.789 925.385 557.256 927.192 556.172 929.172C555.216 929.734 554.228 930.25 553.162 930.575C546.887 932.49 510.752 931.911 503.394 931.094C500.265 930.747 497.564 930.056 494.737 928.68C493.176 926.423 493.328 924.695 493.184 921.976C492.004 899.692 493.085 876.751 493.102 854.41L492.942 720.105Z"/>
	<path fill="#F0913D" d="M455.382 680.862L479.217 680.872L479.339 850.422C479.363 865.907 481.399 916.394 478.063 928.177C472.508 931.937 425.849 932.402 417.81 930.741C417.604 930.698 417.399 930.649 417.193 930.603C416.902 930.341 416.609 930.08 416.333 929.801C414.672 928.123 413.681 926.75 413.466 924.363C412.664 915.471 413.309 906.031 413.348 897.095L413.446 846.592L413.621 680.841L455.382 680.862Z"/>
	<path fill="#FAFAF9" d="M1270.15 670.665C1289.99 669.39 1310.28 670.451 1330.17 670.357C1347.71 670.275 1366.18 668.888 1383.63 670.433C1386.48 670.685 1388.91 671.312 1391.39 672.794C1396.51 675.854 1400 681.041 1401.43 686.765C1403.85 696.463 1402.19 754.539 1402.19 768.631L1402.21 861.914C1402.22 877.989 1402.88 894.371 1402.1 910.419C1401.9 914.722 1401.68 918.612 1399.32 922.368C1396.13 927.431 1391.34 930.267 1385.6 931.49C1371.57 933.44 1355.61 931.958 1341.34 931.936C1320.54 931.904 1299.09 932.91 1278.36 931.555C1274.37 931.294 1270.34 930.633 1266.56 929.311C1262.06 927.738 1259.5 924.402 1257.48 920.181C1256.43 917.971 1255.84 915.78 1255.72 913.335C1254.61 892.176 1254.67 688.343 1256.68 682.976C1258.99 676.784 1264.43 673.31 1270.15 670.665Z"/>
	<path fill="#171465" d="M1307.87 682.22C1314.75 681.36 1347.46 680.174 1352.38 682.961L1352.89 684.937L1351.08 686.669C1351.02 686.713 1350.97 686.765 1350.9 686.8C1346.39 689.145 1315.42 688.749 1309.62 686.866C1307.86 685.06 1308.04 684.786 1307.87 682.22Z"/>
	<path fill="#565ADB" d="M1326.73 905.331C1329.38 904.824 1331.87 904.549 1334.38 905.761C1336.96 907.01 1338.97 909.199 1339.87 911.938C1340.59 914.123 1340.39 916.353 1339.27 918.372C1337.69 921.222 1335.25 922.122 1332.31 922.855C1331.62 923.213 1331.84 923.185 1331.13 923.249C1329.18 923.423 1326.66 923.484 1325.15 922.126C1322.89 920.09 1322.26 917.296 1322.17 914.377C1322.04 910.245 1324.07 908.128 1326.73 905.331Z"/>
	<path fill="#565ADB" d="M1263.59 699.109C1278.56 697.867 1294.17 698.638 1309.22 698.645L1391.42 698.721C1391.86 699.59 1392.26 700.422 1392.48 701.38C1394.45 709.936 1392.88 751.592 1392.91 763.536L1393.26 849.047C1393.3 863.131 1393.95 877.507 1393.25 891.549C1393.16 893.422 1392.88 894.623 1391.85 896.212C1387.23 898.065 1277.02 896.851 1262.85 896.858C1263.02 896.591 1263.21 896.333 1263.37 896.057C1264.23 894.537 1264.29 892.511 1264.36 890.794C1265.91 850 1264.53 808.715 1264.51 767.856C1264.51 755.424 1266.27 708.562 1263.59 699.109Z"/>
	<path fill="#FAFAF9" d="M1283.97 792.443C1292.68 791.221 1317.67 790.439 1325.13 793.444C1326.56 794.02 1326.47 794.067 1327.1 795.461C1326.06 798.078 1325.97 797.991 1323.41 799.215C1315.21 799.451 1290.65 801.882 1284.29 797.991C1283.14 795.707 1283.54 794.879 1283.97 792.443Z"/>
	<path fill="#FAFAF9" d="M1283.52 755.997C1292.38 754.211 1337.51 754.11 1345.67 755.746C1347.96 756.206 1348.81 756.607 1350.12 758.512C1349.17 760.799 1348.79 760.901 1346.65 762.223C1342.06 763.625 1292.63 763.19 1285.17 762.175C1283.51 760.035 1283.72 758.633 1283.52 755.997Z"/>
	<path fill="#FAFAF9" d="M1288.3 772.889L1341.9 773.03C1348.78 773.016 1357.13 771.778 1363.8 773.055C1366.8 773.63 1368.92 774.42 1370.66 776.967L1370.13 778.507C1367.82 780.173 1365.8 780.121 1363.08 780.193C1338.93 780.141 1314.09 781.743 1290.03 780.365C1287.29 780.208 1285.7 780.054 1283.88 777.976C1283.68 775.524 1283.68 775.387 1285.02 773.335L1288.3 772.889Z"/>
	<path fill="#FAFAF9" d="M1284.47 737.332C1293.51 736.366 1370.66 736.317 1372.82 737.878C1373.84 738.613 1373.69 739.356 1373.9 740.52C1372.65 743.111 1372.31 743.078 1369.66 744.318C1361.51 745.104 1290.03 745.377 1285.87 743.972C1285.28 743.771 1284.48 743.105 1283.93 742.757C1283.42 740.325 1283.68 739.725 1284.47 737.332Z"/>
	<path fill="#F48349" d="M1285.58 825.331C1294.77 823.937 1305.03 824.75 1314.36 824.746L1371.58 824.916C1371.66 825.063 1371.73 825.211 1371.81 825.356C1372.24 826.138 1372.68 826.943 1372.89 827.817C1373.87 831.985 1374.28 861.928 1372.84 865.704C1372.55 866.438 1371.82 867.318 1371.38 868.002C1364.31 870.509 1297.19 868.627 1284.31 868.524C1287.85 862.722 1286.32 833.204 1285.58 825.331Z"/>
	<path fill="#B1B4E3" d="M1082.07 731.385C1090.5 731.409 1148.11 732.784 1151.26 730.627C1152.43 730.716 1153.87 731.02 1155 730.694C1155.21 730.75 1155.41 730.811 1155.63 730.862C1168.16 733.867 1198.84 725.5 1206.15 738.109C1208.04 741.371 1208.08 745.219 1207.5 748.837C1205.72 759.845 1202.07 770.871 1199.2 781.668C1195.12 797.046 1191.39 812.546 1187.45 827.967L1173.48 883.819C1171.15 893.141 1169.19 902.845 1166.26 911.98C1163.67 920.049 1161.1 925.367 1153.36 929.427C1150.84 930.749 1148.32 931.329 1145.5 931.536C1119.08 933.474 1091.73 931.972 1065.2 931.94L902.967 931.868C900.44 930.27 897.56 928.672 895.981 926.043C890.216 916.445 900.118 891.954 902.971 880.943L904.69 874.29C907.033 868.298 908.107 860.791 909.697 854.508Q918.596 819.777 927.05 784.936C930.201 772.026 932.654 758.184 937.075 745.655C938.492 741.638 940.522 737.298 943.641 734.301C949.237 728.926 1002.77 731.497 1013.49 731.48L1020.19 731.463C1038.94 731.57 1063.74 733.094 1082.07 731.385Z"/>
	<path fill="#565ADB" d="M1060.23 803.991C1065.28 803.333 1069.89 803.793 1074.29 806.514C1078.87 809.337 1081.5 813.949 1082.67 819.105C1084.53 827.306 1082.35 836.017 1077.83 842.983C1073.37 849.86 1067.47 854.261 1059.46 855.968C1055.89 856.847 1051.84 856.023 1048.48 854.656C1044.52 853.043 1041.93 850.195 1040.3 846.278C1037.13 838.672 1037.67 829.464 1040.94 821.996C1044.89 812.938 1051.14 807.49 1060.23 803.991Z"/>
	<path fill="#23A7A7" d="M942.052 586.598C974.435 588.602 1008.23 593.51 1030.9 619.019Q1034.24 622.761 1037.08 626.9Q1039.92 631.038 1042.2 635.506C1046.99 644.849 1082.26 728.154 1082.07 731.385C1063.74 733.094 1038.94 731.57 1020.19 731.463L1013.49 731.48C1002.77 731.497 949.237 728.926 943.641 734.301C940.522 737.298 938.492 741.638 937.075 745.655C932.654 758.184 930.201 772.026 927.05 784.936Q918.596 819.777 909.697 854.508C908.107 860.791 907.033 868.298 904.69 874.29L902.971 880.943C900.118 891.954 890.216 916.445 895.981 926.043C897.56 928.672 900.44 930.27 902.967 931.868C881.061 933.477 858.089 932.092 836.044 932.086C820.196 932.081 800.708 933.749 785.389 931.571C779.124 930.68 773.013 929.1 768.156 924.859C760.573 918.237 755.714 909.739 755.075 899.633C754.041 883.297 754.805 866.516 754.83 850.138L754.859 761.366L754.929 695.968C754.984 684.122 754.078 671.137 756.241 659.49C758.627 646.644 765.586 633.345 774.213 623.571C798.938 595.558 839.923 589.292 875.217 587.07C876.743 595.917 881.018 603.052 888.445 608.247C896.24 613.698 906.385 615.606 915.695 613.917C924.149 612.385 932.002 607.701 936.92 600.59C939.9 596.282 941.579 591.801 942.052 586.598Z"/>
	<path fill="#171465" d="M1013.49 731.48C1013.4 722.926 1011.52 688.517 1014.82 683.012L1016.94 681.477C1018.24 681.838 1018.57 681.694 1019.19 682.922C1021.65 687.815 1020.78 723.541 1020.19 731.463L1013.49 731.48Z"/>
	<path fill="#171465" d="M821.199 873.985Q820.737 800.539 821.016 727.098C821.042 718.97 819.502 695.417 821.334 689.306C821.951 687.247 822.284 686.911 824.117 685.868L826.155 686.464C827.82 688.454 827.818 690.51 827.975 693.008C829.091 710.772 827.755 731.936 827.777 750.107L828.1 874.109Q866.394 874.515 904.69 874.29L902.971 880.943L799.746 880.801C797.939 879.785 797.468 879.064 796.647 877.179L797.393 875.52C802.954 872.224 814.661 873.845 821.199 873.985Z"/>
</svg>
