<?xml version="1.0" encoding="utf-8" ?>
<svg xmlns="http://www.w3.org/2000/svg" xmlns:xlink="http://www.w3.org/1999/xlink" width="1820" height="1024">
	<path fill="#FEFEFE" d="M0 0L1818.44 0C1820.58 3.35778 1819.99 8.22266 1820 12.0828L1820 742.336L1820.01 943.951L1820 997.417C1819.99 1004.76 1820.98 1013.76 1819.75 1020.9C1819.56 1022.02 1819.05 1023.05 1818.44 1024L0 1024L0 0Z"/>
	<path fill="#F45141" d="M959.271 221.216C963.81 216.391 968.234 210.498 975.498 210.407C977.665 210.38 978.973 211.074 980.605 212.415C982.253 215.067 982.47 217.294 981.804 220.321C980.475 226.356 976.293 230.147 972.215 234.485C968.779 232.065 961.676 224.768 959.271 221.216Z"/>
	<path fill="#F45141" d="M907.104 353.209L908.084 354.992C912.872 356.258 917.767 355.357 922.634 355.644C922.714 363.857 924.524 375.377 919.601 382.272L912.166 383.923C901.47 377.712 907.901 365.807 905.248 356.179L903.104 355.276L905.921 354.886L907.104 353.209Z"/>
	<path fill="#FCA731" d="M1098.32 164.874C1099.84 164.602 1101.31 164.648 1102.84 164.674C1104.45 165.816 1105.46 166.276 1106.12 168.235C1107.08 171.083 1106.02 174.606 1104.83 177.205C1109.47 177.315 1114.8 176.306 1118.41 179.801C1119.56 180.913 1119.33 181.14 1119.35 182.74C1119.06 183.059 1118.77 183.381 1118.46 183.679C1114.99 186.996 1109.54 186.091 1105.08 186.006C1105.97 187.882 1106.57 190.378 1106.57 192.468C1106.58 195.242 1105.9 196.353 1104.01 198.244C1102.86 199.13 1101.92 199.058 1100.5 199.247C1096.79 196.272 1098.06 190.911 1096.71 186.601C1096.64 186.385 1096.57 186.17 1096.49 185.955C1093.92 186.007 1090.09 186.434 1087.81 185.086C1085.81 183.9 1085.53 183.282 1085.1 181.163C1085.57 180.405 1086.07 179.69 1086.71 179.065C1088.98 176.863 1093.48 177.315 1096.41 177.249C1097.96 173.62 1097.66 168.83 1098.32 164.874Z"/>
	<path fill="#FC9722" d="M1495.28 231.553C1498.12 231.446 1498.88 231.21 1501.31 232.896C1503.55 236.933 1502.35 241.154 1501.32 245.386C1506.42 245.309 1511.87 244.367 1515.8 248.147C1515.96 250.492 1515.89 250.845 1514.78 252.917C1511.54 254.919 1507.37 253.66 1503.67 254.483C1501.7 257.445 1503.22 259.066 1502.69 262.339C1502.29 264.831 1501.39 265.118 1499.44 266.458C1498.06 266.741 1497.45 266.782 1496.13 266.216C1492.52 264.674 1494.77 258.184 1493.42 254.849C1490.74 253.081 1487.07 254.473 1484.02 253.951C1482.06 253.616 1481.7 253.015 1480.59 251.538C1480.54 248.893 1480.43 248.581 1481.95 246.462C1485.09 244.852 1488.75 245.296 1492.18 245.345C1494.77 241.301 1493.1 236.038 1495.28 231.553Z"/>
	<path fill="#2599DD" d="M698.188 338.206C699.699 338.736 701.188 339.426 702.668 340.042C704.91 343.028 704.087 346.877 704.797 350.627C706.333 351.952 706.546 351.698 708.501 351.725C711.992 351.773 713.863 351.656 716.371 354.228C716.913 356.37 716.931 357.461 716.066 359.508C713.393 361.534 710.898 360.514 707.829 360.875C703.649 361.368 705.147 369.581 701.825 373.66C698.963 372.843 697.08 372.304 695.187 370.01C695.4 367.208 695.34 365.101 694.643 362.342C692.781 360.266 689.961 361.436 687.312 360.888C685.641 360.542 684.046 359.915 683.308 358.235C682.432 356.238 682.741 354.965 683.404 353.068C685.572 351.492 688.221 351.961 690.773 351.771C697.079 351.303 692.825 344.445 698.188 338.206Z"/>
	<path fill="#FC9722" d="M1195.72 289.327C1197.48 289.079 1199.59 288.873 1201.23 289.611C1206.1 291.794 1202.38 296.491 1204.06 300.503C1206.89 302.573 1210.63 300.492 1213.85 301.766C1215.27 302.328 1217.03 304.173 1217.48 305.617C1217.9 306.95 1217.67 307.219 1217 308.302C1213.65 310.633 1207.82 310.695 1203.79 311.219C1202.54 313.899 1203.2 316.089 1203.26 319.024C1201.92 321.135 1201.33 321.39 1199.08 322.559C1198.65 322.573 1198.49 322.604 1198.02 322.464C1192.05 320.681 1196.33 314.551 1193.89 311.151C1193 309.924 1186.18 310.44 1184.28 309.901C1182.08 309.283 1181.76 308.59 1180.85 306.71C1181.01 304.482 1181.47 303.374 1182.83 301.602C1185.6 300.005 1189.5 301.293 1192.66 301.184C1195.02 298.502 1193.68 292.921 1195.72 289.327Z"/>
	<path fill="#FCA731" d="M1610.97 582.665L1615.22 582.054C1616.82 582.742 1618.13 583.525 1618.92 585.142C1620.1 587.546 1620.1 591.038 1619.3 593.524Q1621.34 593.645 1623.37 593.823C1627 594.149 1629.11 594.553 1631.56 597.472C1631.74 599.31 1631.96 599.693 1630.68 601.178C1628.17 604.101 1623.48 603.929 1619.93 604.261C1620.3 605.817 1620.2 607.691 1619.95 609.278C1619.5 612.253 1618.09 613.553 1615.8 615.277L1614.87 615.677L1612.96 615.376C1609.85 614.886 1609.85 608.017 1608.6 605.767C1607 602.863 1601.08 603.927 1598.26 601.598C1597.47 599.595 1597.45 598.552 1598.02 596.48C1600.66 594.018 1604.53 593.714 1608.02 592.926C1610.06 590.533 1610.33 585.809 1610.97 582.665Z"/>
	<path fill="#FDC75A" d="M269.086 549.937C279.598 553.325 272.778 559.117 277.037 561.085C280.793 562.821 286.038 561.99 288.886 565.612C289.443 574.293 279.021 570.078 276.636 574.299C274.707 577.715 274.975 581.18 272.192 584.652C271.058 584.405 269.618 584.164 268.572 583.633C265.233 581.938 266.242 578.088 264.716 575.193C263.304 572.513 258.356 572.08 255.615 571.257C253.887 569.529 253.725 569.043 253.099 566.659C255.777 560.435 261.91 563.91 264.46 559.808C266.767 556.098 265.167 553.946 269.086 549.937Z"/>
	<path fill="#43C4BC" d="M469.883 879.938C473.912 884.893 478.004 889.252 482.724 893.554C476.429 901.222 468.715 907.129 458.584 908.165C442.851 909.773 425.894 908.558 410.048 908.528C391.31 908.493 372.002 909.414 353.317 908.311C372.491 906.11 396.839 907.686 416.527 907.646C433.429 897.254 452.104 888.739 469.883 879.938Z"/>
	<path fill="#FCA731" d="M208.233 442.04C213.11 441.657 218.183 442.384 222.54 444.693Q223.012 444.939 223.471 445.209Q223.929 445.479 224.374 445.772Q224.818 446.065 225.247 446.38Q225.677 446.695 226.089 447.031Q226.502 447.367 226.897 447.724Q227.292 448.081 227.668 448.457Q228.045 448.834 228.402 449.229Q228.759 449.624 229.095 450.036Q229.432 450.449 229.747 450.878Q230.062 451.307 230.355 451.751Q230.648 452.195 230.918 452.654Q231.188 453.113 231.435 453.585Q231.681 454.057 231.904 454.54Q232.126 455.024 232.323 455.518Q232.521 456.013 232.693 456.516Q232.865 457.02 233.012 457.532Q233.166 458.056 233.293 458.586Q233.421 459.117 233.521 459.653Q233.622 460.189 233.697 460.73Q233.771 461.27 233.818 461.814Q233.866 462.357 233.886 462.902Q233.907 463.448 233.9 463.993Q233.893 464.539 233.859 465.083Q233.826 465.628 233.765 466.17Q233.704 466.712 233.617 467.251Q233.529 467.79 233.415 468.323Q233.301 468.857 233.161 469.384Q233.02 469.911 232.854 470.431Q232.688 470.95 232.496 471.461Q232.304 471.972 232.087 472.472Q231.87 472.973 231.628 473.462Q231.387 473.951 231.121 474.428C227.229 481.277 221.232 484.092 213.882 486C209.19 485.979 204.896 485.532 200.66 483.349Q200.175 483.102 199.703 482.83Q199.232 482.559 198.774 482.263Q198.317 481.968 197.875 481.65Q197.433 481.333 197.008 480.993Q196.582 480.653 196.175 480.292Q195.767 479.931 195.378 479.55Q194.99 479.169 194.621 478.769Q194.252 478.368 193.903 477.95Q193.555 477.532 193.229 477.096Q192.902 476.66 192.598 476.209Q192.293 475.758 192.013 475.291Q191.732 474.825 191.475 474.345Q191.217 473.865 190.985 473.373Q190.753 472.88 190.545 472.377Q190.338 471.873 190.157 471.36Q189.975 470.847 189.82 470.325Q189.666 469.807 189.538 469.283Q189.41 468.758 189.309 468.228Q189.208 467.697 189.133 467.162Q189.059 466.627 189.012 466.09Q188.964 465.552 188.944 465.012Q188.924 464.472 188.931 463.932Q188.938 463.392 188.972 462.853Q189.006 462.315 189.067 461.778Q189.128 461.241 189.216 460.709Q189.304 460.176 189.419 459.648Q189.534 459.12 189.675 458.599Q189.816 458.078 189.984 457.565Q190.151 457.051 190.344 456.547Q190.537 456.042 190.755 455.548Q190.973 455.054 191.216 454.572Q191.458 454.09 191.725 453.62C195.426 447.122 201.222 443.941 208.233 442.04Z"/>
	<path fill="#FEFEFE" d="M208.97 451.581C210.594 451.594 212.245 451.623 213.834 451.991C217.264 452.786 220.244 454.804 222.071 457.835C223.684 460.513 223.915 463.753 223.104 466.738C221.75 471.727 218.377 473.939 214.132 476.36C212.647 476.373 211.106 476.381 209.642 476.09C205.999 475.365 202.501 473.286 200.604 470.021C198.986 467.236 198.79 463.885 199.739 460.84C201.272 455.92 204.661 453.868 208.97 451.581Z"/>
	<path fill="#DCF2F8" d="M1263.51 392.069C1276.46 395.922 1289.17 399.659 1301.26 405.829C1308.49 409.522 1321.66 419.7 1328.22 421.488C1329.39 424.805 1328.2 429.582 1326.69 432.682C1326.43 433.225 1326.12 433.685 1325.73 434.139C1320.16 433.973 1308.05 432.168 1303.59 435.93C1302.36 436.97 1301.43 438.611 1300.57 439.965C1301.18 442.664 1301.87 446.458 1300.43 449.004C1300.33 449.185 1300.18 449.337 1300.06 449.504C1294.18 448.469 1288.27 447.204 1282.3 447.014C1282.22 446.322 1282.26 446.311 1281.92 445.566C1279.3 439.888 1269.41 434.994 1263.67 433.765C1264.9 429.254 1265.17 425.416 1262.89 421.212C1263.31 420.616 1263.68 420.006 1263.98 419.338C1266.1 414.556 1265.35 396.818 1263.51 392.069Z"/>
	<path fill="#1FB6BB" d="M457.995 851.94C460.554 862.295 463.737 871.085 469.883 879.938C452.104 888.739 433.429 897.254 416.527 907.646C396.839 907.686 372.491 906.11 353.317 908.311L349.171 908.41C352.119 904.206 446.143 857.806 457.995 851.94Z"/>
	<path fill="#FCA731" d="M1299.97 149.349C1310.29 145.849 1316.89 140.566 1328.37 138.631C1331.62 142.947 1331.1 153.599 1330.24 159.067C1330.04 160.36 1329.77 161.577 1329.22 162.769C1329.08 162.852 1328.94 162.936 1328.8 163.016C1314.76 171.134 1305.94 172.597 1300.95 190.267Q1300.69 191.204 1300.47 192.153Q1300.25 193.102 1300.09 194.06Q1299.92 195.019 1299.8 195.984Q1299.68 196.95 1299.6 197.921Q1299.53 198.891 1299.51 199.864Q1299.49 200.837 1299.51 201.81Q1299.54 202.783 1299.61 203.753Q1299.68 204.723 1299.81 205.689Q1299.93 206.654 1300.1 207.613Q1300.27 208.571 1300.49 209.519Q1300.71 210.468 1300.97 211.404Q1301.24 212.34 1301.55 213.262Q1301.86 214.184 1302.22 215.089Q1302.57 215.994 1302.98 216.881Q1303.38 217.767 1303.83 218.632Q1304.27 219.496 1304.76 220.338C1310.02 229.432 1319.01 236.527 1329.22 239.149Q1331.41 239.703 1333.62 240.149C1341.08 241.412 1342.15 241.014 1346.76 247.517C1349.03 250.71 1353.89 256.237 1353.28 260.089C1353.26 260.196 1353.22 260.297 1353.19 260.4C1351.32 261.776 1347.75 262.052 1345.45 262.554C1346.31 265.87 1347.23 271.213 1346.03 274.522C1345.02 277.294 1343.17 279.89 1340.47 281.18C1339 281.879 1337.31 282.002 1335.78 281.315C1327.53 277.61 1331.95 269 1329.17 262.819C1329.1 262.648 1329.01 262.484 1328.92 262.317C1325.71 261.184 1322.36 260.717 1319.18 259.433C1312.51 256.737 1306.52 252.956 1300.01 249.962C1299.96 250.166 1299.94 250.376 1299.87 250.573C1299.09 252.751 1295.63 256.07 1293.62 257.075C1290.87 258.442 1286.99 258.641 1284.18 257.462C1282.51 256.759 1281.15 255.374 1280.59 253.628C1278.5 247.05 1284.92 244.189 1287.36 239.245C1287.5 238.959 1287.64 238.668 1287.77 238.38C1287.6 237.703 1287.4 237.185 1287.03 236.591C1282.9 229.994 1276.08 211.131 1274.03 208.731C1268.97 208.911 1263.07 209.83 1259 206.137C1257.25 204.553 1255.85 202.593 1255.87 200.138C1255.89 197.906 1257.31 195.868 1258.92 194.437C1263.2 190.644 1268.79 191.683 1274.04 191.943C1277.01 188.912 1279.41 178.471 1281.44 174.107C1283.24 170.241 1286.95 165.831 1287.56 161.695C1287.42 159.66 1284.95 157.608 1283.77 155.934C1281.6 152.868 1281.07 149.95 1281.75 146.286C1282.13 144.193 1283.04 142.214 1284.88 141.039C1286.2 140.194 1288.08 140.109 1289.57 140.609C1292.65 141.652 1298.48 146.489 1299.97 149.349Z"/>
	<path fill="#F45141" d="M903.855 208.502C903.681 202.75 902.864 196.702 905.762 191.478C907.066 189.126 909.003 186.944 911.732 186.334C913.778 185.876 916.007 186.417 917.676 187.668C919.957 189.378 921.383 191.592 921.713 194.441C921.436 198.943 921.224 203.389 921.282 207.903L907.201 207.932L907.132 237.772C893.73 241.18 882.665 246.838 875.228 259.07Q874.653 260.027 874.126 261.011Q873.599 261.995 873.122 263.005Q872.645 264.014 872.22 265.046Q871.794 266.078 871.42 267.13Q871.047 268.182 870.727 269.252Q870.406 270.321 870.14 271.405Q869.873 272.489 869.662 273.585Q869.45 274.682 869.293 275.787Q869.136 276.892 869.035 278.004Q868.934 279.116 868.889 280.231Q868.843 281.347 868.854 282.463Q868.865 283.58 868.931 284.694Q868.997 285.808 869.12 286.918Q869.242 288.028 869.419 289.13Q869.597 290.232 869.829 291.324Q870.062 292.416 870.349 293.495Q870.632 294.575 870.969 295.638Q871.306 296.702 871.697 297.748Q872.088 298.793 872.531 299.817Q872.974 300.841 873.468 301.842Q873.962 302.843 874.506 303.817Q875.05 304.791 875.643 305.737Q876.236 306.682 876.876 307.596Q877.515 308.511 878.201 309.392Q878.886 310.272 879.615 311.117Q880.344 311.962 881.115 312.769Q881.885 313.576 882.696 314.343Q883.506 315.11 884.355 315.835Q885.203 316.56 886.087 317.241Q886.971 317.922 887.888 318.557Q888.805 319.193 889.753 319.781Q890.701 320.369 891.678 320.909C896.674 323.704 901.899 325.099 907.429 326.355C907.423 335.175 908.016 344.451 907.104 353.209L905.921 354.886L903.104 355.276C889.911 353.788 878.134 347.144 867.355 339.837C862.335 345.028 856.6 352.355 849.038 353.487C846.175 353.916 844.703 353.394 842.463 351.739C841.937 350.497 841.505 349.275 841.522 347.905C841.628 339.286 849.814 332.806 855.498 327.45C847.503 316.231 843.238 304.491 840.685 291.043C836.548 290.984 831.806 291.338 827.742 290.599C823.215 289.776 819.062 287.531 816.53 283.653C816.357 282.403 815.983 281.307 816.459 280.107C817.649 277.11 820.887 275.545 823.675 274.393C829.005 272.192 835.534 272.994 841.212 273.114C842.792 259.326 848.7 247.399 855.972 235.797C850.842 230.538 843.472 224.223 843.663 216.189C843.717 213.903 844.274 212.317 845.941 210.758C847.53 210.047 848.911 209.603 850.679 209.753C858.786 210.443 864.003 217.729 868.923 223.334C879.745 215.377 890.412 210.242 903.855 208.502Z"/>
	<path fill="#FC9722" d="M216.63 730.55L216.399 667.745C216.35 658.514 214.993 647.979 216.571 638.903C216.954 636.702 217.911 633.265 219.943 632.082C222.967 630.322 228.193 629.842 231.643 629.569C240.908 628.836 296.382 628.257 302.593 629.907C307.679 631.259 310.218 634.949 312.513 639.32C313.74 648.393 312.921 658.336 312.909 667.516C312.882 688.505 312.44 709.601 312.996 730.579C280.891 730.184 248.739 730.547 216.63 730.55Z"/>
	<path fill="#FDC75A" d="M1328.37 138.631C1333.63 131.244 1324.65 117.826 1337.33 115.726Q1337.74 115.66 1338.16 115.637Q1338.58 115.613 1339 115.632Q1339.42 115.651 1339.84 115.713Q1340.25 115.774 1340.66 115.877Q1341.07 115.98 1341.46 116.123Q1341.86 116.267 1342.23 116.45Q1342.61 116.632 1342.97 116.852Q1343.33 117.072 1343.66 117.327C1345.81 118.973 1347.28 121.874 1347.5 124.57C1347.78 128.14 1347.59 134.239 1345.98 137.429C1353.15 138.935 1370.29 143.246 1374.05 149.642C1374.12 149.766 1374.16 149.907 1374.22 150.039C1378.29 147.486 1383.65 142.784 1386.14 138.659C1389.94 140.369 1395.43 143.351 1396.97 147.525C1397.12 147.922 1397.13 148.169 1397.2 148.605C1397.12 152.494 1393.05 156.483 1390.39 159.042C1389.26 160.132 1388.23 161.13 1386.84 161.874C1393.86 166.597 1398.44 177.755 1399.94 185.804C1400.35 188.022 1400.67 189.866 1399.58 191.959C1405.84 191.981 1412.2 191.764 1418.45 192.034C1420.39 195.155 1422.25 200.751 1421.29 204.39C1420.96 205.641 1419.66 206.916 1418.55 207.477C1413.36 210.083 1405.39 209.005 1399.72 208.898C1401.46 213.393 1398.52 219.859 1396.71 223.996C1394.75 228.502 1391.44 235.351 1387.27 237.997C1390.99 240.369 1396 243.806 1397.12 248.323C1397.81 251.106 1397.68 254.044 1396.16 256.542C1394.94 258.554 1393.16 259.978 1390.82 260.417C1388.12 260.923 1385.48 260.006 1383.36 258.347C1380.54 256.137 1378.54 252.786 1375.4 251.094Q1374.24 252.095 1373.01 253.002Q1371.77 253.908 1370.47 254.715Q1369.17 255.521 1367.81 256.222Q1366.45 256.923 1365.04 257.515Q1363.62 258.107 1362.17 258.585Q1360.71 259.064 1359.23 259.426Q1357.74 259.788 1356.23 260.032Q1354.72 260.276 1353.19 260.4C1353.22 260.297 1353.26 260.196 1353.28 260.089C1353.89 256.237 1349.03 250.71 1346.76 247.517C1342.15 241.014 1341.08 241.412 1333.62 240.149Q1331.41 239.703 1329.22 239.149C1319.01 236.527 1310.02 229.432 1304.76 220.338Q1304.27 219.496 1303.83 218.632Q1303.38 217.767 1302.98 216.881Q1302.57 215.994 1302.22 215.089Q1301.86 214.184 1301.55 213.262Q1301.24 212.34 1300.97 211.404Q1300.71 210.468 1300.49 209.519Q1300.27 208.571 1300.1 207.613Q1299.93 206.654 1299.81 205.689Q1299.68 204.723 1299.61 203.753Q1299.54 202.783 1299.51 201.81Q1299.49 200.837 1299.51 199.864Q1299.53 198.891 1299.6 197.921Q1299.68 196.95 1299.8 195.984Q1299.92 195.019 1300.09 194.06Q1300.25 193.102 1300.47 192.153Q1300.69 191.204 1300.95 190.267C1305.94 172.597 1314.76 171.134 1328.8 163.016C1328.94 162.936 1329.08 162.852 1329.22 162.769C1329.77 161.577 1330.04 160.36 1330.24 159.067C1331.1 153.599 1331.62 142.947 1328.37 138.631Z"/>
	<path fill="#FEFEFE" d="M1329.22 162.769C1342.34 161.919 1353.6 162.879 1364.05 171.926Q1364.76 172.53 1365.43 173.168Q1366.11 173.806 1366.75 174.478Q1367.39 175.149 1368 175.852Q1368.61 176.555 1369.18 177.287Q1369.76 178.02 1370.29 178.78Q1370.83 179.54 1371.32 180.326Q1371.82 181.112 1372.27 181.922Q1372.73 182.732 1373.15 183.564Q1373.56 184.396 1373.93 185.247Q1374.31 186.099 1374.64 186.968Q1374.97 187.837 1375.25 188.722Q1375.54 189.606 1375.78 190.504Q1376.02 191.402 1376.22 192.311Q1376.41 193.219 1376.56 194.137Q1376.71 195.054 1376.82 195.978Q1376.92 196.902 1376.98 197.83C1377.7 208.273 1374.31 219.049 1367.33 226.901C1360.71 234.356 1350.48 239.625 1340.46 240.067Q1337.04 240.186 1333.62 240.149Q1331.41 239.703 1329.22 239.149C1319.01 236.527 1310.02 229.432 1304.76 220.338Q1304.27 219.496 1303.83 218.632Q1303.38 217.767 1302.98 216.881Q1302.57 215.994 1302.22 215.089Q1301.86 214.184 1301.55 213.262Q1301.24 212.34 1300.97 211.404Q1300.71 210.468 1300.49 209.519Q1300.27 208.571 1300.1 207.613Q1299.93 206.654 1299.81 205.689Q1299.68 204.723 1299.61 203.753Q1299.54 202.783 1299.51 201.81Q1299.49 200.837 1299.51 199.864Q1299.53 198.891 1299.6 197.921Q1299.68 196.95 1299.8 195.984Q1299.92 195.019 1300.09 194.06Q1300.25 193.102 1300.47 192.153Q1300.69 191.204 1300.95 190.267C1305.94 172.597 1314.76 171.134 1328.8 163.016C1328.94 162.936 1329.08 162.852 1329.22 162.769Z"/>
	<path fill="#FDC75A" d="M312.513 639.32C313.79 637.286 315.154 635.075 316.772 633.3C318.322 631.599 320.472 630.512 322.697 630.03C331.002 628.23 340.96 629.23 349.458 629.281Q371.887 629.603 394.316 629.277C400.376 629.073 406.87 627.945 411.692 632.446C415.832 636.31 415.842 643.903 415.906 649.198C416.233 676.326 415.82 703.501 415.76 730.634L312.996 730.579C312.44 709.601 312.882 688.505 312.909 667.516C312.921 658.336 313.74 648.393 312.513 639.32Z"/>
	<path fill="#F45141" d="M394.425 550.662C406.845 554.305 419.562 557.922 432.592 558.337C440.361 558.323 448.439 558.742 456.147 557.786C463.938 556.522 472.18 555.336 479.59 552.564Q479.262 569.037 479.354 585.514L479.459 730.51L450.584 730.542L415.76 730.634C415.82 703.501 416.233 676.326 415.906 649.198C415.842 643.903 415.832 636.31 411.692 632.446C406.87 627.945 400.376 629.073 394.316 629.277Q394.142 589.968 394.425 550.662Z"/>
	<path fill="#FEFEFE" d="M450.771 624.016C450.741 625.167 450.696 626.316 450.546 627.459C450.076 631.035 448.048 633.452 445.305 635.562C443.106 637.254 440.402 638.878 437.505 638.324C435.533 637.947 433.924 636.503 432.766 634.942C430.379 631.727 429.602 626.899 430.365 623.019C430.908 620.262 432.27 617.304 434.768 615.828C436.691 614.691 438.839 614.724 440.933 615.304C446.066 616.724 448.053 618.842 450.667 623.328L450.771 624.016Z"/>
	<path fill="#FEFEFE" d="M450.782 594.032C450.579 598.018 449.783 601.029 446.677 603.73C444.478 605.642 441.86 606.32 438.986 605.996C435.842 605.641 432.624 604.335 430.794 601.641C429.135 599.199 428.92 596.118 429.589 593.308C430.393 589.933 432.626 586.603 435.711 584.946C437.789 583.83 440.061 583.547 442.323 584.247C446.577 585.564 448.643 588.958 450.742 592.561L450.782 594.032Z"/>
	<path fill="#D43939" d="M456.147 557.786C463.938 556.522 472.18 555.336 479.59 552.564Q479.262 569.037 479.354 585.514L479.459 730.51L450.584 730.542C450.69 730.373 450.821 730.217 450.903 730.034C452.504 726.445 452.174 628.506 450.771 624.016L450.667 623.328C451.931 619.078 452.322 598.049 450.782 594.032L450.742 592.561C451.436 581.619 450.585 570.066 450.458 559.069C444.602 559.26 438.329 559.645 432.592 558.337C440.361 558.323 448.439 558.742 456.147 557.786Z"/>
	<path fill="#F67561" d="M921.713 194.441C922.113 198.868 922.162 203.182 922.057 207.623C932.041 209.134 940.435 211.445 949.516 215.97C952.819 217.616 955.875 219.788 959.271 221.216C961.676 224.768 968.779 232.065 972.215 234.485C981.391 246.222 986.12 258.112 988.078 272.814C994.792 272.809 1001.88 272.061 1007.07 277.232C1008.4 278.563 1009.32 280.352 1009.32 282.265C1009.32 284.634 1007.98 286.547 1006.27 288.057C1001.22 292.518 994.4 291.844 988.112 291.993C985.404 304.208 981.134 314.064 974.779 324.812C980.074 330.464 988.348 337.584 987.688 346.199C987.565 347.804 986.846 349.678 985.54 350.67C983.846 351.956 981.781 352.066 979.737 351.781C972.836 350.818 965.914 343.873 961.198 339.075C949.823 347.498 937.195 354.884 922.634 355.644C917.767 355.357 912.872 356.258 908.084 354.992L907.104 353.209C908.016 344.451 907.423 335.175 907.429 326.355C901.899 325.099 896.674 323.704 891.678 320.909Q890.701 320.369 889.753 319.781Q888.805 319.193 887.888 318.557Q886.971 317.922 886.087 317.241Q885.203 316.56 884.355 315.835Q883.506 315.11 882.696 314.343Q881.885 313.576 881.114 312.769Q880.344 311.962 879.615 311.117Q878.886 310.272 878.201 309.392Q877.515 308.511 876.876 307.596Q876.236 306.682 875.643 305.737Q875.05 304.791 874.506 303.817Q873.962 302.843 873.468 301.842Q872.974 300.841 872.531 299.817Q872.088 298.793 871.697 297.748Q871.306 296.702 870.969 295.638Q870.632 294.575 870.349 293.495Q870.062 292.416 869.83 291.324Q869.597 290.232 869.419 289.13Q869.242 288.028 869.12 286.918Q868.997 285.808 868.931 284.694Q868.865 283.58 868.854 282.463Q868.843 281.347 868.889 280.231Q868.934 279.116 869.035 278.004Q869.136 276.892 869.293 275.787Q869.45 274.681 869.662 273.585Q869.873 272.489 870.14 271.405Q870.406 270.321 870.727 269.251Q871.047 268.182 871.42 267.13Q871.794 266.078 872.22 265.046Q872.645 264.014 873.122 263.005Q873.599 261.995 874.126 261.011Q874.653 260.027 875.228 259.07C882.665 246.838 893.73 241.18 907.132 237.772L907.201 207.932L921.282 207.903C921.224 203.389 921.436 198.943 921.713 194.441Z"/>
	<path fill="#FEFEFE" d="M907.132 237.772C919.899 236.821 931.507 239.274 941.465 247.776Q942.323 248.514 943.143 249.293Q943.964 250.073 944.744 250.893Q945.524 251.713 946.262 252.57Q947.001 253.428 947.695 254.322Q948.39 255.215 949.039 256.142Q949.688 257.069 950.29 258.028Q950.891 258.986 951.445 259.974Q951.998 260.961 952.501 261.975Q953.004 262.988 953.456 264.026Q953.908 265.064 954.308 266.122Q954.707 267.181 955.053 268.259Q955.4 269.337 955.692 270.43Q955.983 271.524 956.22 272.63Q956.457 273.737 956.638 274.854Q956.82 275.972 956.945 277.096Q957.07 278.221 957.139 279.351Q957.198 280.454 957.202 281.559Q957.206 282.663 957.155 283.767Q957.104 284.87 956.998 285.97Q956.892 287.069 956.731 288.162Q956.57 289.255 956.356 290.339Q956.141 291.422 955.872 292.494Q955.604 293.565 955.282 294.622Q954.96 295.679 954.587 296.718Q954.213 297.758 953.788 298.777Q953.363 299.797 952.887 300.794Q952.412 301.791 951.887 302.763Q951.363 303.735 950.791 304.68Q950.219 305.625 949.6 306.54Q948.982 307.455 948.318 308.338Q947.655 309.221 946.948 310.07Q946.242 310.919 945.494 311.732C936.832 321.252 924.958 325.952 912.228 326.369Q909.828 326.441 907.429 326.355C901.899 325.099 896.674 323.704 891.678 320.909Q890.701 320.369 889.753 319.781Q888.805 319.193 887.888 318.557Q886.971 317.922 886.087 317.241Q885.203 316.56 884.355 315.835Q883.506 315.11 882.696 314.343Q881.885 313.576 881.114 312.769Q880.344 311.962 879.615 311.117Q878.886 310.272 878.201 309.392Q877.515 308.511 876.876 307.596Q876.236 306.682 875.643 305.737Q875.05 304.791 874.506 303.817Q873.962 302.843 873.468 301.842Q872.974 300.841 872.531 299.817Q872.088 298.793 871.697 297.748Q871.306 296.702 870.969 295.638Q870.632 294.575 870.349 293.495Q870.062 292.416 869.83 291.324Q869.597 290.232 869.419 289.13Q869.242 288.028 869.12 286.918Q868.997 285.808 868.931 284.694Q868.865 283.58 868.854 282.463Q868.843 281.347 868.889 280.231Q868.934 279.116 869.035 278.004Q869.136 276.892 869.293 275.787Q869.45 274.681 869.662 273.585Q869.873 272.489 870.14 271.405Q870.406 270.321 870.727 269.251Q871.047 268.182 871.42 267.13Q871.794 266.078 872.22 265.046Q872.645 264.014 873.122 263.005Q873.599 261.995 874.126 261.011Q874.653 260.027 875.228 259.07C882.665 246.838 893.73 241.18 907.132 237.772Z"/>
	<path fill="#DCF2F8" d="M940.776 372.754C941.835 388.753 941.17 405.205 941.034 421.25L940.927 432.075L710.732 432.17L644.102 432.189C631.048 432.202 617.206 431.293 604.3 433.2C596.097 434.413 588.387 438.907 581.385 443.159C586.279 424.023 588.097 406.795 586.69 387.06C598.528 384.743 610.322 383.213 622.391 384.354C654.031 387.344 676.302 404.866 695.949 428.595C701.519 419.802 708.928 411.824 717.074 405.358Q718.011 404.604 718.967 403.874Q719.923 403.144 720.897 402.437Q721.87 401.731 722.861 401.049Q723.851 400.367 724.859 399.709Q725.866 399.051 726.889 398.419Q727.912 397.786 728.95 397.179Q729.989 396.572 731.042 395.991Q732.095 395.41 733.162 394.855Q734.229 394.299 735.309 393.771Q736.39 393.242 737.483 392.74Q738.576 392.239 739.681 391.764Q740.786 391.289 741.903 390.842Q743.019 390.395 744.146 389.975Q745.274 389.555 746.411 389.164Q747.548 388.772 748.695 388.409Q749.841 388.045 750.996 387.71Q752.151 387.375 753.314 387.069Q754.478 386.762 755.648 386.484Q756.818 386.207 757.995 385.958Q759.172 385.709 760.354 385.49Q761.537 385.27 762.724 385.08Q763.912 384.889 765.104 384.728Q766.296 384.567 767.491 384.435Q768.687 384.304 769.885 384.202Q771.084 384.1 772.284 384.027Q773.485 383.955 774.687 383.912Q775.889 383.869 777.091 383.856Q778.294 383.843 779.497 383.86Q780.699 383.876 781.901 383.922Q783.103 383.968 784.303 384.044Q785.504 384.12 786.702 384.226Q787.9 384.331 789.095 384.466C816.496 387.625 836.905 402.435 853.721 423.535C867.387 402.557 889.027 391.402 912.166 383.923L919.601 382.272C925.494 384.52 934.047 384.457 940.404 385.11C940.239 380.923 940.051 376.909 940.776 372.754Z"/>
	<path fill="#F67561" d="M574.779 184.647C594.966 175.297 616.372 172.818 637.585 180.595C655.678 187.228 671.476 201.347 679.589 218.921Q681.494 223.144 683.239 227.435C699.384 222.343 714.88 220.498 730.565 228.571C742.993 234.969 752.047 246.417 756.163 259.698C758.07 265.852 758.556 271.829 758.891 278.207Q648.016 277.485 537.143 278.447C533.509 262.361 531.803 245.116 537.384 229.21C544.717 209.279 556.601 195.493 574.779 184.647Z"/>
	<path fill="#113966" d="M952.24 359.205C974.513 358.332 996.936 358.703 1019.23 358.653L1136.63 358.593L1203.99 358.621C1216.61 358.63 1229.99 357.824 1242.52 359.295C1247.69 359.901 1251.99 361.753 1255.87 365.294Q1256.36 365.742 1256.82 366.213Q1257.29 366.685 1257.73 367.178Q1258.17 367.672 1258.59 368.187Q1259.01 368.702 1259.4 369.237Q1259.79 369.772 1260.15 370.326Q1260.52 370.88 1260.85 371.451Q1261.19 372.021 1261.49 372.608Q1261.8 373.195 1262.08 373.796Q1262.36 374.398 1262.61 375.012Q1262.85 375.626 1263.07 376.252Q1263.29 376.878 1263.48 377.514Q1263.66 378.15 1263.82 378.794Q1263.97 379.438 1264.1 380.089Q1264.22 380.74 1264.31 381.397Q1264.4 382.053 1264.46 382.713Q1264.51 383.373 1264.54 384.035C1264.66 386.88 1264.39 389.347 1263.51 392.069C1265.35 396.818 1266.1 414.556 1263.98 419.338C1263.68 420.006 1263.31 420.616 1262.89 421.212C1251.47 422.032 1239.52 421.356 1228.04 421.356L1158.31 421.333L941.034 421.25C941.17 405.205 941.835 388.753 940.776 372.754C943.096 365.685 945.744 362.76 952.24 359.205Z"/>
	<path fill="#F45141" d="M980.341 378.707C982.217 378.597 983.97 378.703 985.799 379.174C988.849 379.959 991.682 381.997 993.176 384.799C994.577 387.426 994.759 390.461 993.896 393.293C992.543 397.732 989.485 399.737 985.666 401.87C983.829 401.926 981.957 401.965 980.148 401.588C977.037 400.939 974.087 398.842 972.529 396.057C971.15 393.594 970.894 390.718 971.65 388.016C973.012 383.152 976.15 381.022 980.341 378.707Z"/>
	<path fill="#FDC75A" d="M1023 377.962C1025.03 378.194 1027.68 378.448 1029.5 379.461C1032.44 381.096 1034.76 383.871 1035.65 387.137Q1035.81 387.726 1035.91 388.328Q1036 388.93 1036.04 389.538Q1036.07 390.147 1036.04 390.756Q1036.01 391.366 1035.92 391.968Q1035.83 392.571 1035.67 393.16Q1035.51 393.75 1035.3 394.32Q1035.08 394.89 1034.81 395.434Q1034.53 395.979 1034.2 396.491C1031.8 400.239 1028.75 401.329 1024.67 402.204C1022.9 402.02 1020.84 401.881 1019.21 401.106C1016.12 399.634 1013.58 397.06 1012.48 393.772Q1012.29 393.175 1012.16 392.561Q1012.03 391.947 1011.96 391.322Q1011.9 390.698 1011.9 390.071Q1011.9 389.443 1011.96 388.819Q1012.03 388.195 1012.16 387.581Q1012.29 386.967 1012.48 386.369Q1012.67 385.772 1012.93 385.198Q1013.18 384.624 1013.49 384.079C1015.7 380.194 1018.98 379.072 1023 377.962Z"/>
	<path fill="#FC9722" d="M1467.88 623.827C1513.35 627.194 1549.59 646.998 1579.36 681.305C1581.89 684.226 1586.76 689.591 1586.69 693.584C1574.51 693.479 1559.12 691.327 1547.84 696.102C1541.39 698.831 1535.28 703.015 1528.67 705.211C1550.25 705.61 1572.3 706.675 1593.83 705.504C1596.82 707.972 1599.89 712.321 1600.46 716.245C1600.56 716.875 1600.45 717.366 1600.32 717.978L1511.79 718.221C1510.6 722.579 1505.25 727.455 1501.37 729.67C1535.71 729.728 1570.42 730.911 1604.71 729.707C1607.06 732.881 1608.57 736.331 1608.05 740.38C1607.91 741.399 1607.95 741.184 1607.75 742.005L1494.42 742.163C1493.93 746.12 1490.49 750.838 1487.61 753.514L1609.57 753.998C1611.37 757.119 1612.47 760.099 1611.52 763.765C1611.34 764.443 1611.1 765.068 1610.79 765.691L1482.58 766.104C1483.29 769.087 1482.11 772.395 1480.56 774.963C1480.07 775.781 1479.53 776.523 1478.86 777.206Q1544.69 777.893 1610.53 777.659C1611.92 780.785 1612.21 783.488 1610.91 786.728C1610.54 787.675 1610.1 788.552 1609.5 789.376L1476.08 789.893C1477.32 793.053 1476.9 795.973 1475.56 799.023Q1474.93 800.447 1474.18 801.81L1564.22 801.886C1578.18 801.906 1593.87 800.562 1607.61 802.302C1608.15 806.144 1607.46 809.989 1605.13 813.183C1604.68 813.804 1604.7 813.749 1604.25 814.21L1474.46 814.275C1476.23 817.39 1476.99 821.481 1475.82 824.976C1475.57 825.721 1475.55 825.705 1475.21 826.28L1598.97 826.449C1599.28 829.785 1597.07 833.904 1595.02 836.477C1594.46 837.181 1593.84 837.739 1593.15 838.304C1554.7 838.028 1516.16 837.811 1477.71 838.304C1479.82 841.022 1480.71 844.989 1480.38 848.398C1480.33 848.998 1480.21 849.536 1480.01 850.102L1585.43 850.245C1585.5 854.242 1581.21 858 1578.61 860.692C1552.63 887.606 1517.59 907.795 1479.27 908.6Q1477.56 908.634 1475.85 908.592C1473.05 907.807 1469.15 908.149 1466.21 908.065C1468.82 896.197 1467.1 873.806 1467.1 860.682L1466.16 731.263L1466.08 660.465C1466.08 648.669 1467.07 635.79 1465.56 624.14L1467.88 623.827Z"/>
	<path fill="#DCF2F8" d="M339.53 184.907Q341.074 181.589 342.697 178.31C358.777 145.897 384.362 121.183 419.109 109.623Q420.559 109.151 422.02 108.714Q423.482 108.277 424.953 107.876Q426.425 107.474 427.905 107.109Q429.386 106.743 430.875 106.414Q432.364 106.084 433.861 105.791Q435.358 105.498 436.861 105.241Q438.364 104.984 439.873 104.763Q441.383 104.543 442.897 104.359Q444.411 104.175 445.929 104.028Q447.447 103.881 448.968 103.771Q450.489 103.661 452.012 103.587Q453.536 103.514 455.06 103.478Q456.585 103.441 458.11 103.442Q459.635 103.443 461.16 103.48Q462.685 103.518 464.208 103.593Q465.731 103.667 467.253 103.779Q468.774 103.89 470.291 104.038Q471.809 104.187 473.323 104.372Q474.837 104.557 476.346 104.779Q477.855 105 479.358 105.259Q480.861 105.517 482.358 105.812Q483.854 106.106 485.343 106.437Q486.832 106.768 488.312 107.135Q489.793 107.501 491.264 107.904Q492.735 108.306 494.196 108.745Q495.656 109.183 497.106 109.656Q498.556 110.13 499.994 110.638Q501.432 111.146 502.857 111.69Q504.282 112.233 505.694 112.81Q507.106 113.388 508.503 113.999Q509.9 114.611 511.282 115.256Q512.664 115.901 514.03 116.58C540.962 130.08 565.25 155.768 574.779 184.647C556.601 195.493 544.717 209.279 537.384 229.21C530.233 226.87 474.599 228.503 460.989 228.506L261.345 228.513C262.594 212.509 266.016 196.027 276.032 183.029C282.045 175.228 290.479 169.348 300.425 168.202C315.956 166.412 328.149 175.803 339.53 184.907Z"/>
	<path fill="#FCA731" d="M1334.6 834.533C1335.23 831.486 1326.7 814.117 1325.29 809.124Q1323.8 803.911 1322.72 798.595Q1321.65 793.28 1320.99 787.896Q1320.34 782.512 1320.12 777.094Q1319.89 771.675 1320.1 766.256C1321.7 726.873 1338.42 687.971 1367.55 661.15C1393.48 637.271 1430.17 622.624 1465.56 624.14C1467.07 635.79 1466.08 648.669 1466.08 660.465L1466.16 731.263L1467.1 860.682C1467.1 873.806 1468.82 896.197 1466.21 908.065C1469.15 908.149 1473.05 907.807 1475.85 908.592C1471.03 910.746 1461.03 908.961 1455.63 908.505C1426.4 906.042 1396.68 894.368 1373.76 875.938C1368.84 871.983 1362.98 863.683 1357 862.132C1358.92 860.183 1359.96 857.001 1360.6 854.387C1361.68 849.989 1362.08 844.18 1359.45 840.226C1354.6 832.933 1342.63 836.288 1335.28 834.689C1335.05 834.64 1334.82 834.585 1334.6 834.533Z"/>
	<path fill="#1FB6BB" d="M450.584 730.542L479.459 730.51C486.222 730.476 500.498 728.516 505.469 733.512C508.161 736.218 509.144 740.11 508.948 743.834C508.733 747.941 506.943 752.672 503.76 755.406C500.168 758.492 496.749 758.093 492.354 758.057C492.156 758.056 491.959 758.05 491.761 758.047L491.285 762.041C491.205 772.713 490.974 783.409 491.193 794.079C491.077 807.789 491.357 821.646 490.627 835.331C479.31 835.867 467.973 835.844 456.646 835.92C456.782 841.365 457.015 846.561 457.995 851.94C446.143 857.806 352.119 904.206 349.171 908.41L275.279 908.475C262.311 908.519 247.013 910.155 234.367 907.66C229.541 907.419 224.491 904.658 220.224 902.543C218.171 901.289 216.44 899.897 214.747 898.186C206.768 890.121 206.051 880.931 206.168 870.219L206.09 837.072L206.062 799.673L206.189 757.898C201.095 758.159 195.519 758.888 191.378 755.291C188.298 752.615 186.653 748.926 186.407 744.888C186.167 740.94 187.274 736.513 190.102 733.633C195.201 728.439 209.773 730.463 216.63 730.55C248.739 730.547 280.891 730.184 312.996 730.579L415.76 730.634L450.584 730.542Z"/>
	<path fill="#43C4BC" d="M206.189 757.898C223.181 757.315 240.235 757.555 257.239 757.522C267.766 757.501 278.849 756.849 289.327 757.867L292.292 757.962C315.01 759.249 338.171 757.84 360.952 757.889C328.126 776.03 293.911 791.839 260.574 809.026L223.556 828.288C218.084 831.143 211.895 835.178 206.09 837.072L206.062 799.673L206.189 757.898Z"/>
	<path fill="#1FB6BB" d="M206.189 757.898C223.181 757.315 240.235 757.555 257.239 757.522C267.766 757.501 278.849 756.849 289.327 757.867Q247.49 778.363 206.062 799.673L206.189 757.898Z"/>
	<path fill="#113966" d="M450.584 730.542L479.459 730.51C486.222 730.476 500.498 728.516 505.469 733.512C508.161 736.218 509.144 740.11 508.948 743.834C508.733 747.941 506.943 752.672 503.76 755.406C500.168 758.492 496.749 758.093 492.354 758.057C492.156 758.056 491.959 758.05 491.761 758.047C470.434 756.907 448.454 757.49 427.086 757.89C405.311 755.912 381.978 757.48 360.023 757.48C338.156 757.48 313.848 755.926 292.292 757.962L289.327 757.867C278.849 756.849 267.766 757.501 257.239 757.522C240.235 757.555 223.181 757.315 206.189 757.898C201.095 758.159 195.519 758.888 191.378 755.291C188.298 752.615 186.653 748.926 186.407 744.888C186.167 740.94 187.274 736.513 190.102 733.633C195.201 728.439 209.773 730.463 216.63 730.55C248.739 730.547 280.891 730.184 312.996 730.579L415.76 730.634L450.584 730.542Z"/>
	<path fill="#43C4BC" d="M427.086 757.89C448.454 757.49 470.434 756.907 491.761 758.047L491.285 762.041C469.181 773.166 223.713 897.953 220.224 902.543C218.171 901.289 216.44 899.897 214.747 898.186C206.768 890.121 206.051 880.931 206.168 870.219C214.747 867.827 224.655 861.159 232.725 857.008L296.339 824.255Q335.954 803.864 375.836 784.002C392.909 775.487 410.511 767.325 427.086 757.89Z"/>
	<path fill="#1FB6BB" d="M220.224 902.543C223.713 897.953 469.181 773.166 491.285 762.041C491.205 772.713 490.974 783.409 491.193 794.079C491.077 807.789 491.357 821.646 490.627 835.331C479.31 835.867 467.973 835.844 456.646 835.92C456.782 841.365 457.015 846.561 457.995 851.94C446.143 857.806 352.119 904.206 349.171 908.41L275.279 908.475C262.311 908.519 247.013 910.155 234.367 907.66C229.541 907.419 224.491 904.658 220.224 902.543Z"/>
	<path fill="#43C4BC" d="M273.199 907.545C279.528 902.931 288.012 899.691 295.016 896.092L342.981 871.335L491.193 794.079C491.077 807.789 491.357 821.646 490.627 835.331C479.31 835.867 467.973 835.844 456.646 835.92C456.782 841.365 457.015 846.561 457.995 851.94C446.143 857.806 352.119 904.206 349.171 908.41L275.279 908.475C262.311 908.519 247.013 910.155 234.367 907.66C247.293 907.323 260.267 907.531 273.199 907.545Z"/>
	<path fill="#396296" d="M1424.11 336.587C1424.21 336.407 1424.32 336.231 1424.41 336.048C1428.37 328.432 1422.9 310.57 1431.46 307.764C1437.32 305.843 1466.97 306.573 1474.22 307.569C1477.55 311.777 1478.14 327.841 1477.7 333.331C1477.61 334.453 1477.2 335.461 1476.68 336.45C1487.31 337.817 1515.1 344.963 1521.85 353.774C1521.98 353.942 1522.07 354.133 1522.19 354.312C1525.79 351.908 1540.25 339.798 1541.43 336.297C1549.41 339.767 1569.99 359.246 1575.89 366.405C1576.43 370.841 1571.4 376.239 1568.7 379.663C1565.81 383.341 1562.41 388.667 1558.45 391.143C1565.65 397.225 1576.37 421.744 1576.91 431.325C1576.96 432.094 1576.83 432.793 1576.64 433.531C1583.2 434.125 1599.45 433.22 1603.69 438.316C1607.11 442.421 1606.83 468.49 1605.98 474.681Q1605.85 475.681 1605.48 476.619Q1605.11 477.558 1604.52 478.378C1596 481.562 1585.61 482.12 1576.59 483.177C1578.36 493.19 1568.04 512.887 1562.49 521.011C1561.58 522.337 1560.48 523.434 1559.32 524.539C1564.75 527.918 1572.5 539.425 1575.33 545.219C1574.96 549.325 1553.54 569.594 1549.29 573.169C1547.57 574.609 1545.92 576.018 1543.92 577.04C1535.89 574.365 1530.1 566.041 1522.09 562.638C1516.53 570.682 1490.06 579.683 1480.57 581.447Q1479.45 581.656 1478.32 581.82C1480.67 586.77 1480.03 599.167 1478.25 604.416C1477.96 605.265 1477.63 605.785 1477.14 606.526C1475.75 606.938 1474.56 607.208 1473.12 607.338C1458.05 606.968 1443.02 608.429 1427.95 607.118C1428.09 606.8 1428.35 606.293 1428.45 605.926C1429.74 600.915 1428.34 586.466 1425.77 582C1419.01 578.926 1410.76 578.059 1403.73 575.026C1395.73 571.576 1388.65 566.035 1380.86 562.102C1378.94 566.58 1362.46 577.69 1357.61 579.731C1352.18 569.172 1331.13 555.376 1328.14 546.009C1325.6 538.045 1340.22 531.606 1343.18 524.856C1343.31 524.554 1343.43 524.244 1343.55 523.937C1343.63 520.656 1338.94 514.069 1337.32 510.712C1333.49 502.783 1329.73 487.968 1325.84 482.112C1319.15 482.145 1310.32 483.014 1304.04 480.48C1302.51 479.863 1301.25 479.01 1300.77 477.385C1299.45 472.878 1304.75 459.422 1300.88 450.65C1300.81 450.495 1300.73 450.344 1300.66 450.192C1302.21 446.232 1302.16 443.806 1300.57 439.965C1301.43 438.611 1302.36 436.97 1303.59 435.93C1308.05 432.168 1320.16 433.973 1325.73 434.139C1326.12 433.685 1326.43 433.225 1326.69 432.682C1328.2 429.582 1329.39 424.805 1328.22 421.488C1330.09 419.886 1343.2 394.369 1343.39 392.102C1343.4 391.928 1343.37 391.752 1343.36 391.577C1343.29 391.422 1343.23 391.266 1343.15 391.114C1340.76 386.219 1326.69 376.399 1328.18 371.674C1330.77 363.465 1355.76 344.682 1357.5 338.036C1361.88 340.045 1376.47 351.469 1378.36 355.705C1378.44 355.875 1378.47 356.06 1378.52 356.238L1379.24 355.901C1387.17 352.112 1394.37 346.53 1402.51 343.224C1409.35 340.445 1417.61 339.584 1424.11 336.587Z"/>
	<path fill="#E2D9D1" d="M1440.06 367.555L1440.55 367.514C1467.32 365.375 1493.03 371.826 1513.72 389.541Q1514.58 390.274 1515.43 391.028Q1516.27 391.782 1517.1 392.557Q1517.92 393.332 1518.73 394.126Q1519.54 394.921 1520.32 395.735Q1521.11 396.549 1521.88 397.382Q1522.64 398.215 1523.39 399.067Q1524.13 399.919 1524.86 400.788Q1525.58 401.658 1526.29 402.545Q1526.99 403.433 1527.67 404.337Q1528.35 405.241 1529.01 406.162Q1529.67 407.083 1530.31 408.019Q1530.94 408.956 1531.56 409.908Q1532.17 410.86 1532.76 411.826Q1533.35 412.793 1533.91 413.774Q1534.48 414.754 1535.02 415.749Q1535.56 416.743 1536.08 417.75Q1536.6 418.758 1537.09 419.777Q1537.58 420.797 1538.05 421.829Q1538.51 422.86 1538.96 423.903Q1539.4 424.945 1539.81 425.998Q1540.23 427.052 1540.62 428.115Q1541.01 429.178 1541.37 430.25Q1541.74 431.322 1542.07 432.403Q1542.41 433.484 1542.72 434.573Q1543.03 435.661 1543.32 436.757Q1543.6 437.854 1543.86 438.956Q1544.12 440.059 1544.34 441.168Q1544.57 442.276 1544.78 443.39Q1544.98 444.504 1545.16 445.623Q1545.33 446.742 1545.48 447.864Q1545.63 448.987 1545.75 450.113Q1545.87 451.239 1545.96 452.367Q1546.05 453.488 1546.11 454.611Q1546.18 455.735 1546.21 456.859Q1546.24 457.984 1546.25 459.108Q1546.26 460.233 1546.24 461.358Q1546.22 462.483 1546.17 463.607Q1546.12 464.731 1546.04 465.853Q1545.96 466.975 1545.86 468.095Q1545.75 469.215 1545.62 470.332Q1545.49 471.449 1545.33 472.563Q1545.17 473.676 1544.98 474.785Q1544.79 475.894 1544.57 476.998Q1544.36 478.102 1544.11 479.201Q1543.87 480.299 1543.6 481.391Q1543.33 482.483 1543.03 483.568Q1542.73 484.652 1542.41 485.729Q1542.08 486.807 1541.73 487.875Q1541.38 488.944 1541 490.004Q1540.63 491.063 1540.22 492.113Q1539.82 493.163 1539.39 494.202Q1538.96 495.242 1538.5 496.27Q1538.05 497.299 1537.57 498.316Q1537.08 499.332 1536.58 500.337Q1536.07 501.341 1535.54 502.333Q1535.01 503.324 1534.45 504.303Q1533.9 505.281 1533.32 506.245Q1532.74 507.208 1532.14 508.158Q1531.53 509.107 1530.9 510.041Q1530.28 510.975 1529.63 511.893Q1528.98 512.81 1528.3 513.712Q1527.63 514.614 1526.94 515.498Q1526.24 516.382 1525.52 517.249Q1524.81 518.116 1524.07 518.965C1508.96 536.468 1486.16 548.761 1462.96 550.443C1462.7 550.53 1462.45 550.634 1462.18 550.704C1444.62 555.358 1414.89 544.699 1400.34 534.783Q1399.41 534.147 1398.49 533.487Q1397.57 532.828 1396.67 532.147Q1395.77 531.466 1394.88 530.763Q1394 530.06 1393.13 529.335Q1392.27 528.61 1391.42 527.865Q1390.57 527.119 1389.74 526.353Q1388.91 525.587 1388.1 524.801Q1387.28 524.015 1386.49 523.209Q1385.7 522.404 1384.93 521.579Q1384.16 520.754 1383.4 519.91Q1382.65 519.067 1381.92 518.205Q1381.19 517.344 1380.48 516.464Q1379.77 515.585 1379.08 514.689Q1378.4 513.793 1377.73 512.88Q1377.06 511.967 1376.42 511.038Q1375.78 510.109 1375.16 509.165Q1374.54 508.221 1373.94 507.261Q1373.34 506.302 1372.77 505.329Q1372.2 504.355 1371.65 503.368Q1371.1 502.381 1370.57 501.38Q1370.05 500.38 1369.55 499.367Q1369.04 498.354 1368.57 497.329Q1368.09 496.304 1367.64 495.268Q1367.19 494.232 1366.77 493.185Q1366.34 492.138 1365.94 491.081Q1365.54 490.024 1365.17 488.958Q1364.8 487.891 1364.45 486.816Q1364.1 485.741 1363.78 484.657Q1363.46 483.574 1363.16 482.483Q1362.87 481.392 1362.6 480.294Q1362.34 479.197 1362.09 478.093Q1361.85 476.989 1361.64 475.879C1357.21 452.161 1362.06 426.616 1375.78 406.662C1391.09 384.391 1413.94 372.3 1440.06 367.555Z"/>
	<path fill="#F67561" d="M1452.85 407.958C1455.01 405.931 1455.44 405.583 1458.46 405.715C1470.1 406.224 1485.29 416.367 1492.8 424.975C1494.53 426.952 1497.52 430.11 1497.4 432.91C1495.6 435.38 1482.21 440.3 1478.4 442.558C1474.21 445.034 1458.4 456.705 1455.3 457.529C1454.93 457.628 1454.26 457.622 1453.92 457.634C1454.07 447.451 1456.25 415.319 1452.85 407.958Z"/>
	<path fill="#FCA731" d="M1497.4 432.91C1501.15 435.007 1503.16 441.057 1504.26 444.99C1508.04 458.517 1506 474.214 1499.06 486.4C1497.14 489.78 1492.65 496.714 1488.6 497.601C1488.29 497.669 1487.98 497.711 1487.66 497.766C1487.87 496.485 1487.87 495.527 1487.53 494.259C1483.08 477.54 1468.13 466.841 1453.98 458.741L1453.92 457.634C1454.26 457.622 1454.93 457.628 1455.3 457.529C1458.4 456.705 1474.21 445.034 1478.4 442.558C1482.21 440.3 1495.6 435.38 1497.4 432.91Z"/>
	<path fill="#2599DD" d="M1453.98 458.741C1468.13 466.841 1483.08 477.54 1487.53 494.259C1487.87 495.527 1487.87 496.485 1487.66 497.766C1487.27 500.062 1487.32 500.213 1485.35 501.671C1473.55 510.416 1456.27 513.482 1442.08 510.925C1432.46 509.192 1424.12 505.335 1416.23 499.595C1418.74 497.302 1420.42 492.648 1422.18 489.651C1431.17 474.328 1438.61 467.286 1453.98 458.741Z"/>
	<path fill="#FEFEFE" d="M1416.23 499.595C1408.12 492.25 1402.06 484.644 1398.7 474.01Q1398.29 472.737 1397.95 471.446Q1397.61 470.154 1397.33 468.848Q1397.05 467.541 1396.84 466.222Q1396.63 464.903 1396.48 463.575Q1396.34 462.247 1396.25 460.913Q1396.17 459.58 1396.16 458.244Q1396.15 456.908 1396.2 455.573Q1396.25 454.238 1396.37 452.907Q1396.49 451.576 1396.67 450.253Q1396.85 448.93 1397.1 447.617Q1397.35 446.305 1397.67 445.006Q1397.98 443.708 1398.36 442.426Q1398.74 441.145 1399.18 439.884Q1399.62 438.623 1400.12 437.386Q1400.63 436.148 1401.19 434.937Q1401.76 433.726 1402.38 432.545C1409.69 418.785 1422.04 410.864 1436.63 406.53C1441.29 405.146 1448.8 403.021 1453.21 405.391L1452.85 407.958C1456.25 415.319 1454.07 447.451 1453.92 457.634L1453.98 458.741C1438.61 467.286 1431.17 474.328 1422.18 489.651C1420.42 492.648 1418.74 497.302 1416.23 499.595Z"/>
	<path fill="#396296" d="M394.496 540.853C378.276 534.633 363.521 527.274 349.867 516.399Q348.465 515.267 347.09 514.101Q345.716 512.936 344.37 511.737Q343.025 510.538 341.709 509.307Q340.393 508.075 339.107 506.812Q337.821 505.549 336.567 504.255Q335.313 502.961 334.09 501.637Q332.867 500.313 331.677 498.959Q330.487 497.606 329.331 496.224Q328.174 494.841 327.052 493.432Q325.929 492.022 324.841 490.585Q323.753 489.148 322.7 487.685Q321.648 486.222 320.631 484.734Q319.614 483.246 318.634 481.733Q317.654 480.221 316.711 478.685Q315.768 477.149 314.863 475.59Q313.958 474.032 313.09 472.452Q312.223 470.872 311.395 469.271Q310.567 467.67 309.778 466.05Q308.988 464.429 308.239 462.79Q307.49 461.151 306.78 459.494Q306.071 457.837 305.402 456.163Q304.734 454.49 304.106 452.8Q303.478 451.111 302.892 449.406Q302.305 447.702 301.761 445.984Q301.216 444.266 300.713 442.535Q300.211 440.804 299.75 439.061Q299.29 437.319 298.872 435.565Q298.454 433.812 298.079 432.049Q297.704 430.286 297.372 428.514Q297.04 426.743 296.752 424.964Q296.463 423.184 296.218 421.399Q295.973 419.613 295.771 417.822Q295.578 416.047 295.428 414.268Q295.278 412.49 295.171 410.708Q295.065 408.926 295.002 407.142Q294.94 405.358 294.921 403.573Q294.902 401.787 294.927 400.002Q294.951 398.217 295.02 396.434Q295.089 394.65 295.201 392.868Q295.313 391.087 295.469 389.308Q295.625 387.53 295.824 385.756Q296.023 383.982 296.266 382.213Q296.509 380.445 296.795 378.683Q297.081 376.921 297.41 375.166Q297.739 373.411 298.111 371.665Q298.483 369.92 298.897 368.183Q299.312 366.447 299.769 364.721Q300.226 362.996 300.725 361.282Q301.224 359.568 301.765 357.867Q302.306 356.165 302.889 354.478Q303.471 352.791 304.095 351.118Q304.718 349.445 305.383 347.788Q306.047 346.132 306.752 344.492Q307.457 342.852 308.202 341.229Q308.946 339.607 309.731 338.003Q310.515 336.4 311.338 334.816Q312.162 333.232 313.023 331.669Q313.885 330.106 314.785 328.564Q315.685 327.023 316.623 325.503Q317.56 323.984 318.534 322.489Q319.509 320.993 320.519 319.522Q321.53 318.05 322.577 316.604Q323.623 315.158 324.704 313.738Q325.786 312.318 326.902 310.925Q328.011 309.551 329.154 308.205Q330.297 306.859 331.472 305.541Q332.648 304.223 333.855 302.935Q335.062 301.646 336.301 300.387Q337.539 299.129 338.808 297.901Q340.077 296.673 341.376 295.477Q342.675 294.28 344.003 293.116Q345.33 291.952 346.686 290.82Q348.042 289.689 349.425 288.591Q350.808 287.494 352.217 286.43Q353.627 285.367 355.062 284.338Q356.497 283.31 357.957 282.316Q359.417 281.323 360.901 280.366Q362.385 279.409 363.892 278.489Q365.398 277.568 366.927 276.685Q368.456 275.802 370.007 274.957Q371.557 274.111 373.127 273.304Q374.697 272.497 376.287 271.728Q377.877 270.96 379.485 270.231Q381.093 269.502 382.718 268.812Q384.344 268.122 385.986 267.473Q387.627 266.823 389.285 266.214Q390.942 265.605 392.614 265.037Q394.285 264.469 395.97 263.941Q397.655 263.414 399.353 262.929Q401.05 262.443 402.759 261.999Q404.468 261.555 406.187 261.153Q407.907 260.751 409.635 260.392Q411.364 260.032 413.101 259.715Q414.838 259.398 416.582 259.123Q418.326 258.849 420.076 258.617Q421.827 258.386 423.582 258.197C462.62 254.081 502.986 264.088 533.735 289.133Q535.128 290.251 536.493 291.404Q537.857 292.557 539.193 293.743Q540.528 294.93 541.834 296.149Q543.14 297.368 544.414 298.62Q545.689 299.871 546.932 301.154Q548.176 302.437 549.387 303.75Q550.598 305.063 551.775 306.406Q552.953 307.75 554.097 309.122Q555.241 310.494 556.351 311.894Q557.46 313.294 558.534 314.721Q559.609 316.149 560.647 317.603Q561.686 319.056 562.688 320.535Q563.689 322.014 564.654 323.518Q565.619 325.022 566.546 326.549Q567.473 328.076 568.361 329.626Q569.25 331.176 570.1 332.747Q570.95 334.319 571.76 335.911Q572.57 337.503 573.341 339.115Q574.111 340.727 574.842 342.357Q575.572 343.988 576.261 345.636Q576.95 347.284 577.598 348.949Q578.246 350.614 578.853 352.295Q579.459 353.975 580.023 355.67Q580.588 357.365 581.109 359.074Q581.631 360.783 582.111 362.504Q582.59 364.225 583.026 365.957Q583.462 367.69 583.855 369.433Q584.248 371.176 584.597 372.928Q584.947 374.68 585.252 376.44Q585.558 378.2 585.82 379.968Q586.081 381.735 586.299 383.508Q586.517 385.282 586.69 387.06C588.097 406.795 586.279 424.023 581.385 443.159C576.225 457.306 570.303 470.315 562.56 483.231C550.919 499.865 538.027 512.409 521.435 524.11C509.8 531.474 493.455 540.808 479.68 542.73L479.59 552.564C472.18 555.336 463.938 556.522 456.147 557.786C448.439 558.742 440.361 558.323 432.592 558.337C419.562 557.922 406.845 554.305 394.425 550.662L394.496 540.853Z"/>
	<path fill="#6F1F28" d="M447.252 548.01C458.193 547.445 469.053 545.301 479.68 542.73L479.59 552.564C472.18 555.336 463.938 556.522 456.147 557.786L452.263 557.243C449.923 554.396 451.967 552.677 450.639 549.785C450.086 548.581 448.465 548.431 447.252 548.01Z"/>
	<path fill="#88252C" d="M394.496 540.853C411.805 545.582 429.201 549.114 447.252 548.01C448.465 548.431 450.086 548.581 450.639 549.785C451.967 552.677 449.923 554.396 452.263 557.243L456.147 557.786C448.439 558.742 440.361 558.323 432.592 558.337C419.562 557.922 406.845 554.305 394.425 550.662L394.496 540.853Z"/>
	<path fill="#2599DD" d="M428.695 274.114C428.966 274.06 429.234 273.989 429.508 273.953C460.051 270.003 494.97 280.674 519.36 299.041C545.868 319.004 564.742 349.857 569.323 382.83C574.069 417 566.269 451.506 545.229 479.089Q544.231 480.412 543.2 481.71Q542.169 483.008 541.107 484.28Q540.044 485.552 538.951 486.798Q537.857 488.043 536.733 489.261Q535.609 490.479 534.456 491.669Q533.302 492.859 532.12 494.021Q530.937 495.182 529.726 496.313Q528.515 497.445 527.277 498.546Q526.038 499.648 524.773 500.718Q523.508 501.789 522.216 502.828Q520.925 503.867 519.609 504.873Q518.292 505.88 516.951 506.854Q515.61 507.828 514.246 508.769Q512.881 509.709 511.494 510.616Q510.106 511.522 508.697 512.394Q507.288 513.266 505.857 514.103Q504.427 514.94 502.976 515.742Q501.526 516.543 500.056 517.309Q498.586 518.074 497.097 518.803Q495.609 519.532 494.103 520.224Q492.597 520.916 491.075 521.57Q489.552 522.225 488.014 522.842Q486.476 523.458 484.923 524.037Q483.37 524.616 481.803 525.156Q480.236 525.696 478.657 526.197Q477.077 526.698 475.486 527.161Q473.894 527.623 472.292 528.045Q470.689 528.468 469.077 528.851Q467.465 529.234 465.844 529.577Q464.222 529.92 462.593 530.223Q460.964 530.526 459.327 530.789Q457.691 531.052 456.049 531.274Q455.38 531.364 454.709 531.444C421.528 535.36 387.172 524.61 361.077 504.044Q359.822 503.07 358.592 502.066Q357.362 501.062 356.158 500.027Q354.953 498.992 353.775 497.928Q352.596 496.863 351.444 495.77Q350.292 494.677 349.168 493.555Q348.044 492.434 346.948 491.284Q345.852 490.135 344.785 488.959Q343.718 487.783 342.68 486.581Q341.642 485.379 340.635 484.151Q339.628 482.923 338.651 481.671Q337.674 480.419 336.729 479.142Q335.784 477.866 334.871 476.567Q333.958 475.268 333.077 473.946Q332.197 472.624 331.349 471.281Q330.502 469.938 329.688 468.574Q328.874 467.211 328.094 465.827Q327.314 464.443 326.569 463.041Q325.824 461.638 325.114 460.218Q324.404 458.797 323.729 457.359Q323.055 455.922 322.416 454.467Q321.778 453.013 321.175 451.544Q320.573 450.074 320.008 448.59Q319.442 447.106 318.913 445.608Q318.385 444.111 317.894 442.6Q317.403 441.09 316.949 439.568Q316.496 438.046 316.08 436.513Q315.665 434.98 315.287 433.437Q314.91 431.894 314.571 430.343Q314.232 428.791 313.932 427.232Q313.632 425.672 313.37 424.105Q313.109 422.539 312.887 420.966Q312.664 419.394 312.481 417.816C308.554 383.239 317.86 349.118 339.622 321.845C361.608 294.29 393.91 277.97 428.695 274.114Z"/>
	<path fill="#396296" d="M438.707 295.496C439.238 295.453 439.768 295.401 440.301 295.383C467.777 294.455 496.583 306.336 516.572 324.94C536.28 343.282 548.475 370.478 549.389 397.36Q549.433 398.704 549.444 400.048Q549.454 401.392 549.432 402.737Q549.409 404.081 549.354 405.424Q549.298 406.767 549.21 408.109Q549.121 409.45 548.999 410.789Q548.878 412.128 548.723 413.463Q548.568 414.799 548.381 416.13Q548.193 417.461 547.973 418.787Q547.752 420.114 547.499 421.434Q547.246 422.754 546.961 424.068Q546.675 425.382 546.358 426.688Q546.04 427.994 545.69 429.292Q545.34 430.59 544.958 431.879Q544.576 433.168 544.163 434.448Q543.749 435.727 543.304 436.995Q542.859 438.264 542.383 439.521Q541.907 440.778 541.4 442.023Q540.894 443.269 540.356 444.501Q539.819 445.733 539.251 446.952Q538.683 448.17 538.086 449.374Q537.488 450.579 536.861 451.768Q536.234 452.957 535.578 454.13Q534.922 455.303 534.237 456.46Q533.552 457.617 532.838 458.756Q532.125 459.896 531.384 461.017Q530.643 462.139 529.874 463.242Q529.106 464.345 528.31 465.428Q527.515 466.512 526.693 467.575Q525.871 468.639 525.023 469.682Q524.175 470.725 523.301 471.747Q522.428 472.769 521.529 473.769Q520.631 474.768 519.708 475.746Q518.791 476.705 517.851 477.642Q516.911 478.579 515.948 479.493Q514.986 480.407 514.002 481.297Q513.018 482.188 512.012 483.054Q511.007 483.92 509.981 484.762Q508.955 485.604 507.909 486.42Q506.862 487.237 505.797 488.028Q504.731 488.819 503.647 489.585Q502.563 490.35 501.46 491.088Q500.357 491.827 499.237 492.539Q498.117 493.25 496.98 493.935Q495.843 494.619 494.69 495.276Q493.537 495.933 492.368 496.562Q491.2 497.19 490.016 497.791Q488.832 498.391 487.635 498.962Q486.437 499.534 485.226 500.076Q484.014 500.618 482.79 501.131Q481.567 501.644 480.331 502.127Q479.095 502.61 477.847 503.063Q476.6 503.517 475.342 503.939Q474.084 504.362 472.816 504.754Q471.549 505.147 470.272 505.508Q468.995 505.869 467.71 506.2Q466.424 506.53 465.132 506.83Q463.839 507.129 462.539 507.397Q461.239 507.665 459.933 507.901Q458.628 508.138 457.316 508.342Q456.005 508.547 454.69 508.72Q453.374 508.893 452.054 509.034Q450.735 509.175 449.412 509.284Q448.09 509.394 446.765 509.471Q445.44 509.548 444.114 509.593C417.16 509.71 391.148 501.37 370.484 483.707C349.441 465.722 335.394 439.654 333.364 411.92C331.295 383.644 339.574 355.431 358.21 333.857C379.398 309.33 406.804 297.734 438.707 295.496Z"/>
	<path fill="#FEFEFE" d="M403.334 483.218C385.894 475.515 370.577 460.74 361.538 444.042Q361.02 443.082 360.526 442.11Q360.031 441.137 359.561 440.153Q359.091 439.169 358.646 438.173Q358.2 437.178 357.779 436.171Q357.358 435.165 356.963 434.149Q356.567 433.132 356.196 432.106Q355.825 431.081 355.48 430.046Q355.135 429.011 354.816 427.968Q354.496 426.925 354.202 425.875Q353.909 424.824 353.641 423.767Q353.374 422.709 353.132 421.646Q352.891 420.582 352.676 419.513Q352.461 418.443 352.272 417.369Q352.084 416.294 351.922 415.216Q351.76 414.137 351.625 413.055Q351.49 411.972 351.381 410.887Q351.273 409.801 351.191 408.714Q351.11 407.626 351.055 406.537Q351 405.447 350.972 404.357Q350.945 403.266 350.944 402.175Q350.943 401.085 350.969 399.994Q350.995 398.904 351.049 397.814Q351.102 396.725 351.182 395.637Q351.262 394.549 351.368 393.463Q351.475 392.378 351.609 391.295Q351.743 390.213 351.903 389.134Q352.063 388.055 352.25 386.98Q352.437 385.905 352.651 384.836Q352.864 383.766 353.104 382.702Q353.344 381.638 353.61 380.58Q353.876 379.522 354.168 378.471Q354.46 377.42 354.778 376.377Q355.101 375.336 355.448 374.303Q355.796 373.27 356.169 372.245Q356.542 371.221 356.94 370.206Q357.338 369.191 357.76 368.187Q358.183 367.182 358.629 366.188Q359.076 365.193 359.547 364.21Q360.018 363.227 360.513 362.256Q361.008 361.285 361.526 360.326Q362.044 359.367 362.586 358.421Q363.128 357.476 363.692 356.543Q364.257 355.611 364.844 354.692Q365.431 353.774 366.04 352.87Q366.65 351.967 367.281 351.078Q367.912 350.189 368.565 349.316Q369.217 348.443 369.891 347.587Q370.565 346.73 371.259 345.89Q371.954 345.05 372.669 344.227Q373.383 343.404 374.118 342.599Q374.853 341.794 375.607 341.007Q376.361 340.22 377.134 339.452Q377.907 338.683 378.698 337.934Q379.49 337.185 380.3 336.455Q381.109 335.725 381.936 335.016Q382.763 334.306 383.608 333.617Q384.452 332.927 385.313 332.259Q386.173 331.59 387.05 330.943Q387.927 330.296 388.82 329.67Q389.712 329.044 390.619 328.441Q391.527 327.837 392.449 327.256Q393.37 326.674 394.306 326.116Q395.242 325.557 396.191 325.021Q397.14 324.485 398.102 323.973Q399.119 323.431 400.15 322.914Q401.18 322.398 402.223 321.907Q403.266 321.416 404.321 320.951Q405.376 320.486 406.442 320.048Q407.508 319.61 408.585 319.198Q409.661 318.786 410.748 318.401Q411.834 318.016 412.93 317.659Q414.026 317.301 415.13 316.971Q416.234 316.64 417.347 316.337Q418.459 316.035 419.578 315.76Q420.698 315.484 421.823 315.237Q422.949 314.99 424.081 314.771Q425.213 314.552 426.349 314.361Q427.486 314.17 428.627 314.008Q429.768 313.845 430.913 313.711Q432.058 313.577 433.206 313.472Q434.354 313.366 435.504 313.289Q436.654 313.212 437.806 313.164Q438.957 313.115 440.11 313.096Q441.262 313.076 442.415 313.085Q443.567 313.094 444.719 313.131Q445.872 313.169 447.022 313.235Q448.173 313.301 449.322 313.396Q450.471 313.491 451.617 313.614Q452.763 313.738 453.905 313.89Q455.048 314.041 456.186 314.222Q457.325 314.402 458.458 314.61Q459.592 314.819 460.72 315.055Q461.848 315.292 462.97 315.556Q464.092 315.821 465.207 316.113Q466.322 316.406 467.43 316.726Q468.537 317.046 469.636 317.393Q470.66 317.708 471.675 318.049Q472.691 318.389 473.698 318.755Q474.704 319.121 475.702 319.512Q476.699 319.902 477.686 320.318Q478.674 320.733 479.65 321.173Q480.627 321.613 481.592 322.077Q482.558 322.542 483.511 323.029Q484.465 323.517 485.406 324.029Q486.347 324.541 487.275 325.076Q488.203 325.61 489.118 326.168Q490.032 326.726 490.932 327.307Q491.833 327.887 492.718 328.49Q493.604 329.092 494.474 329.717Q495.344 330.341 496.199 330.987Q497.053 331.633 497.892 332.3Q498.73 332.968 499.551 333.655Q500.372 334.343 501.176 335.051Q501.98 335.759 502.766 336.487Q503.552 337.215 504.32 337.962Q505.087 338.709 505.836 339.475Q506.585 340.241 507.315 341.025Q508.044 341.81 508.754 342.612Q509.464 343.415 510.153 344.234Q510.843 345.054 511.512 345.891Q512.181 346.728 512.829 347.581Q513.477 348.434 514.103 349.303Q514.73 350.172 515.335 351.056Q515.939 351.94 516.522 352.84Q517.104 353.739 517.664 354.652Q518.224 355.565 518.761 356.492Q519.298 357.419 519.812 358.359Q520.326 359.299 520.816 360.252C531.422 380.736 534.492 405.676 527.362 427.798C519.906 450.931 504.416 469.641 482.824 480.778C472.504 486.718 460.631 490.878 448.714 491.907C432.98 493.275 417.586 489.765 403.334 483.218Z"/>
	<path fill="#FC9722" d="M448.978 385.944C465.774 390.005 480.068 398.007 489.216 413.204Q489.926 414.379 490.578 415.587Q491.229 416.796 491.82 418.035Q492.411 419.274 492.94 420.541Q493.469 421.808 493.934 423.099Q494.4 424.391 494.802 425.703Q495.203 427.016 495.539 428.347Q495.875 429.678 496.145 431.024Q496.415 432.371 496.618 433.728Q496.822 435.086 496.957 436.452Q497.093 437.818 497.162 439.19Q497.23 440.561 497.23 441.934Q497.231 443.307 497.163 444.678Q497.096 446.049 496.961 447.415Q496.826 448.781 496.624 450.139Q496.421 451.497 496.152 452.843Q495.883 454.19 495.548 455.521C493.175 464.896 488.426 473.002 482.824 480.778C472.504 486.718 460.631 490.878 448.714 491.907L448.978 385.944Z"/>
	<path fill="#FCA731" d="M403.334 483.218Q402.729 482.623 402.142 482.011C391.434 470.922 384.026 456.625 384.458 440.916Q384.496 439.501 384.604 438.09Q384.712 436.679 384.891 435.275Q385.069 433.871 385.317 432.477Q385.565 431.084 385.883 429.704Q386.2 428.325 386.585 426.963Q386.971 425.601 387.423 424.26Q387.876 422.919 388.395 421.603Q388.914 420.286 389.498 418.997Q390.082 417.707 390.729 416.449Q391.377 415.19 392.086 413.966Q392.795 412.741 393.564 411.553Q394.334 410.365 395.161 409.217Q395.989 408.069 396.872 406.963Q397.756 405.858 398.694 404.798Q399.631 403.738 400.62 402.726Q401.61 401.714 402.648 400.752C416.058 388.321 431.339 385.343 448.978 385.944L448.714 491.907C432.98 493.275 417.586 489.765 403.334 483.218Z"/>
	<path fill="#396296" d="M1263.67 433.765C1269.41 434.994 1279.3 439.888 1281.92 445.566C1282.26 446.311 1282.22 446.322 1282.3 447.014C1288.27 447.204 1294.18 448.469 1300.06 449.504C1300.18 449.337 1300.33 449.185 1300.43 449.004C1301.87 446.458 1301.18 442.664 1300.57 439.965C1302.16 443.806 1302.21 446.232 1300.66 450.192C1300.73 450.344 1300.81 450.495 1300.88 450.65C1304.75 459.422 1299.45 472.878 1300.77 477.385C1301.25 479.01 1302.51 479.863 1304.04 480.48C1310.32 483.014 1319.15 482.145 1325.84 482.112C1329.73 487.968 1333.49 502.783 1337.32 510.712C1338.94 514.069 1343.63 520.656 1343.55 523.937C1343.43 524.244 1343.31 524.554 1343.18 524.856C1340.22 531.606 1325.6 538.045 1328.14 546.009C1331.13 555.376 1352.18 569.172 1357.61 579.731C1362.46 577.69 1378.94 566.58 1380.86 562.102C1388.65 566.035 1395.73 571.576 1403.73 575.026C1410.76 578.059 1419.01 578.926 1425.77 582C1428.34 586.466 1429.74 600.915 1428.45 605.926C1428.35 606.293 1428.09 606.8 1427.95 607.118C1443.02 608.429 1458.05 606.968 1473.12 607.338C1472.31 607.637 1470.29 608.079 1469.93 608.814C1467.64 613.532 1470.82 618.848 1467.88 623.827L1465.56 624.14C1430.17 622.624 1393.48 637.271 1367.55 661.15C1338.42 687.971 1321.7 726.873 1320.1 766.256Q1319.89 771.675 1320.12 777.094Q1320.34 782.512 1320.99 787.896Q1321.65 793.28 1322.72 798.595Q1323.8 803.911 1325.29 809.124C1326.7 814.117 1335.23 831.486 1334.6 834.533C1334.82 834.585 1335.05 834.64 1335.28 834.689C1342.63 836.288 1354.6 832.933 1359.45 840.226C1362.08 844.18 1361.68 849.989 1360.6 854.387C1359.96 857.001 1358.92 860.183 1357 862.132C1357.09 869.189 1348.59 879.231 1343.88 884.099C1328.76 899.727 1308.83 908.449 1287.09 908.695C1242.32 909.202 1197.5 908.601 1152.72 908.677L776.961 908.716L602.104 908.768L548.872 908.742C538.762 908.728 528.351 909.237 518.301 908.23C505.026 906.899 493.556 901.006 482.724 893.554C478.004 889.252 473.912 884.893 469.883 879.938C463.737 871.085 460.554 862.295 457.995 851.94C457.015 846.561 456.782 841.365 456.646 835.92C467.973 835.844 479.31 835.867 490.627 835.331C491.357 821.646 491.077 807.789 491.193 794.079C490.974 783.409 491.205 772.713 491.285 762.041L491.761 758.047C491.959 758.05 492.156 758.056 492.354 758.057C496.749 758.093 500.168 758.492 503.76 755.406C506.943 752.672 508.733 747.941 508.948 743.834C509.144 740.11 508.161 736.218 505.469 733.512C500.498 728.516 486.222 730.476 479.459 730.51L479.354 585.514Q479.262 569.038 479.59 552.564L479.68 542.73C493.455 540.808 509.8 531.474 521.435 524.11C526.622 529.581 532.179 537.126 538.048 541.695C541.682 546.202 545.232 550.819 548.978 555.23C550.465 564.197 549.519 574.647 549.492 583.771L549.329 638.297L549.319 835.819C558.735 835.788 568.226 836.007 577.628 835.518L802.104 835.459L924.076 835.272C943.308 835.273 963.491 834.007 982.627 835.416C993.048 834.305 1004.04 835 1014.52 835.014L1070.25 835.028C1127.48 834.937 1184.89 833.974 1242.1 835.162C1244.99 829.273 1243.5 655.783 1243.21 634.666L1243.88 634.666C1247.21 633.087 1251.58 633.598 1255.2 632.205C1258.81 630.812 1262.08 627.692 1263.41 624.002C1265.65 617.774 1265.48 533.412 1263.29 529.027C1265.52 524.486 1265.23 463.093 1263.47 457.722C1265.51 451.939 1264.96 439.827 1263.67 433.765Z"/>
	<path fill="#113966" d="M802.104 835.459L924.076 835.272C943.308 835.273 963.491 834.007 982.627 835.416C986.271 835.85 990.068 835.761 993.741 835.857C993.936 845.057 995.09 856.888 988.201 864.132C983.354 869.229 974.549 869.841 967.867 869.988C939.245 870.616 910.441 869.893 881.79 869.984C863.008 870.044 842.83 871.554 824.198 869.747C819.014 869.245 812.328 868.608 808.426 864.776C800.866 857.352 802.074 845.122 802.104 835.459Z"/>
	<path fill="#113966" d="M1263.47 457.722C1265.9 458.879 1269.99 461.333 1271.14 463.841C1271.21 463.994 1271.24 464.163 1271.29 464.325C1273.24 467.956 1273.57 528.386 1271.96 533.292C1271.77 533.86 1271.51 534.286 1271.22 534.82C1273.81 542.763 1272.01 608.441 1271.99 623.413C1271.88 691.027 1272.68 758.73 1271.61 826.331C1271.57 828.905 1271.82 832.023 1270.69 834.37C1270.41 834.965 1270.38 834.985 1270.07 835.478L1243.02 835.542C1243.97 833.845 1244.21 832.544 1244.28 830.639C1245.7 788.611 1244.29 746.11 1244.31 704.035L1244.32 658.171C1244.32 650.51 1245.02 642.199 1243.88 634.666C1247.21 633.087 1251.58 633.598 1255.2 632.205C1258.81 630.812 1262.08 627.692 1263.41 624.002C1265.65 617.774 1265.48 533.412 1263.29 529.027C1265.52 524.486 1265.23 463.093 1263.47 457.722Z"/>
	<path fill="#4EC2F2" d="M521.435 524.11C526.622 529.581 532.179 537.126 538.048 541.695C541.682 546.202 545.232 550.819 548.978 555.23C547.954 563.547 548.449 572.349 548.465 580.728C548.496 596.929 548.821 613.168 548.501 629.365L548.559 835.728C535.842 835.77 500.726 837.404 490.627 835.331C491.357 821.646 491.077 807.789 491.193 794.079C490.974 783.409 491.205 772.713 491.285 762.041L491.761 758.047C491.959 758.05 492.156 758.056 492.354 758.057C496.749 758.093 500.168 758.492 503.76 755.406C506.943 752.672 508.733 747.941 508.948 743.834C509.144 740.11 508.161 736.218 505.469 733.512C500.498 728.516 486.222 730.476 479.459 730.51L479.354 585.514Q479.262 569.038 479.59 552.564L479.68 542.73C493.455 540.808 509.8 531.474 521.435 524.11Z"/>
	<path fill="#DCF2F8" d="M521.435 524.11C526.622 529.581 532.179 537.126 538.048 541.695C541.682 546.202 545.232 550.819 548.978 555.23C547.954 563.547 548.449 572.349 548.465 580.728C548.496 596.929 548.821 613.168 548.501 629.365C545.413 624.958 542.345 620.481 538.938 616.314C523.187 597.05 503.854 587.977 479.354 585.514Q479.262 569.038 479.59 552.564L479.68 542.73C493.455 540.808 509.8 531.474 521.435 524.11Z"/>
	<path fill="#4EC2F2" d="M1263.67 433.765C1269.41 434.994 1279.3 439.888 1281.92 445.566C1282.26 446.311 1282.22 446.322 1282.3 447.014C1288.27 447.204 1294.18 448.469 1300.06 449.504C1300.18 449.337 1300.33 449.185 1300.43 449.004C1301.87 446.458 1301.18 442.664 1300.57 439.965C1302.16 443.806 1302.21 446.232 1300.66 450.192C1300.73 450.344 1300.81 450.495 1300.88 450.65C1304.75 459.422 1299.45 472.878 1300.77 477.385C1301.25 479.01 1302.51 479.863 1304.04 480.48C1310.32 483.014 1319.15 482.145 1325.84 482.112C1329.73 487.968 1333.49 502.783 1337.32 510.712C1338.94 514.069 1343.63 520.656 1343.55 523.937C1343.43 524.244 1343.31 524.554 1343.18 524.856C1340.22 531.606 1325.6 538.045 1328.14 546.009C1331.13 555.376 1352.18 569.172 1357.61 579.731C1362.46 577.69 1378.94 566.58 1380.86 562.102C1388.65 566.035 1395.73 571.576 1403.73 575.026C1410.76 578.059 1419.01 578.926 1425.77 582C1428.34 586.466 1429.74 600.915 1428.45 605.926C1428.35 606.293 1428.09 606.8 1427.95 607.118C1443.02 608.429 1458.05 606.968 1473.12 607.338C1472.31 607.637 1470.29 608.079 1469.93 608.814C1467.64 613.532 1470.82 618.848 1467.88 623.827L1465.56 624.14C1430.17 622.624 1393.48 637.271 1367.55 661.15C1338.42 687.971 1321.7 726.873 1320.1 766.256Q1319.89 771.675 1320.12 777.094Q1320.34 782.512 1320.99 787.896Q1321.65 793.28 1322.72 798.595Q1323.8 803.911 1325.29 809.124C1326.7 814.117 1335.23 831.486 1334.6 834.533C1327.92 836.725 1281.2 835.274 1271.02 835.329C1271.43 834.57 1271.8 833.785 1272.02 832.947C1274.06 825.208 1272.6 767.656 1272.6 756.34C1272.63 685.262 1274.07 612.368 1272.55 541.525C1272.5 539.038 1272.38 537.093 1271.22 534.82C1271.51 534.286 1271.77 533.86 1271.96 533.292C1273.57 528.386 1273.24 467.956 1271.29 464.325C1271.24 464.163 1271.21 463.994 1271.14 463.841C1269.99 461.333 1265.9 458.879 1263.47 457.722C1265.51 451.939 1264.96 439.827 1263.67 433.765Z"/>
	<path fill="#80D9F7" d="M1300.06 449.504C1300.18 449.337 1300.33 449.185 1300.43 449.004C1301.87 446.458 1301.18 442.664 1300.57 439.965C1302.16 443.806 1302.21 446.232 1300.66 450.192C1301.48 453.81 1301.96 459.027 1299.82 462.284C1299.67 462.516 1299.5 462.74 1299.35 462.969C1293.31 459.186 1287.59 456.249 1283.12 450.522C1283.21 448.919 1283.04 448.363 1282.3 447.014C1288.27 447.204 1294.18 448.469 1300.06 449.504Z"/>
	<path fill="#396296" d="M1263.67 433.765C1269.41 434.994 1279.3 439.888 1281.92 445.566C1282.26 446.311 1282.22 446.322 1282.3 447.014C1283.04 448.363 1283.21 448.919 1283.12 450.522C1284.03 453.367 1284.52 455.346 1283.08 458.178C1281.72 460.858 1278.1 462.984 1275.28 463.674C1273.97 463.993 1272.62 464.172 1271.29 464.325C1271.24 464.163 1271.21 463.994 1271.14 463.841C1269.99 461.333 1265.9 458.879 1263.47 457.722C1265.51 451.939 1264.96 439.827 1263.67 433.765Z"/>
	<path fill="#FEFEFE" d="M941.034 421.25L1158.31 421.333L1228.04 421.356C1239.52 421.356 1251.47 422.032 1262.89 421.212C1265.17 425.416 1264.9 429.254 1263.67 433.765C1264.96 439.827 1265.51 451.939 1263.47 457.722C1265.23 463.093 1265.52 524.486 1263.29 529.027C1265.48 533.412 1265.65 617.774 1263.41 624.002C1262.08 627.692 1258.81 630.812 1255.2 632.205C1251.58 633.598 1247.21 633.087 1243.88 634.666L1243.21 634.666C1243.5 655.783 1244.99 829.273 1242.1 835.162C1184.89 833.974 1127.48 834.937 1070.25 835.028L1014.52 835.014C1004.04 835 993.048 834.305 982.627 835.416C963.491 834.007 943.308 835.273 924.076 835.272L802.104 835.459L577.628 835.518C568.226 836.007 558.735 835.788 549.319 835.819L549.329 638.297L549.492 583.771C549.519 574.647 550.465 564.197 548.978 555.23C545.232 550.819 541.682 546.202 538.048 541.695C532.179 537.126 526.622 529.581 521.435 524.11C538.027 512.409 550.919 499.865 562.56 483.231C570.303 470.315 576.225 457.306 581.385 443.159C588.387 438.907 596.097 434.413 604.3 433.2C617.206 431.293 631.048 432.202 644.102 432.189L710.732 432.17L940.927 432.075L941.034 421.25Z"/>
	<path fill="#113966" d="M1057.1 794.445C1062.61 794.579 1068.24 794.95 1073.73 794.46C1085.7 794.688 1098.34 795.523 1110.25 794.516C1115.4 794.601 1120.72 794.976 1125.84 794.515C1137.41 794.716 1149.8 795.596 1161.3 794.49C1167.68 794.815 1174.61 793.699 1180.88 794.7C1182.82 795.009 1183.77 796.102 1184.94 797.579C1184.77 798.248 1184.83 798.843 1184.23 799.235C1181.88 800.753 1178.84 801.12 1176.11 801.217C1162.47 801.7 1148.63 801.151 1134.97 801.129L1050.42 801.002C1040.9 800.99 1008.75 802.376 1002.63 800.807C1000.58 800.281 1000.04 799.222 999.018 797.58L999.645 796.17C1004.94 793.1 1016.54 794.56 1022.81 794.623C1034.16 794.636 1045.78 795.117 1057.1 794.445Z"/>
	<path fill="#F45141" d="M1126.22 720.18L1160.57 720.229C1162.75 725.383 1162.8 788.629 1161.3 794.49C1149.8 795.596 1137.41 794.716 1125.84 794.515C1126.2 793.997 1127.15 792.944 1127.3 792.395C1128.51 787.973 1128.53 727.363 1127.37 722.683C1127.14 721.743 1126.76 720.971 1126.22 720.18Z"/>
	<path fill="#FCA731" d="M635.908 776.219Q669.52 775.911 703.134 775.941C713.759 775.929 727.382 774.373 737.583 776.821C740.549 777.533 743.133 779.751 744.628 782.366C746.204 785.123 746.812 788.556 745.728 791.592C744.176 795.939 740.689 797.521 736.812 799.318C724.785 800.097 641.415 800.286 634.953 798.299C631.631 797.277 627.844 795.369 626.376 792.022C625.46 789.931 625.952 787.603 626.722 785.553C628.645 780.437 631.017 778.454 635.908 776.219Z"/>
	<path fill="#4EC2F2" d="M798.072 776.158C817.117 775.255 836.606 776.078 855.695 776.087C868.939 776.093 891.558 774.196 903.59 777.049Q904.18 777.184 904.752 777.382Q905.324 777.579 905.872 777.836Q906.42 778.094 906.937 778.408Q907.454 778.722 907.935 779.089Q908.416 779.457 908.855 779.873Q909.294 780.29 909.686 780.751Q910.078 781.212 910.419 781.712Q910.76 782.212 911.045 782.746C912.619 785.65 912.795 789.321 911.7 792.426C910.285 796.439 906.72 798.203 903.145 799.873C881.433 800.354 859.567 799.715 837.838 799.685C825.666 799.668 810.824 801.369 798.973 798.965C795.733 798.307 792.38 796.622 790.633 793.714C789.344 791.567 789.255 788.998 789.778 786.601C790.911 781.414 793.782 778.897 798.072 776.158Z"/>
	<path fill="#2599DD" d="M1022.71 710.25L1056.84 710.234C1057.64 711.498 1058.11 712.66 1058.25 714.15C1059.05 723.101 1059.48 784.969 1058.06 791.976C1057.86 792.941 1057.55 793.576 1057.1 794.445C1045.78 795.117 1034.16 794.636 1022.81 794.623L1022.71 710.25Z"/>
	<path fill="#2599DD" d="M1073.89 670.87C1085.99 670.859 1098.14 671.103 1110.22 670.792C1110.86 671.935 1111.29 673.008 1111.36 674.321C1112.63 696.947 1111.35 720.295 1111.35 742.986C1111.35 752.863 1112.94 785.202 1110.88 792.909C1110.74 793.453 1110.47 794.008 1110.25 794.516C1098.34 795.523 1085.7 794.688 1073.73 794.46C1074.81 792.957 1075.18 791.745 1075.28 789.919C1076.69 764.832 1075.43 738.961 1075.4 713.802C1075.4 703.091 1076.85 683.824 1075.14 674.059C1074.94 672.93 1074.41 671.88 1073.89 670.87Z"/>
	<path fill="#FCA731" d="M659.5 583.734Q685.864 607.012 712.901 629.504L675.497 687.09L666.143 701.616L664.958 700.714C648.49 688.068 637.461 670.223 634.913 649.426C631.662 622.898 643.873 603.558 659.5 583.734Z"/>
	<path fill="#1FB6BB" d="M562.56 483.231C566.498 486.7 577.051 498.289 581.009 499.272C586.854 508.061 614.462 530.754 623.768 539.251C634.239 548.812 644.225 559.078 654.957 568.316C641.457 582.448 628.959 597.505 615.445 611.614C602.327 600.739 589.999 588.773 577.48 577.211C570.413 570.165 545.276 544.154 538.048 541.695C532.179 537.126 526.622 529.581 521.435 524.11C538.027 512.409 550.919 499.865 562.56 483.231Z"/>
	<path fill="#113966" d="M538.048 541.695C545.276 544.154 570.413 570.165 577.48 577.211L577.628 835.518C568.226 836.007 558.735 835.788 549.319 835.819L549.329 638.297L549.492 583.771C549.519 574.647 550.465 564.197 548.978 555.23C545.232 550.819 541.682 546.202 538.048 541.695Z"/>
	<path fill="#2599DD" d="M725.476 633.439C759.811 634.16 794.283 633.555 828.633 633.588Q828.094 639.253 826.914 644.82Q825.734 650.387 823.928 655.783C815.06 682.406 797.505 702.134 772.561 714.656C767.856 716.94 762.7 718.893 757.672 720.33C728.729 728.599 702.568 722.553 676.877 708.223C692.062 682.807 709.331 658.28 725.476 633.439Z"/>
	<path fill="#F45141" d="M722.229 533.642C722.503 533.599 722.775 533.543 723.051 533.515Q724.189 533.389 725.33 533.29Q726.471 533.191 727.613 533.12Q728.756 533.048 729.9 533.004Q731.045 532.959 732.189 532.942Q733.334 532.925 734.479 532.935Q735.624 532.945 736.769 532.982Q737.913 533.02 739.056 533.084Q740.2 533.149 741.341 533.241Q742.482 533.332 743.621 533.451Q744.76 533.57 745.896 533.716Q747.031 533.862 748.163 534.035Q749.295 534.208 750.423 534.408Q751.55 534.608 752.672 534.835Q753.795 535.062 754.912 535.315Q756.028 535.568 757.139 535.848Q758.249 536.128 759.352 536.434Q760.456 536.741 761.551 537.073Q762.647 537.405 763.735 537.764Q764.822 538.122 765.901 538.507Q766.98 538.891 768.049 539.3Q769.118 539.71 770.177 540.145Q771.236 540.581 772.285 541.041Q773.333 541.501 774.371 541.986Q775.408 542.471 776.433 542.981Q777.459 543.49 778.472 544.024Q779.485 544.558 780.485 545.116Q781.485 545.674 782.472 546.255Q783.458 546.837 784.43 547.442Q785.403 548.047 786.36 548.674Q787.318 549.302 788.261 549.953Q789.203 550.603 790.13 551.276Q791.057 551.948 791.967 552.643C814.626 570.039 825.026 593.676 828.657 621.411L767.368 621.411Q745.15 621.318 722.934 621.63Q691.412 593.734 658.753 567.18C676.39 548.216 696.508 537.248 722.229 533.642Z"/>
	<path fill="#113966" d="M581.385 443.159C588.387 438.907 596.097 434.413 604.3 433.2C617.206 431.293 631.048 432.202 644.102 432.189L710.732 432.17L940.927 432.075C940.875 441.785 940.641 451.532 940.911 461.237L707.219 461.101L639.691 461.143C626.606 461.106 612.965 460.302 599.943 461.469C594.555 461.952 591.001 462.418 586.993 466.301C581.517 471.605 580.829 479.348 580.841 486.547Q580.871 492.91 581.009 499.272C577.051 498.289 566.498 486.7 562.56 483.231C570.303 470.315 576.225 457.306 581.385 443.159Z"/>
	<path fill="#43C4BC" d="M1263.29 529.027C1265.48 533.412 1265.65 617.774 1263.41 624.002C1262.08 627.692 1258.81 630.812 1255.2 632.205C1251.58 633.598 1247.21 633.087 1243.88 634.666L1243.21 634.666C1237.91 632.144 1203.94 633.701 1195.64 633.704L1028.91 633.752Q1007.21 633.617 985.505 633.823C976.576 633.883 967.321 634.459 958.443 633.521C953.645 633.013 949.771 631.953 946.298 628.439C944.423 626.542 942.698 624.305 942.131 621.649C939.764 610.54 941.197 596.983 941.228 585.525L941.165 528.99C970.573 529.505 1259.94 531.073 1263.29 529.027Z"/>
	<path fill="#FEFEFE" d="M975.969 568.823L1151.98 568.964C1153.28 570.925 1153.46 572.914 1153.61 575.195C1153.86 578.87 1154.32 584.459 1151.78 587.407C1143.24 589.494 1112.62 587.668 1102.15 587.639L975.942 587.69L975.969 568.823Z"/>
	<path fill="#FCA731" d="M941.034 421.25L1158.31 421.333L1228.04 421.356C1239.52 421.356 1251.47 422.032 1262.89 421.212C1265.17 425.416 1264.9 429.254 1263.67 433.765C1264.96 439.827 1265.51 451.939 1263.47 457.722C1265.23 463.093 1265.52 524.486 1263.29 529.027C1259.94 531.073 970.573 529.505 941.165 528.99L940.911 461.237C940.641 451.532 940.875 441.785 940.927 432.075L941.034 421.25Z"/>
	<path fill="#FEFEFE" d="M1039.22 460.885C1076.81 460.539 1114.4 461.094 1152 461.006C1152.35 461.535 1152.67 462.07 1152.89 462.669C1154.58 467.116 1154.13 476.298 1152.15 480.569L1087.51 480.338L976.133 480.66L976.13 460.87Q1007.67 461.304 1039.22 460.885Z"/>
</svg>
